<?xml version="1.0" encoding="iso-8859-1"?>
<!-- Generator: Adobe Illustrator 18.0.0, SVG Export Plug-In . SVG Version: 6.00 Build 0)  -->
<!DOCTYPE svg PUBLIC "-//W3C//DTD SVG 1.1//EN" "http://www.w3.org/Graphics/SVG/1.1/DTD/svg11.dtd">
<svg version="1.1" xmlns="http://www.w3.org/2000/svg" xmlns:xlink="http://www.w3.org/1999/xlink" x="0px" y="0px"
	 width="2048" height="2048" viewBox="0 0 6803 6750" style="enable-background:new 0 0 6803 6750;" xml:space="preserve">
<g id="&#x423;&#x437;&#x43A;&#x438;&#x435;_&#x434;&#x43E;&#x440;&#x43E;&#x433;&#x438;">
	<path style="fill:#EAE1D3;stroke:#009345;stroke-width:5;stroke-miterlimit:10;" d="M3230.924,3929.333l109.076,12L3293.689,4926
		l-114.456,7.408l-409.205-475.592c-25.591-30.494-3.381-56.225,23.971-85.149l67.333-69.333L3230.924,3929.333z"/>
</g>
<g id="&#x41A;&#x43E;&#x43F;&#x438;&#x44F;_&#x437;&#x434;&#x430;&#x43D;&#x438;&#x435;">
</g>
<g id="&#x413;&#x430;&#x437;&#x43E;&#x43D;_1_">
	<path style="fill:#A1CE99;stroke:#2E3191;stroke-width:2;stroke-miterlimit:10;" d="M2856.01,4313.333l-97.271,103.44l11.29,31.893
		l82.519,92.536l317.675,381.733l61.897,15.731L3290,4926l2.603-17.179l8.059-170.445c0.615-12.993-16.42-24.023-29.413-24.638l0,0
		l-12.77-0.746l-1.64-0.078c-7.09-0.335-13.109,5.141-13.444,12.23l-0.252,5.34c-0.203,4.284,3.105,7.92,7.389,8.123l6.721,0.318
		l-6.002,126.934l-91.003-4.161l4.345-100.671c0.51-11.805-7.021-22.48-18.327-25.912
		c-100.139-30.398-180.238-112.135-208.421-211.528c-3.802-13.407-15.792-22.853-29.712-23.511l-41.247-1.951l7.228-152.867
		l42.201,1.995c13.803,0.653,26.562-7.471,31.681-20.307c21.449-48.054,64.496-97.35,101.138-135.815
		c26.465-27.781,57.992-60.206,76.257-78.927c8.273-8.479,7.83-22.133-0.97-30.063l0,0c-8.381-7.553-21.249-7.075-29.046,1.08
		L2856.01,4313.333z"/>
	<path style="fill:#A1CE99;stroke:#2E3191;stroke-width:2;stroke-miterlimit:10;" d="M3262.224,4482.347l8.143,0.385l-8.966,189.625
		l-8.143-0.385c-4.069-0.192-7.524,2.95-7.716,7.02l-0.174,3.684c-0.36,7.603,5.512,14.058,13.115,14.417l1.745,0.083l16.675,0.788
		v0c12.493,0.59,23.099-9.058,23.69-21.551l9.174-194.02c0.591-12.493-9.058-23.099-21.551-23.69l0,0l-16.675-0.789l-1.745-0.083
		c-7.603-0.359-14.058,5.513-14.417,13.115l-0.174,3.684C3255.012,4478.7,3258.155,4482.154,3262.224,4482.347z"/>
	<path style="fill:#A1CE99;stroke:#2E3191;stroke-width:2;stroke-miterlimit:10;" d="M3273.289,4227.187l8.143,0.385l-8.966,189.625
		l-8.143-0.385c-4.069-0.192-7.524,2.951-7.716,7.02l-0.174,3.684c-0.359,7.603,5.512,14.058,13.115,14.417l1.745,0.083
		l16.675,0.789l0,0c12.493,0.591,23.099-9.058,23.69-21.551l9.174-194.02c0.591-12.493-9.058-23.099-21.551-23.69l0,0l-16.675-0.789
		l-1.745-0.083c-7.603-0.359-14.058,5.513-14.417,13.116l-0.174,3.684C3266.077,4223.54,3269.22,4226.995,3273.289,4227.187z"/>
	<path style="fill:#A1CE99;stroke:#2E3191;stroke-width:2;stroke-miterlimit:10;" d="M3139.794,4069.551l31.325,29.62
		c3.787,3.581,9.157,4.949,14.196,3.616h0c6.316-1.67,10.834-7.223,11.187-13.746l2.547-47.204l89.965,4.254l-5.421,114.648
		l-8.143-0.385c-4.069-0.192-7.524,2.95-7.716,7.019l-0.174,3.684c-0.36,7.603,5.512,14.058,13.115,14.417l1.745,0.083l16.675,0.789
		c12.493,0.591,23.1-9.058,23.69-21.551l9.174-194.02c0.552-11.663-0.04-32.841-11.319-34.602l-27.474-10.756l-49.832,3.916
		L3209.804,3950l-73.156,89.407C3128.363,4047.471,3131.642,4061.352,3139.794,4069.551z"/>
</g>
<g id="Layer_26">
</g>
<g id="&#x413;&#x430;&#x437;&#x43E;&#x43D;">
</g>
<g id="&#x410;&#x43B;&#x43B;&#x435;&#x44F;">
	<g id="Layer_40">
		<polygon id='test_poly' style="fill:#EAE1D3;stroke:#009345;stroke-width:3;stroke-miterlimit:10;" points="1226.51,3552.55 723.75,3741.75 
			705.349,3729.75 796.25,3219.25 1401.86,3080.906 		"/>
		<polygon style="fill:#EAE1D3;stroke:#009345;stroke-width:3;stroke-miterlimit:10;" points="999.475,3317.801 1022.219,3167.63 
			1401.86,3080.906 1295.72,3366.392 		"/>
		<polygon style="fill:#A1CE99;stroke:#009345;stroke-width:3;stroke-miterlimit:10;" points="796.25,3219.25 889,2695 
			915.833,2679.375 1470,2886.75 1401.86,3080.906 		"/>
		<polygon style="fill:#A1CE99;stroke:#009345;stroke-width:3;stroke-miterlimit:10;" points="1254.192,2805.992 1470,2886.75 
			1401.86,3080.906 1129.268,3143.176 		"/>
		<polygon style="fill:#A1CE99;stroke:#009345;stroke-width:3;stroke-miterlimit:10;" points="910.541,2577.412 944.417,2386.192 
			1355.152,2541.436 1279.545,2744.379 938.5,2616.5 		"/>
		<polygon style="fill:#A1CE99;stroke:#009345;stroke-width:3;stroke-miterlimit:10;" points="1403,2413 1535.727,2051.214 
			1754.25,2140.125 1620.049,2496.832 		"/>
		<polygon style="fill:#A1CE99;stroke:#009345;stroke-width:3;stroke-miterlimit:10;" points="988.797,2135.672 1039.525,1849.324 
			1535.727,2051.214 1442.488,2305.363 		"/>
		<polygon style="fill:#A1CE99;stroke:#009345;stroke-width:3;stroke-miterlimit:10;" points="944.417,2386.192 988.797,2135.672 
			1442.488,2305.363 1355.152,2541.436 		"/>
		<polygon style="fill:#A1CE99;stroke:#009345;stroke-width:3;stroke-miterlimit:10;" points="1279.545,2744.379 1403,2413 
			1620.049,2496.832 1496.333,2825.667 		"/>
		
			<rect x="1037.28" y="3221.559" transform="matrix(0.9892 0.1468 -0.1468 0.9892 490.299 -127.395)" style="fill:#8FC2D8;stroke:#2E3191;stroke-width:2;stroke-miterlimit:10;" width="142.252" height="74.24"/>
		
			<rect x="979.571" y="3386.093" transform="matrix(0.989 0.1478 -0.1478 0.989 520.4169 -121.9915)" style="fill:#8FC2D8;stroke:#2E3191;stroke-width:2;stroke-miterlimit:10;" width="202.901" height="109.013"/>
		
			<rect x="839.341" y="3257.52" transform="matrix(0.989 0.1478 -0.1478 0.989 506.5952 -95.0835)" style="fill:#8FC2D8;stroke:#2E3191;stroke-width:2;stroke-miterlimit:10;" width="107.44" height="207.069"/>
		<polygon style="fill:#A1CE99;stroke:#009345;stroke-width:3;stroke-miterlimit:10;" points="854.218,4689.512 470.237,4543.878 
			724.984,3812.198 1252.61,3616.543 		"/>
		<polygon style="fill:#A1CE99;stroke:#009345;stroke-width:3;stroke-miterlimit:10;" points="1318,5244.667 961.333,5071.333 
			1046,4846.667 1322.667,4950.667 1467.333,5021.929 1822.667,5198.496 2012,5367.333 2472.667,5773.333 2185.333,6010.667 
			1749.86,5625.333 		"/>
		<polygon style="fill:#A1CE99;stroke:#009345;stroke-width:3;stroke-miterlimit:10;" points="1318,5244.667 961.333,5071.333 
			1046,4846.667 1322.667,4950.667 1467.333,5021.929 1822.667,5198.496 2012,5367.333 1749.86,5625.333 		"/>
		<polygon style="fill:#A1CE99;stroke:#009345;stroke-width:3;stroke-miterlimit:10;" points="1318,5244.667 961.333,5071.333 
			1046,4846.667 1322.667,4950.667 1467.333,5021.929 		"/>
		<polygon style="fill:#A1CE99;stroke:#009345;stroke-width:3;stroke-miterlimit:10;" points="643.519,4046.181 724.984,3812.198 
			1252.61,3616.543 1040.256,4188.466 		"/>
		<polygon style="fill:#EAE1D3;stroke:#009345;stroke-width:3;stroke-miterlimit:10;" points="1055.452,3689.654 1252.61,3616.543 
			1201.68,3753.71 		"/>
	</g>
	<g id="Layer_66">
		<g>
			<polygon style="fill:#A1CE99;stroke:#2E3191;stroke-miterlimit:10;" points="4094.23,4384.055 3776.167,3987.181 
				3359.656,3469.282 2933.998,2939.49 2413.352,2291.528 1935.944,1696.574 1197.99,782.876 1187.938,791.031 1926.76,1706.798 
				2404.396,2301.894 2924.282,2948.767 3347.035,3474.873 3763.409,3992.485 4085.009,4393.668 			"/>
			<polygon style="fill:#A1CE99;stroke:#2E3191;stroke-miterlimit:10;" points="4922.23,5425.723 4547.151,4954.7 
				4186.124,4498.719 4156.315,4461.524 4147.021,4471.026 4173.91,4504.569 4534.901,4960.414 4911.805,5433.517 5333.67,5965.599 
				5343.722,5957.444 			"/>
		</g>
		<line style="fill:none;stroke:#2E3191;stroke-miterlimit:10;" x1="4049.695" y1="4430.484" x2="4128.308" y2="4348.529"/>
		<line style="fill:none;stroke:#2E3191;stroke-miterlimit:10;" x1="4111.521" y1="4507.318" x2="4190.747" y2="4426.324"/>
	</g>
	<g id="&#x41E;&#x431;&#x44C;&#x435;&#x43A;&#x442;&#x44B;_1_">
		<g>
			<g>
				<polyline style="fill:none;stroke:#2E3191;stroke-width:2;stroke-miterlimit:10;" points="1451.682,2755.431 1450.639,2758.244 
					1447.826,2757.201 				"/>
				
					<line style="fill:none;stroke:#2E3191;stroke-width:2;stroke-miterlimit:10;stroke-dasharray:5.5301,5.5301;" x1="1442.641" y1="2755.278" x2="1414.124" y2="2744.701"/>
				<polyline style="fill:none;stroke:#2E3191;stroke-width:2;stroke-miterlimit:10;" points="1411.532,2743.74 1408.719,2742.696 
					1409.762,2739.884 				"/>
				
					<line style="fill:none;stroke:#2E3191;stroke-width:2;stroke-miterlimit:10;stroke-dasharray:7.4939,7.4939;" x1="1412.368" y1="2732.857" x2="1416.277" y2="2722.318"/>
				<polyline style="fill:none;stroke:#2E3191;stroke-width:2;stroke-miterlimit:10;" points="1417.58,2718.805 1418.623,2715.992 
					1421.436,2717.036 				"/>
				
					<line style="fill:none;stroke:#2E3191;stroke-width:2;stroke-miterlimit:10;stroke-dasharray:5.5301,5.5301;" x1="1426.621" y1="2718.958" x2="1455.138" y2="2729.535"/>
				<polyline style="fill:none;stroke:#2E3191;stroke-width:2;stroke-miterlimit:10;" points="1457.73,2730.497 1460.543,2731.54 
					1459.5,2734.353 				"/>
				
					<line style="fill:none;stroke:#2E3191;stroke-width:2;stroke-miterlimit:10;stroke-dasharray:7.4939,7.4939;" x1="1456.894" y1="2741.379" x2="1452.985" y2="2751.918"/>
			</g>
		</g>
		<g>
			<g>
				<polyline style="fill:none;stroke:#2E3191;stroke-width:2;stroke-miterlimit:10;" points="1604.589,2342.531 1603.546,2345.344 
					1600.733,2344.301 				"/>
				
					<line style="fill:none;stroke:#2E3191;stroke-width:2;stroke-miterlimit:10;stroke-dasharray:6.2226,6.2226;" x1="1594.899" y1="2342.137" x2="1492.8" y2="2304.27"/>
				<polyline style="fill:none;stroke:#2E3191;stroke-width:2;stroke-miterlimit:10;" points="1489.883,2303.188 1487.07,2302.145 
					1488.113,2299.332 				"/>
				
					<line style="fill:none;stroke:#2E3191;stroke-width:2;stroke-miterlimit:10;stroke-dasharray:5.9943,5.9943;" x1="1490.198" y1="2293.712" x2="1547.521" y2="2139.157"/>
				<polyline style="fill:none;stroke:#2E3191;stroke-width:2;stroke-miterlimit:10;" points="1548.563,2136.347 1549.606,2133.534 
					1552.419,2134.577 				"/>
				
					<line style="fill:none;stroke:#2E3191;stroke-width:2;stroke-miterlimit:10;stroke-dasharray:6.2226,6.2226;" x1="1558.253" y1="2136.741" x2="1660.352" y2="2174.608"/>
				<polyline style="fill:none;stroke:#2E3191;stroke-width:2;stroke-miterlimit:10;" points="1663.269,2175.69 1666.082,2176.733 
					1665.038,2179.546 				"/>
				
					<line style="fill:none;stroke:#2E3191;stroke-width:2;stroke-miterlimit:10;stroke-dasharray:5.9943,5.9943;" x1="1662.954" y1="2185.167" x2="1605.631" y2="2339.721"/>
			</g>
		</g>
		<g>
			<g>
				<polyline style="fill:none;stroke:#2E3191;stroke-width:2;stroke-miterlimit:10;" points="1298.593,2172.78 1297.55,2175.593 
					1294.737,2174.55 				"/>
				
					<line style="fill:none;stroke:#2E3191;stroke-width:2;stroke-miterlimit:10;stroke-dasharray:6.0163,6.0163;" x1="1289.097" y1="2172.458" x2="1133.974" y2="2114.925"/>
				<polyline style="fill:none;stroke:#2E3191;stroke-width:2;stroke-miterlimit:10;" points="1131.154,2113.878 1128.341,2112.835 
					1129.385,2110.022 				"/>
				
					<line style="fill:none;stroke:#2E3191;stroke-width:2;stroke-miterlimit:10;stroke-dasharray:5.7263,5.7263;" x1="1131.376" y1="2104.654" x2="1170.206" y2="1999.96"/>
				<polyline style="fill:none;stroke:#2E3191;stroke-width:2;stroke-miterlimit:10;" points="1171.201,1997.275 1172.245,1994.463 
					1175.057,1995.506 				"/>
				
					<line style="fill:none;stroke:#2E3191;stroke-width:2;stroke-miterlimit:10;stroke-dasharray:6.0163,6.0163;" x1="1180.698" y1="1997.598" x2="1335.82" y2="2055.131"/>
				<polyline style="fill:none;stroke:#2E3191;stroke-width:2;stroke-miterlimit:10;" points="1338.641,2056.177 1341.453,2057.22 
					1340.41,2060.033 				"/>
				
					<line style="fill:none;stroke:#2E3191;stroke-width:2;stroke-miterlimit:10;stroke-dasharray:5.7263,5.7263;" x1="1338.419" y1="2065.402" x2="1299.589" y2="2170.096"/>
			</g>
		</g>
		<g>
			<g>
				<polyline style="fill:none;stroke:#2E3191;stroke-width:2;stroke-miterlimit:10;" points="1184.575,2045.656 1183.532,2048.469 
					1180.719,2047.426 				"/>
				
					<line style="fill:none;stroke:#2E3191;stroke-width:2;stroke-miterlimit:10;stroke-dasharray:4.6726,4.6726;" x1="1176.338" y1="2045.801" x2="1161.005" y2="2040.114"/>
				<polyline style="fill:none;stroke:#2E3191;stroke-width:2;stroke-miterlimit:10;" points="1158.814,2039.302 1156.001,2038.258 
					1157.044,2035.446 				"/>
				
					<line style="fill:none;stroke:#2E3191;stroke-width:2;stroke-miterlimit:10;stroke-dasharray:5.8159,5.8159;" x1="1159.067" y1="2029.993" x2="1170.19" y2="2000.002"/>
				<polyline style="fill:none;stroke:#2E3191;stroke-width:2;stroke-miterlimit:10;" points="1171.201,1997.275 1172.245,1994.463 
					1175.057,1995.506 				"/>
				
					<line style="fill:none;stroke:#2E3191;stroke-width:2;stroke-miterlimit:10;stroke-dasharray:4.6726,4.6726;" x1="1179.438" y1="1997.131" x2="1194.772" y2="2002.818"/>
				<polyline style="fill:none;stroke:#2E3191;stroke-width:2;stroke-miterlimit:10;" points="1196.963,2003.63 1199.775,2004.673 
					1198.732,2007.486 				"/>
				
					<line style="fill:none;stroke:#2E3191;stroke-width:2;stroke-miterlimit:10;stroke-dasharray:5.8159,5.8159;" x1="1196.71" y1="2012.939" x2="1185.586" y2="2042.93"/>
			</g>
		</g>
		<g>
			<g>
				<polyline style="fill:none;stroke:#2E3191;stroke-width:2;stroke-miterlimit:10;" points="1255.063,2422.644 1254.02,2425.457 
					1251.208,2424.413 				"/>
				
					<line style="fill:none;stroke:#2E3191;stroke-width:2;stroke-miterlimit:10;stroke-dasharray:6.0163,6.0163;" x1="1245.567" y1="2422.321" x2="1090.445" y2="2364.788"/>
				<polyline style="fill:none;stroke:#2E3191;stroke-width:2;stroke-miterlimit:10;" points="1087.624,2363.742 1084.812,2362.699 
					1085.855,2359.886 				"/>
				
					<line style="fill:none;stroke:#2E3191;stroke-width:2;stroke-miterlimit:10;stroke-dasharray:5.7263,5.7263;" x1="1087.846" y1="2354.517" x2="1126.676" y2="2249.823"/>
				<polyline style="fill:none;stroke:#2E3191;stroke-width:2;stroke-miterlimit:10;" points="1127.672,2247.139 1128.715,2244.326 
					1131.527,2245.369 				"/>
				
					<line style="fill:none;stroke:#2E3191;stroke-width:2;stroke-miterlimit:10;stroke-dasharray:6.0163,6.0163;" x1="1137.168" y1="2247.461" x2="1292.29" y2="2304.995"/>
				<polyline style="fill:none;stroke:#2E3191;stroke-width:2;stroke-miterlimit:10;" points="1295.111,2306.041 1297.924,2307.084 
					1296.88,2309.897 				"/>
				
					<line style="fill:none;stroke:#2E3191;stroke-width:2;stroke-miterlimit:10;stroke-dasharray:5.7263,5.7263;" x1="1294.889" y1="2315.266" x2="1256.059" y2="2419.959"/>
			</g>
		</g>
		<g>
			<g>
				<polyline style="fill:none;stroke:#2E3191;stroke-width:2;stroke-miterlimit:10;" points="1141.045,2295.52 1140.002,2298.333 
					1137.189,2297.29 				"/>
				
					<line style="fill:none;stroke:#2E3191;stroke-width:2;stroke-miterlimit:10;stroke-dasharray:4.6726,4.6726;" x1="1132.808" y1="2295.665" x2="1117.475" y2="2289.978"/>
				<polyline style="fill:none;stroke:#2E3191;stroke-width:2;stroke-miterlimit:10;" points="1115.284,2289.165 1112.471,2288.122 
					1113.515,2285.309 				"/>
				
					<line style="fill:none;stroke:#2E3191;stroke-width:2;stroke-miterlimit:10;stroke-dasharray:5.8159,5.8159;" x1="1115.537" y1="2279.856" x2="1126.66" y2="2249.865"/>
				<polyline style="fill:none;stroke:#2E3191;stroke-width:2;stroke-miterlimit:10;" points="1127.672,2247.139 1128.715,2244.326 
					1131.527,2245.369 				"/>
				
					<line style="fill:none;stroke:#2E3191;stroke-width:2;stroke-miterlimit:10;stroke-dasharray:4.6726,4.6726;" x1="1135.909" y1="2246.994" x2="1151.242" y2="2252.681"/>
				<polyline style="fill:none;stroke:#2E3191;stroke-width:2;stroke-miterlimit:10;" points="1153.433,2253.494 1156.245,2254.537 
					1155.202,2257.35 				"/>
				
					<line style="fill:none;stroke:#2E3191;stroke-width:2;stroke-miterlimit:10;stroke-dasharray:5.8159,5.8159;" x1="1153.18" y1="2262.802" x2="1142.056" y2="2292.793"/>
			</g>
		</g>
		<g>
			<g>
				<polyline style="fill:none;stroke:#2E3191;stroke-width:2;stroke-miterlimit:10;" points="1212.078,2668.525 1211.034,2671.338 
					1208.222,2670.295 				"/>
				
					<line style="fill:none;stroke:#2E3191;stroke-width:2;stroke-miterlimit:10;stroke-dasharray:6.0163,6.0163;" x1="1202.581" y1="2668.203" x2="1047.459" y2="2610.67"/>
				<polyline style="fill:none;stroke:#2E3191;stroke-width:2;stroke-miterlimit:10;" points="1044.638,2609.624 1041.826,2608.58 
					1042.869,2605.768 				"/>
				
					<line style="fill:none;stroke:#2E3191;stroke-width:2;stroke-miterlimit:10;stroke-dasharray:5.7263,5.7263;" x1="1044.86" y1="2600.399" x2="1083.69" y2="2495.705"/>
				<polyline style="fill:none;stroke:#2E3191;stroke-width:2;stroke-miterlimit:10;" points="1084.686,2493.02 1085.729,2490.208 
					1088.542,2491.251 				"/>
				
					<line style="fill:none;stroke:#2E3191;stroke-width:2;stroke-miterlimit:10;stroke-dasharray:6.0163,6.0163;" x1="1094.182" y1="2493.343" x2="1249.304" y2="2550.876"/>
				<polyline style="fill:none;stroke:#2E3191;stroke-width:2;stroke-miterlimit:10;" points="1252.125,2551.922 1254.938,2552.966 
					1253.894,2555.778 				"/>
				
					<line style="fill:none;stroke:#2E3191;stroke-width:2;stroke-miterlimit:10;stroke-dasharray:5.7263,5.7263;" x1="1251.903" y1="2561.147" x2="1213.073" y2="2665.841"/>
			</g>
		</g>
		<g>
			<g>
				<polyline style="fill:none;stroke:#2E3191;stroke-width:2;stroke-miterlimit:10;" points="1098.059,2541.402 1097.016,2544.214 
					1094.203,2543.171 				"/>
				
					<line style="fill:none;stroke:#2E3191;stroke-width:2;stroke-miterlimit:10;stroke-dasharray:4.6726,4.6726;" x1="1089.822" y1="2541.546" x2="1074.489" y2="2535.859"/>
				<polyline style="fill:none;stroke:#2E3191;stroke-width:2;stroke-miterlimit:10;" points="1072.298,2535.047 1069.485,2534.003 
					1070.529,2531.191 				"/>
				
					<line style="fill:none;stroke:#2E3191;stroke-width:2;stroke-miterlimit:10;stroke-dasharray:5.8159,5.8159;" x1="1072.551" y1="2525.738" x2="1083.674" y2="2495.747"/>
				<polyline style="fill:none;stroke:#2E3191;stroke-width:2;stroke-miterlimit:10;" points="1084.686,2493.02 1085.729,2490.208 
					1088.542,2491.251 				"/>
				
					<line style="fill:none;stroke:#2E3191;stroke-width:2;stroke-miterlimit:10;stroke-dasharray:4.6726,4.6726;" x1="1092.923" y1="2492.876" x2="1108.256" y2="2498.563"/>
				<polyline style="fill:none;stroke:#2E3191;stroke-width:2;stroke-miterlimit:10;" points="1110.447,2499.375 1113.259,2500.418 
					1112.216,2503.231 				"/>
				
					<line style="fill:none;stroke:#2E3191;stroke-width:2;stroke-miterlimit:10;stroke-dasharray:5.8159,5.8159;" x1="1110.194" y1="2508.684" x2="1099.07" y2="2538.675"/>
			</g>
		</g>
		<g>
			<g>
				<polyline style="fill:none;stroke:#2E3191;stroke-width:2;stroke-miterlimit:10;" points="1077.192,2979.302 1076.148,2982.115 
					1073.336,2981.072 				"/>
				
					<line style="fill:none;stroke:#2E3191;stroke-width:2;stroke-miterlimit:10;stroke-dasharray:6.2791,6.2791;" x1="1067.448" y1="2978.888" x2="964.421" y2="2940.677"/>
				<polyline style="fill:none;stroke:#2E3191;stroke-width:2;stroke-miterlimit:10;" points="961.478,2939.585 958.665,2938.542 
					959.708,2935.729 				"/>
				
					<line style="fill:none;stroke:#2E3191;stroke-width:2;stroke-miterlimit:10;stroke-dasharray:5.9981,5.9981;" x1="961.794" y1="2930.105" x2="1019.154" y2="2775.451"/>
				<polyline style="fill:none;stroke:#2E3191;stroke-width:2;stroke-miterlimit:10;" points="1020.196,2772.639 1021.24,2769.826 
					1024.052,2770.87 				"/>
				
					<line style="fill:none;stroke:#2E3191;stroke-width:2;stroke-miterlimit:10;stroke-dasharray:6.2791,6.2791;" x1="1029.94" y1="2773.053" x2="1132.967" y2="2811.265"/>
				<polyline style="fill:none;stroke:#2E3191;stroke-width:2;stroke-miterlimit:10;" points="1135.91,2812.357 1138.723,2813.4 
					1137.68,2816.213 				"/>
				
					<line style="fill:none;stroke:#2E3191;stroke-width:2;stroke-miterlimit:10;stroke-dasharray:5.9981,5.9981;" x1="1135.594" y1="2821.836" x2="1078.234" y2="2976.49"/>
			</g>
		</g>
		<g>
			
				<rect x="892.419" y="3849.508" transform="matrix(0.9376 0.3477 -0.3477 0.9376 1438.5785 -90.4972)" style="fill:#B6B6B7;" width="157.982" height="226.105"/>
			<g>
				<polyline style="fill:none;stroke:#2E3191;stroke-width:2;stroke-miterlimit:10;" points="1007.201,4093.213 1006.158,4096.026 
					1003.345,4094.983 				"/>
				
					<line style="fill:none;stroke:#2E3191;stroke-width:2;stroke-miterlimit:10;stroke-dasharray:6.0793,6.0793;" x1="997.645" y1="4092.869" x2="863.698" y2="4043.189"/>
				<polyline style="fill:none;stroke:#2E3191;stroke-width:2;stroke-miterlimit:10;" points="860.848,4042.132 858.036,4041.089 
					859.079,4038.276 				"/>
				
					<line style="fill:none;stroke:#2E3191;stroke-width:2;stroke-miterlimit:10;stroke-dasharray:5.9488,5.9488;" x1="861.147" y1="4032.699" x2="934.585" y2="3834.697"/>
				<polyline style="fill:none;stroke:#2E3191;stroke-width:2;stroke-miterlimit:10;" points="935.619,3831.908 936.662,3829.095 
					939.475,3830.138 				"/>
				
					<line style="fill:none;stroke:#2E3191;stroke-width:2;stroke-miterlimit:10;stroke-dasharray:6.0793,6.0793;" x1="945.175" y1="3832.252" x2="1079.122" y2="3881.932"/>
				<polyline style="fill:none;stroke:#2E3191;stroke-width:2;stroke-miterlimit:10;" points="1081.971,3882.989 1084.784,3884.032 
					1083.741,3886.845 				"/>
				
					<line style="fill:none;stroke:#2E3191;stroke-width:2;stroke-miterlimit:10;stroke-dasharray:5.9488,5.9488;" x1="1081.672" y1="3892.422" x2="1008.235" y2="4090.425"/>
			</g>
		</g>
		<g>
			<g>
				<polyline style="fill:none;stroke:#2E3191;stroke-width:2;stroke-miterlimit:10;" points="975.423,3878.621 974.379,3881.434 
					971.567,3880.391 				"/>
				
					<line style="fill:none;stroke:#2E3191;stroke-width:2;stroke-miterlimit:10;stroke-dasharray:6.7948,6.7948;" x1="965.196" y1="3878.028" x2="930.157" y2="3865.032"/>
				<polyline style="fill:none;stroke:#2E3191;stroke-width:2;stroke-miterlimit:10;" points="926.971,3863.851 924.159,3862.807 
					925.202,3859.995 				"/>
				
					<line style="fill:none;stroke:#2E3191;stroke-width:2;stroke-miterlimit:10;stroke-dasharray:5.9913,5.9913;" x1="927.285" y1="3854.377" x2="934.577" y2="3834.716"/>
				<polyline style="fill:none;stroke:#2E3191;stroke-width:2;stroke-miterlimit:10;" points="935.619,3831.908 936.662,3829.095 
					939.475,3830.138 				"/>
				
					<line style="fill:none;stroke:#2E3191;stroke-width:2;stroke-miterlimit:10;stroke-dasharray:6.7948,6.7948;" x1="945.846" y1="3832.501" x2="980.885" y2="3845.497"/>
				<polyline style="fill:none;stroke:#2E3191;stroke-width:2;stroke-miterlimit:10;" points="984.07,3846.678 986.883,3847.721 
					985.84,3850.534 				"/>
				
					<line style="fill:none;stroke:#2E3191;stroke-width:2;stroke-miterlimit:10;stroke-dasharray:5.9913,5.9913;" x1="983.756" y1="3856.152" x2="976.464" y2="3875.812"/>
			</g>
		</g>
		<g>
			
				<rect x="770.625" y="4195.084" transform="matrix(0.9376 0.3477 -0.3477 0.9376 1551.149 -26.5767)" style="fill:#B6B6B7;" width="157.982" height="226.105"/>
			<g>
				<polyline style="fill:none;stroke:#2E3191;stroke-width:2;stroke-miterlimit:10;" points="885.407,4438.79 884.364,4441.603 
					881.551,4440.559 				"/>
				
					<line style="fill:none;stroke:#2E3191;stroke-width:2;stroke-miterlimit:10;stroke-dasharray:6.0793,6.0793;" x1="875.851" y1="4438.445" x2="741.904" y2="4388.766"/>
				<polyline style="fill:none;stroke:#2E3191;stroke-width:2;stroke-miterlimit:10;" points="739.054,4387.708 736.242,4386.666 
					737.285,4383.853 				"/>
				
					<line style="fill:none;stroke:#2E3191;stroke-width:2;stroke-miterlimit:10;stroke-dasharray:5.9488,5.9488;" x1="739.353" y1="4378.275" x2="812.791" y2="4180.273"/>
				<polyline style="fill:none;stroke:#2E3191;stroke-width:2;stroke-miterlimit:10;" points="813.825,4177.484 814.868,4174.671 
					817.681,4175.714 				"/>
				
					<line style="fill:none;stroke:#2E3191;stroke-width:2;stroke-miterlimit:10;stroke-dasharray:6.0793,6.0793;" x1="823.381" y1="4177.829" x2="957.328" y2="4227.508"/>
				<polyline style="fill:none;stroke:#2E3191;stroke-width:2;stroke-miterlimit:10;" points="960.177,4228.565 962.99,4229.608 
					961.947,4232.421 				"/>
				
					<line style="fill:none;stroke:#2E3191;stroke-width:2;stroke-miterlimit:10;stroke-dasharray:5.9488,5.9488;" x1="959.878" y1="4237.999" x2="886.441" y2="4436.001"/>
			</g>
		</g>
		<g>
			<g>
				<polyline style="fill:none;stroke:#2E3191;stroke-width:2;stroke-miterlimit:10;" points="853.629,4224.198 852.585,4227.01 
					849.773,4225.967 				"/>
				
					<line style="fill:none;stroke:#2E3191;stroke-width:2;stroke-miterlimit:10;stroke-dasharray:6.7948,6.7948;" x1="843.402" y1="4223.604" x2="808.363" y2="4210.608"/>
				<polyline style="fill:none;stroke:#2E3191;stroke-width:2;stroke-miterlimit:10;" points="805.177,4209.427 802.365,4208.384 
					803.408,4205.571 				"/>
				
					<line style="fill:none;stroke:#2E3191;stroke-width:2;stroke-miterlimit:10;stroke-dasharray:5.9913,5.9913;" x1="805.491" y1="4199.954" x2="812.783" y2="4180.293"/>
				<polyline style="fill:none;stroke:#2E3191;stroke-width:2;stroke-miterlimit:10;" points="813.825,4177.484 814.868,4174.671 
					817.681,4175.715 				"/>
				
					<line style="fill:none;stroke:#2E3191;stroke-width:2;stroke-miterlimit:10;stroke-dasharray:6.7948,6.7948;" x1="824.052" y1="4178.078" x2="859.091" y2="4191.073"/>
				<polyline style="fill:none;stroke:#2E3191;stroke-width:2;stroke-miterlimit:10;" points="862.276,4192.255 865.089,4193.298 
					864.046,4196.111 				"/>
				
					<line style="fill:none;stroke:#2E3191;stroke-width:2;stroke-miterlimit:10;stroke-dasharray:5.9913,5.9913;" x1="861.962" y1="4201.728" x2="854.67" y2="4221.389"/>
			</g>
		</g>
		<g>
			<g>
				<polyline style="fill:none;stroke:#2E3191;stroke-width:2;stroke-miterlimit:10;" points="1054.907,2808.793 1053.864,2811.606 
					1051.052,2810.563 				"/>
				
					<line style="fill:none;stroke:#2E3191;stroke-width:2;stroke-miterlimit:10;stroke-dasharray:5.5882,5.5882;" x1="1045.812" y1="2808.62" x2="1016.995" y2="2797.932"/>
				<polyline style="fill:none;stroke:#2E3191;stroke-width:2;stroke-miterlimit:10;" points="1014.376,2796.96 1011.563,2795.917 
					1012.606,2793.104 				"/>
				
					<line style="fill:none;stroke:#2E3191;stroke-width:2;stroke-miterlimit:10;stroke-dasharray:7.2757,7.2757;" x1="1015.136" y1="2786.282" x2="1018.931" y2="2776.05"/>
				<polyline style="fill:none;stroke:#2E3191;stroke-width:2;stroke-miterlimit:10;" points="1020.196,2772.639 1021.24,2769.826 
					1024.052,2770.87 				"/>
				
					<line style="fill:none;stroke:#2E3191;stroke-width:2;stroke-miterlimit:10;stroke-dasharray:5.5882,5.5882;" x1="1029.292" y1="2772.813" x2="1058.109" y2="2783.501"/>
				<polyline style="fill:none;stroke:#2E3191;stroke-width:2;stroke-miterlimit:10;" points="1060.728,2784.472 1063.541,2785.516 
					1062.498,2788.328 				"/>
				
					<line style="fill:none;stroke:#2E3191;stroke-width:2;stroke-miterlimit:10;stroke-dasharray:7.2757,7.2757;" x1="1059.968" y1="2795.15" x2="1056.172" y2="2805.383"/>
			</g>
		</g>
		<g>
			<g>
				<polyline style="fill:none;stroke:#2E3191;stroke-width:2;stroke-miterlimit:10;" points="1336.153,3078.078 1335.109,3080.891 
					1332.297,3079.848 				"/>
				
					<line style="fill:none;stroke:#2E3191;stroke-width:2;stroke-miterlimit:10;stroke-dasharray:6.2791,6.2791;" x1="1326.409" y1="3077.664" x2="1223.382" y2="3039.452"/>
				<polyline style="fill:none;stroke:#2E3191;stroke-width:2;stroke-miterlimit:10;" points="1220.439,3038.361 1217.626,3037.317 
					1218.669,3034.505 				"/>
				
					<line style="fill:none;stroke:#2E3191;stroke-width:2;stroke-miterlimit:10;stroke-dasharray:5.9981,5.9981;" x1="1220.755" y1="3028.881" x2="1278.115" y2="2874.227"/>
				<polyline style="fill:none;stroke:#2E3191;stroke-width:2;stroke-miterlimit:10;" points="1279.158,2871.415 1280.201,2868.602 
					1283.014,2869.646 				"/>
				
					<line style="fill:none;stroke:#2E3191;stroke-width:2;stroke-miterlimit:10;stroke-dasharray:6.2791,6.2791;" x1="1288.901" y1="2871.829" x2="1391.928" y2="2910.041"/>
				<polyline style="fill:none;stroke:#2E3191;stroke-width:2;stroke-miterlimit:10;" points="1394.872,2911.133 1397.684,2912.176 
					1396.641,2914.989 				"/>
				
					<line style="fill:none;stroke:#2E3191;stroke-width:2;stroke-miterlimit:10;stroke-dasharray:5.9981,5.9981;" x1="1394.555" y1="2920.612" x2="1337.196" y2="3075.266"/>
			</g>
		</g>
		<g>
			<g>
				<polyline style="fill:none;stroke:#2E3191;stroke-width:2;stroke-miterlimit:10;" points="1313.869,2907.569 1312.825,2910.382 
					1310.013,2909.339 				"/>
				
					<line style="fill:none;stroke:#2E3191;stroke-width:2;stroke-miterlimit:10;stroke-dasharray:5.5882,5.5882;" x1="1304.773" y1="2907.396" x2="1275.957" y2="2896.708"/>
				<polyline style="fill:none;stroke:#2E3191;stroke-width:2;stroke-miterlimit:10;" points="1273.337,2895.736 1270.524,2894.693 
					1271.567,2891.88 				"/>
				
					<line style="fill:none;stroke:#2E3191;stroke-width:2;stroke-miterlimit:10;stroke-dasharray:7.2757,7.2757;" x1="1274.097" y1="2885.058" x2="1277.893" y2="2874.826"/>
				<polyline style="fill:none;stroke:#2E3191;stroke-width:2;stroke-miterlimit:10;" points="1279.158,2871.415 1280.201,2868.602 
					1283.014,2869.646 				"/>
				
					<line style="fill:none;stroke:#2E3191;stroke-width:2;stroke-miterlimit:10;stroke-dasharray:5.5882,5.5882;" x1="1288.253" y1="2871.589" x2="1317.07" y2="2882.277"/>
				<polyline style="fill:none;stroke:#2E3191;stroke-width:2;stroke-miterlimit:10;" points="1319.689,2883.248 1322.502,2884.292 
					1321.459,2887.104 				"/>
				
					<line style="fill:none;stroke:#2E3191;stroke-width:2;stroke-miterlimit:10;stroke-dasharray:7.2757,7.2757;" x1="1318.929" y1="2893.926" x2="1315.134" y2="2904.158"/>
			</g>
		</g>
		<g>
			<g>
				<polyline style="fill:none;stroke:#2E3191;stroke-width:2;stroke-miterlimit:10;" points="1657.542,2199.758 1656.499,2202.571 
					1653.686,2201.528 				"/>
				
					<line style="fill:none;stroke:#2E3191;stroke-width:2;stroke-miterlimit:10;stroke-dasharray:5.6203,5.6203;" x1="1648.417" y1="2199.573" x2="1619.434" y2="2188.824"/>
				<polyline style="fill:none;stroke:#2E3191;stroke-width:2;stroke-miterlimit:10;" points="1616.799,2187.847 1613.987,2186.804 
					1615.03,2183.991 				"/>
				
					<line style="fill:none;stroke:#2E3191;stroke-width:2;stroke-miterlimit:10;stroke-dasharray:7.1858,7.1858;" x1="1617.529" y1="2177.254" x2="1621.277" y2="2167.148"/>
				<polyline style="fill:none;stroke:#2E3191;stroke-width:2;stroke-miterlimit:10;" points="1622.526,2163.779 1623.57,2160.966 
					1626.382,2162.01 				"/>
				
					<line style="fill:none;stroke:#2E3191;stroke-width:2;stroke-miterlimit:10;stroke-dasharray:5.6203,5.6203;" x1="1631.652" y1="2163.964" x2="1660.634" y2="2174.713"/>
				<polyline style="fill:none;stroke:#2E3191;stroke-width:2;stroke-miterlimit:10;" points="1663.269,2175.69 1666.082,2176.733 
					1665.038,2179.546 				"/>
				
					<line style="fill:none;stroke:#2E3191;stroke-width:2;stroke-miterlimit:10;stroke-dasharray:7.1858,7.1858;" x1="1662.54" y1="2186.284" x2="1658.791" y2="2196.39"/>
			</g>
		</g>
		<g>
			<g>
				<polyline style="fill:none;stroke:#2E3191;stroke-width:2;stroke-miterlimit:10;" points="1451.682,2755.431 1450.639,2758.244 
					1447.826,2757.201 				"/>
				
					<line style="fill:none;stroke:#2E3191;stroke-width:2;stroke-miterlimit:10;stroke-dasharray:6.2226,6.2226;" x1="1441.992" y1="2755.037" x2="1339.893" y2="2717.17"/>
				<polyline style="fill:none;stroke:#2E3191;stroke-width:2;stroke-miterlimit:10;" points="1336.976,2716.088 1334.164,2715.045 
					1335.207,2712.232 				"/>
				
					<line style="fill:none;stroke:#2E3191;stroke-width:2;stroke-miterlimit:10;stroke-dasharray:5.9943,5.9943;" x1="1337.291" y1="2706.612" x2="1394.614" y2="2552.057"/>
				<polyline style="fill:none;stroke:#2E3191;stroke-width:2;stroke-miterlimit:10;" points="1395.656,2549.247 1396.7,2546.434 
					1399.512,2547.477 				"/>
				
					<line style="fill:none;stroke:#2E3191;stroke-width:2;stroke-miterlimit:10;stroke-dasharray:6.2226,6.2226;" x1="1405.347" y1="2549.641" x2="1507.445" y2="2587.508"/>
				<polyline style="fill:none;stroke:#2E3191;stroke-width:2;stroke-miterlimit:10;" points="1510.362,2588.59 1513.175,2589.634 
					1512.132,2592.446 				"/>
				
					<line style="fill:none;stroke:#2E3191;stroke-width:2;stroke-miterlimit:10;stroke-dasharray:5.9943,5.9943;" x1="1510.047" y1="2598.066" x2="1452.724" y2="2752.621"/>
			</g>
		</g>
		
			<rect x="2805.694" y="4405.993" transform="matrix(0.7054 0.7088 -0.7088 0.7054 3962.7534 -692.7372)" style="fill:#FF0000;stroke:#2E3191;stroke-width:2;stroke-miterlimit:10;" width="18.22" height="30.397"/>
	</g>
	<path style="fill:#EAB28C;stroke:#BE1E2D;stroke-width:2;stroke-miterlimit:10;" d="M4189.304,3622h-33.941
		c-11.75,0-21.363-9.613-21.363-21.363v-497.274c0-11.75,9.613-21.363,21.363-21.363h33.941c11.75,0,21.363,9.613,21.363,21.363
		v497.274C4210.667,3612.387,4201.053,3622,4189.304,3622z"/>
</g>
<g id="&#x413;&#x430;&#x437;&#x43E;&#x43D;&#x44B;">
</g>
<g id="&#x421;&#x43A;&#x43B;&#x430;&#x434;_1">
	<path style="fill:#EAB28C;stroke:#BE1E2D;stroke-width:2;stroke-miterlimit:10;" d="M4867.333,2346h-1390c-12.65,0-23,10.35-23,23
		v389c0,12.65,10.35,23,23,23h58l187.285,37.977c110.845,149.911,271.266,244.129,449.715,244.129
		c177.942,0,337.954-93.688,448.765-242.856l184.882-37.15l61.353-2.1c12.65,0,23-10.35,23-23v-389
		C4890.333,2356.35,4879.983,2346,4867.333,2346z"/>
	<polygon style="fill:#8FC2D8;stroke:#2E3191;stroke-width:2;stroke-miterlimit:10;" points="4874.194,2561.5 4874.194,2357.5 
		4451.194,2357.5 4451.194,2409.333 4321.194,2409.333 4321.194,2357.5 4280.86,2357.5 4280.86,2449.333 4060.667,2449.333 
		4060.667,2357.5 4020.333,2357.5 4020.333,2409.333 3890.333,2409.333 3890.333,2357.5 3468.333,2357.5 3468.333,2561.5 
		3514,2561.5 3514,2672 3468.333,2672 3468.333,2763.75 3517,2763.75 4005,2863.75 3994.27,2910.35 4061.641,2923.164 
		4109.707,2883.011 4110.358,2851.885 4231.169,2851.885 4231.82,2883.011 4279.887,2923.164 4347.258,2910.35 4336.527,2863.75 
		4824.527,2763.75 4874.194,2763.75 4874.194,2672 4827.527,2672 4827.527,2561.5 	"/>
	
		<rect x="4110" y="2449.5" style="fill:#8FC2D8;stroke:#2E3191;stroke-width:2;stroke-miterlimit:10;" width="121.169" height="402.385"/>
	
		<rect x="3514" y="2561.5" style="fill:#8FC2D8;stroke:#2E3191;stroke-width:2;stroke-miterlimit:10;" width="1313.194" height="110.167"/>
	<polygon style="fill:#8FC2D8;stroke:#2E3191;stroke-width:2;stroke-miterlimit:10;" points="4231.169,2671.667 4231.82,2883.011 
		4279.887,2923.164 4347.258,2910.35 4292,2671.667 	"/>
</g>
<g id="&#x421;&#x43A;&#x43B;&#x430;&#x434;_2">
	<path style="fill:#EAB28C;stroke:#BE1E2D;stroke-width:2;stroke-miterlimit:10;" d="M4660.526,2313.144H3644.579
		c-12.65,0-23-10.35-23-23v-435.476c0-12.65,10.35-23,23-23h1015.947c12.65,0,23,10.35,23,23v435.476
		C4683.526,2302.793,4673.176,2313.144,4660.526,2313.144z"/>
	<polygon style="fill:#8FC2D8;stroke:#2E3191;stroke-width:2;stroke-miterlimit:10;" points="3994.27,2910.35 4049.333,2671.667 
		4110,2671.667 4109.707,2883.011 4061.641,2923.164 	"/>
	<polygon style="fill:#8FC2D8;stroke:#2E3191;stroke-width:2;stroke-miterlimit:10;" points="3635,1844 3635,2300 3890.333,2300 
		3890.333,2247 4020.333,2247 4020.333,2300 4321.333,2300 4321.333,2247 4451.333,2247 4451.333,2300 4673.764,2300 4673.764,1844 
			"/>
	
		<rect x="4060.667" y="1844.382" style="fill:#8FC2D8;stroke:#2E3191;stroke-width:2;stroke-miterlimit:10;" width="220.194" height="454.952"/>
</g>
</svg>
