<?xml version="1.0" encoding="iso-8859-1"?>
<!-- Generator: Adobe Illustrator 18.0.0, SVG Export Plug-In . SVG Version: 6.00 Build 0)  -->
<!DOCTYPE svg PUBLIC "-//W3C//DTD SVG 1.1//EN" "http://www.w3.org/Graphics/SVG/1.1/DTD/svg11.dtd">
<svg version="1.1" xmlns="http://www.w3.org/2000/svg" xmlns:xlink="http://www.w3.org/1999/xlink" x="0px" y="0px"
	 width="2048" height="2048" viewBox="0 0 6803 6750" style="enable-background:new 0 0 6803 6750;" xml:space="preserve">
<g id="&#x423;&#x437;&#x43A;&#x438;&#x435;_&#x434;&#x43E;&#x440;&#x43E;&#x433;&#x438;">
	<path style="fill:#EAE1D3;stroke:#009345;stroke-width:5;stroke-miterlimit:10;" d="M3230.924,3929.333l109.076,12L3293.689,4926
		l-114.456,7.408l-409.205-475.592c-25.591-30.494-3.381-56.225,23.971-85.149l67.333-69.333L3230.924,3929.333z"/>
</g>
<g id="&#x41A;&#x43E;&#x43F;&#x438;&#x44F;_&#x437;&#x434;&#x430;&#x43D;&#x438;&#x435;">
</g>
<g id="&#x413;&#x430;&#x437;&#x43E;&#x43D;_1_">
	<path style="fill:#A1CE99;stroke:#2E3191;stroke-width:2;stroke-miterlimit:10;" d="M2856.01,4313.333l-97.271,103.44l11.29,31.893
		l82.519,92.536l317.675,381.733l61.897,15.731L3290,4926l2.603-17.179l8.059-170.445c0.615-12.993-16.42-24.023-29.413-24.638l0,0
		l-12.77-0.746l-1.64-0.078c-7.09-0.335-13.109,5.141-13.444,12.23l-0.252,5.34c-0.203,4.284,3.105,7.92,7.389,8.123l6.721,0.318
		l-6.002,126.934l-91.003-4.161l4.345-100.671c0.51-11.805-7.021-22.48-18.327-25.912
		c-100.139-30.398-180.238-112.135-208.421-211.528c-3.802-13.407-15.792-22.853-29.712-23.511l-41.247-1.951l7.228-152.867
		l42.201,1.995c13.803,0.653,26.562-7.471,31.681-20.307c21.449-48.054,64.496-97.35,101.138-135.815
		c26.465-27.781,57.992-60.206,76.257-78.927c8.273-8.479,7.83-22.133-0.97-30.063l0,0c-8.381-7.553-21.249-7.075-29.046,1.08
		L2856.01,4313.333z"/>
	<path style="fill:#A1CE99;stroke:#2E3191;stroke-width:2;stroke-miterlimit:10;" d="M3262.224,4482.347l8.143,0.385l-8.966,189.625
		l-8.143-0.385c-4.069-0.192-7.524,2.95-7.716,7.02l-0.174,3.684c-0.36,7.603,5.512,14.058,13.115,14.417l1.745,0.083l16.675,0.788
		v0c12.493,0.59,23.099-9.058,23.69-21.551l9.174-194.02c0.591-12.493-9.058-23.099-21.551-23.69l0,0l-16.675-0.789l-1.745-0.083
		c-7.603-0.359-14.058,5.513-14.417,13.115l-0.174,3.684C3255.012,4478.7,3258.155,4482.154,3262.224,4482.347z"/>
	<path style="fill:#A1CE99;stroke:#2E3191;stroke-width:2;stroke-miterlimit:10;" d="M3273.289,4227.187l8.143,0.385l-8.966,189.625
		l-8.143-0.385c-4.069-0.192-7.524,2.951-7.716,7.02l-0.174,3.684c-0.359,7.603,5.512,14.058,13.115,14.417l1.745,0.083
		l16.675,0.789l0,0c12.493,0.591,23.099-9.058,23.69-21.551l9.174-194.02c0.591-12.493-9.058-23.099-21.551-23.69l0,0l-16.675-0.789
		l-1.745-0.083c-7.603-0.359-14.058,5.513-14.417,13.116l-0.174,3.684C3266.077,4223.54,3269.22,4226.995,3273.289,4227.187z"/>
	<path style="fill:#A1CE99;stroke:#2E3191;stroke-width:2;stroke-miterlimit:10;" d="M3139.794,4069.551l31.325,29.62
		c3.787,3.581,9.157,4.949,14.196,3.616h0c6.316-1.67,10.834-7.223,11.187-13.746l2.547-47.204l89.965,4.254l-5.421,114.648
		l-8.143-0.385c-4.069-0.192-7.524,2.95-7.716,7.019l-0.174,3.684c-0.36,7.603,5.512,14.058,13.115,14.417l1.745,0.083l16.675,0.789
		c12.493,0.591,23.1-9.058,23.69-21.551l9.174-194.02c0.552-11.663-0.04-32.841-11.319-34.602l-27.474-10.756l-49.832,3.916
		L3209.804,3950l-73.156,89.407C3128.363,4047.471,3131.642,4061.352,3139.794,4069.551z"/>
</g>
<g id="Layer_26">
</g>
<g id="&#x413;&#x430;&#x437;&#x43E;&#x43D;">
</g>
<g id="&#x410;&#x43B;&#x43B;&#x435;&#x44F;">
	<g id="Layer_71">
		<path style="fill:#EFEEED;stroke:#2E3191;stroke-miterlimit:10;" d="M6104.328,416.742L5914.205,936.58l-18.868,97.453
			l-0.551,11.244c-0.187,3.821-3.873,6.48-7.558,5.453L4629.798,700.269l-146.822-12.811l-112,13.269l-274.497,68.433
			l-1079.25,266.19c-17.785,4.386-36.441,3.717-53.866-1.934l-238.739-77.421L2363.142,789.22l-187.517-188.991
			c-0.016,0.088-91.469-150.353-91.469-150.353H2015L2133.5,633l199.125,202c-0.058,0.309,73.526,34.53,116.191,54.3
			c6.358,2.946,4.657,7.394,2.184,13.95l-312.072,832.494c-1.891,5.045-6.51,8.557-11.878,9.032l-82.568,7.255
			c-6.004,0.528-11.876-1.973-15.655-6.668L1991.5,1699L1346,907l-69,52l398.223,495.714L1759.5,1561l89.148,110.594
			c3.636,4.511,5.939,9.948,6.649,15.699L1869.333,1801l123.567,163.267l35.017,43.973c5.169,6.491,6.542,15.223,3.615,22.988
			l-51.678,137.199c-2.355,6.252-9.4,9.333-15.589,6.818L704.667,1663.333l-24.445,19.694l305.983,123.478
			c7.214,2.911,11.404,10.478,10.042,18.138L649.665,3774.561c-1.889,10.625-9.232,19.472-19.328,23.284l-171.671,64.822L468,3888
			l681.106-256.67c4.649-1.752,9.839,0.595,11.594,5.243l19.493,51.636l23.216-8.764l-19.484-51.613
			c-1.756-4.652,0.593-9.847,5.246-11.6l266.968-100.605c7.147-2.693,14.134,4.295,11.44,11.441l-462.719,1227.323
			c-2.806,7.442-11.142,11.167-18.557,8.293l-608.968-236.019l-20.667,18.667l621.072,241.582
			c7.301,2.839,10.96,11.022,8.209,18.357l-293.281,782.061L716,5602.667l293.384-787.84c2.787-7.485,11.164-11.238,18.605-8.336
			l268.298,104.617l556.482,282.157l713.428,624.321c4.549,3.981,4.654,11.023,0.226,15.139l-2.091,1.943L2212,6136l-207,189l28,39
			l518-425l215-166.667l87.333-74.333L3060,5525.333l108.667-94l104-92.333L3391,5231.333L3586.333,5045l52.333-54.667
			c0,0,30.583-30.333,49.833-40.333s45.5-14.75,45.5-14.75s23-3,39.5-1s36.5,8,48.5,13.75s32,20.75,32,20.75l30.75,26.5L3922,5029
			c0,0,21,18,31.75,25.5s24.5,16.25,36.75,21.75s37.25,15.25,63,18.75s86.75,2.5,86.75,2.5l65-2.5l61.25-0.5c0,0,42,1.25,56.75,2.5
			s70.5,10.75,70.5,10.75l50.75,11.5c0,0,37.25,11.25,43.5,13.5s55.5,23,55.5,23l52,28c0,0,19.75,11.25,28.5,17.25
			s23.75,15.5,28.75,19.75s29.75,23.25,35.75,28.75s25,21.75,28.75,25.25c3.746,3.497,27.357,29.925,27.406,29.979l52.844,60.771
			l100,122.5l98.5,123.5l214.5,268.5h9.5l62.5-73l-157-214L5020,5459.5l-125-160c0,0-49-67.5-67-104.833
			c-18-37.333-40-105.333-40-105.333s-14-53.333-19.333-92c-5.333-38.667-9.333-94.667-7.333-141.333S4784,4296.667,4784,4296.667
			l18-377.333c0,0,5.333-44,11.333-71.333c6-27.333,20.667-83.333,25.333-92.667c4.667-9.333,30-68.665,30-68.667l25.667-47.333
			l40.333-61l68-90.333l34-46.667l86.333-125L5251,3130l36.667-61.333l51.667-90.333l42-69.667l112-190.667l88.333-155.333
			l22.667-43.667l104.333-218.333l29-71l24.727-59.319l115.159-300.74c2.129-5.561,3.362-11.426,3.652-17.374l39.183-804.248
			L5940,935.333L6129,423L6104.328,416.742z M5441.847,978.118l437.815,122.179c5.862,1.636,8.208,8.684,4.494,13.507
			l-37.095,48.173c-3.822,4.963-6.101,10.94-6.552,17.188l-9.73,134.475c-0.352,4.869-4.522,8.57-9.399,8.341l-30.313-1.424
			l-1.165,24.788l29.231,1.373c5.054,0.237,8.919,4.593,8.554,9.64l-36.147,499.564c-0.313,4.325-1.294,8.576-2.909,12.601
			l-17.72,44.159c-1.837,4.577-7.015,6.823-11.612,5.037l-33.607-13.056l-8.986,23.131l33.166,12.884
			c4.669,1.814,6.959,7.092,5.093,11.741l-29.696,74.004c-1.502,3.744-5.889,5.399-9.49,3.579l-480.192-242.655l-28.926-13.588
			c-6.001-2.819-8.639-9.926-5.93-15.977l29.734-66.421l24.823-89.281c1.35-4.853,6.419-7.654,11.246-6.213l48.204,14.391
			l7.099-23.778l-48.98-14.622c-4.699-1.403-7.41-6.31-6.097-11.035l71.495-257.141c1.35-4.853,6.419-7.654,11.246-6.213
			l56.238,16.789l7.099-23.778l-57.014-17.021c-4.699-1.403-7.411-6.31-6.097-11.035l76.615-275.556
			C5428.204,980.167,5435.148,976.248,5441.847,978.118z M2731.671,1028.178c1.193-6.784,7.999-11.037,14.62-9.136
			c54.526,15.653,155.313,48.232,208.207,65.49c22.576,7.366,46.762,8.228,69.805,2.489l680.67-169.109
			c4.87-1.21,9.79,1.797,10.933,6.683l11.316,48.346l49.999-11.703l-11.531-49.264c-1.122-4.793,1.815-9.599,6.593-10.786
			l330.35-82.074l268.342-67.03l112.283-13.419l139.638,11.82l31.232,8.679c4.783,1.329,7.587,6.281,6.266,11.066l-17.824,64.574
			l57.799,15.701l17.792-64.458c1.324-4.797,6.291-7.609,11.085-6.277l663.585,184.68c6.696,1.861,10.616,8.799,8.754,15.495
			l-159.369,573.191c-1.35,4.853-6.419,7.654-11.246,6.213l-25.643-7.655l-7.099,23.778l26.419,7.887
			c4.699,1.403,7.411,6.31,6.097,11.035l-25.219,90.703l-28.355,61.926c-2.673,5.838-9.596,8.374-15.407,5.644l-3.118-1.465
			l-201.437-99.798c-12.213-6.051-25.04-10.774-38.26-14.089l-10.624-2.664c-6.77-1.697-13.677-2.791-20.64-3.269l-112.057-7.688
			c-9.03-0.62-18.096-0.506-27.108,0.339l-101.222,9.497l-1017.939,102.914l-73.049,8.8l-136.739,37.7
			c-8.963,2.471-17.341,6.711-24.64,12.469l-224.438,177.041l-4.825,3.851l-475.74-617.63c-8.497-11.013-11.965-25.094-9.555-38.794
			l8.701-49.478c0.868-4.934,5.597-8.21,10.522-7.287l38.624,7.238l4.571-24.39l-39.094-7.326c-4.847-0.908-8.06-5.548-7.206-10.405
			L2731.671,1028.178z M2161.4,1751.975L2475.5,914.5c2.461-6.519,13.836-6.556,20.176-3.664
			c44.122,20.129,160.85,73.37,201.464,91.786c7.254,3.289,11.353,11.074,9.964,18.918l-35.737,201.791
			c-0.873,4.929-5.6,8.198-10.52,7.277l-52.343-9.809l-4.571,24.39l52.763,9.888c4.851,0.909,8.065,5.556,7.204,10.416
			l-8.262,46.652c-5.559,28.802,5.895,50.638,13.077,61.087c2.698,3.925,1.816,9.281-1.958,12.186l-39.918,30.717l15.133,19.666
			l39.89-30.696c3.94-3.032,9.59-2.297,12.621,1.643c64.977,84.479,253.222,329.224,364.807,474.3
			c3.03,3.939,2.29,9.584-1.649,12.615l-38.091,29.311l28.164,36.6l38.079-29.302c3.94-3.032,9.597-2.288,12.628,1.652
			c28.828,37.481,46.73,60.756,46.73,60.756l5.685,7.146c6.223,7.822,17.529,9.297,25.551,3.333l18.916-14.063l210.953-166.403
			c7.172-5.658,24.088-17.184,32.895-19.612l114.71-31.65l89.135-12.596l998.295-100.933l96.416-9.677
			c8.855-0.831,22.175,0.092,31.048,0.701l106.508,7.635c6.841,0.469,13.528,1.042,20.18,2.71l14.525,3.829
			c12.99,3.257,22.139,9.238,34.14,15.183l192.838,96.048l76.373,35.787l472.826,238.834l9.928,6.867
			c10.045,7.447,4.462,7.835,5.226,19.042l-13.368,27.078l-97.046,180.027c-3.731,6.922-8.201,16.531-12.471,23.134l-47.644,73.757
			l-234.546,369.531l-100.83,159.748l-267.139,415.911l-41.53,64.659c-2.949,4.51-7.389,10.031-11.111,13.927l-23.935,25.047
			l-35.338,36.98c-4.996,5.228-12.581,15.109-18.46,19.318l-79.28,56.404l-32.811,20.01l-50.259,26.399l-64.831,27.049
			c-7.468,2.764-29.266,10.388-37.009,12.247l-64.672,16.511c-7.001,1.68-23.554,4.906-30.686,5.893l-57.572,8.125L4271,3663.491
			h-134.25c-9.354,0.06-39.667,0.626-49,0l-87.515-3.277c-10.245-0.687-39.05-3.191-49.206-4.705l-52.646-7.982l-58.131-13.035
			l-74.06-23.992l-51.915-22.057l-40.936-20.365c-21.976-11.756-34.195-16.473-54.426-31.029l-73.388-54.071l-79.625-72.371
			c-14.673-13.4-19.62-20.585-32.002-36.126l-417.142-523.554l-61.027-82.979l-269.598-340.589l-30.641-39.561l-375.424-474.824
			c-3.046-3.852-2.441-9.435,1.358-12.546l35.559-29.112l-18.874-23.054l-34.929,28.597c-3.892,3.187-9.641,2.564-12.761-1.382
			l-86.895-109.902C2160.485,1761.727,2159.678,1756.568,2161.4,1751.975z M2071.687,1776.407l53.741-5.031
			c4.722-0.442,9.347,1.537,12.288,5.257l484.832,613.446c6.458,8.171,9.745,18.401,9.256,28.805l-2.611,55.542
			c-0.31,6.601-8.635,9.294-12.752,4.125L2428,2242l-172-213l-190.637-237.665
			C2060.775,1785.616,2064.387,1777.09,2071.687,1776.407z M2013.007,1949.256l-114.044-154.211
			c-3.255-4.401-5.33-9.561-6.029-14.989l-5.114-39.7c-0.91-7.068,8.024-10.89,12.507-5.351L1959,1807.5l168.5,210.355l170,212.145
			l16.969,21.032c4.033,4.998,0.634,12.456-5.785,12.69l-29.515,1.078c-9.091,0.332-17.8-3.67-23.469-10.784l-9.477-11.894
			L2013.007,1949.256z M2048.974,2058.425c2.677-7.103,12.073-8.582,16.802-2.644l29.046,36.475
			c3.076,3.863,2.466,9.482-1.368,12.594l-20.579,16.707l15.64,19.265l20.265-16.452c3.885-3.154,9.596-2.533,12.713,1.381
			l58.945,74.021c3.076,3.862,2.466,9.482-1.368,12.594l-24.46,19.857l15.64,19.265l24.146-19.603
			c3.885-3.154,9.596-2.533,12.713,1.381l111.547,140.077c3.076,3.863,2.466,9.482-1.368,12.594l-23.346,18.953l15.64,19.265
			l23.032-18.699c3.885-3.154,9.596-2.533,12.713,1.381l106.696,133.985c3.076,3.863,2.465,9.482-1.368,12.594l-20.714,16.817
			l15.64,19.265l20.401-16.563c3.885-3.154,9.596-2.533,12.713,1.381l260.814,327.522c3.076,3.863,2.466,9.482-1.368,12.594
			l-21.313,17.303l15.641,19.266l21-17.049c3.885-3.154,9.596-2.533,12.713,1.381l56.114,70.466
			c3.076,3.863,2.466,9.482-1.368,12.594l-23.433,19.024l15.64,19.265l23.119-18.769c3.885-3.154,9.596-2.533,12.713,1.381
			l146.38,183.819c3.176,3.988,2.408,9.814-1.691,12.844l-17.766,13.131l14.75,19.956l19.005-14.048
			c3.896-2.88,9.372-2.159,12.39,1.631l136.823,171.818c3.176,3.988,2.408,9.814-1.691,12.844l-23.379,17.28l14.75,19.956
			l24.619-18.197c3.896-2.88,9.372-2.159,12.39,1.631l47.39,59.511l19.915,30.314l15.68,29.917c0,0,7.122,15.375,11.661,25.31
			c2.017,4.415,0.171,9.63-4.173,11.794l-24.09,12.004l11.067,22.21l21.125-10.526c4.808-2.396,10.631-0.078,12.468,4.97
			c3.242,8.903,7.607,21.232,8.768,25.602c3.881,14.602,13.758,48.605,16.355,66.528c2.598,17.923,7.127,56.294,7.127,56.294v0.001
			c0.807,6.697-1.481,13.397-6.216,18.201l-68.066,69.06c-3.466,3.517-9.119,3.584-12.668,0.15l-36.492-35.306l-17.255,17.834
			l36.207,35.031c3.596,3.479,3.664,9.222,0.152,12.786l-52.187,52.949c-3.466,3.517-9.119,3.584-12.668,0.15l-32.825-31.759
			l-17.255,17.834l32.54,31.483c3.596,3.479,3.664,9.222,0.152,12.786l-163.842,166.235c-6.786,6.885-17.864,6.978-24.764,0.207
			l-66.471-65.229c-3.565-3.499-3.6-9.231-0.076-12.772l11.056-11.112l-17.591-17.503l-11.266,11.323
			c-3.489,3.506-9.153,3.54-12.684,0.076l-85.534-83.935c-3.565-3.499-3.6-9.231-0.076-12.772l25.284-25.411l-17.591-17.503
			l-25.493,25.621c-3.489,3.506-9.153,3.54-12.684,0.076l-117.843-115.639c-3.565-3.499-3.6-9.231-0.076-12.772l14.098-14.169
			l-17.591-17.503l-14.308,14.38c-3.489,3.506-9.153,3.54-12.684,0.076l-55.784-54.741c-3.565-3.499-3.599-9.231-0.076-12.772
			l13.742-13.811l-17.591-17.503l-13.951,14.021c-3.489,3.506-9.153,3.54-12.684,0.076l-188.915-185.382
			c-3.565-3.498-3.6-9.231-0.076-12.772l18.355-18.448l-17.591-17.503l-18.565,18.658c-3.489,3.506-9.153,3.54-12.684,0.076
			l-85.015-83.425c-3.565-3.499-3.599-9.231-0.076-12.772l17.794-17.884l-17.591-17.503l-18.003,18.094
			c-3.489,3.506-9.153,3.54-12.684,0.076l-143.564-140.879c-3.565-3.499-3.599-9.231-0.076-12.772l16.641-16.725l-17.591-17.503
			l-16.85,16.935c-3.489,3.506-9.153,3.54-12.683,0.076l-119.681-117.443c-3.565-3.498-3.599-9.231-0.076-12.772l11.165-11.221
			l-17.591-17.503l-11.374,11.432c-3.489,3.506-9.153,3.54-12.684,0.076L1723.63,2956.5c-5.79-5.682-7.681-14.247-4.82-21.838
			L2048.974,2058.425z M3271.572,4923.072l-81.295,0.08c-8.331,0.008-16.237-3.68-21.583-10.071l-400.856-479.179
			c-5.297-4.12-5.977-11.874-1.477-16.853l21.222-23.48l432.864-439.187c5.417-5.497,12.901-8.454,20.613-8.145l77.792,3.113
			c7.499,0.3,13.323,6.641,12.988,14.138l-38.882,868.344l-4.348,71.168l-0.769,5.802
			C3286.76,4916.963,3279.805,4923.063,3271.572,4923.072z M3278.805,4960.959l-6.271,23.361l-3.316,10.271
			c-3.912,12.118-19.641,15.178-27.811,5.412l-32.71-39.102c-3.666-4.381-0.554-11.05,5.159-11.056l56.373-0.056
			C3276.067,4949.783,3280.319,4955.321,3278.805,4960.959z M2639.824,4308.384l-8.741,11.389c-3.003,3.914-8.597,4.68-12.542,1.719
			l-144.622-108.556c-4.005-3.006-4.786-8.705-1.737-12.677l8.87-11.558l-19.686-15.108l-9.149,11.92
			c-3.003,3.914-8.597,4.68-12.542,1.719l-104.194-78.21c-4.005-3.006-4.786-8.705-1.737-12.677l15.652-20.395l-19.686-15.108
			l-15.931,20.758c-3.003,3.913-8.597,4.68-12.542,1.718l-40.328-30.271c-4.005-3.007-4.786-8.705-1.737-12.677l13.15-17.134
			l-19.686-15.108l-13.428,17.497c-3.003,3.914-8.597,4.68-12.542,1.719l-109.259-82.012c-4.005-3.007-4.786-8.704-1.737-12.677
			l14.903-19.418l-19.686-15.108l-15.181,19.781c-3.003,3.913-8.597,4.68-12.542,1.718l-66.364-49.814
			c-4.005-3.006-4.786-8.704-1.737-12.677l12.01-15.65l-19.686-15.108l-12.289,16.012c-3.003,3.914-8.597,4.68-12.543,1.719
			l-88.634-66.53c-4.005-3.007-4.786-8.704-1.737-12.677l13.668-17.809l-19.686-15.108l-13.946,18.172
			c-3.003,3.913-8.597,4.68-12.543,1.718l-85.535-64.204c-4.005-3.007-4.786-8.704-1.737-12.677l14.697-19.15l-19.686-15.108
			l-14.976,19.513c-3.003,3.913-8.597,4.68-12.543,1.718l-53.708-40.314c-4.005-3.006-4.786-8.704-1.737-12.677l11.415-14.873
			l-19.686-15.108l-11.693,15.236c-3.003,3.913-8.597,4.68-12.543,1.718l-132.41-99.389c-5.75-4.316-7.96-11.91-5.425-18.637
			l184.428-489.461c2.665-7.072,11.72-9.071,17.114-3.778l112.505,110.401c3.565,3.499,3.599,9.231,0.076,12.772l-13.684,13.753
			l17.591,17.503l13.894-13.964c3.489-3.506,9.153-3.54,12.684-0.076l84.578,82.997c3.565,3.499,3.599,9.231,0.076,12.772
			l-18.674,18.768l17.591,17.503l18.884-18.979c3.489-3.506,9.153-3.54,12.684-0.076l71.054,69.725
			c3.565,3.499,3.599,9.231,0.076,12.772l-23.987,24.107l17.591,17.503l24.196-24.318c3.489-3.506,9.153-3.54,12.684-0.076
			l77.053,75.612c3.565,3.499,3.599,9.231,0.076,12.772l-19.337,19.435l17.591,17.503l19.546-19.645
			c3.489-3.506,9.153-3.54,12.684-0.076l85.014,83.425c3.565,3.499,3.599,9.231,0.076,12.772l-18.428,18.521l17.591,17.503
			l18.638-18.732c3.489-3.506,9.153-3.54,12.683-0.076l81.985,80.452c3.565,3.499,3.599,9.231,0.076,12.771l-21.473,21.582
			l17.591,17.503l21.682-21.792c3.489-3.506,9.153-3.54,12.684-0.076l76.37,74.942c3.565,3.499,3.6,9.231,0.076,12.772
			l-14.451,14.524l17.591,17.503l14.66-14.734c3.489-3.506,9.153-3.54,12.684-0.076l55.784,54.741
			c3.565,3.498,3.6,9.231,0.076,12.772l-14.095,14.166l17.591,17.503l14.304-14.376c3.489-3.506,9.153-3.54,12.684-0.076
			l68.579,67.297c3.565,3.498,3.599,9.231,0.076,12.771l-17.926,18.016l17.591,17.503l18.135-18.226
			c3.489-3.506,9.153-3.54,12.684-0.076l134.798,132.278c3.565,3.498,3.6,9.231,0.076,12.772l-14.568,14.641l17.591,17.503
			l14.777-14.852c3.489-3.506,9.153-3.54,12.683-0.076l66.946,65.694c6.726,6.6,6.816,17.407,0.201,24.119l-166.325,168.754
			l-26.054,28.784c-3.567,3.941-9.55,4.515-13.802,1.324l-77.155-57.914c-4.005-3.006-4.786-8.705-1.737-12.677l8.462-11.027
			L2639.824,4308.384z M3319.201,3923.641l-50.12-2.006c-6.042-0.242-8.926-7.54-4.681-11.847l51.199-51.947
			c6.374-6.467,17.396-2.155,17.677,6.922c0.331,10.698,0.615,23.509,0.644,36.898l-0.242,8.462
			C3333.458,3917.874,3326.949,3923.951,3319.201,3923.641z M885.465,2605.834l136.497-769.082
			c1.274-7.176,8.838-11.353,15.59-8.608l917.482,372.966c6.007,2.442,8.97,9.229,6.677,15.295l-258.934,684.976
			c-4.193,11.09-16.57,16.696-27.671,12.531l-781.078-293.054C887.927,2618.568,884.326,2612.251,885.465,2605.834z
			 M1464.973,3454.449L1299,3329.5l-6.5,29.5l155.627,115.658c5.938,4.413,4.642,13.647-2.281,16.254l-504.699,190.111
			c-4.649,1.751-9.838-0.596-11.593-5.244l-17.326-45.896l-23.216,8.764l17.315,45.868c1.756,4.653-0.594,9.848-5.247,11.601
			l-209.753,79.01c-6.734,2.536-13.667-3.223-12.408-10.308l196.673-1106.993c1.232-6.935,8.453-11.053,15.05-8.583l772.509,289.355
			c12.474,4.672,18.784,18.584,14.083,31.046l-179.27,475.232C1492.911,3458.272,1476.411,3463.059,1464.973,3454.449z
			 M1998.476,5287.482l-133.672-116.783l-553.803-281.535l-273.391-106.516c-7.304-2.846-10.958-11.04-8.194-18.375
			l466.059-1236.894c2.459-6.526,10.494-8.865,16.072-4.678l124.596,93.524c4.005,3.006,4.786,8.704,1.737,12.677l-12.912,16.824
			l19.686,15.108l13.19-17.187c3.003-3.913,8.597-4.68,12.542-1.718l396.973,297.976c4.005,3.006,4.786,8.704,1.737,12.677
			l-11.785,15.356l19.686,15.108l12.064-15.719c3.003-3.914,8.597-4.68,12.542-1.719l283.997,213.174
			c4.005,3.006,4.786,8.704,1.737,12.677l-13.987,18.225l19.686,15.108l14.266-18.588c3.003-3.913,8.597-4.68,12.543-1.718
			l182.893,137.283c4.005,3.006,4.786,8.705,1.737,12.677l-11.504,14.989l19.686,15.108l11.782-15.352
			c3.003-3.914,8.597-4.68,12.542-1.719l72.792,54.639c5.3,3.978,6.223,11.568,2.032,16.7l-48.835,59.806
			c-3.155,3.864-8.852,4.424-12.699,1.249l-16.412-13.543l-15.794,19.14l16.583,13.685c3.82,3.152,4.375,8.798,1.243,12.634
			l-211.217,258.668c-3.112,3.812-8.708,4.417-12.563,1.36l-17.992-14.266l-15.418,19.444l17.511,13.885
			c3.934,3.119,4.555,8.855,1.379,12.744l-377.271,462.027C2014.867,5292.321,2004.968,5293.154,1998.476,5287.482z
			 M2230.882,5490.525l-66.429-58.036c-3.729-3.258-4.126-8.917-0.887-12.664l19.49-22.543l-18.772-16.229l-19.346,22.375
			c-3.263,3.773-8.973,4.173-12.729,0.891l-91.856-80.25c-5.932-5.183-6.686-14.136-1.704-20.237l127.933-156.674
			c3.112-3.811,8.708-4.417,12.563-1.359l19.489,15.453l15.417-19.444l-19.007-15.072c-3.935-3.12-4.555-8.855-1.379-12.744
			l56.851-69.623c3.112-3.812,8.708-4.417,12.563-1.36l24.889,19.735l15.418-19.444l-24.408-19.353
			c-3.934-3.12-4.555-8.855-1.379-12.744l60.442-74.021c3.112-3.811,8.708-4.417,12.563-1.359l28.851,22.876l15.418-19.444
			l-28.37-22.495c-3.934-3.12-4.555-8.855-1.379-12.744l52.772-64.628c3.112-3.811,8.708-4.417,12.563-1.36l22.227,17.624
			l15.417-19.444l-21.745-17.243c-3.935-3.12-4.555-8.855-1.379-12.744l75-91.85c3.155-3.864,8.852-4.424,12.7-1.249l22.256,18.366
			l15.794-19.14l-22.427-18.507c-3.82-3.152-4.375-8.798-1.243-12.634l108.597-132.994c3.156-3.864,8.852-4.424,12.699-1.25
			l14.792,12.207l15.794-19.139l-14.963-12.348c-3.82-3.152-4.375-8.798-1.243-12.634l51.83-63.474
			c3.274-4.009,9.139-4.695,13.25-1.55l97.302,116.313c3.171,3.791,2.692,9.429-1.073,12.63l-16.514,14.044l16.076,18.904
			l16.25-13.819c3.808-3.239,9.526-2.753,12.734,1.081l126.153,150.802c7.39,8.833,6.645,21.888-1.701,29.824l-40.431,38.509
			c-3.544,3.375-9.135,3.3-12.587-0.169l-20.321-20.422l-17.59,17.503l19.66,19.758c3.56,3.578,3.482,9.384-0.173,12.865
			l-122.502,116.679c-3.544,3.375-9.135,3.3-12.587-0.169l-18.272-18.362l-17.59,17.503l17.611,17.699
			c3.56,3.578,3.482,9.384-0.173,12.865l-84.778,80.748c-3.544,3.375-9.135,3.3-12.587-0.169l-11.151-11.206l-17.59,17.503
			l10.49,10.542c3.56,3.578,3.482,9.384-0.173,12.865l-82.804,78.868c-3.544,3.375-9.135,3.3-12.587-0.169l-13.925-13.994
			l-17.59,17.503l13.264,13.33c3.56,3.578,3.482,9.384-0.173,12.865l-109.7,104.485c-3.544,3.375-9.135,3.3-12.587-0.169
			l-15.685-15.763l-17.59,17.503l15.024,15.099c3.561,3.578,3.483,9.384-0.172,12.865l-64.334,61.276
			c-3.544,3.375-9.135,3.3-12.587-0.169l-20.156-20.255l-17.59,17.503l19.495,19.591c3.56,3.578,3.482,9.384-0.173,12.865
			l-55.123,52.503C2245.636,5495.488,2236.781,5495.679,2230.882,5490.525z M2520.377,5743.444l-105.021-91.752
			c-3.775-3.298-4.128-9.044-0.785-12.78l20.375-22.765l-18.49-16.549l-20.718,23.147c-3.287,3.673-8.916,4.018-12.627,0.776
			l-111.801-97.675c-6.206-5.422-6.406-15.006-0.431-20.682l211.732-201.16c3.545-3.368,9.13-3.289,12.579,0.177l19.75,19.847
			l17.59-17.503l-19.051-19.146c-3.563-3.581-3.482-9.393,0.181-12.873l46.7-44.368c3.545-3.368,9.13-3.289,12.579,0.177
			l13.692,13.76l17.59-17.503l-12.994-13.058c-3.563-3.581-3.482-9.393,0.181-12.873l82.906-78.766
			c3.545-3.368,9.13-3.289,12.579,0.177l16.327,16.408l17.59-17.503l-15.629-15.707c-3.563-3.581-3.482-9.393,0.181-12.873
			l84.881-80.643c3.545-3.368,9.13-3.29,12.579,0.177l14.095,14.165l17.59-17.503l-13.397-13.463
			c-3.564-3.581-3.482-9.393,0.181-12.873l59.778-56.792c3.545-3.368,9.13-3.289,12.579,0.177l17.832,17.92l17.59-17.503
			l-17.134-17.219c-3.563-3.581-3.482-9.393,0.181-12.873l101.745-96.664c7.882-7.495,20.454-6.778,27.433,1.564l201.633,241.029
			c4.852,5.8,6.324,13.712,3.884,20.869l-8.918,26.157l-36.521,61.733c0,0-33.392,52.769-49.693,69.698
			c-0.384,0.399-0.863,0.917-1.426,1.543c-3.861,4.287-23.105,26.72-26.548,30.638c-9.909,11.277-20.681,23.128-29.426,31.481
			l0.011,0.01l-56.2,47.068c-3.751,3.141-9.323,2.711-12.548-0.968l-18.042-20.589l-18.663,16.354l17.411,19.869
			c3.328,3.797,2.881,9.589-0.99,12.831l-58.607,49.084c-3.75,3.141-9.323,2.711-12.547-0.968l-17.383-19.837l-18.663,16.354
			l16.752,19.117c3.328,3.797,2.881,9.589-0.99,12.831l-213.727,178.999c-3.751,3.141-9.323,2.711-12.548-0.968l-22.49-25.666
			l-18.663,16.354l21.86,24.946c3.328,3.797,2.881,9.589-0.99,12.831l-71.892,60.21c-3.75,3.141-9.323,2.711-12.547-0.968
			l-16.1-18.373l-18.663,16.354l15.469,17.653c3.328,3.797,2.881,9.589-0.99,12.831l-17.135,14.351
			C2538.133,5749.792,2527.516,5749.681,2520.377,5743.444z M3199,5272c-13.494,15.993-60.291,62.292-60.332,62.333l-0.001,0.001
			L2966,5486l-265,221.667l-100.641,93.522c-3.824,3.553-9.715,3.644-13.646,0.209l-22.841-19.956
			c-6.042-5.278-5.943-14.704,0.207-19.854l549.565-460.266l58.596-63.285l50.281-71.552l38.057-65.49l17.616-50.554l18.724-58.634
			L3308,4949l5.333-42.333l5.303-73.685l39.75-887.753l1.562-51.895l-1.066-56.632c0,0-6.014-71.193-10.477-100.061
			c-4.463-28.867-11.875-49.169-18.121-71.474c-6.246-22.304-23.603-61.849-23.603-61.849l-14.873-32.961l-16.09-30.31
			l-22.668-33.589l-958.52-1203.676c-3.692-4.636-0.534-11.501,5.389-11.713l30.159-1.081c9.022-0.323,17.669,3.624,23.334,10.653
			L2473,2449l87,108l184.25,227.236l69.25,88.264l38,46.5l39.75,49.25l22.5,28.75l40,55.25l33.5,45.5l36.5,50.75l33.75,43.5
			l85.75,109l42.75,54.25l76.25,95c0,0,23.25,33.25,32.25,46.25s32,49.833,37,60.667c5,10.833,17.5,36.333,20,42.833s12.5,31,16,43
			s13.5,39.5,16.5,57.5s11,53,13,71s5.25,56.5,5.25,56.5s-0.25,20,0,43.5s-4.75,158.5-4.75,158.5l-13.5,301l-19,410l-10.5,159
			c0,0-3,43.5-11,73.5s-14,57-20.5,77.5s-24.5,66-34.5,85s-26.5,49-37.5,64.5S3212.5,5256,3199,5272z M3684,4822.667L3628.333,4884
			L3547,4967l-84.333,85.667l-83.333,80L3318,5190.333l-62.883,52.806c0,0,19.883-28.639,28.883-43.639s31.5-54,40.5-74.5
			s19-38,29.5-75.5c6.315-22.553,15.5-54,21-93s10-88.5,11.5-118.5s12.5-267,12.5-267l14-291.5l17.343-392.718
			c0,0-1.343-80.282-4.843-109.282s-9-56.5-14.5-79s-18.5-63.5-18.5-63.5s-10-29-15.5-41.5s-19.25-41.75-19.25-41.75l31,38
			l36.5,45.5L3477,3700l55.25,68.75l69,85.75l76.25,95.25l36.5,47.75l35.5,49l69.5,95.5l6.718,8.901c0,0-17.968-6.901-34.468-12.901
			c-16.5-6-41.5-8.5-80.25-5.75s-75.5,20.25-98,34s-65,54.5-79.25,87.75s-22,61-25.5,85s-6.25,81-7.75,104.25s1.5,59.75,2.75,73.5
			s7.75,34,14,51.75s27.75,50.25,27.75,50.25s23.75,30.5,41.5,43.5s45.75,30.25,68,38.25s70.5,10.75,90,9.25s46.5-9,46.5-9
			l7.439-3.338l-66.105,71.254L3684,4822.667z M4049.695,4430.484l-66.362,69.183l-72.333,79l-46,47l-0.079,0.085
			c-7.433,5.966-17.495,13.906-23.356,17.963c-10.869,7.523-23.315,14.785-23.315,14.785c-12.375,9.25-54.25,22-77.75,24
			s-55-3-76.75-9.75s-43.75-20.25-60.5-32.5s-35.5-36.25-45.5-52.75s-21-46.5-25.5-68.25s-4-50.25-3.75-66s3.25-65.25,3.25-65.25
			s3.25-47,10.5-75.75s20.5-53.75,30-67.75s31.75-38.5,50-51s47.75-26.75,75.5-31.5s34.25-3.5,64.75-0.75c0,0,35.75,8.5,57.25,18
			s48.25,32.25,48.25,32.25l11,10l19.5,21L4049.695,4430.484z M3940.5,4024.5c5-30.5,21.5-53.5,21.5-53.5s15-25.5,44-45s57-25,57-25
			s24-5.5,73.5-4s95.5,9,95.5,9s22.5,7,39,17s29.5,21.5,34,26.5s18.5,21.5,23,29.5s10.5,19.5,14,30s8,33,8.5,47.5s0.5,21-2,33.5
			s-6,26-11,35.5c-3.538,6.721-10.574,17.94-14.391,23.932l0,0l-27.442,34.901l-67.333,67L4148,4328l-19.692,20.529L3979,4162.5
			l-20.5-31.364l-7.014-15.463h0l-0.986-2.173l-0.071-0.066c-2.115-4.539-6.731-14.758-7.429-18.934
			C3942.089,4089.057,3935.5,4055,3940.5,4024.5z M3907.667,4720.333c11.971-18.87,34.933-43.791,51.071-60.405l17.929-17.929
			l68-66.333l66.855-68.348L4250.5,4680l23.018,28.583l0,0c3.817,4.74,16.815,31.75,21.815,47.083c5,15.333,7,54.667,7,54.667
			c-0.333,10-4,40-18.333,66s-36.333,45-36.333,45s-18,14.667-33,21.667S4183,4955.333,4166,4958.333s-80.667,1-80.667,1
			s-61-3.667-87.667-12.333c-26.667-8.667-54.333-29-68.333-43.667c-14-14.667-34-45.667-38.667-75.333
			C3886,4798.333,3888,4751.333,3907.667,4720.333z M4194.5,4431l-3.753-4.676l47.92-48.99l125.12-133.932
			c0,0,5.269-5.64,16.214-14.068s29.667-19.667,47.667-27c18-7.333,45.833-8.833,45.833-8.833c25,0,49.5,5.5,49.5,5.5s23,8,41,19
			s33,27.5,33,27.5s19,25.5,25,38.5s8.5,21,10.5,30.5s4,16,5,31s-3,140.5-3,140.5s-2,35-4.5,52s-4.5,28.5-11,45s-19,37.5-29,48
			s-20.5,21-33,29s-30,16-51.5,20.5s-46,4.5-72-2.5c0,0-25-6.667-43.833-19.167c-12.393-8.226-31.424-26.192-42.991-37.52
			L4317,4583.5L4194.5,4431z M4389.333,4084l-11.159,11.025L4376,4094.5c0,0,7-32,0-68.5s-23.5-61.5-23.5-61.5s-24.5-37-55.5-59
			s-60.5-27.5-60.5-27.5s-34.5-6.5-57.5-7.5s-93-3-120.5,3s-54,17-74,32.5s-40,36.5-53.5,63s-18,51-18,51s-3.5,24.5-2.25,43.5
			l0.159,12.899l-0.159-0.149L3797,3946.5l-30-35l-251.75-315l9.25,7.75l26.5,21.25l28,21.25l30,18.75l38.75,22.25l33,17.25
			l29.487,12.961c0,0,9.435,4.147,24.763,11.039s45,17,68,24s59,15.5,87.999,21.5s67.501,11.5,89.501,13s59.5,4,92,6
			s109.5,4.5,132.083,5.5c22.583,1,92.917,1,118.917,0s76-8,94.5-11s76.5-17.5,94-22s49.5-16.5,67.512-23.5s48.488-21,67.488-30.5
			s43-23.5,61.5-35s59.5-41,71-50c5.731-4.486,17.424-13.637,27.713-21.69l-143.879,179.356l-138,161.333L4389.333,4084z
			 M4656.5,5191.25c-6.5-4.75-39.75-26.25-55.75-35.25s-46.5-24.5-46.5-24.5s-36.5-16.25-51.5-21.5s-46-15-63.25-19.25
			s-47.5-10.75-60.5-13s-41.25-5.75-53.5-7.25s-82.5-1.75-82.5-1.75l-109,1.5c0,0-45.25,1.75-63.5,0.25s-36.75-6.75-48-10.75
			s-33-11-52-25.75s-55.75-47.75-55.75-47.75l-38.5-34c0,0-23-18.75-35.75-24.75s-37.25-15.75-54-18.5s-41.5-1.75-52-0.25
			c-8.185,1.169-30.95,6.288-40.593,8.488L3813.667,4805l50.662-50.662l-0.662,3.329c0,0-10,54,3.667,93
			c13.667,39,32.333,61,32.333,61s23.667,29,49.667,44s57.333,22.667,57.333,22.667s38.667,7.667,71,8.667
			c32.333,1,60.333,0,65.667,0c5.333,0,49.667-1,84.667-19.667c35-18.667,55.667-41,64.667-53.333s31.667-47,35.667-86.333
			c4-39.333,1-48,1-48l-0.407-2.28L4341.5,4793l102,114.5l101,123.5l149,187.5C4693.5,5218.5,4663,5196,4656.5,5191.25z
			 M4820,3732.667c0,0-16,44.667-23.333,72.667c-7.333,28-16.667,76.667-19.333,104c-2.667,27.333-10,168-10,168l-12,303.333
			L4744.667,4618l-8,180.667c0,0-4,124-0.667,156.667C4739.333,4988,4750,5062,4762.667,5098c12.667,36,35.667,101,43.833,112.5
			l-122.5-154L4538.5,4876l-103-141.5l-26.685-34.003l3.185,1.003c0,0,32,13,69.5,10.5s59-8.5,90-28s51-47,51-47s18-26.5,25.5-47.5
			s9-27.5,11-45.5s7-174,7-174s0-36.5-9.5-71s-32-63.5-32-63.5s-13.5-16.5-22-24.5s-34.5-23-34.5-23l-24.5-12.5c0,0-34.5-9-57-10
			c-20.131-0.895-48.649,3.811-54.434,4.813l4.601-4.925l158-190.721l108-124.667l140.667-174L4820,3732.667z M5746.45,2135.317
			l-9.656,24.798L5708.667,2218l-147,244l-22.333,40.667l-77.333,136L5326.333,2863l-80,125.333L5140.667,3133L5051,3262
			l-47.333,63.333l-60,84.667l-61.457,80.333l-39.309,43.917L4798.5,3577l-54.5,44.5c0,0-39,27.5-65,42.5s-56.5,31-76,41
			s-86.5,32.558-86.5,32.558S4454,3754,4433.5,3758s-53,9.5-98,14s-110,0.5-134,0s-143.5-6.5-174.5-8s-89-8-116.52-12
			s-75.98-17-104.48-26s-67.5-25-67.5-25l-40.5-18l-41.25-21.25l-34-19.25l-35.75-23.75l-35-26l-28.5-24.75l-31.75-28.5L3463,3509
			l-40-45.25l-34.25-42.25l-42.75-53.25l-43.25-52.25l-68-84.25L3169,3150l-84.5-105.25l-26.25-32l-52.5-60l-47.25-53l-76-90
			l-82-104.25l-135-167.5c-7.166-8.931-10.86-20.153-10.399-31.595l2.166-53.813c0.263-6.533,8.509-9.217,12.567-4.091
			l252.31,318.709l68.326,92.323l425.309,533.805c12.602,15.817,26.435,30.613,41.368,44.25l72.314,66.037l56.63,40.746
			c20.59,14.814,42.139,28.249,64.506,40.214l42.297,22.627l52.293,23.024l79.051,26.698l59.318,13.917l58.413,8.711
			c10.335,1.542,20.729,2.663,31.156,3.362l85.979,5.766c9.499,0.637,19.018,0.926,28.538,0.865l191.773-1.217l97.307-5.806
			l60.034-8.303c7.257-1.004,14.461-2.363,21.585-4.073l76.649-18.397c7.88-1.892,15.642-4.25,23.242-7.063l65.848-24.374
			l62.587-30.854l50.705-30.617l66.709-47.76c5.983-4.284,11.553-9.118,16.638-14.438l45.715-47.839l24.924-26.082
			c3.789-3.965,7.205-8.27,10.207-12.859l41.111-62.871l275.485-428.905l107.704-170.557l240.952-379.624l39.755-61.484
			c4.346-6.721,8.422-13.612,12.22-20.656l101.697-188.656l2.81-5.213c2.265-4.202,8.34-4.059,10.405,0.244l12.062,25.131
			C5748.479,2122.938,5748.728,2129.469,5746.45,2135.317z M5855.128,1854.549c-0.062,1.262-0.327,2.506-0.785,3.683
			l-86.282,221.585c-2.001,5.139-9.171,5.412-11.558,0.44l-8.635-17.991c-3.583-7.466-3.846-16.098-0.724-23.768l66.078-162.305
			l1.512-3.83c1.125-2.849,1.81-5.853,2.03-8.909l37.152-515.104l0.357,0.017l0.669-14.247l10.694-148.271
			c0.304-4.215,1.768-8.264,4.229-11.699l14.275-19.919c1.611-2.248,5.16-1.012,5.026,1.751L5855.128,1854.549z"/>
	</g>
	<g id="Layer_40">
		<polygon id='test_poly' style="fill:#EAE1D3;stroke:#009345;stroke-width:3;stroke-miterlimit:10;" points="1226.51,3552.55 723.75,3741.75 
			705.349,3729.75 796.25,3219.25 1401.86,3080.906 		"/>
		<polygon style="fill:#EAE1D3;stroke:#009345;stroke-width:3;stroke-miterlimit:10;" points="999.475,3317.801 1022.219,3167.63 
			1401.86,3080.906 1295.72,3366.392 		"/>
		<polygon style="fill:#A1CE99;stroke:#009345;stroke-width:3;stroke-miterlimit:10;" points="796.25,3219.25 889,2695 
			915.833,2679.375 1470,2886.75 1401.86,3080.906 		"/>
		<polygon style="fill:#A1CE99;stroke:#009345;stroke-width:3;stroke-miterlimit:10;" points="1254.192,2805.992 1470,2886.75 
			1401.86,3080.906 1129.268,3143.176 		"/>
		<polygon style="fill:#A1CE99;stroke:#009345;stroke-width:3;stroke-miterlimit:10;" points="910.541,2577.412 944.417,2386.192 
			1355.152,2541.436 1279.545,2744.379 938.5,2616.5 		"/>
		<polygon style="fill:#A1CE99;stroke:#009345;stroke-width:3;stroke-miterlimit:10;" points="1403,2413 1535.727,2051.214 
			1754.25,2140.125 1620.049,2496.832 		"/>
		<polygon style="fill:#A1CE99;stroke:#009345;stroke-width:3;stroke-miterlimit:10;" points="988.797,2135.672 1039.525,1849.324 
			1535.727,2051.214 1442.488,2305.363 		"/>
		<polygon style="fill:#A1CE99;stroke:#009345;stroke-width:3;stroke-miterlimit:10;" points="944.417,2386.192 988.797,2135.672 
			1442.488,2305.363 1355.152,2541.436 		"/>
		<polygon style="fill:#A1CE99;stroke:#009345;stroke-width:3;stroke-miterlimit:10;" points="1279.545,2744.379 1403,2413 
			1620.049,2496.832 1496.333,2825.667 		"/>
		
			<rect x="1037.28" y="3221.559" transform="matrix(0.9892 0.1468 -0.1468 0.9892 490.299 -127.395)" style="fill:#8FC2D8;stroke:#2E3191;stroke-width:2;stroke-miterlimit:10;" width="142.252" height="74.24"/>
		
			<rect x="979.571" y="3386.093" transform="matrix(0.989 0.1478 -0.1478 0.989 520.4169 -121.9915)" style="fill:#8FC2D8;stroke:#2E3191;stroke-width:2;stroke-miterlimit:10;" width="202.901" height="109.013"/>
		
			<rect x="839.341" y="3257.52" transform="matrix(0.989 0.1478 -0.1478 0.989 506.5952 -95.0835)" style="fill:#8FC2D8;stroke:#2E3191;stroke-width:2;stroke-miterlimit:10;" width="107.44" height="207.069"/>
		<polygon style="fill:#A1CE99;stroke:#009345;stroke-width:3;stroke-miterlimit:10;" points="854.218,4689.512 470.237,4543.878 
			724.984,3812.198 1252.61,3616.543 		"/>
		<polygon style="fill:#A1CE99;stroke:#009345;stroke-width:3;stroke-miterlimit:10;" points="1318,5244.667 961.333,5071.333 
			1046,4846.667 1322.667,4950.667 1467.333,5021.929 1822.667,5198.496 2012,5367.333 2472.667,5773.333 2185.333,6010.667 
			1749.86,5625.333 		"/>
		<polygon style="fill:#A1CE99;stroke:#009345;stroke-width:3;stroke-miterlimit:10;" points="1318,5244.667 961.333,5071.333 
			1046,4846.667 1322.667,4950.667 1467.333,5021.929 1822.667,5198.496 2012,5367.333 1749.86,5625.333 		"/>
		<polygon style="fill:#A1CE99;stroke:#009345;stroke-width:3;stroke-miterlimit:10;" points="1318,5244.667 961.333,5071.333 
			1046,4846.667 1322.667,4950.667 1467.333,5021.929 		"/>
		<polygon style="fill:#A1CE99;stroke:#009345;stroke-width:3;stroke-miterlimit:10;" points="643.519,4046.181 724.984,3812.198 
			1252.61,3616.543 1040.256,4188.466 		"/>
		<polygon style="fill:#EAE1D3;stroke:#009345;stroke-width:3;stroke-miterlimit:10;" points="1055.452,3689.654 1252.61,3616.543 
			1201.68,3753.71 		"/>
	</g>
	<g id="Layer_66">
		<g>
			<polygon style="fill:#A1CE99;stroke:#2E3191;stroke-miterlimit:10;" points="4094.23,4384.055 3776.167,3987.181 
				3359.656,3469.282 2933.998,2939.49 2413.352,2291.528 1935.944,1696.574 1197.99,782.876 1187.938,791.031 1926.76,1706.798 
				2404.396,2301.894 2924.282,2948.767 3347.035,3474.873 3763.409,3992.485 4085.009,4393.668 			"/>
			<polygon style="fill:#A1CE99;stroke:#2E3191;stroke-miterlimit:10;" points="4922.23,5425.723 4547.151,4954.7 
				4186.124,4498.719 4156.315,4461.524 4147.021,4471.026 4173.91,4504.569 4534.901,4960.414 4911.805,5433.517 5333.67,5965.599 
				5343.722,5957.444 			"/>
		</g>
		<line style="fill:none;stroke:#2E3191;stroke-miterlimit:10;" x1="4049.695" y1="4430.484" x2="4128.308" y2="4348.529"/>
		<line style="fill:none;stroke:#2E3191;stroke-miterlimit:10;" x1="4111.521" y1="4507.318" x2="4190.747" y2="4426.324"/>
	</g>
	<g id="&#x41E;&#x431;&#x44C;&#x435;&#x43A;&#x442;&#x44B;_1_">
		<g>
			<g>
				<polyline style="fill:none;stroke:#2E3191;stroke-width:2;stroke-miterlimit:10;" points="1451.682,2755.431 1450.639,2758.244 
					1447.826,2757.201 				"/>
				
					<line style="fill:none;stroke:#2E3191;stroke-width:2;stroke-miterlimit:10;stroke-dasharray:5.5301,5.5301;" x1="1442.641" y1="2755.278" x2="1414.124" y2="2744.701"/>
				<polyline style="fill:none;stroke:#2E3191;stroke-width:2;stroke-miterlimit:10;" points="1411.532,2743.74 1408.719,2742.696 
					1409.762,2739.884 				"/>
				
					<line style="fill:none;stroke:#2E3191;stroke-width:2;stroke-miterlimit:10;stroke-dasharray:7.4939,7.4939;" x1="1412.368" y1="2732.857" x2="1416.277" y2="2722.318"/>
				<polyline style="fill:none;stroke:#2E3191;stroke-width:2;stroke-miterlimit:10;" points="1417.58,2718.805 1418.623,2715.992 
					1421.436,2717.036 				"/>
				
					<line style="fill:none;stroke:#2E3191;stroke-width:2;stroke-miterlimit:10;stroke-dasharray:5.5301,5.5301;" x1="1426.621" y1="2718.958" x2="1455.138" y2="2729.535"/>
				<polyline style="fill:none;stroke:#2E3191;stroke-width:2;stroke-miterlimit:10;" points="1457.73,2730.497 1460.543,2731.54 
					1459.5,2734.353 				"/>
				
					<line style="fill:none;stroke:#2E3191;stroke-width:2;stroke-miterlimit:10;stroke-dasharray:7.4939,7.4939;" x1="1456.894" y1="2741.379" x2="1452.985" y2="2751.918"/>
			</g>
		</g>
		<g>
			<g>
				<polyline style="fill:none;stroke:#2E3191;stroke-width:2;stroke-miterlimit:10;" points="1604.589,2342.531 1603.546,2345.344 
					1600.733,2344.301 				"/>
				
					<line style="fill:none;stroke:#2E3191;stroke-width:2;stroke-miterlimit:10;stroke-dasharray:6.2226,6.2226;" x1="1594.899" y1="2342.137" x2="1492.8" y2="2304.27"/>
				<polyline style="fill:none;stroke:#2E3191;stroke-width:2;stroke-miterlimit:10;" points="1489.883,2303.188 1487.07,2302.145 
					1488.113,2299.332 				"/>
				
					<line style="fill:none;stroke:#2E3191;stroke-width:2;stroke-miterlimit:10;stroke-dasharray:5.9943,5.9943;" x1="1490.198" y1="2293.712" x2="1547.521" y2="2139.157"/>
				<polyline style="fill:none;stroke:#2E3191;stroke-width:2;stroke-miterlimit:10;" points="1548.563,2136.347 1549.606,2133.534 
					1552.419,2134.577 				"/>
				
					<line style="fill:none;stroke:#2E3191;stroke-width:2;stroke-miterlimit:10;stroke-dasharray:6.2226,6.2226;" x1="1558.253" y1="2136.741" x2="1660.352" y2="2174.608"/>
				<polyline style="fill:none;stroke:#2E3191;stroke-width:2;stroke-miterlimit:10;" points="1663.269,2175.69 1666.082,2176.733 
					1665.038,2179.546 				"/>
				
					<line style="fill:none;stroke:#2E3191;stroke-width:2;stroke-miterlimit:10;stroke-dasharray:5.9943,5.9943;" x1="1662.954" y1="2185.167" x2="1605.631" y2="2339.721"/>
			</g>
		</g>
		<g>
			<g>
				<polyline style="fill:none;stroke:#2E3191;stroke-width:2;stroke-miterlimit:10;" points="1298.593,2172.78 1297.55,2175.593 
					1294.737,2174.55 				"/>
				
					<line style="fill:none;stroke:#2E3191;stroke-width:2;stroke-miterlimit:10;stroke-dasharray:6.0163,6.0163;" x1="1289.097" y1="2172.458" x2="1133.974" y2="2114.925"/>
				<polyline style="fill:none;stroke:#2E3191;stroke-width:2;stroke-miterlimit:10;" points="1131.154,2113.878 1128.341,2112.835 
					1129.385,2110.022 				"/>
				
					<line style="fill:none;stroke:#2E3191;stroke-width:2;stroke-miterlimit:10;stroke-dasharray:5.7263,5.7263;" x1="1131.376" y1="2104.654" x2="1170.206" y2="1999.96"/>
				<polyline style="fill:none;stroke:#2E3191;stroke-width:2;stroke-miterlimit:10;" points="1171.201,1997.275 1172.245,1994.463 
					1175.057,1995.506 				"/>
				
					<line style="fill:none;stroke:#2E3191;stroke-width:2;stroke-miterlimit:10;stroke-dasharray:6.0163,6.0163;" x1="1180.698" y1="1997.598" x2="1335.82" y2="2055.131"/>
				<polyline style="fill:none;stroke:#2E3191;stroke-width:2;stroke-miterlimit:10;" points="1338.641,2056.177 1341.453,2057.22 
					1340.41,2060.033 				"/>
				
					<line style="fill:none;stroke:#2E3191;stroke-width:2;stroke-miterlimit:10;stroke-dasharray:5.7263,5.7263;" x1="1338.419" y1="2065.402" x2="1299.589" y2="2170.096"/>
			</g>
		</g>
		<g>
			<g>
				<polyline style="fill:none;stroke:#2E3191;stroke-width:2;stroke-miterlimit:10;" points="1184.575,2045.656 1183.532,2048.469 
					1180.719,2047.426 				"/>
				
					<line style="fill:none;stroke:#2E3191;stroke-width:2;stroke-miterlimit:10;stroke-dasharray:4.6726,4.6726;" x1="1176.338" y1="2045.801" x2="1161.005" y2="2040.114"/>
				<polyline style="fill:none;stroke:#2E3191;stroke-width:2;stroke-miterlimit:10;" points="1158.814,2039.302 1156.001,2038.258 
					1157.044,2035.446 				"/>
				
					<line style="fill:none;stroke:#2E3191;stroke-width:2;stroke-miterlimit:10;stroke-dasharray:5.8159,5.8159;" x1="1159.067" y1="2029.993" x2="1170.19" y2="2000.002"/>
				<polyline style="fill:none;stroke:#2E3191;stroke-width:2;stroke-miterlimit:10;" points="1171.201,1997.275 1172.245,1994.463 
					1175.057,1995.506 				"/>
				
					<line style="fill:none;stroke:#2E3191;stroke-width:2;stroke-miterlimit:10;stroke-dasharray:4.6726,4.6726;" x1="1179.438" y1="1997.131" x2="1194.772" y2="2002.818"/>
				<polyline style="fill:none;stroke:#2E3191;stroke-width:2;stroke-miterlimit:10;" points="1196.963,2003.63 1199.775,2004.673 
					1198.732,2007.486 				"/>
				
					<line style="fill:none;stroke:#2E3191;stroke-width:2;stroke-miterlimit:10;stroke-dasharray:5.8159,5.8159;" x1="1196.71" y1="2012.939" x2="1185.586" y2="2042.93"/>
			</g>
		</g>
		<g>
			<g>
				<polyline style="fill:none;stroke:#2E3191;stroke-width:2;stroke-miterlimit:10;" points="1255.063,2422.644 1254.02,2425.457 
					1251.208,2424.413 				"/>
				
					<line style="fill:none;stroke:#2E3191;stroke-width:2;stroke-miterlimit:10;stroke-dasharray:6.0163,6.0163;" x1="1245.567" y1="2422.321" x2="1090.445" y2="2364.788"/>
				<polyline style="fill:none;stroke:#2E3191;stroke-width:2;stroke-miterlimit:10;" points="1087.624,2363.742 1084.812,2362.699 
					1085.855,2359.886 				"/>
				
					<line style="fill:none;stroke:#2E3191;stroke-width:2;stroke-miterlimit:10;stroke-dasharray:5.7263,5.7263;" x1="1087.846" y1="2354.517" x2="1126.676" y2="2249.823"/>
				<polyline style="fill:none;stroke:#2E3191;stroke-width:2;stroke-miterlimit:10;" points="1127.672,2247.139 1128.715,2244.326 
					1131.527,2245.369 				"/>
				
					<line style="fill:none;stroke:#2E3191;stroke-width:2;stroke-miterlimit:10;stroke-dasharray:6.0163,6.0163;" x1="1137.168" y1="2247.461" x2="1292.29" y2="2304.995"/>
				<polyline style="fill:none;stroke:#2E3191;stroke-width:2;stroke-miterlimit:10;" points="1295.111,2306.041 1297.924,2307.084 
					1296.88,2309.897 				"/>
				
					<line style="fill:none;stroke:#2E3191;stroke-width:2;stroke-miterlimit:10;stroke-dasharray:5.7263,5.7263;" x1="1294.889" y1="2315.266" x2="1256.059" y2="2419.959"/>
			</g>
		</g>
		<g>
			<g>
				<polyline style="fill:none;stroke:#2E3191;stroke-width:2;stroke-miterlimit:10;" points="1141.045,2295.52 1140.002,2298.333 
					1137.189,2297.29 				"/>
				
					<line style="fill:none;stroke:#2E3191;stroke-width:2;stroke-miterlimit:10;stroke-dasharray:4.6726,4.6726;" x1="1132.808" y1="2295.665" x2="1117.475" y2="2289.978"/>
				<polyline style="fill:none;stroke:#2E3191;stroke-width:2;stroke-miterlimit:10;" points="1115.284,2289.165 1112.471,2288.122 
					1113.515,2285.309 				"/>
				
					<line style="fill:none;stroke:#2E3191;stroke-width:2;stroke-miterlimit:10;stroke-dasharray:5.8159,5.8159;" x1="1115.537" y1="2279.856" x2="1126.66" y2="2249.865"/>
				<polyline style="fill:none;stroke:#2E3191;stroke-width:2;stroke-miterlimit:10;" points="1127.672,2247.139 1128.715,2244.326 
					1131.527,2245.369 				"/>
				
					<line style="fill:none;stroke:#2E3191;stroke-width:2;stroke-miterlimit:10;stroke-dasharray:4.6726,4.6726;" x1="1135.909" y1="2246.994" x2="1151.242" y2="2252.681"/>
				<polyline style="fill:none;stroke:#2E3191;stroke-width:2;stroke-miterlimit:10;" points="1153.433,2253.494 1156.245,2254.537 
					1155.202,2257.35 				"/>
				
					<line style="fill:none;stroke:#2E3191;stroke-width:2;stroke-miterlimit:10;stroke-dasharray:5.8159,5.8159;" x1="1153.18" y1="2262.802" x2="1142.056" y2="2292.793"/>
			</g>
		</g>
		<g>
			<g>
				<polyline style="fill:none;stroke:#2E3191;stroke-width:2;stroke-miterlimit:10;" points="1212.078,2668.525 1211.034,2671.338 
					1208.222,2670.295 				"/>
				
					<line style="fill:none;stroke:#2E3191;stroke-width:2;stroke-miterlimit:10;stroke-dasharray:6.0163,6.0163;" x1="1202.581" y1="2668.203" x2="1047.459" y2="2610.67"/>
				<polyline style="fill:none;stroke:#2E3191;stroke-width:2;stroke-miterlimit:10;" points="1044.638,2609.624 1041.826,2608.58 
					1042.869,2605.768 				"/>
				
					<line style="fill:none;stroke:#2E3191;stroke-width:2;stroke-miterlimit:10;stroke-dasharray:5.7263,5.7263;" x1="1044.86" y1="2600.399" x2="1083.69" y2="2495.705"/>
				<polyline style="fill:none;stroke:#2E3191;stroke-width:2;stroke-miterlimit:10;" points="1084.686,2493.02 1085.729,2490.208 
					1088.542,2491.251 				"/>
				
					<line style="fill:none;stroke:#2E3191;stroke-width:2;stroke-miterlimit:10;stroke-dasharray:6.0163,6.0163;" x1="1094.182" y1="2493.343" x2="1249.304" y2="2550.876"/>
				<polyline style="fill:none;stroke:#2E3191;stroke-width:2;stroke-miterlimit:10;" points="1252.125,2551.922 1254.938,2552.966 
					1253.894,2555.778 				"/>
				
					<line style="fill:none;stroke:#2E3191;stroke-width:2;stroke-miterlimit:10;stroke-dasharray:5.7263,5.7263;" x1="1251.903" y1="2561.147" x2="1213.073" y2="2665.841"/>
			</g>
		</g>
		<g>
			<g>
				<polyline style="fill:none;stroke:#2E3191;stroke-width:2;stroke-miterlimit:10;" points="1098.059,2541.402 1097.016,2544.214 
					1094.203,2543.171 				"/>
				
					<line style="fill:none;stroke:#2E3191;stroke-width:2;stroke-miterlimit:10;stroke-dasharray:4.6726,4.6726;" x1="1089.822" y1="2541.546" x2="1074.489" y2="2535.859"/>
				<polyline style="fill:none;stroke:#2E3191;stroke-width:2;stroke-miterlimit:10;" points="1072.298,2535.047 1069.485,2534.003 
					1070.529,2531.191 				"/>
				
					<line style="fill:none;stroke:#2E3191;stroke-width:2;stroke-miterlimit:10;stroke-dasharray:5.8159,5.8159;" x1="1072.551" y1="2525.738" x2="1083.674" y2="2495.747"/>
				<polyline style="fill:none;stroke:#2E3191;stroke-width:2;stroke-miterlimit:10;" points="1084.686,2493.02 1085.729,2490.208 
					1088.542,2491.251 				"/>
				
					<line style="fill:none;stroke:#2E3191;stroke-width:2;stroke-miterlimit:10;stroke-dasharray:4.6726,4.6726;" x1="1092.923" y1="2492.876" x2="1108.256" y2="2498.563"/>
				<polyline style="fill:none;stroke:#2E3191;stroke-width:2;stroke-miterlimit:10;" points="1110.447,2499.375 1113.259,2500.418 
					1112.216,2503.231 				"/>
				
					<line style="fill:none;stroke:#2E3191;stroke-width:2;stroke-miterlimit:10;stroke-dasharray:5.8159,5.8159;" x1="1110.194" y1="2508.684" x2="1099.07" y2="2538.675"/>
			</g>
		</g>
		<g>
			<g>
				<polyline style="fill:none;stroke:#2E3191;stroke-width:2;stroke-miterlimit:10;" points="1077.192,2979.302 1076.148,2982.115 
					1073.336,2981.072 				"/>
				
					<line style="fill:none;stroke:#2E3191;stroke-width:2;stroke-miterlimit:10;stroke-dasharray:6.2791,6.2791;" x1="1067.448" y1="2978.888" x2="964.421" y2="2940.677"/>
				<polyline style="fill:none;stroke:#2E3191;stroke-width:2;stroke-miterlimit:10;" points="961.478,2939.585 958.665,2938.542 
					959.708,2935.729 				"/>
				
					<line style="fill:none;stroke:#2E3191;stroke-width:2;stroke-miterlimit:10;stroke-dasharray:5.9981,5.9981;" x1="961.794" y1="2930.105" x2="1019.154" y2="2775.451"/>
				<polyline style="fill:none;stroke:#2E3191;stroke-width:2;stroke-miterlimit:10;" points="1020.196,2772.639 1021.24,2769.826 
					1024.052,2770.87 				"/>
				
					<line style="fill:none;stroke:#2E3191;stroke-width:2;stroke-miterlimit:10;stroke-dasharray:6.2791,6.2791;" x1="1029.94" y1="2773.053" x2="1132.967" y2="2811.265"/>
				<polyline style="fill:none;stroke:#2E3191;stroke-width:2;stroke-miterlimit:10;" points="1135.91,2812.357 1138.723,2813.4 
					1137.68,2816.213 				"/>
				
					<line style="fill:none;stroke:#2E3191;stroke-width:2;stroke-miterlimit:10;stroke-dasharray:5.9981,5.9981;" x1="1135.594" y1="2821.836" x2="1078.234" y2="2976.49"/>
			</g>
		</g>
		<g>
			
				<rect x="892.419" y="3849.508" transform="matrix(0.9376 0.3477 -0.3477 0.9376 1438.5785 -90.4972)" style="fill:#B6B6B7;" width="157.982" height="226.105"/>
			<g>
				<polyline style="fill:none;stroke:#2E3191;stroke-width:2;stroke-miterlimit:10;" points="1007.201,4093.213 1006.158,4096.026 
					1003.345,4094.983 				"/>
				
					<line style="fill:none;stroke:#2E3191;stroke-width:2;stroke-miterlimit:10;stroke-dasharray:6.0793,6.0793;" x1="997.645" y1="4092.869" x2="863.698" y2="4043.189"/>
				<polyline style="fill:none;stroke:#2E3191;stroke-width:2;stroke-miterlimit:10;" points="860.848,4042.132 858.036,4041.089 
					859.079,4038.276 				"/>
				
					<line style="fill:none;stroke:#2E3191;stroke-width:2;stroke-miterlimit:10;stroke-dasharray:5.9488,5.9488;" x1="861.147" y1="4032.699" x2="934.585" y2="3834.697"/>
				<polyline style="fill:none;stroke:#2E3191;stroke-width:2;stroke-miterlimit:10;" points="935.619,3831.908 936.662,3829.095 
					939.475,3830.138 				"/>
				
					<line style="fill:none;stroke:#2E3191;stroke-width:2;stroke-miterlimit:10;stroke-dasharray:6.0793,6.0793;" x1="945.175" y1="3832.252" x2="1079.122" y2="3881.932"/>
				<polyline style="fill:none;stroke:#2E3191;stroke-width:2;stroke-miterlimit:10;" points="1081.971,3882.989 1084.784,3884.032 
					1083.741,3886.845 				"/>
				
					<line style="fill:none;stroke:#2E3191;stroke-width:2;stroke-miterlimit:10;stroke-dasharray:5.9488,5.9488;" x1="1081.672" y1="3892.422" x2="1008.235" y2="4090.425"/>
			</g>
		</g>
		<g>
			<g>
				<polyline style="fill:none;stroke:#2E3191;stroke-width:2;stroke-miterlimit:10;" points="975.423,3878.621 974.379,3881.434 
					971.567,3880.391 				"/>
				
					<line style="fill:none;stroke:#2E3191;stroke-width:2;stroke-miterlimit:10;stroke-dasharray:6.7948,6.7948;" x1="965.196" y1="3878.028" x2="930.157" y2="3865.032"/>
				<polyline style="fill:none;stroke:#2E3191;stroke-width:2;stroke-miterlimit:10;" points="926.971,3863.851 924.159,3862.807 
					925.202,3859.995 				"/>
				
					<line style="fill:none;stroke:#2E3191;stroke-width:2;stroke-miterlimit:10;stroke-dasharray:5.9913,5.9913;" x1="927.285" y1="3854.377" x2="934.577" y2="3834.716"/>
				<polyline style="fill:none;stroke:#2E3191;stroke-width:2;stroke-miterlimit:10;" points="935.619,3831.908 936.662,3829.095 
					939.475,3830.138 				"/>
				
					<line style="fill:none;stroke:#2E3191;stroke-width:2;stroke-miterlimit:10;stroke-dasharray:6.7948,6.7948;" x1="945.846" y1="3832.501" x2="980.885" y2="3845.497"/>
				<polyline style="fill:none;stroke:#2E3191;stroke-width:2;stroke-miterlimit:10;" points="984.07,3846.678 986.883,3847.721 
					985.84,3850.534 				"/>
				
					<line style="fill:none;stroke:#2E3191;stroke-width:2;stroke-miterlimit:10;stroke-dasharray:5.9913,5.9913;" x1="983.756" y1="3856.152" x2="976.464" y2="3875.812"/>
			</g>
		</g>
		<g>
			
				<rect x="770.625" y="4195.084" transform="matrix(0.9376 0.3477 -0.3477 0.9376 1551.149 -26.5767)" style="fill:#B6B6B7;" width="157.982" height="226.105"/>
			<g>
				<polyline style="fill:none;stroke:#2E3191;stroke-width:2;stroke-miterlimit:10;" points="885.407,4438.79 884.364,4441.603 
					881.551,4440.559 				"/>
				
					<line style="fill:none;stroke:#2E3191;stroke-width:2;stroke-miterlimit:10;stroke-dasharray:6.0793,6.0793;" x1="875.851" y1="4438.445" x2="741.904" y2="4388.766"/>
				<polyline style="fill:none;stroke:#2E3191;stroke-width:2;stroke-miterlimit:10;" points="739.054,4387.708 736.242,4386.666 
					737.285,4383.853 				"/>
				
					<line style="fill:none;stroke:#2E3191;stroke-width:2;stroke-miterlimit:10;stroke-dasharray:5.9488,5.9488;" x1="739.353" y1="4378.275" x2="812.791" y2="4180.273"/>
				<polyline style="fill:none;stroke:#2E3191;stroke-width:2;stroke-miterlimit:10;" points="813.825,4177.484 814.868,4174.671 
					817.681,4175.714 				"/>
				
					<line style="fill:none;stroke:#2E3191;stroke-width:2;stroke-miterlimit:10;stroke-dasharray:6.0793,6.0793;" x1="823.381" y1="4177.829" x2="957.328" y2="4227.508"/>
				<polyline style="fill:none;stroke:#2E3191;stroke-width:2;stroke-miterlimit:10;" points="960.177,4228.565 962.99,4229.608 
					961.947,4232.421 				"/>
				
					<line style="fill:none;stroke:#2E3191;stroke-width:2;stroke-miterlimit:10;stroke-dasharray:5.9488,5.9488;" x1="959.878" y1="4237.999" x2="886.441" y2="4436.001"/>
			</g>
		</g>
		<g>
			<g>
				<polyline style="fill:none;stroke:#2E3191;stroke-width:2;stroke-miterlimit:10;" points="853.629,4224.198 852.585,4227.01 
					849.773,4225.967 				"/>
				
					<line style="fill:none;stroke:#2E3191;stroke-width:2;stroke-miterlimit:10;stroke-dasharray:6.7948,6.7948;" x1="843.402" y1="4223.604" x2="808.363" y2="4210.608"/>
				<polyline style="fill:none;stroke:#2E3191;stroke-width:2;stroke-miterlimit:10;" points="805.177,4209.427 802.365,4208.384 
					803.408,4205.571 				"/>
				
					<line style="fill:none;stroke:#2E3191;stroke-width:2;stroke-miterlimit:10;stroke-dasharray:5.9913,5.9913;" x1="805.491" y1="4199.954" x2="812.783" y2="4180.293"/>
				<polyline style="fill:none;stroke:#2E3191;stroke-width:2;stroke-miterlimit:10;" points="813.825,4177.484 814.868,4174.671 
					817.681,4175.715 				"/>
				
					<line style="fill:none;stroke:#2E3191;stroke-width:2;stroke-miterlimit:10;stroke-dasharray:6.7948,6.7948;" x1="824.052" y1="4178.078" x2="859.091" y2="4191.073"/>
				<polyline style="fill:none;stroke:#2E3191;stroke-width:2;stroke-miterlimit:10;" points="862.276,4192.255 865.089,4193.298 
					864.046,4196.111 				"/>
				
					<line style="fill:none;stroke:#2E3191;stroke-width:2;stroke-miterlimit:10;stroke-dasharray:5.9913,5.9913;" x1="861.962" y1="4201.728" x2="854.67" y2="4221.389"/>
			</g>
		</g>
		<g>
			<g>
				<polyline style="fill:none;stroke:#2E3191;stroke-width:2;stroke-miterlimit:10;" points="1054.907,2808.793 1053.864,2811.606 
					1051.052,2810.563 				"/>
				
					<line style="fill:none;stroke:#2E3191;stroke-width:2;stroke-miterlimit:10;stroke-dasharray:5.5882,5.5882;" x1="1045.812" y1="2808.62" x2="1016.995" y2="2797.932"/>
				<polyline style="fill:none;stroke:#2E3191;stroke-width:2;stroke-miterlimit:10;" points="1014.376,2796.96 1011.563,2795.917 
					1012.606,2793.104 				"/>
				
					<line style="fill:none;stroke:#2E3191;stroke-width:2;stroke-miterlimit:10;stroke-dasharray:7.2757,7.2757;" x1="1015.136" y1="2786.282" x2="1018.931" y2="2776.05"/>
				<polyline style="fill:none;stroke:#2E3191;stroke-width:2;stroke-miterlimit:10;" points="1020.196,2772.639 1021.24,2769.826 
					1024.052,2770.87 				"/>
				
					<line style="fill:none;stroke:#2E3191;stroke-width:2;stroke-miterlimit:10;stroke-dasharray:5.5882,5.5882;" x1="1029.292" y1="2772.813" x2="1058.109" y2="2783.501"/>
				<polyline style="fill:none;stroke:#2E3191;stroke-width:2;stroke-miterlimit:10;" points="1060.728,2784.472 1063.541,2785.516 
					1062.498,2788.328 				"/>
				
					<line style="fill:none;stroke:#2E3191;stroke-width:2;stroke-miterlimit:10;stroke-dasharray:7.2757,7.2757;" x1="1059.968" y1="2795.15" x2="1056.172" y2="2805.383"/>
			</g>
		</g>
		<g>
			<g>
				<polyline style="fill:none;stroke:#2E3191;stroke-width:2;stroke-miterlimit:10;" points="1336.153,3078.078 1335.109,3080.891 
					1332.297,3079.848 				"/>
				
					<line style="fill:none;stroke:#2E3191;stroke-width:2;stroke-miterlimit:10;stroke-dasharray:6.2791,6.2791;" x1="1326.409" y1="3077.664" x2="1223.382" y2="3039.452"/>
				<polyline style="fill:none;stroke:#2E3191;stroke-width:2;stroke-miterlimit:10;" points="1220.439,3038.361 1217.626,3037.317 
					1218.669,3034.505 				"/>
				
					<line style="fill:none;stroke:#2E3191;stroke-width:2;stroke-miterlimit:10;stroke-dasharray:5.9981,5.9981;" x1="1220.755" y1="3028.881" x2="1278.115" y2="2874.227"/>
				<polyline style="fill:none;stroke:#2E3191;stroke-width:2;stroke-miterlimit:10;" points="1279.158,2871.415 1280.201,2868.602 
					1283.014,2869.646 				"/>
				
					<line style="fill:none;stroke:#2E3191;stroke-width:2;stroke-miterlimit:10;stroke-dasharray:6.2791,6.2791;" x1="1288.901" y1="2871.829" x2="1391.928" y2="2910.041"/>
				<polyline style="fill:none;stroke:#2E3191;stroke-width:2;stroke-miterlimit:10;" points="1394.872,2911.133 1397.684,2912.176 
					1396.641,2914.989 				"/>
				
					<line style="fill:none;stroke:#2E3191;stroke-width:2;stroke-miterlimit:10;stroke-dasharray:5.9981,5.9981;" x1="1394.555" y1="2920.612" x2="1337.196" y2="3075.266"/>
			</g>
		</g>
		<g>
			<g>
				<polyline style="fill:none;stroke:#2E3191;stroke-width:2;stroke-miterlimit:10;" points="1313.869,2907.569 1312.825,2910.382 
					1310.013,2909.339 				"/>
				
					<line style="fill:none;stroke:#2E3191;stroke-width:2;stroke-miterlimit:10;stroke-dasharray:5.5882,5.5882;" x1="1304.773" y1="2907.396" x2="1275.957" y2="2896.708"/>
				<polyline style="fill:none;stroke:#2E3191;stroke-width:2;stroke-miterlimit:10;" points="1273.337,2895.736 1270.524,2894.693 
					1271.567,2891.88 				"/>
				
					<line style="fill:none;stroke:#2E3191;stroke-width:2;stroke-miterlimit:10;stroke-dasharray:7.2757,7.2757;" x1="1274.097" y1="2885.058" x2="1277.893" y2="2874.826"/>
				<polyline style="fill:none;stroke:#2E3191;stroke-width:2;stroke-miterlimit:10;" points="1279.158,2871.415 1280.201,2868.602 
					1283.014,2869.646 				"/>
				
					<line style="fill:none;stroke:#2E3191;stroke-width:2;stroke-miterlimit:10;stroke-dasharray:5.5882,5.5882;" x1="1288.253" y1="2871.589" x2="1317.07" y2="2882.277"/>
				<polyline style="fill:none;stroke:#2E3191;stroke-width:2;stroke-miterlimit:10;" points="1319.689,2883.248 1322.502,2884.292 
					1321.459,2887.104 				"/>
				
					<line style="fill:none;stroke:#2E3191;stroke-width:2;stroke-miterlimit:10;stroke-dasharray:7.2757,7.2757;" x1="1318.929" y1="2893.926" x2="1315.134" y2="2904.158"/>
			</g>
		</g>
		<g>
			<g>
				<polyline style="fill:none;stroke:#2E3191;stroke-width:2;stroke-miterlimit:10;" points="1657.542,2199.758 1656.499,2202.571 
					1653.686,2201.528 				"/>
				
					<line style="fill:none;stroke:#2E3191;stroke-width:2;stroke-miterlimit:10;stroke-dasharray:5.6203,5.6203;" x1="1648.417" y1="2199.573" x2="1619.434" y2="2188.824"/>
				<polyline style="fill:none;stroke:#2E3191;stroke-width:2;stroke-miterlimit:10;" points="1616.799,2187.847 1613.987,2186.804 
					1615.03,2183.991 				"/>
				
					<line style="fill:none;stroke:#2E3191;stroke-width:2;stroke-miterlimit:10;stroke-dasharray:7.1858,7.1858;" x1="1617.529" y1="2177.254" x2="1621.277" y2="2167.148"/>
				<polyline style="fill:none;stroke:#2E3191;stroke-width:2;stroke-miterlimit:10;" points="1622.526,2163.779 1623.57,2160.966 
					1626.382,2162.01 				"/>
				
					<line style="fill:none;stroke:#2E3191;stroke-width:2;stroke-miterlimit:10;stroke-dasharray:5.6203,5.6203;" x1="1631.652" y1="2163.964" x2="1660.634" y2="2174.713"/>
				<polyline style="fill:none;stroke:#2E3191;stroke-width:2;stroke-miterlimit:10;" points="1663.269,2175.69 1666.082,2176.733 
					1665.038,2179.546 				"/>
				
					<line style="fill:none;stroke:#2E3191;stroke-width:2;stroke-miterlimit:10;stroke-dasharray:7.1858,7.1858;" x1="1662.54" y1="2186.284" x2="1658.791" y2="2196.39"/>
			</g>
		</g>
		<g>
			<g>
				<polyline style="fill:none;stroke:#2E3191;stroke-width:2;stroke-miterlimit:10;" points="1451.682,2755.431 1450.639,2758.244 
					1447.826,2757.201 				"/>
				
					<line style="fill:none;stroke:#2E3191;stroke-width:2;stroke-miterlimit:10;stroke-dasharray:6.2226,6.2226;" x1="1441.992" y1="2755.037" x2="1339.893" y2="2717.17"/>
				<polyline style="fill:none;stroke:#2E3191;stroke-width:2;stroke-miterlimit:10;" points="1336.976,2716.088 1334.164,2715.045 
					1335.207,2712.232 				"/>
				
					<line style="fill:none;stroke:#2E3191;stroke-width:2;stroke-miterlimit:10;stroke-dasharray:5.9943,5.9943;" x1="1337.291" y1="2706.612" x2="1394.614" y2="2552.057"/>
				<polyline style="fill:none;stroke:#2E3191;stroke-width:2;stroke-miterlimit:10;" points="1395.656,2549.247 1396.7,2546.434 
					1399.512,2547.477 				"/>
				
					<line style="fill:none;stroke:#2E3191;stroke-width:2;stroke-miterlimit:10;stroke-dasharray:6.2226,6.2226;" x1="1405.347" y1="2549.641" x2="1507.445" y2="2587.508"/>
				<polyline style="fill:none;stroke:#2E3191;stroke-width:2;stroke-miterlimit:10;" points="1510.362,2588.59 1513.175,2589.634 
					1512.132,2592.446 				"/>
				
					<line style="fill:none;stroke:#2E3191;stroke-width:2;stroke-miterlimit:10;stroke-dasharray:5.9943,5.9943;" x1="1510.047" y1="2598.066" x2="1452.724" y2="2752.621"/>
			</g>
		</g>
		
			<rect x="2805.694" y="4405.993" transform="matrix(0.7054 0.7088 -0.7088 0.7054 3962.7534 -692.7372)" style="fill:#FF0000;stroke:#2E3191;stroke-width:2;stroke-miterlimit:10;" width="18.22" height="30.397"/>
	</g>
	<path style="fill:#EAB28C;stroke:#BE1E2D;stroke-width:2;stroke-miterlimit:10;" d="M4189.304,3622h-33.941
		c-11.75,0-21.363-9.613-21.363-21.363v-497.274c0-11.75,9.613-21.363,21.363-21.363h33.941c11.75,0,21.363,9.613,21.363,21.363
		v497.274C4210.667,3612.387,4201.053,3622,4189.304,3622z"/>
</g>
<g id="&#x413;&#x430;&#x437;&#x43E;&#x43D;&#x44B;">
</g>
<g id="&#x421;&#x43A;&#x43B;&#x430;&#x434;_1">
	<path style="fill:#EAB28C;stroke:#BE1E2D;stroke-width:2;stroke-miterlimit:10;" d="M4867.333,2346h-1390c-12.65,0-23,10.35-23,23
		v389c0,12.65,10.35,23,23,23h58l187.285,37.977c110.845,149.911,271.266,244.129,449.715,244.129
		c177.942,0,337.954-93.688,448.765-242.856l184.882-37.15l61.353-2.1c12.65,0,23-10.35,23-23v-389
		C4890.333,2356.35,4879.983,2346,4867.333,2346z"/>
	<polygon style="fill:#8FC2D8;stroke:#2E3191;stroke-width:2;stroke-miterlimit:10;" points="4874.194,2561.5 4874.194,2357.5 
		4451.194,2357.5 4451.194,2409.333 4321.194,2409.333 4321.194,2357.5 4280.86,2357.5 4280.86,2449.333 4060.667,2449.333 
		4060.667,2357.5 4020.333,2357.5 4020.333,2409.333 3890.333,2409.333 3890.333,2357.5 3468.333,2357.5 3468.333,2561.5 
		3514,2561.5 3514,2672 3468.333,2672 3468.333,2763.75 3517,2763.75 4005,2863.75 3994.27,2910.35 4061.641,2923.164 
		4109.707,2883.011 4110.358,2851.885 4231.169,2851.885 4231.82,2883.011 4279.887,2923.164 4347.258,2910.35 4336.527,2863.75 
		4824.527,2763.75 4874.194,2763.75 4874.194,2672 4827.527,2672 4827.527,2561.5 	"/>
	
		<rect x="4110" y="2449.5" style="fill:#8FC2D8;stroke:#2E3191;stroke-width:2;stroke-miterlimit:10;" width="121.169" height="402.385"/>
	
		<rect x="3514" y="2561.5" style="fill:#8FC2D8;stroke:#2E3191;stroke-width:2;stroke-miterlimit:10;" width="1313.194" height="110.167"/>
	<polygon style="fill:#8FC2D8;stroke:#2E3191;stroke-width:2;stroke-miterlimit:10;" points="4231.169,2671.667 4231.82,2883.011 
		4279.887,2923.164 4347.258,2910.35 4292,2671.667 	"/>
</g>
<g id="&#x421;&#x43A;&#x43B;&#x430;&#x434;_2">
	<path style="fill:#EAB28C;stroke:#BE1E2D;stroke-width:2;stroke-miterlimit:10;" d="M4660.526,2313.144H3644.579
		c-12.65,0-23-10.35-23-23v-435.476c0-12.65,10.35-23,23-23h1015.947c12.65,0,23,10.35,23,23v435.476
		C4683.526,2302.793,4673.176,2313.144,4660.526,2313.144z"/>
	<polygon style="fill:#8FC2D8;stroke:#2E3191;stroke-width:2;stroke-miterlimit:10;" points="3994.27,2910.35 4049.333,2671.667 
		4110,2671.667 4109.707,2883.011 4061.641,2923.164 	"/>
	<polygon style="fill:#8FC2D8;stroke:#2E3191;stroke-width:2;stroke-miterlimit:10;" points="3635,1844 3635,2300 3890.333,2300 
		3890.333,2247 4020.333,2247 4020.333,2300 4321.333,2300 4321.333,2247 4451.333,2247 4451.333,2300 4673.764,2300 4673.764,1844 
			"/>
	
		<rect x="4060.667" y="1844.382" style="fill:#8FC2D8;stroke:#2E3191;stroke-width:2;stroke-miterlimit:10;" width="220.194" height="454.952"/>
</g>
</svg>
