<?xml version="1.0" encoding="iso-8859-1"?>
<!-- Generator: Adobe Illustrator 18.0.0, SVG Export Plug-In . SVG Version: 6.00 Build 0)  -->
<!DOCTYPE svg PUBLIC "-//W3C//DTD SVG 1.1//EN" "http://www.w3.org/Graphics/SVG/1.1/DTD/svg11.dtd">
<svg version="1.1" xmlns="http://www.w3.org/2000/svg" xmlns:xlink="http://www.w3.org/1999/xlink" x="0px" y="0px"
	 width="2048" height="2048" viewBox="0 0 6803 6750" style="enable-background:new 0 0 6803 6750;" xml:space="preserve">
<g id="&#x423;&#x437;&#x43A;&#x438;&#x435;_&#x434;&#x43E;&#x440;&#x43E;&#x433;&#x438;">
	<path style="fill:#EAE1D3;stroke:#009345;stroke-width:5;stroke-miterlimit:10;" d="M3230.924,3929.333l109.076,12L3293.689,4926
		l-114.456,7.408l-409.205-475.592c-25.591-30.494-3.381-56.225,23.971-85.149l67.333-69.333L3230.924,3929.333z"/>
</g>
<g id="&#x41A;&#x43E;&#x43F;&#x438;&#x44F;_&#x437;&#x434;&#x430;&#x43D;&#x438;&#x435;">
</g>
<g id="&#x413;&#x430;&#x437;&#x43E;&#x43D;_1_">
	<path style="fill:#A1CE99;stroke:#2E3191;stroke-width:2;stroke-miterlimit:10;" d="M2856.01,4313.333l-97.271,103.44l11.29,31.893
		l82.519,92.536l317.675,381.733l61.897,15.731L3290,4926l2.603-17.179l8.059-170.445c0.615-12.993-16.42-24.023-29.413-24.638l0,0
		l-12.77-0.746l-1.64-0.078c-7.09-0.335-13.109,5.141-13.444,12.23l-0.252,5.34c-0.203,4.284,3.105,7.92,7.389,8.123l6.721,0.318
		l-6.002,126.934l-91.003-4.161l4.345-100.671c0.51-11.805-7.021-22.48-18.327-25.912
		c-100.139-30.398-180.238-112.135-208.421-211.528c-3.802-13.407-15.792-22.853-29.712-23.511l-41.247-1.951l7.228-152.867
		l42.201,1.995c13.803,0.653,26.562-7.471,31.681-20.307c21.449-48.054,64.496-97.35,101.138-135.815
		c26.465-27.781,57.992-60.206,76.257-78.927c8.273-8.479,7.83-22.133-0.97-30.063l0,0c-8.381-7.553-21.249-7.075-29.046,1.08
		L2856.01,4313.333z"/>
	<path style="fill:#A1CE99;stroke:#2E3191;stroke-width:2;stroke-miterlimit:10;" d="M3262.224,4482.347l8.143,0.385l-8.966,189.625
		l-8.143-0.385c-4.069-0.192-7.524,2.95-7.716,7.02l-0.174,3.684c-0.36,7.603,5.512,14.058,13.115,14.417l1.745,0.083l16.675,0.788
		v0c12.493,0.59,23.099-9.058,23.69-21.551l9.174-194.02c0.591-12.493-9.058-23.099-21.551-23.69l0,0l-16.675-0.789l-1.745-0.083
		c-7.603-0.359-14.058,5.513-14.417,13.115l-0.174,3.684C3255.012,4478.7,3258.155,4482.154,3262.224,4482.347z"/>
	<path style="fill:#A1CE99;stroke:#2E3191;stroke-width:2;stroke-miterlimit:10;" d="M3273.289,4227.187l8.143,0.385l-8.966,189.625
		l-8.143-0.385c-4.069-0.192-7.524,2.951-7.716,7.02l-0.174,3.684c-0.359,7.603,5.512,14.058,13.115,14.417l1.745,0.083
		l16.675,0.789l0,0c12.493,0.591,23.099-9.058,23.69-21.551l9.174-194.02c0.591-12.493-9.058-23.099-21.551-23.69l0,0l-16.675-0.789
		l-1.745-0.083c-7.603-0.359-14.058,5.513-14.417,13.116l-0.174,3.684C3266.077,4223.54,3269.22,4226.995,3273.289,4227.187z"/>
	<path style="fill:#A1CE99;stroke:#2E3191;stroke-width:2;stroke-miterlimit:10;" d="M3139.794,4069.551l31.325,29.62
		c3.787,3.581,9.157,4.949,14.196,3.616h0c6.316-1.67,10.834-7.223,11.187-13.746l2.547-47.204l89.965,4.254l-5.421,114.648
		l-8.143-0.385c-4.069-0.192-7.524,2.95-7.716,7.019l-0.174,3.684c-0.36,7.603,5.512,14.058,13.115,14.417l1.745,0.083l16.675,0.789
		c12.493,0.591,23.1-9.058,23.69-21.551l9.174-194.02c0.552-11.663-0.04-32.841-11.319-34.602l-27.474-10.756l-49.832,3.916
		L3209.804,3950l-73.156,89.407C3128.363,4047.471,3131.642,4061.352,3139.794,4069.551z"/>
</g>
<g id="&#x421;&#x43A;&#x43B;&#x430;&#x434;_1">
	<path style="fill:#EAB28C;stroke:#BE1E2D;stroke-width:2;stroke-miterlimit:10;" d="M4867.333,2346h-1390c-12.65,0-23,10.35-23,23
		v389c0,12.65,10.35,23,23,23h58l187.285,37.977c110.845,149.911,271.266,244.129,449.715,244.129
		c177.942,0,337.954-93.688,448.765-242.856l184.882-37.15l61.353-2.1c12.65,0,23-10.35,23-23v-389
		C4890.333,2356.35,4879.983,2346,4867.333,2346z"/>
	<polygon id='_x3123' style="fill:#8FC2D8;stroke:#2E3191;stroke-width:2;stroke-miterlimit:10;" points="4874.194,2561.5 4874.194,2357.5 
		4451.194,2357.5 4451.194,2409.333 4321.194,2409.333 4321.194,2357.5 4280.86,2357.5 4280.86,2449.333 4060.667,2449.333 
		4060.667,2357.5 4020.333,2357.5 4020.333,2409.333 3890.333,2409.333 3890.333,2357.5 3468.333,2357.5 3468.333,2561.5 
		3514,2561.5 3514,2672 3468.333,2672 3468.333,2763.75 3517,2763.75 4005,2863.75 3994.27,2910.35 4061.641,2923.164 
		4109.707,2883.011 4110.358,2851.885 4231.169,2851.885 4231.82,2883.011 4279.887,2923.164 4347.258,2910.35 4336.527,2863.75 
		4824.527,2763.75 4874.194,2763.75 4874.194,2672 4827.527,2672 4827.527,2561.5 	"/>
	
		<rect x="4110" y="2449.5" style="fill:#8FC2D8;stroke:#2E3191;stroke-width:2;stroke-miterlimit:10;" width="121.169" height="402.385"/>
	
		<rect x="3514" y="2561.5" style="fill:#8FC2D8;stroke:#2E3191;stroke-width:2;stroke-miterlimit:10;" width="1313.194" height="110.167"/>
	<polygon style="fill:#8FC2D8;stroke:#2E3191;stroke-width:2;stroke-miterlimit:10;" points="4231.169,2671.667 4231.82,2883.011 
		4279.887,2923.164 4347.258,2910.35 4292,2671.667 	"/>
</g>
<g id="&#x421;&#x43A;&#x43B;&#x430;&#x434;_2">
	<path style="fill:#EAB28C;stroke:#BE1E2D;stroke-width:2;stroke-miterlimit:10;" d="M4660.526,2313.144H3644.579
		c-12.65,0-23-10.35-23-23v-435.476c0-12.65,10.35-23,23-23h1015.947c12.65,0,23,10.35,23,23v435.476
		C4683.526,2302.793,4673.176,2313.144,4660.526,2313.144z"/>
	<polygon style="fill:#8FC2D8;stroke:#2E3191;stroke-width:2;stroke-miterlimit:10;" points="3994.27,2910.35 4049.333,2671.667 
		4110,2671.667 4109.707,2883.011 4061.641,2923.164 	"/>
	<polygon style="fill:#8FC2D8;stroke:#2E3191;stroke-width:2;stroke-miterlimit:10;" points="3635,1844 3635,2300 3890.333,2300 
		3890.333,2247 4020.333,2247 4020.333,2300 4321.333,2300 4321.333,2247 4451.333,2247 4451.333,2300 4673.764,2300 4673.764,1844 
			"/>
	
		<rect x="4060.667" y="1844.382" style="fill:#8FC2D8;stroke:#2E3191;stroke-width:2;stroke-miterlimit:10;" width="220.194" height="454.952"/>
</g>
</svg>
