<?xml version="1.0" standalone="no"?>
<!DOCTYPE svg PUBLIC "-//W3C//DTD SVG 1.1//EN" "http://www.w3.org/Graphics/SVG/1.1/DTD/svg11.dtd" >
<svg xmlns="http://www.w3.org/2000/svg">
<metadata></metadata>
<defs>
<font id="pf_dindisplay_promedium" horiz-adv-x="3723" >
<font-face units-per-em="2048" ascent="1536" descent="-512" />
<missing-glyph horiz-adv-x="505" />
<glyph unicode="fj" horiz-adv-x="1038" d="M918 -106q0 -160 -84 -235t-226 -75h-108v193h73q76 0 102.5 34.5t26.5 114.5v905h-319v-831h-213v831h-121v185h121v166q0 70 22.5 122t60.5 86.5t89 51t111 16.5h157v-186h-127q-59 0 -79.5 -33t-20.5 -82v-141h535v-1122zM686 1307q0 53 36 88t87 35q53 0 89 -35 t36 -88t-36 -89t-89 -36q-51 0 -87 36t-36 89z" />
<glyph unicode="ffj" horiz-adv-x="1568" d="M1448 -106q0 -160 -84 -235t-227 -75h-107v193h72q78 0 103.5 34.5t25.5 114.5v905h-318v-831h-213v831h-317v-831h-213v831h-121v185h121v123q0 70 22.5 122t60.5 86.5t89 51t111 16.5h153v-184h-123q-59 0 -79.5 -34t-20.5 -83v-98h317v164q0 70 21.5 122t60.5 86.5 t90.5 51t110.5 16.5h158v-184h-129q-57 0 -78 -34t-21 -83v-139h535v-1122zM1214 1305q0 51 36 86.5t89 35.5q51 0 87 -35.5t36 -86.5q0 -53 -35.5 -90t-87.5 -37q-53 0 -89 37t-36 90z" />
<glyph unicode="&#xfb00;" horiz-adv-x="1165" d="M1163 831h-250v-831h-211v831h-319v-831h-213v831h-121v185h121v129q0 70 22.5 122t60.5 85.5t89 51t111 17.5h180v-186h-150q-59 0 -79.5 -33t-20.5 -82v-104h319v168q0 70 21.5 122t60.5 86.5t89.5 51t109.5 16.5h180v-184h-149q-59 0 -80 -34t-21 -83v-143h250v-185z " />
<glyph unicode="&#xfb01;" horiz-adv-x="1038" d="M702 0v831h-319v-831h-213v831h-121v185h121v164q0 70 22.5 122t60.5 85.5t89 51t111 17.5h159v-186h-129q-59 0 -79.5 -33t-20.5 -82v-139h535v-1016h-216zM686 1303q0 53 36 88.5t87 35.5q53 0 89 -35.5t36 -88.5t-36 -89t-89 -36q-51 0 -87 36t-36 89z" />
<glyph unicode="&#xfb02;" horiz-adv-x="1126" d="M604 831h-217v-831h-213v831h-119v185h119v158q0 90 29.5 152.5t80 102t117 58t140.5 18.5q53 0 145 -8t234 -45v-1155q0 -74 31.5 -92.5t115.5 -18.5l4 -188q-31 -6 -59.5 -8t-53.5 -2q-82 0 -131 19.5t-76.5 55t-36.5 86t-9 113.5v1032q-39 10 -75 15.5t-81 5.5 q-76 0 -119 -37t-43 -115v-147h217v-185z" />
<glyph unicode="&#xfb03;" horiz-adv-x="1568" d="M1231 0v831h-318v-831h-213v831h-317v-831h-213v831h-121v185h121v123q0 70 22.5 122t60.5 86.5t89 51t111 16.5h153v-184h-123q-59 0 -79.5 -34t-20.5 -83v-98h317v164q0 70 21.5 122t60.5 85.5t90.5 51t110.5 17.5h158v-186h-129q-57 0 -78 -33t-21 -82v-139h535v-1016 h-217zM1214 1303q0 53 36 87.5t89 34.5q51 0 87 -34.5t36 -87.5t-35.5 -89t-87.5 -36q-53 0 -89 36t-36 89z" />
<glyph unicode="&#xfb04;" horiz-adv-x="1650" d="M1128 831h-217v-831h-213v831h-315v-831h-213v831h-121v185h121v149q0 70 22.5 122t60.5 86t89 51.5t111 17.5h161v-187h-131q-59 0 -79.5 -32.5t-20.5 -81.5v-125h315v155q0 90 29 154t79 103.5t117.5 58t145.5 18.5q53 0 146.5 -9t228.5 -46v-1153q0 -74 31.5 -92.5 t115.5 -18.5l4 -188q-31 -6 -59.5 -8t-52.5 -2q-82 0 -131 19.5t-77 55t-37 86t-9 113.5v1032q-37 10 -74 14.5t-80 4.5q-164 0 -164 -156v-141h217v-185z" />
<glyph unicode="ft" horiz-adv-x="1257" d="M383 831v-831h-213v831h-121v185h121v174q0 70 22.5 122t60.5 87t89 51t111 16h153v-186h-123q-59 0 -79.5 -33t-20.5 -82v-149h326l43 241h166v-241h264v-185h-264v-460q0 -53 10 -88t28.5 -55.5t47 -27.5t65.5 -7q35 0 74 4t84 10l28 -182q-61 -23 -127.5 -29 t-107.5 -6q-90 0 -150.5 20.5t-97.5 60.5t-53.5 101t-16.5 143v516h-319z" />
<glyph horiz-adv-x="0" />
<glyph horiz-adv-x="682" />
<glyph unicode=" "  horiz-adv-x="505" />
<glyph unicode="&#x09;" horiz-adv-x="505" />
<glyph unicode="&#xa0;" horiz-adv-x="505" />
<glyph unicode="!" horiz-adv-x="514" d="M162 406l-15 1019h220l-15 -1019h-190zM256 -12q-63 0 -101 42t-38 103q0 53 38 95t99 42q66 0 105.5 -42t39.5 -95q0 -59 -37.5 -102t-105.5 -43z" />
<glyph unicode="&#x22;" horiz-adv-x="667" d="M381 1425h174v-409h-174v409zM111 1425h176v-409h-176v409z" />
<glyph unicode="#" horiz-adv-x="1103" d="M811 590h186v-162h-209l-59 -428h-182l59 428h-198l-58 -428h-186l61 428h-176v162h201l35 252h-181v159h203l60 422h176l-56 -422h201l60 422h178l-60 -422h187v-159h-209zM430 590h199l37 252h-201z" />
<glyph unicode="$" horiz-adv-x="1058" d="M606 4q0 -14 2 -24v-185h-147v209q-115 8 -215.5 50t-198.5 128l123 166q88 -70 179 -106.5t188 -36.5q129 0 191.5 55t62.5 141q0 61 -31 98.5t-78 61t-101.5 35.5t-101.5 22q-68 14 -136.5 40t-123.5 70t-89 111.5t-34 166.5q0 80 28 147.5t77 119.5t115.5 86t144.5 44 v178h147q-2 -43 -2 -86v-86q96 -6 186.5 -36t184.5 -93l-111 -182q-82 55 -160.5 80.5t-160.5 25.5q-45 0 -86 -12t-73 -38t-50.5 -63.5t-18.5 -86.5t27 -81t67 -53.5t87 -35t88 -23.5q68 -16 142.5 -38.5t137 -66.5t103.5 -117t41 -186q0 -86 -30 -156.5t-83 -121.5 t-127 -82t-164 -39z" />
<glyph unicode="%" horiz-adv-x="1691" d="M1587 229q0 -57 -24.5 -101t-65.5 -74.5t-94 -46t-109 -15.5q-57 0 -110.5 15.5t-94 46t-65.5 74.5t-25 101v387q0 57 26 101.5t67 75t94 47t108 16.5t107.5 -16.5t94.5 -47t66.5 -74.5t24.5 -102v-387zM1419 592q0 31 -11 51.5t-29.5 33.5t-41 19t-43.5 6 q-20 0 -41.5 -6t-40 -19t-30 -33.5t-11.5 -51.5v-342q0 -29 11.5 -49.5t30 -32.5t40 -18.5t41.5 -6.5t43 6.5t41.5 18.5t29.5 32.5t11 49.5v342zM690 793q0 -57 -24.5 -101.5t-65.5 -75t-94 -46t-109 -15.5q-57 0 -110.5 15.5t-94 46t-65.5 74.5t-25 102v387q0 57 25 101 t67 74.5t95 47t108 16.5t107.5 -16.5t94.5 -47t66.5 -74.5t24.5 -101v-387zM522 1155q0 31 -11 51.5t-29.5 33.5t-41 19.5t-43.5 6.5q-20 0 -41.5 -6.5t-40 -19.5t-30 -33.5t-11.5 -51.5v-342q0 -29 11.5 -49.5t30 -32.5t40 -18t41.5 -6t43 6t41.5 18t29.5 32.5t11 49.5v342 zM494 -35h-160l870 1495h162z" />
<glyph unicode="&#x26;" horiz-adv-x="1693" d="M1559 885q0 -186 -74 -352t-199 -293q72 -66 147.5 -118t161.5 -87l-84 -156q-45 18 -95 46t-99 60.5t-94 68.5t-82 73q-78 -63 -188.5 -103t-221.5 -40q-92 0 -174 26.5t-142.5 78.5t-96 128t-35.5 174q0 72 24.5 134.5t66.5 115.5t100 99t126 85q-47 68 -69.5 127.5 t-22.5 124.5q0 66 20.5 122t58.5 98t93 65.5t127 23.5q68 0 124 -22.5t98 -60t65.5 -90t23.5 -111.5t-19.5 -108.5t-53 -90.5t-79.5 -76.5t-100 -68.5q66 -94 141.5 -195.5t159.5 -200.5q98 104 156.5 238.5t58.5 282.5q0 123 -36.5 232.5t-108.5 192.5t-177.5 131 t-240.5 48q-123 0 -222 -36t-169 -97.5t-107.5 -143.5t-37.5 -172q0 -66 18 -134t66 -142l-150 -90q-61 90 -87 180t-26 176q0 123 49.5 237.5t141.5 201.5t223 139.5t293 52.5q182 0 321.5 -61.5t234.5 -167t143.5 -245.5t48.5 -300zM932 1102q0 49 -36 82t-89 33 q-57 0 -83 -43.5t-26 -88.5q0 -41 20.5 -81.5t53.5 -90.5q72 39 116 81t44 108zM1024 252q-43 47 -88 102.5t-87 111.5t-79 110.5t-65 99.5q-49 -27 -92.5 -56.5t-75 -64.5t-51 -75t-19.5 -85q0 -123 71.5 -183t176.5 -60q74 0 152.5 24.5t156.5 75.5z" />
<glyph unicode="'" horiz-adv-x="530" d="M182 1425h174v-409h-174v409z" />
<glyph unicode="(" horiz-adv-x="649" d="M508 -260q-80 86 -151.5 186.5t-126 213t-86 234.5t-31.5 251q0 131 31.5 253.5t85 233.5t124 210t148.5 185l121 -75q-135 -178 -210 -388t-75 -409q0 -215 78 -426t207 -383z" />
<glyph unicode=")" horiz-adv-x="649" d="M573 625q0 -129 -32.5 -251t-87 -234.5t-126 -213t-151.5 -186.5l-113 86q129 172 206 383t77 426q0 199 -73.5 408.5t-209.5 388.5l119 75q80 -86 150.5 -185t124 -210t85 -233.5t31.5 -253.5z" />
<glyph unicode="*" horiz-adv-x="808" d="M672 879q-10 -8 -28.5 -22.5t-39 -30t-40 -29t-29.5 -21.5l-125 213l-129 -213q-10 6 -29 20.5t-40.5 30t-40.5 29.5t-28 23l162 184l-231 59l47 158l227 -96l-22 246h170l-25 -246q18 8 50 20.5t64.5 26.5t63.5 27.5t49 21.5l47 -160l-233 -57z" />
<glyph unicode="+" horiz-adv-x="1058" d="M614 522v-389h-172v389h-389v166h389v385h172v-385h390v-166h-390z" />
<glyph unicode="," horiz-adv-x="555" d="M125 -195q49 37 81 83t36 102q-45 6 -75 44t-30 91q0 55 41 96t103 41q41 0 70.5 -15.5t50 -41t29.5 -59t9 -68.5q0 -59 -18.5 -115.5t-51 -106t-75.5 -89t-94 -64.5z" />
<glyph unicode="-" horiz-adv-x="835" d="M102 444v193h629v-193h-629z" />
<glyph unicode="." horiz-adv-x="518" d="M262 -12q-63 0 -101 42t-38 103q0 53 38 95t99 42q66 0 104.5 -42t38.5 -95q0 -59 -37.5 -102t-103.5 -43z" />
<glyph unicode="/" horiz-adv-x="684" d="M158 -86h-170l516 1571h170z" />
<glyph unicode="0" horiz-adv-x="1058" d="M967 358q0 -90 -39 -159.5t-101.5 -115.5t-140.5 -69.5t-156 -23.5t-156.5 23.5t-141 69.5t-101.5 115.5t-39 159.5v693q0 92 40 161.5t102.5 116.5t140.5 71.5t155 24.5q78 0 156 -24.5t140.5 -71.5t101.5 -116.5t39 -161.5v-693zM748 1001q0 59 -20.5 100.5t-52.5 67 t-70 37t-75 11.5t-74.5 -11.5t-69.5 -37t-52.5 -66.5t-20.5 -101v-593q0 -59 20.5 -99.5t52.5 -66t70 -36.5t74 -11q37 0 75 11t70 36.5t52.5 65.5t20.5 100v593z" />
<glyph unicode="1" horiz-adv-x="1058" d="M494 0v1135l-168 -140l-119 158q25 20 65.5 56t84.5 74t86 73t67 55h201v-1411h-217z" />
<glyph unicode="2" horiz-adv-x="1058" d="M965 1040q0 -66 -25 -125t-64.5 -112t-89 -98.5t-98.5 -83.5q-49 -39 -109.5 -80t-114.5 -90.5t-93 -112t-47 -143.5h637v-195h-865v182q0 86 28 159t74 135.5t105 115.5t125 98q57 39 113.5 80t100.5 84t70.5 88t26.5 94q0 45 -20.5 79t-53 56.5t-75.5 34t-86 11.5 q-78 0 -150.5 -29t-130.5 -76l-112 170q74 63 178 103t227 40q84 0 165 -20.5t143.5 -66.5t101.5 -119t39 -179z" />
<glyph unicode="3" horiz-adv-x="1058" d="M494 1423q80 0 156.5 -19.5t138 -64.5t98.5 -115.5t37 -172.5q0 -104 -49.5 -187.5t-141.5 -122.5q96 -41 146.5 -131t50.5 -190q0 -111 -39 -193t-101.5 -135t-144.5 -79.5t-168 -26.5q-127 0 -234.5 40t-179.5 103q8 12 23.5 35.5t34 50.5t35 50.5t24.5 35.5 q57 -47 135 -77.5t150 -30.5q115 0 179.5 56t64.5 159q0 98 -58.5 161.5t-150.5 63.5h-164v190h164q37 0 72.5 13.5t64.5 40t46 66.5t17 91t-19 86t-50 56.5t-71 31t-81 9.5q-72 0 -151.5 -31t-134.5 -80q-8 12 -24.5 36.5t-35 51.5t-35 50.5t-24.5 35.5q72 63 182.5 103 t237.5 40z" />
<glyph unicode="4" horiz-adv-x="1058" d="M885 211v-211h-221v211h-603v180q27 57 64 139t80 176.5t88 194.5t88 194.5t79 176.5t62 139h232l-449 -1005h359v413h221v-413h119v-195h-119z" />
<glyph unicode="5" horiz-adv-x="1058" d="M963 371q0 -90 -37 -161t-99.5 -120t-143.5 -74.5t-169 -25.5q-129 0 -230.5 39t-172.5 104l120 176q66 -59 134.5 -85.5t142.5 -26.5q31 0 70.5 9t76.5 31.5t62.5 62.5t25.5 99v170q0 88 -43 130t-114 42q-31 0 -68 -11t-73.5 -28.5t-67.5 -36t-49 -32.5l-201 80v698 h793v-201h-572v-340q70 45 140.5 69t125.5 24q82 0 146.5 -28t109.5 -77t69 -116.5t24 -147.5v-223v0z" />
<glyph unicode="6" horiz-adv-x="1058" d="M965 373q0 -92 -37 -164t-96.5 -121t-138.5 -73.5t-161 -24.5q-88 0 -166.5 24.5t-137 71.5t-93.5 117.5t-35 163.5v675q0 92 36 164t97.5 121t141.5 73.5t168 24.5q129 0 228 -38.5t171 -104.5l-119 -178q-66 59 -133 86t-141 27q-35 0 -74 -11.5t-73.5 -37t-57 -65.5 t-22.5 -97v-193q96 57 167.5 77.5t128.5 20.5q82 0 146.5 -27.5t109 -76.5t68 -117.5t23.5 -148.5v-168zM743 522q0 96 -46 137t-109 41q-61 0 -126 -25.5t-140 -72.5v-194q0 -57 19 -97.5t49 -66t68 -36.5t74 -11q35 0 73 12t69 37.5t50 65.5t19 96v114z" />
<glyph unicode="7" horiz-adv-x="1058" d="M457 0h-236l494 1212h-404v-208h-207v407h859v-188z" />
<glyph unicode="8" horiz-adv-x="1058" d="M537 1423q78 0 154.5 -24.5t137 -75.5t97.5 -128t37 -179q0 -98 -43 -177t-119 -116q94 -41 142 -130t48 -185q0 -109 -41 -189t-106.5 -131t-147.5 -75.5t-164 -24.5q-88 0 -169.5 23.5t-145 73.5t-101.5 128t-38 184q0 53 15.5 103.5t43 93.5t62 77t75.5 52 q-78 35 -120.5 112.5t-42.5 182.5q0 102 37.5 178t99 127t137.5 75.5t152 24.5zM743 1016q0 96 -62.5 147t-143.5 51q-39 0 -77 -13t-66.5 -38.5t-47 -62.5t-18.5 -84q0 -49 17 -87t47 -63.5t67 -39t78 -13.5q39 0 76.5 14.5t66.5 40t46 63.5t17 85zM535 610q-45 0 -86 -14 t-72 -42t-49.5 -65.5t-18.5 -87.5q0 -98 62.5 -152t163.5 -54q98 0 161.5 54t63.5 157q0 45 -18.5 82.5t-49 65.5t-71.5 42t-86 14z" />
<glyph unicode="9" horiz-adv-x="1058" d="M952 371q0 -92 -35.5 -163t-96 -120t-140.5 -73.5t-168 -24.5q-131 0 -230.5 39t-170.5 104l120 176q125 -111 273 -110q33 0 72.5 11t73.5 36.5t56.5 65.5t22.5 98v200q-96 -53 -165.5 -74.5t-129.5 -21.5q-160 0 -252 100.5t-92 272.5v149q0 92 36 165t95.5 123 t137 75.5t163.5 25.5q88 0 166 -25.5t136.5 -74.5t93 -122t34.5 -165v-667zM729 1008q0 57 -18.5 97t-48 65.5t-66.5 37t-74 11.5t-74.5 -12.5t-68.5 -38t-50.5 -65.5t-19.5 -95v-105q0 -96 46 -136t112 -40q59 0 123.5 25.5t138.5 70.5v185z" />
<glyph unicode=":" horiz-adv-x="577" d="M285 590q-63 0 -101.5 41t-38.5 102q0 55 38 97t100 42q66 0 104.5 -42t38.5 -97q0 -59 -37.5 -101t-103.5 -42zM285 -12q-63 0 -101.5 42t-38.5 103q0 53 38 95t100 42q66 0 104.5 -42t38.5 -95q0 -59 -37.5 -102t-103.5 -43z" />
<glyph unicode=";" horiz-adv-x="555" d="M276 590q-63 0 -101 41t-38 102q0 55 38 97t101 42q66 0 105 -42t39 -97q0 -59 -38 -101t-106 -42zM113 -195q49 37 79.5 83t36.5 102q-47 6 -75.5 44t-28.5 91q0 55 41 96t102 41q41 0 71 -15.5t49.5 -41t28.5 -59t9 -68.5q0 -59 -18.5 -115.5t-50 -106t-75.5 -89 t-94 -64.5z" />
<glyph unicode="&#x3c;" horiz-adv-x="1058" d="M76 526v160l903 428v-186l-684 -322l684 -321v-187z" />
<glyph unicode="=" horiz-adv-x="1058" d="M51 731v168h953v-168h-953zM51 313v166h953v-166h-953z" />
<glyph unicode="&#x3e;" horiz-adv-x="1058" d="M76 98v187l686 321l-686 322v186l903 -428v-160z" />
<glyph unicode="?" horiz-adv-x="970" d="M467 1434q88 0 163 -28t130 -76t86 -114.5t31 -144.5q0 -94 -44.5 -170t-96.5 -144.5t-96 -136t-44 -145.5v-74h-219v70q0 94 39 166t85 136.5t85 129t39 141.5q0 72 -51.5 124.5t-141.5 52.5q-72 0 -140.5 -26t-123.5 -73l-109 178q92 72 193.5 103t214.5 31zM350 131 q0 53 38 95t99 42q66 0 106 -42t40 -95q0 -59 -38 -100t-106 -41q-63 0 -101 40t-38 101z" />
<glyph unicode="@" horiz-adv-x="1738" d="M1667 772q0 -106 -31.5 -191t-84 -143.5t-120 -90.5t-139.5 -32q-63 0 -131.5 23.5t-101.5 83.5q-66 -39 -134.5 -64.5t-136.5 -25.5q-123 0 -188 67.5t-65 175.5q0 68 30.5 114t75.5 75t96 41t92 12h203v37q0 74 -46 104.5t-120 30.5q-41 0 -92 -12t-110 -59 q-23 31 -44.5 61.5t-44.5 62.5q82 66 156 86.5t143 20.5q154 0 243 -75t89 -226v-297q0 -43 29 -60.5t70 -17.5q31 0 66.5 17.5t65 53.5t49 92t19.5 136q0 119 -39 221.5t-114.5 179t-184 120.5t-245.5 44q-141 0 -262 -47t-210.5 -130t-139.5 -194.5t-50 -238.5 q0 -129 45 -239.5t127 -192.5t193.5 -128t246.5 -46q59 0 118 10t145 43l51 -145q-88 -37 -174 -47.5t-146 -10.5q-170 0 -311 56.5t-242.5 157t-158 238.5t-56.5 302t63.5 304t175.5 242.5t262.5 160t322.5 57.5q180 0 319 -56.5t233.5 -154.5t143.5 -228.5t49 -277.5z M1034 680h-172q-20 0 -45.5 -2t-49.5 -12.5t-39 -30t-15 -53.5q0 -43 30.5 -68t83.5 -25q59 0 113.5 25t93.5 47v119z" />
<glyph unicode="A" horiz-adv-x="1263" d="M895 305h-526l-101 -305h-248l494 1411h238l493 -1411h-254zM436 508h391l-84 264l-108 358h-8l-105 -344z" />
<glyph unicode="B" horiz-adv-x="1245" d="M1157 416q0 -80 -25.5 -155t-76.5 -133t-127 -93t-174 -35h-635v1411h610q100 0 177 -30.5t127 -83t76 -120t26 -143.5q0 -82 -41 -162.5t-133 -132.5q102 -51 149 -142t47 -181zM897 1018q0 94 -58.5 138t-162.5 44h-322v-362h332q92 0 151.5 47t59.5 133zM918 420 q0 98 -67 155.5t-159 57.5h-338v-424h340q111 0 167.5 56.5t56.5 154.5z" />
<glyph unicode="C" horiz-adv-x="1114" d="M936 1110q-59 51 -139 75.5t-156 24.5q-53 0 -105.5 -16t-93.5 -51t-66.5 -90.5t-25.5 -132.5v-428q0 -78 25.5 -133.5t67.5 -90.5t93.5 -51t102.5 -16q76 0 153.5 21.5t147.5 76.5l111 -180q-72 -59 -180.5 -96t-231.5 -37q-102 0 -196.5 29.5t-167 88t-116.5 144.5 t-44 196v523q0 111 44 195.5t116.5 143t167 89t194.5 30.5q117 0 224.5 -32.5t189.5 -100.5z" />
<glyph unicode="D" horiz-adv-x="1251" d="M1145 457q0 -109 -40 -193t-108.5 -143.5t-157.5 -90t-188 -30.5h-530v1411h532q98 0 187.5 -29.5t157 -88t107.5 -143.5t40 -196v-497zM907 911q0 80 -25.5 135.5t-68.5 89t-96 49t-109 15.5h-254v-993h254q51 0 104.5 15.5t96.5 49t70.5 89t27.5 135.5v415z" />
<glyph unicode="E" horiz-adv-x="1161" d="M125 1411h956v-211h-723v-387h619v-211h-619v-393h723v-209h-956v1411z" />
<glyph unicode="F" horiz-adv-x="1105" d="M358 809h619v-211h-619v-598h-233v1411h956v-211h-723v-391z" />
<glyph unicode="G" horiz-adv-x="1214" d="M1100 178q-92 -106 -216 -149t-239 -43q-100 0 -195.5 29.5t-170 88t-119.5 144.5t-45 196v521q0 111 44 195.5t118.5 144t172 90t203.5 30.5q119 0 227.5 -32.5t188.5 -100.5l-115 -182q-59 51 -141 75.5t-158 24.5q-57 0 -111.5 -16t-97.5 -51t-69.5 -90.5 t-26.5 -132.5v-428q0 -78 24.5 -133.5t66.5 -90.5t95.5 -51t108.5 -16q43 0 101.5 13t119.5 60v283h-215v205h449v-584v0z" />
<glyph unicode="H" horiz-adv-x="1292" d="M940 0v610h-592v-610h-233v1411h233v-590h592v590h238v-1411h-238z" />
<glyph unicode="I" horiz-adv-x="561" d="M397 1411v-1411h-233v1411h233z" />
<glyph unicode="J" horiz-adv-x="1079" d="M924 449q0 -111 -40 -197t-108.5 -145.5t-158 -90t-187.5 -30.5q-53 0 -109.5 7t-109.5 22.5t-102.5 38t-88.5 50.5l109 185q72 -49 138.5 -68.5t129.5 -19.5t116.5 16t92.5 51t60.5 92.5t21.5 141.5v909h236v-962v0z" />
<glyph unicode="K" horiz-adv-x="1247" d="M360 733l226 281l329 397h281l-463 -563l502 -848h-274q-96 166 -191.5 330t-191.5 329q-57 -68 -113.5 -134t-112.5 -134v-391h-235v1411h235v-678h8z" />
<glyph unicode="L" horiz-adv-x="1105" d="M131 0v1411h231v-1202h728v-209h-959z" />
<glyph unicode="M" horiz-adv-x="1562" d="M1202 860l-131 -266l-199 -391h-172l-192 368l-146 289h-8v-860h-233v1411h219l268 -537l174 -362h13l172 367l262 532h215v-1411h-234v860h-8z" />
<glyph unicode="N" horiz-adv-x="1351" d="M354 969v-969h-233v1411h217l420 -625l227 -350h12v975h234v-1411h-219l-426 635l-217 334h-15z" />
<glyph unicode="O" horiz-adv-x="1280" d="M1171 457q0 -111 -40.5 -199t-113.5 -148.5t-170 -92t-208 -31.5q-113 0 -210 31.5t-168 92t-111.5 148.5t-40.5 199v501q0 111 42 197t113.5 146.5t167.5 92t207 31.5q109 0 206 -32.5t169.5 -93t114.5 -147.5t42 -198v-497zM936 920q0 76 -24.5 131t-65.5 91t-95.5 52 t-111.5 16q-59 0 -112.5 -16t-93.5 -52t-64.5 -91.5t-24.5 -130.5v-428q0 -78 24.5 -133.5t65.5 -90.5t94.5 -51t110.5 -16t111.5 16t95.5 51t65.5 90.5t24.5 133.5v428z" />
<glyph unicode="P" horiz-adv-x="1157" d="M348 762h324q102 0 162.5 60.5t60.5 158.5t-60.5 158.5t-162.5 60.5h-324v-438zM723 1411q102 0 178 -39t125 -100.5t73.5 -138t24.5 -152.5t-27.5 -152.5t-79.5 -139t-127 -101.5t-171 -39h-371v-549h-233v1411h608z" />
<glyph unicode="Q" horiz-adv-x="1300" d="M942 -365q-43 -6 -82 -6q-150 0 -237.5 70t-87.5 207v90q-92 12 -169 49t-133.5 96.5t-87 139t-30.5 178.5v491q0 111 42 199t113.5 149.5t168 94t206.5 32.5q109 0 206 -32.5t170 -94t115 -148.5t42 -198v-493q0 -98 -33 -178t-89.5 -139.5t-135 -96.5t-170.5 -49v-33 q0 -43 7 -71.5t25.5 -44t49 -21.5t79.5 -6h31v-185zM942 885q0 76 -18 131q-12 51 -40 88t-65 59.5t-82 33.5t-92 11q-59 0 -112.5 -16t-93.5 -51t-64.5 -90.5t-24.5 -132.5v-396q0 -70 17 -131q27 -102 105.5 -146t172.5 -44q57 0 111.5 15t95.5 50t65.5 90.5t24.5 132.5 v396z" />
<glyph unicode="R" horiz-adv-x="1193" d="M725 1411q106 0 182 -39t125 -101.5t72.5 -139t23.5 -152.5q0 -57 -16 -115.5t-47 -111t-75 -94.5t-101 -68l258 -590h-254l-231 549h-310v-549h-235v1411h608zM899 979q0 98 -60.5 158.5t-164.5 60.5h-322v-436h322q104 0 164.5 59.5t60.5 157.5z" />
<glyph unicode="S" horiz-adv-x="1181" d="M1116 399q0 -98 -39 -175t-107.5 -129t-164.5 -79.5t-209 -27.5q-150 0 -282 42t-255 142l131 170q92 -68 195.5 -105.5t208.5 -37.5q139 0 207.5 56t68.5 142q0 59 -27.5 96t-74.5 62t-107.5 39t-125.5 31q-82 18 -159 46.5t-135.5 75t-94 113t-35.5 162.5 q0 90 32.5 166t94 131t147.5 87t193 32q127 0 250.5 -26t236.5 -97l-104 -193q-94 57 -187.5 80t-183.5 23q-49 0 -93 -12.5t-78 -37t-54.5 -62.5t-20.5 -89t26.5 -86t70.5 -58.5t100.5 -39t117.5 -27.5q100 -23 184.5 -53.5t145 -78.5t94 -116t33.5 -166z" />
<glyph unicode="T" horiz-adv-x="1073" d="M655 1198v-1198h-235v1198h-391v213h1015v-213h-389z" />
<glyph unicode="U" horiz-adv-x="1284" d="M1176 446q0 -111 -44.5 -196.5t-118 -144t-169.5 -89t-201 -30.5q-106 0 -202.5 29.5t-169 88t-115.5 144.5t-43 196v967h233v-924q0 -78 24.5 -132t66.5 -89t95.5 -51t110.5 -16q55 0 109.5 16t95.5 51t66.5 89.5t25.5 131.5v924h236v-965v0z" />
<glyph unicode="V" horiz-adv-x="1196" d="M606 352l144 492l174 567h250l-453 -1411h-246l-455 1411h254l181 -586l139 -473h12z" />
<glyph unicode="W" horiz-adv-x="1812" d="M899 1004l-104 -422l-148 -582h-260l-367 1411h252l142 -604l102 -451h12l111 455l152 600h229l158 -625l106 -430h10l99 435l145 620h252l-369 -1411h-258l-149 586l-103 418h-12z" />
<glyph unicode="X" horiz-adv-x="1171" d="M586 528l-303 -528h-267l443 723l-416 688h268l275 -493l276 493h266l-413 -688l442 -723h-266z" />
<glyph unicode="Y" horiz-adv-x="1138" d="M578 782l135 308l151 321h250l-426 -864v-547h-235v547l-430 864h253l154 -330l133 -299h15z" />
<glyph unicode="Z" horiz-adv-x="1087" d="M72 203l665 997h-639v211h922v-197l-676 -1005h674v-209h-946v203z" />
<glyph unicode="[" horiz-adv-x="569" d="M145 -209v1639h387v-148h-192v-1343h192v-148h-387z" />
<glyph unicode="\" horiz-adv-x="684" d="M-12 1485h172l514 -1571h-170z" />
<glyph unicode="]" horiz-adv-x="569" d="M49 -209v148h191v1343h-191v148h385v-1639h-385z" />
<glyph unicode="^" horiz-adv-x="1058" d="M838 610l-301 609l-304 -611h-184l408 815h159l408 -813h-186z" />
<glyph unicode="_" horiz-adv-x="1024" d="M0 -285v144h1024v-144h-1024z" />
<glyph unicode="`" horiz-adv-x="1021" d="M578 1118l-236 363l201 65l162 -375z" />
<glyph unicode="a" horiz-adv-x="1044" d="M725 92q-109 -61 -183.5 -80.5t-138.5 -19.5q-152 0 -237.5 82t-85.5 225q0 84 37 141.5t92 93t119.5 52t120.5 16.5h280v62q0 90 -51 128.5t-158 38.5q-51 0 -126 -15t-150 -77l-101 162q102 78 206 101.5t192 23.5q209 0 307 -92t98 -281v-653h-196l-19 88zM729 434 h-244q-29 0 -59.5 -4t-56 -17.5t-43 -38t-17.5 -67.5q0 -57 41 -89t109 -32q37 0 73.5 9.5t72.5 22.5t68 29.5t56 31.5v155z" />
<glyph unicode="b" horiz-adv-x="1050" d="M958 356q0 -180 -95 -273t-249 -93q-53 0 -126.5 20.5t-174.5 79.5l-20 -90h-197v1466h217v-546q113 63 186.5 84.5t127.5 21.5q170 0 250.5 -97.5t80.5 -266.5v-306zM739 633q0 104 -43 144t-110 40q-57 0 -129 -32.5t-144 -77.5v-420q27 -18 64 -34.5t73.5 -30 t72.5 -20.5t63 -7q66 0 109.5 43t43.5 141v254z" />
<glyph unicode="c" horiz-adv-x="903" d="M864 127q-82 -84 -174 -110.5t-184 -26.5q-86 0 -162 24.5t-131 71.5t-87 113.5t-32 152.5v301q0 90 35 160t92.5 117t131 71.5t151.5 24.5q45 0 92 -5t93 -18.5t90 -39t85 -68.5l-127 -162q-70 63 -124 77.5t-95 14.5q-35 0 -71.5 -11t-66.5 -35.5t-49.5 -64.5 t-19.5 -98v-217q0 -57 17.5 -97t46 -64.5t65.5 -36t76 -11.5q43 0 104.5 19.5t110.5 66.5z" />
<glyph unicode="d" horiz-adv-x="1050" d="M92 662q0 170 97.5 267t256.5 97q53 0 128 -11t161 -46v497h217v-1466h-196l-21 100q-104 -63 -177 -86.5t-126 -23.5q-158 0 -249 89t-91 277v306zM309 373q0 -102 44 -140t112 -38q27 0 60.5 8t70.5 22.5t73 32.5t66 39v465q-72 29 -134 44t-120 15q-72 0 -122 -43 t-50 -145v-260z" />
<glyph unicode="e" horiz-adv-x="1013" d="M311 436v-51q0 -53 18.5 -91t48.5 -61.5t69.5 -35t82.5 -11.5q47 0 114 16.5t132 76.5q33 -39 64.5 -75t62.5 -75q-86 -84 -181 -111.5t-192 -27.5q-88 0 -166.5 22.5t-139 68.5t-95.5 115.5t-35 163.5v267q0 92 32 165.5t89 125t133 79t166 27.5q92 0 170 -26.5t134 -77 t87 -122t31 -163.5v-199h-625zM717 623q0 106 -59.5 154t-141.5 48t-142.5 -50t-60.5 -150v-33h404v31z" />
<glyph unicode="f" horiz-adv-x="634" d="M383 829v-829h-213v829h-121v185h121v176q0 70 22.5 122t60.5 87t89 51t111 16h180v-186h-150q-59 0 -79.5 -33t-20.5 -82v-151h250v-185h-250z" />
<glyph unicode="g" horiz-adv-x="1046" d="M948 -59q0 -90 -40 -159t-104.5 -115t-144 -68.5t-161.5 -22.5q-92 0 -195.5 32t-189.5 118l137 149q25 -25 56.5 -43t66.5 -30.5t67.5 -17.5t57.5 -5q45 0 87 11t73.5 35.5t51 63.5t19.5 97v108q-96 -59 -175 -78.5t-132 -19.5q-160 0 -248 96t-88 266v299 q0 176 93 272.5t247 96.5q55 0 129 -22.5t174 -85.5l21 96h198v-1073zM305 387q0 -102 43 -144t111 -40q57 0 130 26.5t140 69.5v412q-66 47 -140.5 76.5t-129.5 29.5q-68 0 -111 -41t-43 -143v-246z" />
<glyph unicode="h" horiz-adv-x="1050" d="M745 0v633q0 51 -12 87t-33.5 57.5t-50 30.5t-61.5 9q-55 0 -125 -26.5t-148 -75.5v-715h-217v1466h217v-555q117 76 194 95.5t132 19.5q168 0 246 -97.5t78 -266.5v-662h-220z" />
<glyph unicode="i" horiz-adv-x="520" d="M152 0v1014h217v-1014h-217zM135 1305q0 53 36 89t87 36q53 0 89 -36t36 -89t-36 -89t-89 -36q-51 0 -87 36t-36 89z" />
<glyph unicode="j" horiz-adv-x="526" d="M387 -106q0 -160 -84 -235t-225 -75h-109v193h74q76 0 101.5 34.5t25.5 114.5v1088h217v-1120zM156 1307q0 51 34.5 87t88.5 36q53 0 88.5 -36t35.5 -87q0 -53 -35.5 -89t-88.5 -36t-88 36t-35 89z" />
<glyph unicode="k" horiz-adv-x="1021" d="M96 0v1466h219v-776h117q61 0 105.5 24.5t80.5 98.5l105 205h244l-123 -256q-29 -59 -61.5 -100t-94.5 -64q43 -14 71.5 -37.5t47 -52.5t31 -61.5t22.5 -65.5l127 -381h-242l-104 328q-29 90 -72 122.5t-123 32.5h-131v-483h-219z" />
<glyph unicode="l" horiz-adv-x="575" d="M371 297q0 -74 30.5 -92.5t114.5 -18.5l4 -188q-31 -6 -59.5 -8t-52.5 -2q-82 0 -131.5 19.5t-77 55t-36.5 86t-9 113.5v1204h217v-1169z" />
<glyph unicode="m" horiz-adv-x="1585" d="M598 1026q94 0 158.5 -39t99.5 -108q63 49 111.5 77.5t87.5 44t69.5 20.5t57.5 5q156 0 234.5 -91t78.5 -261v-674h-217v643q0 92 -37 132t-108 40q-49 0 -104.5 -26.5t-129.5 -83.5q2 -23 3 -41.5t1 -40.5v-623h-219v647q0 94 -40 131t-95 37t-108.5 -21.5t-131.5 -74.5 v-719h-219v1014h199l18 -105q106 76 172 96.5t119 20.5z" />
<glyph unicode="n" horiz-adv-x="1050" d="M741 0v633q0 104 -45 144t-112 40q-55 0 -125 -26.5t-148 -75.5v-715h-217v1014h197l20 -101q61 37 111.5 59.5t90.5 35t71.5 15.5t58.5 3q160 0 239 -96t79 -266v-664h-220z" />
<glyph unicode="o" horiz-adv-x="1048" d="M954 358q0 -90 -35.5 -159.5t-96 -115.5t-138.5 -69.5t-162 -23.5q-86 0 -164.5 23.5t-137 69.5t-93.5 115.5t-35 159.5v295q0 90 36 160t95.5 117t137 71.5t163.5 24.5q92 0 170 -24.5t136.5 -72.5t91 -118t32.5 -160v-293zM739 614q0 57 -19.5 97.5t-50 65t-69.5 35.5 t-76 11t-75.5 -11t-69.5 -35.5t-50.5 -64.5t-19.5 -98v-215q0 -115 63.5 -162t151.5 -47q37 0 76 11.5t69.5 36t50 64.5t19.5 97v215z" />
<glyph unicode="p" horiz-adv-x="1052" d="M965 352q0 -170 -93.5 -267t-263.5 -97q-53 0 -126.5 10t-162.5 51v-455h-217v1420h197l20 -101q104 63 178 87t128 24q158 0 249 -89t91 -278v-305zM745 639q0 102 -44 140t-111 38q-27 0 -60.5 -8t-70.5 -22.5t-73 -33t-67 -38.5v-463q82 -35 140.5 -47t113.5 -12 q35 0 67 8t55.5 29.5t36.5 56.5t13 86v266z" />
<glyph unicode="q" horiz-adv-x="1042" d="M88 659q0 180 95.5 273.5t248.5 93.5q53 0 126 -21.5t177 -82.5l21 92h194v-1422h-217v494q-106 -59 -180 -77.5t-127 -18.5q-160 0 -249 97t-89 267v305zM307 383q0 -102 44 -143t112 -39q55 0 125.5 25.5t144.5 72.5v428q-66 39 -142.5 67.5t-127.5 28.5 q-68 0 -112 -43t-44 -143v-254z" />
<glyph unicode="r" horiz-adv-x="729" d="M715 801q-135 -12 -224.5 -45t-148.5 -70v-686h-217v1016h197l18 -150h2q27 27 69 55.5t92 52t104.5 39t107.5 15.5v-227z" />
<glyph unicode="s" horiz-adv-x="942" d="M475 -12q-111 0 -215 26.5t-215 114.5l119 158q76 -63 153.5 -87t163.5 -24q72 0 128.5 31t56.5 94q0 53 -37 79t-109 38q-74 12 -149.5 27.5t-137 46t-100.5 83t-39 138.5q0 74 31 132t83 98t119.5 61.5t143.5 21.5q117 0 210 -23.5t183 -89.5l-106 -161 q-74 47 -143.5 64.5t-141.5 17.5q-78 0 -122 -35t-44 -82t43 -68.5t107.5 -35t140.5 -28t140.5 -45t107.5 -87t43 -152.5q0 -74 -32 -132t-88 -98t-132 -61.5t-162 -21.5z" />
<glyph unicode="t" horiz-adv-x="757" d="M55 829v185h140l43 243h168v-243h264v-185h-264v-458q0 -96 26.5 -138.5t114.5 -42.5q27 0 69.5 5.5t88.5 19.5l43 -190q-61 -23 -130 -29t-110 -6q-90 0 -150.5 23.5t-97.5 67.5t-53.5 108.5t-16.5 146.5v493h-135z" />
<glyph unicode="u" horiz-adv-x="1056" d="M309 1014v-635q0 -102 47 -143t113 -41q113 0 270 110v709h219v-1014h-198l-21 98q-119 -72 -191.5 -91t-123.5 -19q-166 0 -250 101t-84 271v654h219z" />
<glyph unicode="v" horiz-adv-x="983" d="M502 285q2 8 10 35.5t19.5 65.5t24.5 79t24.5 79t19.5 65.5t12 35.5l117 369h238l-363 -1014h-223l-365 1014h242l119 -365l115 -364h10z" />
<glyph unicode="w" horiz-adv-x="1462" d="M729 625l-102 -328l-97 -297h-213l-286 1016h227l88 -348l84 -355h8l117 355l82 250h199l92 -279l102 -330h10l84 361l86 346h222l-277 -1016h-215l-100 305l-103 320h-8z" />
<glyph unicode="x" horiz-adv-x="962" d="M690 0l-213 350l-217 -350h-258l358 518l-340 498h261l196 -330l201 330h260l-344 -494l358 -522h-262z" />
<glyph unicode="y" horiz-adv-x="980" d="M217 -410l154 430l-74 60l-277 936h230l108 -416l101 -371h6l129 373l137 414h230l-519 -1426h-225z" />
<glyph unicode="z" horiz-adv-x="946" d="M80 0v174l520 653h-491v187h759v-174l-518 -650h518v-190h-788z" />
<glyph unicode="{" horiz-adv-x="569" d="M393 -203q-102 0 -154.5 67.5t-52.5 209.5v209q0 115 -35.5 182t-121.5 74v141q80 8 118.5 74.5t38.5 165.5v272q0 106 59.5 169.5t147.5 63.5h160v-143h-84q-27 0 -44 -14.5t-27.5 -38t-14.5 -51t-4 -54.5v-252q0 -59 -16.5 -104t-41 -77t-51 -51t-47.5 -28v-4 q23 -8 50.5 -27.5t51 -51t39 -75.5t15.5 -102v-258q0 -27 3 -54.5t12 -51t27.5 -37.5t47.5 -14h84v-140h-160z" />
<glyph unicode="|" horiz-adv-x="454" d="M141 -377v1854h172v-1854h-172z" />
<glyph unicode="}" horiz-adv-x="569" d="M547 539q-88 -6 -123 -74t-35 -182v-209q0 -125 -51 -201t-156 -76h-159v140h83q29 0 46.5 14t27.5 37.5t13.5 51.5t3.5 54v258q0 57 15 101.5t38.5 76t50.5 51t51 27.5v4q-23 8 -49.5 27.5t-50 51.5t-39.5 77t-16 104v252q0 27 -2 54.5t-11.5 51t-28 38t-49.5 14.5h-83 v137h155q100 0 155.5 -63.5t55.5 -163.5v-272q0 -100 39 -166t119 -74v-141v0z" />
<glyph unicode="~" horiz-adv-x="1058" d="M336 725q47 0 98 -20.5t101.5 -44t98.5 -44t91 -20.5q41 0 78 25.5t86 99.5l135 -96q-59 -104 -131 -155.5t-168 -51.5q-47 0 -96 20.5t-99.5 44t-100.5 44t-97 20.5q-51 0 -88 -25.5t-80 -85.5l-127 103q53 92 126 139t173 47z" />
<glyph unicode="&#xa2;" horiz-adv-x="903" d="M864 127q-72 -72 -149.5 -100.5t-155.5 -34.5v-246h-100v246q-78 6 -144.5 32.5t-115.5 72.5t-77 110.5t-28 144.5v301q0 82 30 148.5t80 114t116.5 75t138.5 33.5v229h100v-229q78 -4 158 -30.5t147 -98.5l-127 -162q-53 49 -98 67.5t-80 22.5v-630q41 6 87 26.5 t85 56.5zM311 399q0 -92 44 -140t104 -62v620q-57 -16 -102.5 -63t-45.5 -138v-217z" />
<glyph unicode="&#xa3;" horiz-adv-x="1058" d="M827 1096q-59 80 -124.5 107.5t-131.5 27.5q-29 0 -59.5 -11.5t-58 -34t-45 -58t-17.5 -85.5q0 -37 9.5 -72.5t23.5 -72.5t27.5 -75t23.5 -81h313v-163h-303q-4 -100 -27.5 -198.5t-82.5 -191.5h612v-188h-887v162q70 92 115 192.5t51 223.5h-170v163h140 q-10 39 -24.5 77t-27 76t-21.5 76t-9 77q0 74 26.5 142t77.5 121.5t128 85t177 31.5q131 0 235.5 -42t190.5 -156z" />
<glyph unicode="&#xa5;" horiz-adv-x="1058" d="M102 457h312v90l-31 65h-279v148h215l-286 651h252l239 -625h15l237 625h252l-287 -651h220v-148h-285l-27 -65v-90h312v-142h-312v-315h-235v315h-312v142z" />
<glyph unicode="&#xa7;" horiz-adv-x="911" d="M831 629q0 -72 -27.5 -131.5t-84.5 -118.5q25 -29 44 -73t19 -97q0 -82 -30.5 -142.5t-80.5 -100.5t-114.5 -59.5t-134.5 -19.5q-80 0 -157 20.5t-136 63.5l72 150q47 -33 101 -51.5t120 -18.5q61 0 109.5 33t48.5 100q0 59 -40 104.5t-151 94.5q-59 27 -113.5 56.5 t-96.5 68.5t-66.5 90t-24.5 119q0 57 25.5 121.5t93.5 124.5q-29 33 -45.5 72.5t-16.5 90.5q0 76 29 135.5t78 98.5t113.5 59.5t136.5 20.5t148.5 -18.5t133.5 -55.5l-84 -156q-49 31 -97 47.5t-105 16.5q-27 0 -54.5 -8.5t-49 -23.5t-35 -38.5t-13.5 -54.5q0 -80 90 -135 q72 -43 142.5 -77t127 -74t91 -94t34.5 -140zM342 856q-61 -49 -61 -119q0 -43 19 -72.5t51 -51t71 -39t80 -39.5l67 -37q63 41 64 106q0 47 -27.5 84t-70.5 66.5t-94.5 54t-98.5 47.5z" />
<glyph unicode="&#xa8;" horiz-adv-x="1003" d="M578 1294q0 49 34.5 84t83.5 35q51 0 86 -35t35 -84t-34.5 -83.5t-86.5 -34.5q-49 0 -83.5 34.5t-34.5 83.5zM176 1294q0 49 35 84t82 35q51 0 86 -35t35 -84t-35 -83.5t-86 -34.5q-47 0 -82 34.5t-35 83.5z" />
<glyph unicode="&#xa9;" horiz-adv-x="1656" d="M831 -23q-154 0 -285.5 54.5t-227 151t-149.5 228.5t-54 287q0 156 55 289t151.5 229.5t227.5 151.5t282 55q154 0 285 -54t227.5 -150.5t151.5 -229.5t55 -291q0 -156 -55 -287.5t-151.5 -228t-227.5 -151t-285 -54.5zM831 1286q-121 0 -225 -45t-181 -123t-121 -186.5 t-44 -233.5t44 -231.5t121 -185t181.5 -122.5t224.5 -44q123 0 227.5 44t181.5 122.5t120 185t43 231.5q0 127 -43 234.5t-120 186.5t-181.5 123t-227.5 44zM1042 932q-41 35 -94 52t-106 17q-35 0 -71 -11t-63.5 -34.5t-45 -61.5t-17.5 -91v-230q0 -53 17.5 -91t46 -61.5 t63.5 -34.5t70 -11q51 0 104 15.5t101 51.5l75 -118q-49 -41 -122.5 -67t-157.5 -26q-68 0 -132.5 20.5t-113.5 60.5t-79 98.5t-30 132.5v286q0 74 30 132.5t79 98.5t112.5 61.5t131.5 21.5q80 0 153.5 -21.5t126.5 -68.5z" />
<glyph unicode="&#xaa;" horiz-adv-x="720" d="M489 631q-41 -35 -96 -54.5t-112 -19.5q-111 0 -172.5 55.5t-61.5 153.5q0 57 21.5 97t55.5 64.5t74 35t76 10.5h211v28q0 51 -35.5 74t-97.5 23q-35 0 -79 -10.5t-101 -51.5l-80 123q74 51 142.5 67.5t127.5 16.5q299 0 300 -250v-430h-160zM487 844h-153 q-18 0 -36.5 -3t-35 -10.5t-27 -21.5t-10.5 -37q0 -29 23.5 -49.5t64.5 -20.5q47 0 93.5 17.5t80.5 40.5v84z" />
<glyph unicode="&#xab;" horiz-adv-x="1030" d="M754 70l-273 399l273 401h202l-264 -401l264 -399h-202zM365 70l-273 399l273 401h200l-266 -401l266 -399h-200z" />
<glyph unicode="&#xad;" horiz-adv-x="835" d="M102 444v193h629v-193h-629z" />
<glyph unicode="&#xae;" horiz-adv-x="1124" d="M571 956h-82v-200h-90v495h203q63 0 107.5 -38.5t44.5 -104.5q0 -47 -24.5 -82t-67.5 -55l108 -215h-102zM489 1167v-125h101q33 0 53.5 17.5t20.5 48.5q0 59 -70 59h-105zM561 573q-92 0 -172 33t-138 89.5t-91 135t-33 170.5q0 94 34 174t93 138.5t138 91.5t169 33 q92 0 172 -33t138.5 -91.5t92 -138t33.5 -174.5q0 -92 -33.5 -170.5t-93 -135t-138.5 -89.5t-171 -33zM561 1350q-74 0 -136.5 -27t-108.5 -73t-71.5 -109.5t-25.5 -139.5q0 -74 25.5 -136t71.5 -108t108.5 -73t136.5 -27t136.5 27t108.5 73t72.5 108.5t26.5 135.5 q0 76 -26.5 139.5t-72.5 109.5t-108.5 73t-136.5 27z" />
<glyph unicode="&#xb0;" horiz-adv-x="817" d="M702 1149q0 -59 -23.5 -111.5t-63.5 -91.5t-93 -61.5t-114 -22.5t-114.5 22.5t-93.5 61.5t-63.5 91.5t-23.5 111.5t23.5 112.5t63.5 92.5t93 61.5t115 22.5q61 0 114 -22.5t93 -61.5t63.5 -92.5t23.5 -112.5zM557 1149q0 61 -43 104t-106 43q-61 0 -105.5 -43t-44.5 -104 q0 -59 44 -103.5t106 -44.5q63 0 106 44.5t43 103.5z" />
<glyph unicode="&#xb2;" horiz-adv-x="690" d="M635 1364q0 -45 -20.5 -86t-52.5 -76t-69.5 -65.5t-74.5 -55.5q-25 -16 -57.5 -36.5t-61.5 -45t-49.5 -52t-20.5 -58.5h406v-146h-582v123q0 59 20.5 105.5t54.5 84.5t77 69.5t86 60.5q25 16 55.5 35.5t56 42t43 47t17.5 51.5q0 45 -43 66.5t-92 21.5q-47 0 -93.5 -17.5 t-87.5 -48.5l-88 121q53 41 126 69t151 28q57 0 111.5 -12.5t95.5 -40t66.5 -72.5t25.5 -113z" />
<glyph unicode="&#xb3;" horiz-adv-x="688" d="M319 1599q55 0 107.5 -13t93.5 -40.5t65.5 -74t24.5 -109.5q0 -59 -31.5 -107.5t-95.5 -68.5q72 -27 101.5 -78t29.5 -104q0 -68 -25.5 -119t-67.5 -84t-97 -49.5t-115 -16.5q-84 0 -154.5 23.5t-123.5 64.5l86 127q41 -31 91 -47t91 -16q63 0 104 27.5t41 80.5 q0 51 -35.5 81t-84.5 30h-119v141h119q41 0 79.5 28t38.5 83q0 25 -12 42t-32.5 28.5t-44 16.5t-48.5 5q-43 0 -93 -14.5t-91 -46.5l-80 122q53 41 124.5 64.5t153.5 23.5z" />
<glyph unicode="&#xb4;" horiz-adv-x="1021" d="M389 1167l156 379l200 -63l-227 -365z" />
<glyph unicode="&#xb6;" horiz-adv-x="1101" d="M975 119q0 -96 -20.5 -170t-69.5 -124t-131 -78t-205 -32l-12 170q88 12 138 34t75.5 54.5t33 77.5t7.5 101v1294h184v-1327zM473 670q-84 0 -154.5 30.5t-123 83t-81 123t-28.5 150.5t29.5 150.5t82 123.5t123 84t152.5 31h186v-776h-186z" />
<glyph unicode="&#xb7;" horiz-adv-x="507" d="M256 418q-63 0 -108.5 45t-45.5 108q0 66 46.5 110t107.5 44t106.5 -44t45.5 -110q0 -63 -43 -108t-109 -45z" />
<glyph unicode="&#xb8;" horiz-adv-x="905" d="M442 86q29 0 55.5 -1t55.5 -3l-53 -160q57 -4 96 -21.5t62.5 -43t33.5 -54t10 -55.5q0 -31 -13 -61.5t-39.5 -57t-68.5 -43t-100 -16.5q-47 0 -102 9t-105 32q10 25 19.5 49.5t19.5 50.5q47 -18 85 -23t69 -5q41 0 67.5 18t26.5 51q0 27 -20.5 49.5t-67.5 22.5 q-8 0 -15 -1t-18 -3l-69 37l71 229v0z" />
<glyph unicode="&#xb9;" horiz-adv-x="632" d="M276 745v641l-94 -71l-94 117l205 161h151v-848h-168z" />
<glyph unicode="&#xba;" horiz-adv-x="722" d="M666 819q0 -61 -24 -110.5t-65.5 -83t-97 -52t-119.5 -18.5q-66 0 -121 18.5t-96 52t-64.5 83t-23.5 110.5v158q0 61 24.5 110.5t65.5 84t97.5 53t117.5 18.5q135 0 220.5 -71.5t85.5 -194.5v-158zM494 961q0 66 -43 97.5t-91 31.5q-47 0 -90 -32t-43 -97v-121 q0 -68 40 -98.5t93 -30.5q47 0 90.5 30.5t43.5 98.5v121z" />
<glyph unicode="&#xbb;" horiz-adv-x="1030" d="M92 70l266 399l-266 401h203l272 -401l-272 -399h-203zM483 70l267 399l-267 401h201l274 -401l-274 -399h-201z" />
<glyph unicode="&#xbc;" horiz-adv-x="1691" d="M344 563v641l-94 -71l-94 116l204 162h152v-848h-168zM465 -35h-160l871 1495h161zM1452 121v-121h-162v121h-387v125l301 600h178l-288 -582h196v232h162v-232h84v-143h-84z" />
<glyph unicode="&#xbd;" horiz-adv-x="1691" d="M1563 621q0 -45 -20.5 -86t-52.5 -76t-70 -66t-74 -55q-25 -16 -58 -36.5t-61.5 -45.5t-49 -52.5t-20.5 -58.5h406v-145h-582v123q0 59 20.5 105t54.5 84t77 70t86 60q25 16 55.5 36t56 42.5t43 47t17.5 50.5q0 45 -43 67t-93 22q-47 0 -93 -17.5t-87 -48.5l-88 121 q53 41 126 68.5t151 27.5q57 0 111.5 -12t95 -40t66.5 -72.5t26 -112.5zM403 -35h-159l870 1495h162zM315 563v641l-94 -71l-94 116l205 162h151v-848h-168z" />
<glyph unicode="&#xbe;" horiz-adv-x="1691" d="M377 1417q55 0 107.5 -13t93 -41t65.5 -74t25 -109q0 -59 -32 -107.5t-95 -68.5q72 -27 101.5 -78.5t29.5 -104.5q0 -68 -25.5 -119t-67.5 -83.5t-97.5 -49t-114.5 -16.5q-84 0 -155 23.5t-124 64.5l86 127q41 -31 91 -47t91 -16q63 0 104.5 27.5t41.5 80.5q0 51 -36 81 t-85 30h-119v141h119q41 0 80 27.5t39 83.5q0 25 -12.5 42t-33 28t-44 16.5t-48.5 5.5q-43 0 -93 -14.5t-91 -47.5l-80 123q53 41 125 64.5t154 23.5zM543 -35h-160l870 1495h162zM1518 121v-121h-162v121h-387v125l301 600h178l-289 -582h197v232h162v-232h84v-143h-84z " />
<glyph unicode="&#xc6;" horiz-adv-x="2029" d="M1006 0v375q-129 0 -256 1t-256 1l-234 -377h-258q223 356 444.5 705.5t444.5 705.5h1071v-213h-723v-387h619v-209h-619v-393h723v-209h-956zM1004 1200q-100 -158 -198.5 -314.5t-197.5 -314.5q98 0 197.5 -1t200.5 -1v631h-2z" />
<glyph unicode="&#xe6;" horiz-adv-x="1648" d="M946 442v-59q0 -53 18.5 -90t49 -60.5t70.5 -35t83 -11.5q47 0 113 16.5t133 76.5l127 -150q-86 -84 -181 -111.5t-192 -27.5q-111 0 -204 33.5t-152 105.5q-20 -12 -40.5 -25.5t-41.5 -23.5q-117 -59 -193.5 -73.5t-129.5 -14.5q-152 0 -239 82t-87 223q0 84 37 141.5 t92 93t119.5 52t120.5 16.5h280v62q0 94 -60.5 130.5t-160.5 36.5q-51 0 -120 -15t-144 -77l-103 162q102 78 198.5 101.5t184.5 23.5q219 0 326 -111q55 53 132 82t169 29t170 -26.5t133 -77t87 -122t32 -163.5v-193h-627zM729 442h-240q-29 0 -60.5 -5t-58 -20.5t-44 -42 t-17.5 -69.5q0 -57 41 -88t109 -31q37 0 73.5 9.5t72.5 22.5t68 29.5t56 31.5v163zM1354 623q0 106 -59.5 154t-143.5 48q-80 0 -141.5 -50t-61.5 -148v-29h406v25z" />
<glyph unicode="&#x152;" horiz-adv-x="1830" d="M639 1425q41 0 80 -3t76 -11h956v-211h-723v-387h619v-211h-619v-393h723v-209h-954q-72 -14 -158 -14q-113 0 -210 31.5t-168 92t-111.5 148.5t-40.5 199v501q0 111 42 197t113.5 146.5t167.5 92t207 31.5zM639 201q41 0 81 6t75 24v947q-35 18 -75 25t-81 7 q-59 0 -112.5 -16t-93.5 -52t-64.5 -91.5t-24.5 -130.5v-428q0 -78 24.5 -133.5t65.5 -90.5t94.5 -51t110.5 -16z" />
<glyph unicode="&#x153;" horiz-adv-x="1662" d="M958 436v-51q0 -55 20.5 -93t53.5 -60.5t76 -33t90 -10.5t107.5 19.5t119.5 71.5q31 -39 63 -75t64 -75q-86 -84 -181 -111.5t-191 -27.5q-98 0 -185.5 27.5t-146.5 86.5q-59 -57 -144.5 -85.5t-179.5 -28.5q-88 0 -165.5 23.5t-136 69.5t-93.5 115.5t-35 159.5v295 q0 90 35 160t94.5 117t137 71.5t163.5 24.5q102 0 186.5 -30.5t141.5 -88.5q57 55 137 86t174 31q92 0 169 -26.5t133.5 -78t87 -123t30.5 -161.5v-199h-625zM741 618q-2 57 -21.5 96.5t-50 64t-68.5 34.5t-75 10t-75.5 -11t-69.5 -35.5t-50.5 -64.5t-19.5 -98v-215 q0 -115 63.5 -162t151.5 -47q37 0 74 10.5t67.5 34t51 61.5t22.5 93v229zM1364 623q0 106 -59.5 154t-141.5 48q-86 0 -144 -53t-58 -162v-18h403v31z" />
<glyph unicode="&#x2c6;" horiz-adv-x="1021" d="M518 1327q-12 -8 -53 -40t-88 -68.5t-88 -68.5t-53 -40l-91 84l306 315h143l297 -311l-94 -88z" />
<glyph unicode="&#x2da;" horiz-adv-x="1021" d="M641 1319q0 41 -29.5 69.5t-72.5 28.5t-74 -28.5t-31 -69.5q0 -43 31 -72.5t74 -29.5t72.5 29.5t29.5 72.5zM311 1319q0 45 18.5 85t49.5 68.5t72 46t88 17.5t88 -17.5t71.5 -46t48 -68.5t17.5 -85q0 -47 -17.5 -87t-48 -69.5t-71.5 -47t-88 -17.5t-88 17.5t-72 47 t-49.5 69.5t-18.5 87z" />
<glyph unicode="&#x2dc;" horiz-adv-x="1021" d="M381 1446q39 0 77 -15.5t73.5 -34t67.5 -33.5t56 -15q33 0 63 21.5t64 72.5l119 -70q-49 -104 -105.5 -150t-123.5 -46q-39 0 -76 14t-72 30.5t-67.5 31t-61.5 14.5q-35 0 -63.5 -16.5t-69.5 -69.5l-119 69q47 96 106.5 146.5t131.5 50.5z" />
<glyph unicode="&#x401;" horiz-adv-x="1161" d="M125 1411h956v-211h-723v-387h619v-211h-619v-393h723v-209h-956v1411zM698 1661q0 49 35 84t84 35q51 0 85 -35t34 -84t-34 -84t-85 -35q-49 0 -84 35t-35 84zM297 1661q0 49 35 84t82 35q51 0 86 -35t35 -84t-35 -84t-86 -35q-47 0 -82 35t-35 84z" />
<glyph unicode="&#x402;" horiz-adv-x="1486" d="M1163 504q0 141 -61.5 199.5t-183.5 58.5q-74 0 -159 -32t-153 -75v-655h-235v1198h-351v213h1084v-213h-498v-326q88 49 183.5 77t181.5 28q221 0 325.5 -116t104.5 -314v-258q0 -111 -41 -199t-111.5 -147.5t-169 -91t-211.5 -31.5v209q61 0 115.5 16t94.5 52 t62.5 90.5t22.5 131.5v185v0z" />
<glyph unicode="&#x403;" horiz-adv-x="1073" d="M129 0v1411h956v-211h-723v-1200h-233zM436 1612l344 266l123 -168l-389 -207z" />
<glyph unicode="&#x404;" horiz-adv-x="1101" d="M928 1110q-59 51 -140 75.5t-153 24.5q-53 0 -104.5 -16t-92.5 -51t-66.5 -90.5t-25.5 -132.5v-97h471v-202h-471v-129q0 -78 25.5 -133.5t67.5 -90.5t93.5 -51t102.5 -16q76 0 153.5 21.5t147.5 76.5l113 -180q-72 -59 -181.5 -96t-232.5 -37q-106 0 -201.5 29.5 t-167 88t-113.5 144.5t-42 196v519q0 111 44 196.5t115.5 145t165.5 90t195 30.5q117 0 223.5 -32.5t187.5 -100.5z" />
<glyph unicode="&#x405;" horiz-adv-x="1181" d="M1116 399q0 -98 -39 -175t-107.5 -129t-164.5 -79.5t-209 -27.5q-150 0 -282 42t-255 142l131 170q92 -68 195.5 -105.5t208.5 -37.5q139 0 207.5 56t68.5 142q0 59 -27.5 96t-74.5 62t-107.5 39t-125.5 31q-82 18 -159 46.5t-135.5 75t-94 113t-35.5 162.5 q0 90 32.5 166t94 131t147.5 87t193 32q127 0 250.5 -26t236.5 -97l-104 -193q-94 57 -187.5 80t-183.5 23q-49 0 -93 -12.5t-78 -37t-54.5 -62.5t-20.5 -89t26.5 -86t70.5 -58.5t100.5 -39t117.5 -27.5q100 -23 184.5 -53.5t145 -78.5t94 -116t33.5 -166z" />
<glyph unicode="&#x406;" horiz-adv-x="561" d="M397 1411v-1411h-233v1411h233z" />
<glyph unicode="&#x407;" horiz-adv-x="561" d="M397 1411v-1411h-233v1411h233zM367 1661q0 49 34.5 84t83.5 35q51 0 86 -35t35 -84t-34.5 -84t-86.5 -35q-49 0 -83.5 35t-34.5 84zM-35 1661q0 49 35 84t82 35q51 0 86 -35t35 -84t-35 -84t-86 -35q-47 0 -82 35t-35 84z" />
<glyph unicode="&#x408;" horiz-adv-x="1079" d="M924 449q0 -111 -40 -197t-108.5 -145.5t-158 -90t-187.5 -30.5q-53 0 -109.5 7t-109.5 22.5t-102.5 38t-88.5 50.5l109 185q72 -49 138.5 -68.5t129.5 -19.5t116.5 16t92.5 51t60.5 92.5t21.5 141.5v909h236v-962v0z" />
<glyph unicode="&#x409;" horiz-adv-x="1908" d="M1870 426q0 -76 -23.5 -151.5t-75 -137t-129 -99.5t-188.5 -38h-602v1198h-332v-410q0 -184 -20.5 -325t-70.5 -242.5t-134 -165t-211 -94.5l-70 186q84 31 138.5 78t85 123t43 183.5t12.5 259.5v620h794v-561h359q98 0 177 -34t134 -92t84 -135t29 -163zM1640 426 q0 100 -64.5 156.5t-166.5 56.5h-322v-428h326q102 0 164.5 58.5t62.5 156.5z" />
<glyph unicode="&#x40a;" horiz-adv-x="1900" d="M829 0v629h-481v-629h-233v1411h233v-571h481v571h236v-569h360q98 0 176 -33t133.5 -89t84 -132t28.5 -160q0 -76 -23.5 -152.5t-73.5 -138t-129 -99.5t-187 -38h-605zM1065 211h326q102 0 164.5 59.5t62.5 157.5t-63.5 150.5t-168.5 52.5h-321v-420z" />
<glyph unicode="&#x40b;" horiz-adv-x="1486" d="M1163 0v475q0 145 -50 216t-187 71q-74 0 -163 -32t-157 -75v-655h-235v1198h-351v213h1084v-213h-498v-321q78 43 174.5 71.5t182.5 28.5q123 0 206.5 -33t135 -92t74 -142t22.5 -184v-526h-238z" />
<glyph unicode="&#x40c;" horiz-adv-x="1218" d="M119 0v1411h233v-588h183q37 0 72.5 7.5t68.5 28t60.5 58t47.5 99.5l127 395h232l-127 -412q-33 -104 -84 -173.5t-117 -92.5q88 -29 137 -101.5t80 -176.5l135 -455h-249l-119 416q-18 63 -45 103t-59.5 62.5t-70.5 29.5t-79 7h-193v-618h-233zM414 1612l344 266 l123 -168l-389 -207z" />
<glyph unicode="&#x40e;" horiz-adv-x="1114" d="M672 281q-35 -90 -72 -147.5t-80 -91.5t-92 -46t-104 -12h-154v198h123q51 0 82 18.5t57 71.5l19 37q-111 274 -217.5 550t-215.5 552h244q6 -18 29.5 -80.5t54.5 -147.5t65.5 -180.5t65.5 -180.5t53.5 -149.5t30.5 -84.5h10q10 33 34 98.5t53.5 147t61.5 172t61.5 170 t52 143t32.5 92.5h234zM571 1440q-86 0 -142 28.5t-92 71.5t-51.5 92t-17.5 92h168q2 -20 11.5 -42.5t27 -42t42 -33t54.5 -13.5q35 0 60.5 13.5t43 33t26 42t8.5 42.5h165q-4 -43 -20 -92t-50 -92t-90.5 -71.5t-142.5 -28.5z" />
<glyph unicode="&#x40f;" horiz-adv-x="1292" d="M1178 1411v-1411h-410v-350h-250v350h-403v1411h233v-1200h592v1200h238z" />
<glyph unicode="&#x410;" horiz-adv-x="1263" d="M895 305h-526l-101 -305h-248l494 1411h238l493 -1411h-254zM436 508h391l-84 264l-108 358h-8l-105 -344z" />
<glyph unicode="&#x411;" horiz-adv-x="1183" d="M115 1411h868v-213h-635v-348h357q102 0 182 -34t134 -92t83 -135t29 -161q0 -76 -25 -152.5t-76 -138t-130 -99.5t-189 -38h-598v1411zM348 211h324q102 0 166.5 59.5t64.5 157.5t-66.5 154.5t-168.5 56.5h-320v-428z" />
<glyph unicode="&#x412;" horiz-adv-x="1245" d="M1157 416q0 -80 -25.5 -155t-76.5 -133t-127 -93t-174 -35h-635v1411h610q100 0 177 -30.5t127 -83t76 -120t26 -143.5q0 -82 -41 -162.5t-133 -132.5q102 -51 149 -142t47 -181zM897 1018q0 94 -58.5 138t-162.5 44h-322v-362h332q92 0 151.5 47t59.5 133zM918 420 q0 98 -67 155.5t-159 57.5h-338v-424h340q111 0 167.5 56.5t56.5 154.5z" />
<glyph unicode="&#x413;" horiz-adv-x="1073" d="M129 0v1411h956v-211h-723v-1200h-233z" />
<glyph unicode="&#x414;" horiz-adv-x="1454" d="M125 211q47 35 81 84t56.5 123t35.5 177t19 245l25 571h922q0 -303 1 -602t1 -600h118v-518h-219v309h-925v-309h-220v520h105zM553 1200l-18 -371q-6 -113 -12.5 -205t-21 -167.5t-37 -137t-61.5 -112.5h627v993h-477z" />
<glyph unicode="&#x415;" horiz-adv-x="1161" d="M125 1411h956v-211h-723v-387h619v-211h-619v-393h723v-209h-956v1411z" />
<glyph unicode="&#x416;" horiz-adv-x="1843" d="M805 0v618h-135q-43 0 -81 -7t-70 -29.5t-58.5 -62.5t-44.5 -103l-119 -416h-252l135 453q31 104 81 178t138 102q-68 23 -119 90.5t-81 171.5l-129 416h235l125 -395q20 -63 48 -101t61.5 -58.5t70.5 -27t74 -6.5h121v588h233v-588h121q37 0 74 6.5t70.5 27t61.5 58 t48 101.5l125 395h236l-129 -416q-31 -104 -82.5 -171.5t-118.5 -90.5q88 -29 138 -102.5t81 -177.5l135 -453h-252l-119 416q-18 63 -44.5 103t-59.5 62.5t-69.5 29.5t-79.5 7h-136v-618h-233z" />
<glyph unicode="&#x417;" horiz-adv-x="1095" d="M524 1423q92 0 176 -19.5t149.5 -64.5t104.5 -115.5t39 -172.5q0 -104 -52 -187.5t-148 -122.5q111 -39 158.5 -128t47.5 -189q0 -115 -43 -198t-114.5 -136t-166.5 -78.5t-200 -25.5q-135 0 -259 40t-198 103l121 172q31 -25 72 -44t85 -33.5t89 -22.5t82 -8 q141 0 220 63t79 170q0 104 -64.5 157.5t-175.5 53.5h-176v190h166q45 0 88 13.5t78 40t56.5 65.5t21.5 92q0 49 -20.5 83t-56.5 56.5t-83 33t-100 10.5q-37 0 -79 -7.5t-84 -21.5t-80 -33.5t-67 -44.5l-118 170q86 66 195.5 102.5t256.5 36.5z" />
<glyph unicode="&#x418;" horiz-adv-x="1351" d="M983 1008q-41 -68 -83 -134.5t-85 -132.5q-14 -23 -51 -80t-85 -131.5t-102.5 -158.5t-103.5 -159t-86 -132t-51 -80h-215v1411h233v-1003h11l645 1003h219v-1411h-234v1008h-12z" />
<glyph unicode="&#x419;" horiz-adv-x="1351" d="M983 1008q-41 -68 -83 -134.5t-85 -132.5q-14 -23 -51 -80t-85 -131.5t-102.5 -158.5t-103.5 -159t-86 -132t-51 -80h-215v1411h233v-1003h11l645 1003h219v-1411h-234v1008h-12zM672 1468q-86 0 -142.5 29t-92.5 72t-51 92t-17 92h168q2 -20 11 -42.5t26.5 -42t42 -33 t55.5 -13.5q35 0 60.5 13.5t43 33t25.5 42t8 42.5h166q-4 -43 -20.5 -92t-50.5 -92t-90 -72t-142 -29z" />
<glyph unicode="&#x41a;" horiz-adv-x="1218" d="M119 0v1411h233v-588h183q37 0 72.5 7.5t68.5 28t60.5 58t47.5 99.5l127 395h232l-127 -412q-33 -104 -84 -173.5t-117 -92.5q88 -29 137 -101.5t80 -176.5l135 -455h-249l-119 416q-18 63 -45 103t-59.5 62.5t-70.5 29.5t-79 7h-193v-618h-233z" />
<glyph unicode="&#x41b;" horiz-adv-x="1300" d="M506 1200v-412q0 -188 -22.5 -329.5t-75 -242.5t-136.5 -163.5t-206 -93.5l-72 195q80 33 134 81t87 120.5t46 178t13 257.5v620h900v-1411h-240v1200h-428z" />
<glyph unicode="&#x41c;" horiz-adv-x="1562" d="M1202 860l-131 -266l-199 -391h-172l-192 368l-146 289h-8v-860h-233v1411h219l268 -537l174 -362h13l172 367l262 532h215v-1411h-234v860h-8z" />
<glyph unicode="&#x41d;" horiz-adv-x="1292" d="M940 0v610h-592v-610h-233v1411h233v-590h592v590h238v-1411h-238z" />
<glyph unicode="&#x41e;" horiz-adv-x="1280" d="M1171 457q0 -111 -40.5 -199t-113.5 -148.5t-170 -92t-208 -31.5q-113 0 -210 31.5t-168 92t-111.5 148.5t-40.5 199v501q0 111 42 197t113.5 146.5t167.5 92t207 31.5q109 0 206 -32.5t169.5 -93t114.5 -147.5t42 -198v-497zM936 920q0 76 -24.5 131t-65.5 91t-95.5 52 t-111.5 16q-59 0 -112.5 -16t-93.5 -52t-64.5 -91.5t-24.5 -130.5v-428q0 -78 24.5 -133.5t65.5 -90.5t94.5 -51t110.5 -16t111.5 16t95.5 51t65.5 90.5t24.5 133.5v428z" />
<glyph unicode="&#x41f;" horiz-adv-x="1292" d="M940 0v1200h-592v-1200h-233v1411h1063v-1411h-238z" />
<glyph unicode="&#x420;" horiz-adv-x="1157" d="M348 762h324q102 0 162.5 60.5t60.5 158.5t-60.5 158.5t-162.5 60.5h-324v-438zM723 1411q102 0 178 -39t125 -100.5t73.5 -138t24.5 -152.5t-27.5 -152.5t-79.5 -139t-127 -101.5t-171 -39h-371v-549h-233v1411h608z" />
<glyph unicode="&#x421;" horiz-adv-x="1114" d="M936 1110q-59 51 -139 75.5t-156 24.5q-53 0 -105.5 -16t-93.5 -51t-66.5 -90.5t-25.5 -132.5v-428q0 -78 25.5 -133.5t67.5 -90.5t93.5 -51t102.5 -16q76 0 153.5 21.5t147.5 76.5l111 -180q-72 -59 -180.5 -96t-231.5 -37q-102 0 -196.5 29.5t-167 88t-116.5 144.5 t-44 196v523q0 111 44 195.5t116.5 143t167 89t194.5 30.5q117 0 224.5 -32.5t189.5 -100.5z" />
<glyph unicode="&#x422;" horiz-adv-x="1073" d="M655 1198v-1198h-235v1198h-391v213h1015v-213h-389z" />
<glyph unicode="&#x423;" horiz-adv-x="1114" d="M672 281q-35 -90 -72 -147.5t-80 -91.5t-92 -46t-104 -12h-154v198h123q51 0 82 18.5t57 71.5l19 37q-111 274 -217.5 550t-215.5 552h244q6 -18 29.5 -80.5t54.5 -147.5t65.5 -180.5t65.5 -180.5t53.5 -149.5t30.5 -84.5h10q10 33 34 98.5t53.5 147t61.5 172t61.5 170 t52 143t32.5 92.5h234z" />
<glyph unicode="&#x424;" horiz-adv-x="1601" d="M920 1358q125 -4 229 -46t178 -110.5t115 -162t41 -199.5v-195q0 -111 -40 -205t-113 -164.5t-177 -112.5t-233 -46v-117h-236v117q-131 6 -235.5 47t-177 110.5t-111.5 162.5t-39 204v199q0 106 42 199.5t116.5 162t178 110.5t226.5 46v67h236v-67zM1251 817 q0 74 -24.5 133.5t-67.5 102.5t-104.5 66.5t-134.5 25.5v-817q72 2 132 25.5t105 65.5t69.5 101.5t24.5 134.5v162zM352 655q0 -76 25.5 -135t71 -101t105.5 -65.5t130 -25.5v817q-72 -2 -132 -25.5t-105.5 -66.5t-70 -102.5t-24.5 -133.5v-162z" />
<glyph unicode="&#x425;" horiz-adv-x="1171" d="M586 528l-303 -528h-267l443 723l-416 688h268l275 -493l276 493h266l-413 -688l442 -723h-266z" />
<glyph unicode="&#x426;" horiz-adv-x="1335" d="M1178 1411v-1202h120v-520h-221v311h-962v1411h233v-1202h592v1202h238z" />
<glyph unicode="&#x427;" horiz-adv-x="1228" d="M293 1413v-405q0 -152 74.5 -219.5t220.5 -67.5q80 0 157.5 29.5t135.5 66.5v596h235v-1411h-237v600q-70 -41 -154 -65.5t-172 -24.5q-240 0 -368 122t-128 345v434h236z" />
<glyph unicode="&#x428;" horiz-adv-x="1828" d="M1714 1411v-1411h-1597v1411h233v-1202h447v1202h231v-1202h451v1202h235z" />
<glyph unicode="&#x429;" horiz-adv-x="1865" d="M1028 209h449v1202h237v-1202h119v-520h-219v311h-1497v1411h233v-1202h447v1202h231v-1202z" />
<glyph unicode="&#x42a;" horiz-adv-x="1538" d="M453 0v1202h-437v209h670v-561h358q98 0 177 -34t134.5 -92t85 -135t29.5 -161q0 -76 -24.5 -152.5t-74.5 -138t-129 -99.5t-189 -38h-600zM686 211h326q102 0 165.5 59.5t63.5 157.5t-65.5 154.5t-167.5 56.5h-322v-428z" />
<glyph unicode="&#x42b;" horiz-adv-x="1646" d="M356 211h326q102 0 165.5 59.5t63.5 157.5t-65.5 154.5t-167.5 56.5h-322v-428zM123 0v1411h233v-561h359q98 0 177 -34t134 -92t85 -135t30 -161q0 -76 -24.5 -152.5t-75 -138t-129 -99.5t-189.5 -38h-600zM1522 1411v-1411h-234v1411h234z" />
<glyph unicode="&#x42c;" horiz-adv-x="1191" d="M356 211h326q102 0 165.5 59.5t63.5 157.5t-65.5 154.5t-167.5 56.5h-322v-428zM123 0v1411h233v-561h359q98 0 177 -34t134 -92t85 -135t30 -161q0 -76 -24.5 -152.5t-75 -138t-129 -99.5t-189.5 -38h-600z" />
<glyph unicode="&#x42d;" horiz-adv-x="1101" d="M84 1298q168 127 416 127q111 0 199.5 -27.5t153.5 -84t99.5 -142.5t34.5 -204v-521q0 -111 -43 -196.5t-114.5 -144t-166 -89t-198.5 -30.5q-123 0 -233.5 36.5t-182.5 96.5l113 180q66 -57 146.5 -77.5t156.5 -20.5q57 0 109.5 16t92.5 51t62.5 90.5t22.5 133.5v143 h-502v203h502v80q0 158 -76 225t-201 67q-74 0 -146.5 -24.5t-131.5 -71.5z" />
<glyph unicode="&#x42e;" horiz-adv-x="1646" d="M1534 457q0 -111 -36 -199t-102.5 -148.5t-157.5 -92t-202 -31.5q-115 0 -206 31.5t-156.5 92t-100 148.5t-34.5 199v153h-179v-610h-233v1411h233v-590h179v137q0 111 35.5 197t102 146.5t158 92t201.5 31.5q109 0 200 -32.5t157.5 -93t103.5 -147.5t37 -198v-497z M1298 920q0 154 -72.5 222t-189.5 68t-189.5 -68.5t-72.5 -221.5v-428q0 -158 74 -224.5t188 -66.5q115 0 188.5 66.5t73.5 224.5v428z" />
<glyph unicode="&#x42f;" horiz-adv-x="1251" d="M1139 1411v-1411h-236v584h-223q-39 0 -75 -9.5t-66.5 -32t-56 -61.5t-44.5 -100l-108 -381h-250l117 397q27 82 57.5 141.5t95.5 94.5q-123 37 -177 135t-54 217q0 84 26.5 161t78.5 136t130 94t183 35h602zM903 1200h-319q-117 0 -175.5 -58.5t-58.5 -162.5 q0 -102 63.5 -148.5t170.5 -46.5h319v416z" />
<glyph unicode="&#x430;" horiz-adv-x="1044" d="M725 92q-109 -61 -183.5 -80.5t-138.5 -19.5q-152 0 -237.5 82t-85.5 225q0 84 37 141.5t92 93t119.5 52t120.5 16.5h280v62q0 90 -51 128.5t-158 38.5q-51 0 -126 -15t-150 -77l-101 162q102 78 206 101.5t192 23.5q209 0 307 -92t98 -281v-653h-196l-19 88zM729 434 h-244q-29 0 -59.5 -4t-56 -17.5t-43 -38t-17.5 -67.5q0 -57 41 -89t109 -32q37 0 73.5 9.5t72.5 22.5t68 29.5t56 31.5v155z" />
<glyph unicode="&#x431;" horiz-adv-x="1050" d="M332 891q25 23 55.5 38t62 25.5t62.5 14.5t53 4q186 0 289.5 -96.5t103.5 -284.5v-221q0 -92 -35.5 -163t-95 -119t-138.5 -73.5t-167 -25.5q-199 0 -314.5 98t-115.5 283v268q0 94 6 173t23.5 146.5t46.5 126t72 113.5q33 41 77.5 73t96 57.5t106.5 48t107 42.5 q27 10 49 19.5t44.5 18.5t47.5 19.5t55 24.5l74 -178q-49 -23 -83 -36t-59.5 -23.5t-47 -18.5t-48.5 -18q-74 -31 -131 -59.5t-99 -64.5t-67.5 -85t-35.5 -119zM741 561q0 115 -59 162t-154 47q-37 0 -75.5 -12.5t-70.5 -39t-51.5 -67.5t-19.5 -98v-154q0 -57 17.5 -97 t46 -64.5t68.5 -36t83 -11.5q41 0 80 11.5t69 36t48 64.5t18 97v162z" />
<glyph unicode="&#x432;" horiz-adv-x="1017" d="M934 305q0 -59 -20.5 -114.5t-61.5 -97.5t-102.5 -67.5t-143.5 -25.5h-514v1014h510q80 0 139.5 -22.5t97.5 -60.5t57 -88t19 -106q0 -59 -33.5 -118.5t-93.5 -88.5q72 -33 109 -94t37 -131zM713 311q0 57 -41 90t-99 33h-262v-252h250q78 0 115 35t37 94zM698 721 q0 55 -40 80.5t-93 25.5h-254v-211h260q59 0 93 28t34 77z" />
<glyph unicode="&#x433;" horiz-adv-x="845" d="M96 0v1016h748v-189h-531v-827h-217z" />
<glyph unicode="&#x434;" horiz-adv-x="1179" d="M457 827l-13 -233q-8 -133 -23 -233.5t-59 -172.5h449v639h-354zM25 184h37.5t35.5 2q72 51 102.5 144.5t41.5 257.5l26 426h758v-826q23 0 45.5 -1t44.5 -1v-448h-198v262h-695v-262h-198v446z" />
<glyph unicode="&#x435;" horiz-adv-x="1013" d="M311 436v-51q0 -53 18.5 -91t48.5 -61.5t69.5 -35t82.5 -11.5q47 0 114 16.5t132 76.5q33 -39 64.5 -75t62.5 -75q-86 -84 -181 -111.5t-192 -27.5q-88 0 -166.5 22.5t-139 68.5t-95.5 115.5t-35 163.5v267q0 92 32 165.5t89 125t133 79t166 27.5q92 0 170 -26.5t134 -77 t87 -122t31 -163.5v-199h-625zM717 623q0 106 -59.5 154t-141.5 48t-142.5 -50t-60.5 -150v-33h404v31z" />
<glyph unicode="&#x436;" horiz-adv-x="1470" d="M625 0v420h-84q-35 0 -65 -4t-53.5 -19.5t-42 -44t-30.5 -78.5l-80 -274h-237l106 330q25 76 57.5 128t106.5 72q-59 20 -94 68.5t-59 122.5l-99 295h230l88 -266q31 -90 78 -115t106 -25h72v406h217v-406h71q61 0 108.5 24.5t76.5 115.5l88 266h229l-98 -295 q-25 -74 -59.5 -122t-94.5 -69q74 -20 107 -72t57 -128l107 -330h-238l-78 274q-14 49 -32.5 78t-42 44.5t-52 19.5t-65.5 4h-84v-420h-217z" />
<glyph unicode="&#x437;" horiz-adv-x="901" d="M455 1026q166 0 263 -78t97 -209q0 -27 -6 -56.5t-22.5 -58t-43 -54t-67.5 -44.5q43 -18 71.5 -44.5t46 -57.5t24.5 -61.5t7 -57.5q0 -147 -106.5 -231t-296.5 -84q-100 0 -203.5 28.5t-183.5 94.5l117 149q53 -43 126.5 -65.5t127.5 -22.5q115 0 160.5 40t45.5 91 q0 63 -46 95t-124 32h-143v170h143q74 0 116 34t42 87q0 59 -51 86t-117 27q-53 0 -118.5 -17.5t-118.5 -62.5l-117 149q74 66 175.5 93.5t201.5 27.5z" />
<glyph unicode="&#x438;" horiz-adv-x="1073" d="M741 668l-161 -254l-283 -414h-195v1014h220v-666h8l149 223l295 443h197v-1014h-219v668h-11z" />
<glyph unicode="&#x439;" horiz-adv-x="1073" d="M522 1159q-86 0 -142 29t-92 72t-51.5 92t-17.5 92h168q2 -20 11.5 -43t26.5 -42.5t42 -32.5t55 -13q35 0 60.5 13t43 32.5t25.5 42t8 43.5h166q-4 -43 -20.5 -92t-50 -92t-90 -72t-142.5 -29zM741 668l-161 -254l-283 -414h-195v1014h220v-666h8l149 223l295 443h197 v-1014h-219v668h-11z" />
<glyph unicode="&#x43a;" horiz-adv-x="1032" d="M102 0v1016h217v-406h130q61 0 110 24.5t82 115.5l92 266h230l-105 -295q-25 -74 -58.5 -122t-92.5 -69q72 -20 104.5 -72t56.5 -128l113 -330h-238l-84 274q-14 47 -33.5 76t-44 44.5t-54 20.5t-66.5 5h-142v-420h-217z" />
<glyph unicode="&#x43b;" horiz-adv-x="1067" d="M430 578q0 -147 -23.5 -252t-69.5 -175.5t-113.5 -113.5t-155.5 -66l-64 174q57 23 98 49.5t67 73.5t37 121t11 191v434h733v-1014h-217v827h-303v-249z" />
<glyph unicode="&#x43c;" horiz-adv-x="1273" d="M639 393l170 320l164 301h194v-1014h-217v555h-10l-235 -424h-148l-113 209l-110 209h-12v-549h-218v1014h199l162 -305l162 -316h12z" />
<glyph unicode="&#x43d;" horiz-adv-x="1069" d="M748 0v420h-429v-420h-215v1014h215v-406h429v406h219v-1014h-219z" />
<glyph unicode="&#x43e;" horiz-adv-x="1048" d="M954 358q0 -90 -35.5 -159.5t-96 -115.5t-138.5 -69.5t-162 -23.5q-86 0 -164.5 23.5t-137 69.5t-93.5 115.5t-35 159.5v295q0 90 36 160t95.5 117t137 71.5t163.5 24.5q92 0 170 -24.5t136.5 -72.5t91 -118t32.5 -160v-293zM739 614q0 57 -19.5 97.5t-50 65t-69.5 35.5 t-76 11t-75.5 -11t-69.5 -35.5t-50.5 -64.5t-19.5 -98v-215q0 -115 63.5 -162t151.5 -47q37 0 76 11.5t69.5 36t50 64.5t19.5 97v215z" />
<glyph unicode="&#x43f;" horiz-adv-x="1058" d="M743 0v823h-426v-823h-217v1014h863v-1014h-220z" />
<glyph unicode="&#x440;" horiz-adv-x="1052" d="M965 352q0 -170 -93.5 -267t-263.5 -97q-53 0 -126.5 10t-162.5 51v-455h-217v1420h197l20 -101q104 63 178 87t128 24q158 0 249 -89t91 -278v-305zM745 639q0 102 -44 140t-111 38q-27 0 -60.5 -8t-70.5 -22.5t-73 -33t-67 -38.5v-463q82 -35 140.5 -47t113.5 -12 q35 0 67 8t55.5 29.5t36.5 56.5t13 86v266z" />
<glyph unicode="&#x441;" horiz-adv-x="903" d="M864 127q-82 -84 -174 -110.5t-184 -26.5q-86 0 -162 24.5t-131 71.5t-87 113.5t-32 152.5v301q0 90 35 160t92.5 117t131 71.5t151.5 24.5q45 0 92 -5t93 -18.5t90 -39t85 -68.5l-127 -162q-70 63 -124 77.5t-95 14.5q-35 0 -71.5 -11t-66.5 -35.5t-49.5 -64.5 t-19.5 -98v-217q0 -57 17.5 -97t46 -64.5t65.5 -36t76 -11.5q43 0 104.5 19.5t110.5 66.5z" />
<glyph unicode="&#x442;" horiz-adv-x="858" d="M541 827v-827h-222v827h-301v189h824v-189h-301z" />
<glyph unicode="&#x443;" horiz-adv-x="966" d="M217 -410l154 430l-74 60l-277 936h230l108 -416l101 -371h6l129 373l137 414h230l-519 -1426h-225z" />
<glyph unicode="&#x444;" horiz-adv-x="1318" d="M551 -408v398q-104 0 -189.5 33.5t-145.5 91t-93 134.5t-33 165v180q0 88 33 165t93 135t145 93t190 37v385h217v-385q104 -2 189 -37t145.5 -93t92.5 -135t32 -165v-180q0 -88 -33 -165t-93.5 -134.5t-145.5 -91t-187 -33.5v-398h-217zM551 821q-121 -2 -182.5 -73.5 t-61.5 -176.5v-131q0 -104 63.5 -177t180.5 -75v633zM768 188q117 2 179.5 75t62.5 177v131q0 104 -60.5 176t-181.5 74v-633z" />
<glyph unicode="&#x445;" horiz-adv-x="962" d="M690 0l-213 350l-217 -350h-258l358 518l-340 498h261l196 -330l201 330h260l-344 -494l358 -522h-262z" />
<glyph unicode="&#x446;" horiz-adv-x="1089" d="M952 1016v-828l90 -2v-448h-198v262h-731v1016h213v-826h413v826h213z" />
<glyph unicode="&#x447;" horiz-adv-x="1013" d="M272 1016v-297q0 -100 48.5 -141t125.5 -41q55 0 124 22.5t135 63.5v393h215v-1016h-215v428q-98 -53 -171 -69.5t-131 -16.5q-162 0 -255 88t-93 262v324h217z" />
<glyph unicode="&#x448;" horiz-adv-x="1501" d="M1386 1014v-1014h-1277v1014h219v-821h311v821h215v-821h315v821h217z" />
<glyph unicode="&#x449;" horiz-adv-x="1513" d="M1380 1014v-828h90v-450h-198v264h-1168v1014h218v-824h313v824h213v-824h315v824h217z" />
<glyph unicode="&#x44a;" horiz-adv-x="1214" d="M567 184h240q78 0 119 36t41 99q0 49 -37 90.5t-123 41.5h-240v-267zM352 0v829h-336v185h553v-381h252q174 0 266.5 -87t92.5 -227q0 -66 -21.5 -124t-65.5 -101t-112 -68.5t-158 -25.5h-471z" />
<glyph unicode="&#x44b;" horiz-adv-x="1345" d="M1026 0v1014h213v-1014h-213zM317 184h240q78 0 119 36t41 99q0 49 -37 90.5t-123 41.5h-240v-267zM102 0v1016h215v-383h254q174 0 266.5 -87t92.5 -227q0 -66 -21.5 -124t-66.5 -101t-111.5 -68.5t-157.5 -25.5h-471z" />
<glyph unicode="&#x44c;" horiz-adv-x="954" d="M317 184h242q78 0 119 36t41 99q0 49 -37 90.5t-123 41.5h-242v-267zM104 0v1016h215v-383h252q176 0 268.5 -87t92.5 -227q0 -66 -22.5 -124t-66.5 -101t-111.5 -68.5t-158.5 -25.5h-469z" />
<glyph unicode="&#x44d;" horiz-adv-x="899" d="M393 -10q-92 0 -186 22.5t-174 108.5l123 160q35 -33 65.5 -50.5t58 -26.5t52 -11.5t45.5 -2.5q39 0 77 11.5t68.5 36t49 62.5t18.5 93v45h-354v168h354v17q-4 111 -55.5 155.5t-135.5 44.5q-43 0 -105.5 -16t-111.5 -64l-123 156q39 37 85 61.5t93.5 39t94.5 20.5t88 6 q186 0 286.5 -96t100.5 -268v-300q0 -90 -33 -158.5t-89 -116.5t-131 -72.5t-161 -24.5z" />
<glyph unicode="&#x44e;" horiz-adv-x="1357" d="M1270 356q0 -88 -32 -155.5t-87 -114.5t-131 -71.5t-162 -24.5q-90 0 -165 24.5t-130 71.5t-86 115.5t-31 156.5v60h-133v-418h-215v1014h215v-410h133v51q0 88 33 157t89.5 116t131 72.5t158.5 25.5q88 0 164 -24.5t131 -72.5t86 -117t31 -155v-301zM1055 604 q0 121 -56.5 172t-138.5 51q-39 0 -74.5 -12t-63.5 -38.5t-44 -68.5t-16 -104v-211q0 -113 56 -160t142 -47q37 0 72 11.5t62.5 36t44 64.5t16.5 95v211z" />
<glyph unicode="&#x44f;" horiz-adv-x="1011" d="M915 1014v-1014h-217v401h-166q-66 0 -113.5 -27.5t-70.5 -117.5l-61 -256h-226l74 283q16 57 43 102t80 64q-88 29 -127 100.5t-39 148.5q0 61 21.5 118.5t63.5 102t104.5 70t142.5 25.5h491zM698 827h-247q-59 0 -102.5 -31.5t-43.5 -97.5q0 -63 41 -89.5t109 -26.5 h243v245z" />
<glyph unicode="&#x451;" horiz-adv-x="1013" d="M311 436v-51q0 -53 18.5 -91t48.5 -61.5t69.5 -35t82.5 -11.5q47 0 114 16.5t132 76.5q33 -39 64.5 -75t62.5 -75q-86 -84 -181 -111.5t-192 -27.5q-88 0 -166.5 22.5t-139 68.5t-95.5 115.5t-35 163.5v267q0 92 32 165.5t89 125t133 79t166 27.5q92 0 170 -26.5t134 -77 t87 -122t31 -163.5v-199h-625zM717 623q0 106 -59.5 154t-141.5 48t-142.5 -50t-60.5 -150v-33h404v31zM604 1309q0 49 35 83.5t84 34.5q51 0 86 -34.5t35 -83.5t-35 -84t-86 -35q-49 0 -84 35t-35 84zM203 1309q0 49 34.5 83.5t81.5 34.5q51 0 86 -34.5t35 -83.5t-34.5 -84 t-86.5 -35q-47 0 -81.5 35t-34.5 84z" />
<glyph unicode="&#x452;" horiz-adv-x="1056" d="M971 207q0 -98 -35 -170t-93.5 -118t-137 -68.5t-166.5 -22.5v195q45 0 84 10t67.5 32.5t46 61.5t17.5 96l-2 410q0 102 -46.5 143t-111.5 41q-55 0 -124 -26.5t-146 -75.5v-715h-220v1161h-96v158h96v147h220v-147h411v-158h-411v-250q115 76 192.5 95.5t130.5 19.5 q168 0 246 -97.5t78 -266.5v-455z" />
<glyph unicode="&#x453;" horiz-adv-x="845" d="M346 1167l156 379l200 -63l-227 -365zM96 0v1016h748v-189h-531v-827h-217z" />
<glyph unicode="&#x454;" horiz-adv-x="903" d="M864 127q-82 -84 -174 -110.5t-184 -26.5q-86 0 -162 24.5t-131 71.5t-87 113.5t-32 152.5v301q0 90 35 160t92.5 117t131 71.5t151.5 24.5q45 0 92 -5t93 -18.5t90 -39t85 -68.5l-127 -162q-70 63 -124 77.5t-95 14.5q-35 0 -71.5 -11t-66.5 -35.5t-49.5 -64.5 t-19.5 -98v-16h324v-174h-324v-27q0 -57 17.5 -97t46 -64.5t65.5 -36t76 -11.5q43 0 104.5 19.5t110.5 66.5z" />
<glyph unicode="&#x455;" horiz-adv-x="942" d="M475 -12q-111 0 -215 26.5t-215 114.5l119 158q76 -63 153.5 -87t163.5 -24q72 0 128.5 31t56.5 94q0 53 -37 79t-109 38q-74 12 -149.5 27.5t-137 46t-100.5 83t-39 138.5q0 74 31 132t83 98t119.5 61.5t143.5 21.5q117 0 210 -23.5t183 -89.5l-106 -161 q-74 47 -143.5 64.5t-141.5 17.5q-78 0 -122 -35t-44 -82t43 -68.5t107.5 -35t140.5 -28t140.5 -45t107.5 -87t43 -152.5q0 -74 -32 -132t-88 -98t-132 -61.5t-162 -21.5z" />
<glyph unicode="&#x456;" horiz-adv-x="520" d="M152 0v1014h217v-1014h-217zM135 1305q0 53 36 89t87 36q53 0 89 -36t36 -89t-36 -89t-89 -36q-51 0 -87 36t-36 89z" />
<glyph unicode="&#x457;" horiz-adv-x="520" d="M348 1294q0 49 35 84t84 35q51 0 86 -35t35 -84t-35 -83.5t-86 -34.5q-49 0 -84 34.5t-35 83.5zM-53 1294q0 49 34.5 84t81.5 35q51 0 86 -35t35 -84t-34.5 -83.5t-86.5 -34.5q-47 0 -81.5 34.5t-34.5 83.5zM152 0v1014h217v-1014h-217z" />
<glyph unicode="&#x458;" horiz-adv-x="526" d="M387 -106q0 -160 -84 -235t-225 -75h-109v193h74q76 0 101.5 34.5t25.5 114.5v1088h217v-1120zM156 1307q0 51 34.5 87t88.5 36q53 0 88.5 -36t35.5 -87q0 -53 -35.5 -89t-88.5 -36t-88 36t-35 89z" />
<glyph unicode="&#x459;" horiz-adv-x="1536" d="M883 1016v-383h252q176 0 268 -87t92 -227q0 -66 -22.5 -124t-66.5 -101t-111.5 -68.5t-157.5 -25.5h-469v827h-224v-254q0 -137 -21.5 -238.5t-66.5 -174t-113.5 -117.5t-162.5 -68l-62 168q59 20 101.5 51t68 80.5t38 119t12.5 171.5v451h645zM881 184h241q78 0 119 36 t41 99q0 49 -37 90.5t-123 41.5h-241v-267z" />
<glyph unicode="&#x45a;" horiz-adv-x="1542" d="M893 1016v-383h252q176 0 268 -87t92 -227q0 -66 -22.5 -124t-66.5 -101t-111.5 -68.5t-157.5 -25.5h-469v446h-344v-446h-217v1016h217v-387h344v387h215zM893 184h240q78 0 118.5 36t40.5 99q0 49 -36.5 90.5t-122.5 41.5h-240v-267z" />
<glyph unicode="&#x45b;" horiz-adv-x="1056" d="M752 0v633q0 102 -46.5 143t-111.5 41q-55 0 -124 -26.5t-146 -75.5v-715h-220v1161h-96v158h96v147h220v-147h411v-158h-411v-250q115 76 192.5 95.5t130.5 19.5q168 0 246 -97.5t78 -266.5v-662h-219z" />
<glyph unicode="&#x45c;" horiz-adv-x="1032" d="M371 1167l155 379l201 -63l-227 -365zM102 0v1016h217v-406h130q61 0 110 24.5t82 115.5l92 266h230l-105 -295q-25 -74 -58.5 -122t-92.5 -69q72 -20 104.5 -72t56.5 -128l113 -330h-238l-84 274q-14 47 -33.5 76t-44 44.5t-54 20.5t-66.5 5h-142v-420h-217z" />
<glyph unicode="&#x45e;" horiz-adv-x="966" d="M217 -410l154 430l-74 60l-277 936h230l108 -416l101 -371h6l129 373l137 414h230l-519 -1426h-225zM492 1159q-86 0 -142.5 29t-92.5 72t-51.5 92t-17.5 92h168q2 -20 11.5 -43t27 -42.5t42 -32.5t55.5 -13q35 0 60.5 13t42.5 32.5t25.5 42t8.5 43.5h166 q-4 -43 -20.5 -92t-50.5 -92t-90 -72t-142 -29z" />
<glyph unicode="&#x45f;" horiz-adv-x="1058" d="M961 1014v-1014h-324v-301h-213v301h-324v1014h215v-830h428v830h218z" />
<glyph unicode="&#x490;" horiz-adv-x="1101" d="M1079 1200h-717v-1200h-233v1411h733v254h217v-465z" />
<glyph unicode="&#x491;" horiz-adv-x="862" d="M313 827v-827h-217v1016h555v221h203v-410h-541z" />
<glyph unicode="&#x4d9;" horiz-adv-x="1024" d="M717 578v51q0 106 -57.5 152t-149.5 46q-47 0 -117.5 -17t-136.5 -75l-119 152q92 86 188.5 112.5t196.5 26.5q88 0 163 -23.5t130 -69.5t87 -115.5t32 -164.5v-266q0 -92 -32 -166t-89 -125t-134 -77.5t-167 -26.5q-92 0 -170 26.5t-133 75.5t-87 121t-32 164v199h627z M309 391q0 -106 59.5 -154.5t143.5 -48.5q86 0 144.5 53.5t58.5 161.5v19h-406v-31z" />
<glyph unicode="&#x2000;" horiz-adv-x="939" />
<glyph unicode="&#x2001;" horiz-adv-x="1878" />
<glyph unicode="&#x2002;" horiz-adv-x="939" />
<glyph unicode="&#x2003;" horiz-adv-x="1878" />
<glyph unicode="&#x2004;" horiz-adv-x="626" />
<glyph unicode="&#x2005;" horiz-adv-x="469" />
<glyph unicode="&#x2006;" horiz-adv-x="313" />
<glyph unicode="&#x2007;" horiz-adv-x="313" />
<glyph unicode="&#x2008;" horiz-adv-x="234" />
<glyph unicode="&#x2009;" horiz-adv-x="375" />
<glyph unicode="&#x200a;" horiz-adv-x="104" />
<glyph unicode="&#x2010;" horiz-adv-x="835" d="M102 444v193h629v-193h-629z" />
<glyph unicode="&#x2011;" horiz-adv-x="835" d="M102 444v193h629v-193h-629z" />
<glyph unicode="&#x2012;" horiz-adv-x="835" d="M102 444v193h629v-193h-629z" />
<glyph unicode="&#x2013;" horiz-adv-x="1040" d="M41 463v190h958v-190h-958z" />
<glyph unicode="&#x2014;" horiz-adv-x="2082" d="M41 463v190h2001v-190h-2001z" />
<glyph unicode="&#x2018;" horiz-adv-x="610" d="M467 1413q-49 -37 -81 -83t-36 -101q45 -6 75 -44t30 -91q0 -55 -41 -97.5t-103 -42.5q-41 0 -70.5 15.5t-50 42t-29.5 60.5t-9 69q0 59 18 115.5t50 105.5t76 88t95 63z" />
<glyph unicode="&#x2019;" horiz-adv-x="610" d="M152 1057q49 37 80.5 83t35.5 101q-45 6 -74.5 44t-29.5 91q0 55 41 97.5t102 42.5q41 0 71 -15.5t50.5 -42t29.5 -59.5t9 -70q0 -59 -18.5 -115.5t-51 -105.5t-75.5 -88t-95 -64z" />
<glyph unicode="&#x201a;" horiz-adv-x="555" d="M125 -195q49 37 81 83t36 102q-51 6 -78 41t-27 94q0 55 41 96t103 41q41 0 70.5 -15.5t50 -41t29.5 -59t9 -68.5q0 -59 -18.5 -115.5t-51 -106t-75.5 -89t-94 -64.5z" />
<glyph unicode="&#x201c;" horiz-adv-x="909" d="M438 1413q-49 -37 -79.5 -83t-36.5 -101q47 -6 75.5 -44t28.5 -91q0 -55 -41 -97.5t-102 -42.5q-41 0 -71 15.5t-50.5 42t-29.5 60.5t-9 69q0 59 18.5 115.5t51 105.5t76.5 88t93 63zM791 1413q-49 -37 -80 -83t-37 -101q47 -6 75.5 -44t28.5 -91q0 -55 -41 -97.5 t-102 -42.5q-41 0 -70.5 15.5t-50 42t-30 60.5t-9.5 69q0 59 18.5 115.5t51.5 105.5t77 88t93 63z" />
<glyph unicode="&#x201d;" horiz-adv-x="909" d="M477 1057q49 37 81 83t36 101q-45 6 -75 44t-30 91q0 55 41 97.5t103 42.5q41 0 70.5 -15.5t50 -42t30 -59.5t9.5 -70q0 -59 -18.5 -115.5t-51.5 -105.5t-76 -88t-94 -64zM125 1057q49 37 81 83t36 101q-45 6 -75 44t-30 91q0 55 41 97.5t103 42.5q41 0 70.5 -15.5 t50 -42t29.5 -59.5t9 -70q0 -59 -18.5 -115.5t-51 -105.5t-75.5 -88t-94 -64z" />
<glyph unicode="&#x201e;" horiz-adv-x="968" d="M125 -195q49 37 81 83t36 102q-51 6 -78 41t-27 94q0 55 41 96t103 41q41 0 70.5 -15.5t50 -41t29.5 -59t9 -68.5q0 -59 -18.5 -115.5t-51 -106t-75.5 -89t-94 -64.5zM539 -195q49 37 80.5 83t35.5 102q-51 6 -77.5 41t-26.5 94q0 55 41 96t102 41q41 0 71 -15.5 t50.5 -41t29.5 -59t9 -68.5q0 -59 -18.5 -115.5t-51 -106t-75.5 -89t-95 -64.5z" />
<glyph unicode="&#x2020;" horiz-adv-x="985" d="M594 776v-1145h-205v1145h-344v170h344v479h205v-479h346v-170h-346z" />
<glyph unicode="&#x2021;" horiz-adv-x="985" d="M389 776h-344v170h344v479h205v-479h346v-170h-346v-358h346v-168h-346v-619h-205v619h-344v168h344v358z" />
<glyph unicode="&#x2022;" horiz-adv-x="882" d="M166 573q0 59 22.5 111.5t61.5 91.5t91 61.5t112 22.5q59 0 112 -22.5t92 -61.5t61.5 -91t22.5 -112q0 -59 -22.5 -111t-61.5 -91t-92 -61.5t-112 -22.5t-111.5 22.5t-91.5 61.5t-61.5 91t-22.5 111z" />
<glyph unicode="&#x2026;" horiz-adv-x="1718" d="M276 -12q-66 0 -102.5 42t-36.5 103q0 53 38 95t99 42q66 0 105 -42t39 -95q0 -59 -38 -102t-104 -43zM858 -12q-63 0 -101 42t-38 103q0 53 38 95t99 42q66 0 105.5 -42t39.5 -95q0 -59 -37.5 -102t-105.5 -43zM1434 -12q-63 0 -101.5 42t-38.5 103q0 53 38 95t100 42 q66 0 105.5 -42t39.5 -95q0 -59 -37.5 -102t-105.5 -43z" />
<glyph unicode="&#x202f;" horiz-adv-x="375" />
<glyph unicode="&#x2030;" horiz-adv-x="2381" d="M1587 229q0 -57 -24.5 -101t-65.5 -74.5t-94 -46t-109 -15.5q-57 0 -110.5 15.5t-94 46t-65.5 74.5t-25 101v387q0 57 26 101.5t67 75t94 47t108 16.5t107.5 -16.5t94.5 -47t66.5 -74.5t24.5 -102v-387zM1419 592q0 31 -11 51.5t-29.5 33.5t-41 19t-43.5 6 q-20 0 -41.5 -6t-40 -19t-30 -33.5t-11.5 -51.5v-342q0 -29 11.5 -49.5t30 -32.5t40 -18.5t41.5 -6.5t43 6.5t41.5 18.5t29.5 32.5t11 49.5v342zM690 793q0 -57 -24.5 -101.5t-65.5 -75t-94 -46t-109 -15.5q-57 0 -110.5 15.5t-94 46t-65.5 74.5t-25 102v387q0 57 25 101 t67 74.5t95 47t108 16.5t107.5 -16.5t94.5 -47t66.5 -74.5t24.5 -101v-387zM522 1155q0 31 -11 51.5t-29.5 33.5t-41 19.5t-43.5 6.5q-20 0 -41.5 -6.5t-40 -19.5t-30 -33.5t-11.5 -51.5v-342q0 -29 11.5 -49.5t30 -32.5t40 -18t41.5 -6t43 6t41.5 18t29.5 32.5t11 49.5v342 zM494 -35h-160l870 1495h162zM2277 229q0 -57 -24.5 -101t-66.5 -74.5t-95 -46t-109 -15.5q-57 0 -110 15.5t-93 46t-64.5 74.5t-24.5 101v387q0 57 24.5 101.5t66.5 75t94 47t107 16.5t108.5 -16.5t95.5 -47t66.5 -74.5t24.5 -102v-387zM2109 592q0 31 -12 51.5t-30.5 33.5 t-41 19t-43.5 6q-41 0 -80.5 -25.5t-39.5 -84.5v-342q0 -29 11 -49.5t28.5 -32.5t39 -18.5t41.5 -6.5t43 6.5t41.5 18.5t30.5 32.5t12 49.5v342z" />
<glyph unicode="&#x2039;" horiz-adv-x="684" d="M367 70l-273 399l273 401h202l-266 -401l266 -399h-202z" />
<glyph unicode="&#x203a;" horiz-adv-x="684" d="M92 70l266 399l-266 401h203l272 -401l-272 -399h-203z" />
<glyph unicode="&#x2044;" horiz-adv-x="327" d="M-193 -35h-159l870 1495h162z" />
<glyph unicode="&#x205f;" horiz-adv-x="469" />
<glyph unicode="&#x2070;" horiz-adv-x="690" d="M639 977q0 -57 -24.5 -101.5t-65.5 -75t-94.5 -46t-108.5 -15.5q-57 0 -110.5 15.5t-94.5 46t-65.5 75t-24.5 101.5v387q0 57 24.5 101t66.5 75t95.5 47.5t108.5 16.5t107.5 -16.5t94.5 -47.5t66.5 -75t24.5 -101v-387zM471 1339q0 31 -11 51.5t-29.5 34t-41 19.5 t-43.5 6q-20 0 -41.5 -6t-40 -19.5t-30 -34t-11.5 -51.5v-342q0 -29 11.5 -49t30 -32.5t40 -18.5t41.5 -6t43 6t41.5 18.5t29.5 33t11 48.5v342z" />
<glyph unicode="&#x2074;" horiz-adv-x="690" d="M580 868v-120h-162v120h-387v125l301 600h178l-289 -581h197v231h162v-231h84v-144h-84z" />
<glyph unicode="&#x2075;" horiz-adv-x="690" d="M637 975q0 -55 -24.5 -99.5t-66.5 -74t-96.5 -46t-113.5 -16.5q-86 0 -155.5 28t-123.5 71l95 123q90 -70 180 -70q18 0 41.5 5t44 16.5t35 31t14.5 49.5v99q0 43 -24.5 63.5t-59.5 20.5q-18 0 -42 -6.5t-46.5 -16.5t-43 -21.5t-34.5 -19.5l-141 57l-2 426h534v-147h-364 v-164q41 23 81 36t70 13q117 0 179.5 -63.5t62.5 -165.5v-129v0z" />
<glyph unicode="&#x2076;" horiz-adv-x="690" d="M637 977q0 -57 -24.5 -101.5t-65.5 -75t-93.5 -46t-107.5 -15.5t-107.5 15.5t-93.5 46t-65.5 75t-24.5 101.5v389q0 57 24.5 101t65.5 75t94.5 46.5t112.5 15.5q88 0 154.5 -28t120.5 -71l-92 -123q-47 37 -89.5 52.5t-89.5 15.5q-18 0 -40.5 -5t-42 -17.5t-33 -33 t-13.5 -48.5v-97q53 29 96.5 42.5t77.5 13.5q115 0 175.5 -64.5t60.5 -163.5v-100zM467 1065q0 47 -25.5 67.5t-60.5 20.5t-74 -15.5t-80 -37.5v-103q0 -29 11.5 -49t29 -32.5t38 -18.5t40.5 -6q41 0 81 25.5t40 80.5v68z" />
<glyph unicode="&#x2077;" horiz-adv-x="690" d="M635 1466q-82 -180 -164 -359t-164 -362h-184l315 703h-219v-121h-162v266h578v-127v0z" />
<glyph unicode="&#x2078;" horiz-adv-x="690" d="M348 1602q53 0 104.5 -15.5t92.5 -47.5t65.5 -79t24.5 -108q0 -53 -30 -101.5t-79 -70.5q57 -23 87 -74t30 -107q0 -66 -25.5 -114.5t-67.5 -80.5t-94.5 -48.5t-105.5 -16.5t-106.5 15.5t-94 48.5t-66.5 80t-26 112q0 59 31 106.5t86 76.5q-51 23 -78.5 69.5t-27.5 104.5 q0 61 24.5 108t63.5 79t89 47.5t103 15.5zM465 1350q0 49 -37 73.5t-78 24.5q-45 0 -81 -24.5t-36 -73.5t35 -76t82 -27q45 0 80 28t35 75zM231 995q0 -51 35 -77.5t84 -26.5t84 26.5t35 77.5q0 47 -35 75t-84 28t-84 -27t-35 -76z" />
<glyph unicode="&#x2079;" horiz-adv-x="688" d="M629 975q0 -57 -24.5 -101.5t-65.5 -74t-94.5 -45t-112.5 -15.5q-86 0 -154.5 28t-120.5 71l95 123q86 -68 176 -68q18 0 40.5 5t42 17.5t33 33t13.5 48.5v103q-49 -29 -93.5 -42.5t-78.5 -13.5q-111 0 -173.5 65t-62.5 167v88q0 57 25.5 102t66.5 76t93.5 46.5 t105.5 15.5q55 0 106.5 -15.5t92.5 -45.5t65.5 -74t24.5 -101v-393zM457 1346q0 29 -11.5 49t-28 32.5t-37 17.5t-40.5 5t-42 -6t-40 -18.5t-29.5 -32t-11.5 -47.5v-62q0 -45 25.5 -66.5t60.5 -21.5q37 0 75 16.5t79 36.5v97z" />
<glyph unicode="&#x207a;" horiz-adv-x="688" d="M414 1051v-226h-140v226h-249v127h249v221h140v-221h250v-127h-250z" />
<glyph unicode="&#x207b;" horiz-adv-x="542" d="M55 1006v143h432v-143h-432z" />
<glyph unicode="&#x207c;" horiz-adv-x="688" d="M25 1171v127h639v-127h-639zM25 930v129h639v-129h-639z" />
<glyph unicode="&#x207d;" horiz-adv-x="440" d="M328 590q-53 53 -101.5 115.5t-85.5 130t-58.5 140.5t-21.5 148q0 78 21.5 152t56.5 140.5t82 126t101 112.5l104 -60q-92 -104 -141 -229t-49 -236q0 -121 50 -243.5t136 -227.5z" />
<glyph unicode="&#x207e;" horiz-adv-x="434" d="M401 1124q0 -76 -21.5 -149.5t-58 -141t-85 -129t-101.5 -112.5l-96 67q86 104 136 227.5t50 243.5q0 111 -49 236t-139 229l104 60q51 -53 98.5 -112.5t83 -126t57 -140.5t21.5 -152z" />
<glyph unicode="&#x207f;" horiz-adv-x="716" d="M487 563v418q0 59 -26.5 81.5t-65.5 20.5q-72 0 -172 -59v-461h-174v672h158l12 -61q72 43 126 57t89 14q115 0 171.5 -65.5t56.5 -180.5v-436h-175z" />
<glyph unicode="&#x2080;" horiz-adv-x="690" d="M639 45q0 -57 -24.5 -101t-65.5 -75t-94.5 -46.5t-108.5 -15.5q-57 0 -110.5 15.5t-94.5 46.5t-65.5 75t-24.5 101v387q0 57 24.5 101.5t66.5 75t95.5 47t108.5 16.5t107.5 -16.5t94.5 -47t66.5 -75t24.5 -101.5v-387zM471 408q0 31 -11 51t-29.5 33.5t-41 19.5t-43.5 6 q-20 0 -41.5 -6t-40 -19.5t-30 -34t-11.5 -50.5v-342q0 -29 11.5 -49.5t30 -33t40 -18.5t41.5 -6t43 6t41.5 18.5t29.5 33t11 49.5v342z" />
<glyph unicode="&#x2081;" horiz-adv-x="632" d="M276 -184v641l-94 -72l-94 117l205 162h151v-848h-168z" />
<glyph unicode="&#x2082;" horiz-adv-x="690" d="M635 436q0 -45 -20.5 -86t-52.5 -75.5t-69.5 -65.5t-74.5 -55q-25 -16 -57.5 -37t-61.5 -45.5t-49.5 -52t-20.5 -58.5h406v-145h-582v123q0 59 20.5 105t54.5 84t77 69.5t86 60.5q25 16 55.5 35.5t56 42t43 47.5t17.5 51q0 45 -43 66.5t-92 21.5q-47 0 -93.5 -17.5 t-87.5 -47.5l-88 121q53 41 126 68.5t151 27.5q57 0 111.5 -12.5t95.5 -40t66.5 -72.5t25.5 -113z" />
<glyph unicode="&#x2083;" horiz-adv-x="688" d="M324 670q55 0 106 -13.5t91 -41t63.5 -73.5t23.5 -110q0 -59 -30.5 -107.5t-94.5 -68.5q72 -27 101.5 -78t29.5 -104q0 -68 -25.5 -119t-67.5 -84t-97 -49.5t-115 -16.5q-84 0 -154.5 24t-123.5 65l86 126q41 -31 91 -47t91 -16q63 0 104 27.5t41 81.5q0 51 -35.5 80.5 t-84.5 29.5h-119v141h119q41 0 78.5 28t37.5 83q0 49 -42 70.5t-91 21.5q-41 0 -91 -14t-91 -47l-80 123q51 41 123 64.5t156 23.5z" />
<glyph unicode="&#x2084;" horiz-adv-x="690" d="M580 -63v-121h-162v121h-387v124l301 601h178l-289 -582h197v231h162v-231h84v-143h-84z" />
<glyph unicode="&#x2085;" horiz-adv-x="690" d="M637 43q0 -55 -24.5 -99t-66.5 -74t-96.5 -46.5t-113.5 -16.5q-86 0 -155.5 28t-123.5 71l95 123q90 -70 180 -70q18 0 41.5 5t44 16.5t35 31t14.5 49.5v99q0 43 -24.5 63.5t-59.5 20.5q-18 0 -42 -6.5t-46.5 -16.5t-43 -21.5t-34.5 -19.5l-141 58l-2 426h534v-148h-364 v-164q41 23 81 36t70 13q117 0 179.5 -63.5t62.5 -165.5v-129v0z" />
<glyph unicode="&#x2086;" horiz-adv-x="690" d="M637 45q0 -57 -24.5 -101t-65.5 -75t-93.5 -46.5t-107.5 -15.5t-107.5 15.5t-93.5 46.5t-65.5 75t-24.5 101v389q0 57 24.5 101.5t65.5 75t94.5 46t112.5 15.5q88 0 155.5 -28t123.5 -71l-96 -122q-47 37 -89.5 52t-89.5 15q-18 0 -40.5 -5t-42 -17.5t-33 -33 t-13.5 -48.5v-97q53 29 96.5 42.5t77.5 13.5q115 0 175.5 -64.5t60.5 -163.5v-100zM467 133q0 47 -25.5 67.5t-60.5 20.5t-74 -15.5t-80 -37.5v-102q0 -29 11.5 -49.5t29 -33t38 -18.5t40.5 -6q41 0 81 25.5t40 81.5v67z" />
<glyph unicode="&#x2087;" horiz-adv-x="690" d="M307 -184h-184q80 176 158.5 350t156.5 350h-219v-121h-162v267h578v-127z" />
<glyph unicode="&#x2088;" horiz-adv-x="690" d="M348 670q53 0 104.5 -15.5t92.5 -47.5t65.5 -79t24.5 -108q0 -53 -30 -101.5t-79 -70.5q57 -23 87 -74t30 -106q0 -66 -25.5 -115t-67.5 -81t-94.5 -48.5t-105.5 -16.5t-106.5 15.5t-94 48.5t-66.5 80t-26 112q0 59 31 106.5t86 76.5q-51 23 -78.5 69.5t-27.5 104.5 q0 61 24.5 108t63.5 79t89 47.5t103 15.5zM465 418q0 49 -37 73.5t-78 24.5q-45 0 -81 -24.5t-36 -73.5t35 -76t82 -27q45 0 80 28t35 75zM231 63q0 -51 35 -77.5t84 -26.5t84 26.5t35 77.5q0 47 -35 75t-84 28t-84 -27t-35 -76z" />
<glyph unicode="&#x2089;" horiz-adv-x="688" d="M629 43q0 -57 -24.5 -101t-65.5 -74t-94.5 -45.5t-112.5 -15.5q-86 0 -154.5 28t-120.5 71l95 123q86 -68 176 -68q18 0 40.5 5t42 17.5t33 33t13.5 49.5v102q-49 -29 -93.5 -42t-78.5 -13q-111 0 -173.5 64.5t-62.5 166.5v88q0 57 25.5 102.5t66.5 76t93.5 46 t105.5 15.5q55 0 106.5 -15.5t92.5 -45t65.5 -73.5t24.5 -102v-393zM457 414q0 29 -11.5 49t-28 32.5t-37 17.5t-40.5 5t-42 -6t-40 -18.5t-29.5 -32t-11.5 -47.5v-62q0 -45 25.5 -66.5t60.5 -21.5q37 0 75 16.5t79 36.5v97z" />
<glyph unicode="&#x208a;" horiz-adv-x="688" d="M414 119v-228h-140v228h-249v125h249v223h140v-223h250v-125h-250z" />
<glyph unicode="&#x208b;" horiz-adv-x="542" d="M55 72v143h432v-143h-432z" />
<glyph unicode="&#x208c;" horiz-adv-x="688" d="M25 238v127h639v-127h-639zM25 -4v129h639v-129h-639z" />
<glyph unicode="&#x208d;" horiz-adv-x="440" d="M328 -289q-53 53 -101.5 115.5t-85.5 130.5t-58.5 140.5t-21.5 148.5q0 78 21.5 151.5t56.5 140t82 126t101 112.5l104 -59q-92 -104 -141 -229.5t-49 -235.5q0 -121 50 -244t136 -227z" />
<glyph unicode="&#x208e;" horiz-adv-x="434" d="M401 246q0 -76 -21.5 -149.5t-58 -141.5t-85 -129.5t-101.5 -112.5l-96 68q86 104 136 227t50 244q0 111 -49 235.5t-139 229.5l104 59q51 -53 98.5 -112.5t83 -126t57 -140t21.5 -151.5z" />
<glyph unicode="&#x20ac;" horiz-adv-x="1058" d="M879 666v-142h-484v-71q0 -68 24.5 -116t65.5 -78t92.5 -44t104.5 -14q66 0 135.5 16t132.5 57q29 -47 53.5 -92t53.5 -92q-72 -47 -169 -75.5t-206 -28.5q-111 0 -206 30.5t-165.5 90t-110.5 145.5t-40 197v75h-92v142h811zM68 754v141h92v63q0 111 42 197t113.5 145.5 t165.5 91t199 31.5q104 0 197.5 -23.5t171.5 -74.5l-111 -186q-57 35 -123.5 52t-130.5 17q-53 0 -105.5 -14t-93.5 -44t-65.5 -78t-24.5 -116v-61h484v-141h-811z" />
<glyph unicode="&#x2105;" horiz-adv-x="1552" d="M1493 256q0 -66 -25.5 -115t-68.5 -82.5t-99.5 -51t-117.5 -17.5t-116.5 17.5t-97.5 51t-66.5 82.5t-24.5 115v203q0 66 25.5 116t67.5 83.5t97 51t117 17.5q66 0 122 -17.5t98 -52t65.5 -85t23.5 -115.5v-201zM647 793q-63 -63 -128.5 -84t-131.5 -21q-63 0 -116.5 17.5 t-93.5 51.5t-62.5 82t-22.5 109v209q0 63 24.5 113.5t65.5 85.5t94.5 52t108.5 17q66 0 133.5 -18t128.5 -84l-102 -125q-49 47 -85 57.5t-65 10.5q-23 0 -46 -7.5t-42.5 -23.5t-32 -42t-12.5 -63v-149q0 -72 41 -101.5t90 -29.5q29 0 71 13.5t77 49.5zM1321 434 q0 37 -12.5 61.5t-32 41t-43 23.5t-47.5 7q-51 0 -95 -30.5t-44 -102.5v-151q0 -72 39.5 -101.5t99.5 -29.5q25 0 48 7t42.5 22.5t32 40t12.5 61.5v151zM434 -35h-160l871 1495h162z" />
<glyph unicode="&#x2116;" horiz-adv-x="1949" d="M948 0l-321 539l-76 131l-184 325h-9v-995h-227v1409h215l281 -469q8 -16 31.5 -55t54 -90.5t64.5 -109.5t63.5 -109.5t53.5 -91.5t32 -54h6v979h225v-1409h-209zM1888 1006q0 -61 -24.5 -110.5t-65.5 -83.5t-97 -52.5t-120 -18.5q-66 0 -121 18.5t-95 52.5t-63.5 83 t-23.5 111v157q0 61 24.5 110.5t65.5 84.5t97.5 53.5t117.5 18.5q135 0 220 -73t85 -194v-157zM1716 1147q0 66 -43 97.5t-90 31.5t-90 -32t-43 -97v-121q0 -68 40 -98.5t93 -30.5q47 0 90 30.5t43 98.5v121zM1305 481v152h559v-152h-559z" />
<glyph unicode="&#x2122;" horiz-adv-x="1808" d="M477 571h-151v703h-250v145h649v-145h-248v-703zM1520 1092l-88 -162l-127 -236h-115l-125 219l-94 179h-6v-521h-152v850h141l179 -321l112 -221h6l115 223l170 319h141v-850h-151v521h-6z" />
<glyph unicode="&#x2153;" horiz-adv-x="1691" d="M416 -35h-160l870 1495h162zM319 563v641l-94 -71l-94 116l205 162h151v-848h-168zM1268 854q55 0 106 -13.5t91 -41t63.5 -73.5t23.5 -110q0 -59 -30.5 -107t-94.5 -69q72 -27 102 -78t30 -104q0 -68 -26 -119t-68 -83.5t-97 -49t-115 -16.5q-84 0 -154.5 23.5 t-123.5 64.5l86 127q41 -31 91 -47.5t91 -16.5q63 0 104.5 28t41.5 81q0 51 -36 80.5t-85 29.5h-119v142h119q41 0 78.5 27.5t37.5 82.5q0 49 -42 71t-91 22q-41 0 -91 -14.5t-91 -47.5l-80 123q51 41 123 64.5t156 23.5z" />
<glyph unicode="&#x2154;" horiz-adv-x="1691" d="M627 1182q0 -45 -20.5 -86t-52.5 -76t-70 -65.5t-74 -55.5q-25 -16 -58 -36.5t-61.5 -45t-49 -52.5t-20.5 -58h406v-146h-582v123q0 59 20.5 105.5t54.5 84t77 69.5t86 61q25 16 55.5 35.5t56 42t43 47t17.5 51.5q0 45 -43 66.5t-93 21.5q-47 0 -93 -17.5t-87 -48.5 l-88 121q53 41 126 68.5t151 27.5q57 0 111.5 -12t95 -40t66.5 -72.5t26 -112.5zM1354 854q55 0 106 -13.5t91 -41t63.5 -73.5t23.5 -110q0 -59 -30.5 -107t-94.5 -69q72 -27 102 -78t30 -104q0 -68 -26 -119t-68 -83.5t-97 -49t-115 -16.5q-84 0 -154.5 23.5t-123.5 64.5 l86 127q41 -31 91 -47.5t91 -16.5q63 0 104.5 28t41.5 81q0 51 -36 80.5t-85 29.5h-119v142h119q41 0 78.5 27.5t37.5 82.5q0 49 -42 71t-91 22q-41 0 -91 -14.5t-91 -47.5l-80 123q51 41 123 64.5t156 23.5zM506 -35h-160l871 1495h161z" />
<glyph unicode="&#x2155;" horiz-adv-x="1691" d="M401 -35h-159l870 1495h162zM317 563v641l-94 -71l-94 116l205 162h151v-848h-168zM1561 227q0 -55 -25 -99t-67 -73.5t-96 -46t-113 -16.5q-86 0 -156 27.5t-123 70.5l94 123q90 -70 180 -70q18 0 42 5.5t44.5 16.5t35 30.5t14.5 50.5v98q0 43 -25 63.5t-59 20.5 q-18 0 -42 -6t-46.5 -16.5t-43 -21.5t-34.5 -19l-142 57l-2 426h535v-148h-365v-163q41 23 81 36t71 13q117 0 179.5 -63.5t62.5 -166.5v-129z" />
<glyph unicode="&#x2156;" horiz-adv-x="1691" d="M1657 227q0 -55 -24.5 -99t-66.5 -73.5t-96.5 -46t-113.5 -16.5q-86 0 -156 27.5t-123 70.5l94 123q90 -70 181 -70q18 0 41.5 5.5t44 16.5t35 30.5t14.5 50.5v98q0 43 -24.5 63.5t-59.5 20.5q-18 0 -42 -6t-46.5 -16.5t-43 -21.5t-34.5 -19l-141 57l-2 426h534v-148 h-364v-163q41 23 80.5 36t70.5 13q117 0 179.5 -63.5t62.5 -166.5v-129zM614 1182q0 -45 -20.5 -86t-52 -76t-69.5 -65.5t-75 -55.5q-25 -16 -57.5 -36.5t-61 -45t-49 -52.5t-20.5 -58h405v-146h-581v123q0 59 20.5 105.5t54 84t76.5 69.5t86 61q25 16 55.5 35.5t56.5 42 t43 47t17 51.5q0 45 -43 66.5t-92 21.5q-47 0 -93 -17.5t-87 -48.5l-88 121q53 41 126 68.5t150 27.5q57 0 111.5 -12t95.5 -40t66.5 -72.5t25.5 -112.5zM498 -35h-160l870 1495h162z" />
<glyph unicode="&#x2157;" horiz-adv-x="1691" d="M483 -35h-159l870 1495h162zM334 1417q55 0 107.5 -13t93 -41t65.5 -74t25 -109q0 -59 -32 -107.5t-95 -68.5q72 -27 101.5 -78.5t29.5 -104.5q0 -68 -25.5 -119t-67.5 -83.5t-97.5 -49t-114.5 -16.5q-84 0 -155 23.5t-124 64.5l86 127q41 -31 91 -47t91 -16 q63 0 104.5 27.5t41.5 80.5q0 51 -36 81t-85 30h-119v141h119q41 0 80 27.5t39 83.5q0 25 -12.5 42t-33 28t-44 16.5t-48.5 5.5q-43 0 -93 -14.5t-91 -47.5l-80 123q53 41 125 64.5t154 23.5zM1647 227q0 -55 -25 -99t-67 -73.5t-96 -46t-113 -16.5q-86 0 -156 27.5 t-123 70.5l94 123q90 -70 180 -70q18 0 42 5.5t44.5 16.5t35 30.5t14.5 50.5v98q0 43 -25 63.5t-59 20.5q-18 0 -42 -6t-46.5 -16.5t-43 -21.5t-34.5 -19l-142 57l-2 426h535v-148h-365v-163q41 23 81 36t71 13q117 0 179.5 -63.5t62.5 -166.5v-129z" />
<glyph unicode="&#x2158;" horiz-adv-x="1691" d="M504 -35h-160l870 1495h162zM578 684v-121h-162v121h-387v125l301 600h178l-289 -582h197v232h162v-232h84v-143h-84zM1661 227q0 -55 -24.5 -99t-66.5 -73.5t-96.5 -46t-113.5 -16.5q-86 0 -155.5 27.5t-123.5 70.5l95 123q90 -70 180 -70q18 0 41.5 5.5t44 16.5 t35 30.5t14.5 50.5v98q0 43 -24.5 63.5t-59.5 20.5q-18 0 -42 -6t-46.5 -16.5t-43 -21.5t-34.5 -19l-141 57l-2 426h534v-148h-364v-163q41 23 81 36t70 13q117 0 179.5 -63.5t62.5 -166.5v-129z" />
<glyph unicode="&#x2159;" horiz-adv-x="1691" d="M436 -35h-160l871 1495h162zM291 563v641l-94 -71l-95 116l205 162h152v-848h-168zM1589 229q0 -57 -24.5 -101t-65.5 -74.5t-93 -46t-108 -15.5q-55 0 -107 15.5t-93 46t-65.5 74.5t-24.5 101v389q0 57 24.5 101.5t65.5 75t94 46t113 15.5q88 0 155.5 -27.5t122.5 -70.5 l-96 -123q-47 37 -89 52t-89 15q-18 0 -41 -5t-42.5 -17t-32.5 -32.5t-13 -49.5v-96q53 29 96 42t78 13q115 0 175 -64.5t60 -162.5v-101zM1419 317q0 47 -25.5 68t-60.5 21t-73.5 -15.5t-79.5 -38.5v-102q0 -29 11 -49.5t28.5 -32.5t38 -18.5t40.5 -6.5q41 0 81 26t40 81 v67z" />
<glyph unicode="&#x215a;" horiz-adv-x="1691" d="M477 -35h-160l871 1495h162zM633 791q0 -55 -24.5 -99.5t-66.5 -74t-96.5 -46t-113.5 -16.5q-86 0 -156 27.5t-123 70.5l94 123q90 -70 181 -69q18 0 41.5 5t44 16t35 30.5t14.5 50.5v98q0 43 -24.5 63.5t-59.5 20.5q-18 0 -42 -6t-46.5 -16.5t-43 -21.5t-34.5 -19 l-141 57l-2 426h534v-147h-364v-164q41 23 80.5 36t70.5 13q117 0 179.5 -63.5t62.5 -165.5v-129zM1636 229q0 -57 -24.5 -101t-65.5 -74.5t-93 -46t-107 -15.5t-107.5 15.5t-93.5 46t-65.5 74.5t-24.5 101v389q0 57 24.5 101.5t65.5 75t94 46t113 15.5q88 0 155.5 -27.5 t122.5 -70.5l-96 -123q-47 37 -89 52t-89 15q-18 0 -41 -5t-42.5 -17t-32.5 -32.5t-13 -49.5v-96q53 29 96 42t78 13q115 0 175 -64.5t60 -162.5v-101zM1466 317q0 47 -25.5 68t-60.5 21t-73.5 -15.5t-79.5 -38.5v-102q0 -29 11 -49.5t28.5 -32.5t38 -18.5t41.5 -6.5 q41 0 80.5 26t39.5 81v67z" />
<glyph unicode="&#x215b;" horiz-adv-x="1691" d="M414 -35h-160l870 1495h162zM309 563v641l-94 -71l-94 116l205 162h151v-848h-168zM1274 854q53 0 104.5 -15.5t92 -47t65.5 -78.5t25 -109q0 -53 -30 -101t-79 -71q57 -23 87 -74t30 -106q0 -66 -25.5 -115t-67.5 -80.5t-94.5 -48t-105.5 -16.5t-106.5 15.5t-94.5 48 t-66.5 79.5t-25.5 113q0 59 30.5 106t86.5 76q-51 23 -79 70t-28 104q0 61 24.5 108.5t63.5 79t89.5 47t103.5 15.5zM1391 602q0 49 -37 73.5t-78 24.5q-45 0 -81 -24.5t-36 -73.5t35 -75.5t82 -26.5q45 0 80 27.5t35 74.5zM1157 248q0 -51 35 -78t84 -27t84 27t35 78 q0 47 -35 74.5t-84 27.5t-84 -26.5t-35 -75.5z" />
<glyph unicode="&#x215c;" horiz-adv-x="1691" d="M485 -35h-159l870 1495h162zM338 1417q55 0 107.5 -13t93.5 -41t65.5 -74t24.5 -109q0 -59 -32 -107.5t-95 -68.5q72 -27 101.5 -78.5t29.5 -104.5q0 -68 -25.5 -119t-67.5 -83.5t-97.5 -49t-114.5 -16.5q-84 0 -155 23.5t-124 64.5l86 127q41 -31 91 -47t91 -16 q63 0 104.5 27.5t41.5 80.5q0 51 -36 81t-85 30h-119v141h119q41 0 80 27.5t39 83.5q0 25 -12.5 42t-33 28t-44 16.5t-47.5 5.5q-43 0 -93.5 -14.5t-91.5 -47.5l-80 123q53 41 125 64.5t154 23.5zM1348 854q53 0 104 -15.5t92 -47t65.5 -78.5t24.5 -109q0 -53 -29.5 -101 t-78.5 -71q57 -23 86.5 -74t29.5 -106q0 -66 -25.5 -115t-67.5 -80.5t-94 -48t-105 -16.5t-106.5 15.5t-94.5 48t-66.5 79.5t-25.5 113q0 59 30.5 106t86.5 76q-51 23 -79 70t-28 104q0 61 24.5 108.5t63.5 79t89.5 47t103.5 15.5zM1464 602q0 49 -36.5 73.5t-77.5 24.5 q-45 0 -81 -24.5t-36 -73.5t35 -75.5t82 -26.5q45 0 79.5 27.5t34.5 74.5zM1231 248q0 -51 34.5 -78t84.5 -27q49 0 83.5 27t34.5 78q0 47 -34.5 74.5t-83.5 27.5t-84 -26.5t-35 -75.5z" />
<glyph unicode="&#x215d;" horiz-adv-x="1691" d="M487 -35h-159l870 1495h162zM635 791q0 -55 -24.5 -99.5t-66.5 -74t-96.5 -46t-113.5 -16.5q-86 0 -155.5 27.5t-123.5 70.5l95 123q90 -70 180 -69q18 0 41.5 5t44 16t35 30.5t14.5 50.5v98q0 43 -24.5 63.5t-59.5 20.5q-18 0 -42 -6t-46.5 -16.5t-43 -21.5t-34.5 -19 l-141 57l-2 426h534v-147h-364v-164q41 23 80.5 36t70.5 13q117 0 179.5 -63.5t62.5 -165.5v-129zM1339 854q53 0 104.5 -15.5t92.5 -47t65.5 -78.5t24.5 -109q0 -53 -29.5 -101t-78.5 -71q57 -23 86.5 -74t29.5 -106q0 -66 -25.5 -115t-67.5 -80.5t-94 -48t-106 -16.5 q-53 0 -106 15.5t-94 48t-66.5 79.5t-25.5 113q0 59 30.5 106t85.5 76q-51 23 -78.5 70t-27.5 104q0 61 24.5 108.5t63.5 79t89 47t103 15.5zM1456 602q0 49 -37 73.5t-78 24.5q-45 0 -80.5 -24.5t-35.5 -73.5t34.5 -75.5t81.5 -26.5q45 0 80 27.5t35 74.5zM1223 248 q0 -51 34.5 -78t83.5 -27t84 27t35 78q0 47 -34.5 74.5t-84.5 27.5q-49 0 -83.5 -26.5t-34.5 -75.5z" />
<glyph unicode="&#x215e;" horiz-adv-x="1691" d="M1278 854q53 0 104.5 -15.5t92.5 -47t65.5 -78.5t24.5 -109q0 -53 -30 -101t-79 -71q57 -23 87 -74t30 -106q0 -66 -25.5 -115t-67.5 -80.5t-94.5 -48t-105.5 -16.5t-106.5 15.5t-94.5 48t-66.5 79.5t-25.5 113q0 59 31 106t86 76q-51 23 -79 70t-28 104q0 61 25 108.5 t63.5 79t89 47t103.5 15.5zM422 -35h-160l871 1495h161zM694 1282q-82 -180 -163.5 -359.5t-163.5 -361.5h-185l316 703h-219v-121h-162v266h577v-127zM1161 248q0 -51 35 -78t84 -27t84 27t35 78q0 47 -35 74.5t-84 27.5t-84 -26.5t-35 -75.5zM1395 602q0 49 -37 73.5 t-78 24.5q-45 0 -81 -24.5t-36 -73.5t35 -75.5t82 -26.5q45 0 80 27.5t35 74.5z" />
<glyph unicode="&#x2190;" horiz-adv-x="1710" d="M1585 741v-166l-1136 3l272 -269l-119 -119l-467 469l467 471l119 -118l-272 -271h1136z" />
<glyph unicode="&#x2191;" horiz-adv-x="1026" d="M602 2h-166v1114l-266 -266l-119 119l469 467l471 -467l-119 -119l-270 266v-1114z" />
<glyph unicode="&#x2192;" horiz-adv-x="1710" d="M1274 741l-273 271l119 118l467 -471l-467 -469l-119 119l273 269l-1137 -3v166h1137z" />
<glyph unicode="&#x2193;" horiz-adv-x="1026" d="M602 315l270 273l119 -119l-471 -467l-469 467l119 119l268 -273l-2 1121h166v-1121z" />
<glyph unicode="&#x2196;" horiz-adv-x="1720" d="M1577 113l-115 -119l-1046 1044l2 -381h-168l2 660l661 2l2 -166l-383 2z" />
<glyph unicode="&#x2198;" horiz-adv-x="1720" d="M250 1202l115 117l1046 -1045l-2 383h168l-2 -661l-662 -2l-2 166h383z" />
<glyph unicode="&#x21a9;" horiz-adv-x="1746" d="M373 741h950q100 0 140 56.5t40 140.5v160q0 80 -43 124t-137 44h-180v161h188q92 0 156.5 -25.5t104.5 -70.5t57.5 -107.5t17.5 -133.5v-152q0 -164 -88 -263.5t-272 -99.5l-934 3l272 -271l-119 -114l-465 466l465 469l119 -116z" />
<glyph unicode="&#x21aa;" horiz-adv-x="1730" d="M1085 1012l119 116l465 -469l-465 -466l-119 114l275 271l-934 -3q-184 0 -273.5 99.5t-89.5 263.5v152q0 72 17.5 134t57.5 107t104.5 70.5t156.5 25.5h191v-161h-180q-96 0 -138.5 -44t-42.5 -124v-160q0 -84 40 -140.5t141 -56.5h950z" />
<glyph unicode="&#x21b3;" horiz-adv-x="1734" d="M373 741h989l-272 271l116 116l465 -469l-465 -466l-116 114l272 271h-1157v839h168v-676z" />
<glyph unicode="&#x21b5;" horiz-adv-x="1734" d="M1464 1417h166v-839h-1155l273 -271l-119 -114l-465 466l465 469l119 -116l-273 -271h989v676z" />
<glyph unicode="&#x21de;" horiz-adv-x="1017" d="M209 760h217l2 358l-262 -252l-117 121l459 449l467 -449l-117 -121l-266 252l2 -358h215v-160h-215v-133h215v-158h-215v-309h-168v309h-217v158h217v133h-217v160z" />
<glyph unicode="&#x21df;" horiz-adv-x="1017" d="M209 834h217v135h-217v155h217v312h168v-312h215v-155h-215v-135h215v-158h-215l-2 -363l266 254l117 -118l-467 -449l-459 449l117 118l262 -254l-2 363h-217v158z" />
<glyph unicode="&#x21e0;" horiz-adv-x="1716" d="M682 739v-164h-256l276 -268l-120 -119q-117 119 -233 236t-232 233q233 233 465 471l120 -118q-70 -66 -138 -134.5t-138 -136.5h256zM1083 739h185v-164h-185v164zM1378 739h185v-164h-185v164zM791 739h182v-164h-182v164z" />
<glyph unicode="&#x21e1;" horiz-adv-x="1030" d="M600 862h-166l2 252l-270 -272l-117 119l467 466l471 -466l-117 -119l-270 272v-252zM600 754v-183h-166v183h166zM600 461v-185h-166v185h166zM600 166v-184h-166v184h166z" />
<glyph unicode="&#x21e2;" horiz-adv-x="1716" d="M1255 741l-276 271l119 116l467 -471l-467 -467l-119 117l276 271l-256 -3v166h256zM891 575h-182v166h182v-166zM598 575h-184v166h184v-166zM303 575h-184v166h184v-166z" />
<glyph unicode="&#x21e3;" horiz-adv-x="1030" d="M598 293l270 272q29 -29 58.5 -59.5t60.5 -59.5l-471 -462q-119 115 -235.5 230.5t-233.5 231.5q29 29 58.5 60t60.5 59l268 -272v254h164v-254zM434 653v185h164v-185h-164zM434 1243v184h164v-184h-164zM434 948v182h164v-182h-164z" />
<glyph unicode="&#x21e4;" horiz-adv-x="1751" d="M145 213v891h174v-891h-174zM1683 741v-166l-946 3l273 -269l-119 -119l-467 469l467 471l119 -118l-273 -271h946z" />
<glyph unicode="&#x21e5;" horiz-adv-x="1751" d="M1511 213v891h175v-891h-175zM1094 741l-273 271l119 118l467 -471l-467 -469l-119 119l273 269l-947 -3v166h947z" />
<glyph unicode="&#x21e7;" horiz-adv-x="1720" d="M868 1243l-465 -481h215v-629h502v629h213zM94 639l774 795l774 -795h-389v-639h-770v639h-389z" />
<glyph unicode="&#x21ea;" horiz-adv-x="1720" d="M600 -100v-152h504v152h-504zM467 27h768v-406h-768v406zM852 1243l-465 -481h213v-420h504v420h213zM78 639l774 795l774 -795h-389v-432h-770v432h-389z" />
<glyph unicode="&#x2303;" horiz-adv-x="1576" d="M186 846l598 598l602 -598l-120 -123l-482 477l-477 -477z" />
<glyph unicode="&#x2318;" horiz-adv-x="1718" d="M563 1012v131q0 55 -39 94t-92 39q-57 0 -95 -38t-38 -95t38 -94t95 -37h131zM1159 1012h131q55 0 94 37.5t39 93.5q0 55 -38.5 94t-94.5 39q-53 0 -92 -38t-39 -95v-131zM563 416h-131q-57 0 -95 -39t-38 -92q0 -57 38 -96t95 -39q55 0 93 38.5t38 96.5v131zM1159 416 v-131q0 -57 39 -96t92 -39q55 0 94 38.5t39 96.5q0 53 -38.5 92t-94.5 39h-131zM993 582v264h-264v-264h264zM1159 582h131q76 0 131.5 -25t92 -65.5t55 -94t18.5 -112.5t-18.5 -113.5t-55 -95.5t-92 -65.5t-131.5 -24.5q-72 0 -126 23.5t-93 64.5t-58.5 95t-19.5 116v131 h-264v-131q0 -59 -18.5 -112.5t-55.5 -95.5t-93 -66.5t-130 -24.5q-70 0 -125 23.5t-94 63.5t-60.5 95t-21.5 117q0 59 20.5 113.5t59.5 95.5t94 64.5t127 23.5h131v264h-131q-61 0 -115.5 23.5t-95.5 64.5t-65.5 95t-24.5 114q0 61 22.5 115.5t62.5 95.5t95.5 64.5 t120.5 23.5q74 0 130 -23.5t93 -64.5t55.5 -95.5t18.5 -115.5v-131h264v131q0 61 21.5 115.5t60.5 95.5t94.5 64.5t120.5 23.5q72 0 127.5 -23.5t93 -64.5t57 -95.5t19.5 -115.5q0 -59 -23.5 -112.5t-63.5 -94.5t-94 -65.5t-116 -24.5h-131v-264z" />
<glyph unicode="&#x2324;" horiz-adv-x="1607" d="M1397 1425v-172h-1192v172h1192zM199 586l600 631l600 -631l-121 -123l-479 512q-12 -14 -49 -53t-86.5 -92.5t-103.5 -112t-103 -110.5t-86 -92t-49 -52z" />
<glyph unicode="&#x2325;" horiz-adv-x="2433" d="M1124 1397h1200v-174h-1200v174zM102 1397h590l627 -1227h1005v-170h-1138l-627 1223h-457v174z" />
<glyph unicode="&#x2326;" horiz-adv-x="2349" d="M954 592l-301 -305l-112 112l303 303l-303 306l112 112l301 -303l306 303l112 -112l-303 -306l303 -303l-112 -112zM1989 711l-537 546h-1087v-1093h1087zM1538 0h-1337v1423h1337l690 -712z" />
<glyph unicode="&#x232b;" horiz-adv-x="2387" d="M1130 287l-112 112l303 303l-303 306l112 112l306 -303l301 303l112 -112l-303 -306l303 -303l-112 -112l-301 305zM952 164h1088v1093h-1088l-538 -546zM176 711l690 712h1338v-1423h-1338z" />
<glyph unicode="&#x235f;" horiz-adv-x="1646" d="M1540 709q0 -150 -57.5 -282t-155.5 -230.5t-230 -154.5t-282 -56t-281 56t-229 154.5t-154.5 230.5t-56.5 284q0 150 56.5 281.5t154.5 230t230.5 155t283.5 56.5q150 0 282 -57.5t230.5 -156t154.5 -230.5t56 -281h-2zM1419 709q0 125 -47 235.5t-129 192.5t-192.5 129 t-235.5 47t-235.5 -47t-192.5 -129t-129 -192.5t-47 -235.5t47 -234.5t129 -191.5t192.5 -129.5t235.5 -47.5t235.5 47.5t192.5 129.5t129 191.5t47 234.5zM1067 616l53 -346l-321 156l-289 -156l43 338l-242 240l334 65l154 304l164 -299l335 -70z" />
<glyph unicode="&#x23cf;" horiz-adv-x="1748" d="M1573 465v-279h-1438v279h1438zM1573 643h-1438l719 719z" />
<glyph unicode="&#x25a0;" horiz-adv-x="1792" d="M1548 82h-1296v1296h1296v-1296z" />
<glyph unicode="&#x25a1;" horiz-adv-x="1722" d="M313 145h1119v1129h-1119v-1129zM168 0v1419h1407v-1419h-1407z" />
<glyph unicode="&#x25b2;" horiz-adv-x="1679" d="M1599 360h-1437l719 719z" />
<glyph unicode="&#x25b6;" horiz-adv-x="1218" d="M283 1436l718 -717l-718 -719v1436z" />
<glyph unicode="&#x25bc;" horiz-adv-x="1679" d="M881 360l-719 719h1437z" />
<glyph unicode="&#x25c0;" horiz-adv-x="1218" d="M926 0l-719 719l719 717v-1436z" />
<glyph unicode="&#x25ca;" horiz-adv-x="1085" d="M606 -39h-153l-357 688q18 37 47 92.5t62 120t69.5 133t69.5 133t61.5 120t47.5 91.5h155l353 -690zM528 1104q-20 -41 -49.5 -101.5t-61.5 -125t-61.5 -125t-50.5 -101.5q20 -39 51 -100.5t64 -126t63.5 -125.5t48.5 -100q20 41 50 101t62 123.5t60.5 124t49.5 101.5z " />
<glyph unicode="&#x25cf;" horiz-adv-x="1726" d="M1524 731q0 -131 -51.5 -248.5t-140.5 -207t-206.5 -141.5t-248.5 -52q-133 0 -251 51t-207 140t-140.5 207t-51.5 251q0 135 53.5 253t142.5 205t207 138t247 51t245.5 -51t205.5 -140t142.5 -207t53.5 -249z" />
<glyph unicode="&#x25fc;" horiz-adv-x="1013" d="M0 1014h1014v-1014h-1014v1014z" />
<glyph unicode="&#x2602;" horiz-adv-x="1597" d="M829 1423q113 0 231 -56t214 -150.5t157.5 -217t61.5 -254.5q-33 37 -82 58.5t-102 21.5q-47 0 -92.5 -19.5t-83.5 -60.5h-5q-47 80 -153 80q-57 0 -127 -28v-623q0 -86 -52.5 -138t-150.5 -52q-86 0 -142.5 48t-56.5 152v27h97v-27q0 -57 27.5 -83.5t70.5 -26.5 q33 0 53.5 10t31.5 26.5t15 37t4 40.5v607q-29 14 -55 19t-51 5q-53 0 -95 -20.5t-79 -55.5q-35 41 -82 60.5t-96 19.5q-51 0 -99.5 -19.5t-83.5 -60.5l-2 2q0 131 62.5 253t159 217.5t215 152.5t231.5 57v64h59v-66zM1495 743q-2 0 -2 2z" />
<glyph unicode="&#x2605;" horiz-adv-x="1667" d="M1239 520l80 -528l-490 239l-438 -239l66 514l-371 368l510 99l233 463l252 -457l512 -105z" />
<glyph unicode="&#x2606;" horiz-adv-x="1716" d="M1245 526l80 -530l-491 240l-447 -244l68 522l-375 373l520 100l231 461l254 -457l521 -104zM1489 850l-436 88l-219 395l-201 -401l-434 -82l313 -313l-55 -443l377 203l421 -203l-71 453z" />
<glyph unicode="&#x2610;" horiz-adv-x="1722" d="M313 145h1119v1129h-1119v-1129zM168 0v1419h1407v-1419h-1407z" />
<glyph unicode="&#x2611;" horiz-adv-x="1740" d="M1417 1159q-82 -63 -174 -179t-178 -249t-160 -265t-119 -224q-119 -23 -161 -45q-16 61 -44 146t-62 168t-68.5 147.5t-65.5 86.5q43 35 89 47.5t75 12.5q18 0 43.5 -32t52.5 -82t49.5 -114.5t34.5 -127.5q59 96 137 203.5t165 211t178 191.5t180 143zM313 145h1119 v1129h-1119v-1129zM168 0v1419h1407v-1419h-1407z" />
<glyph unicode="&#x2612;" horiz-adv-x="1740" d="M168 0v1419h1407v-1419h-1407zM313 145h1119v1129h-1119v-1129zM1255 1212l113 -112l-383 -381l389 -387l-119 -111l-383 387l-385 -393l-108 119l383 381l-383 381l110 116l385 -389z" />
<glyph unicode="&#x2622;" horiz-adv-x="1714" d="M856 885q33 0 62.5 -14.5t51 -37t34 -52t12.5 -62.5t-12.5 -61.5t-34 -50t-51 -35t-62.5 -13.5q-63 0 -113.5 45t-50.5 115t48 118t116 48zM1165 182q-162 -84 -315 -84q-166 0 -303 86l201 348q61 -29 110 -28q41 0 103 28zM745 905q-47 -29 -73.5 -77t-32.5 -109h-403 q0 176 72.5 305t234.5 233zM1165 1260q147 -82 229.5 -221.5t82.5 -319.5h-404q-12 127 -112 190zM852 1401q-139 0 -262 -54.5t-215 -147.5t-145.5 -217t-53.5 -263q0 -143 54.5 -267t147.5 -216.5t218 -144.5t264 -52q135 0 257 54t215 146.5t147.5 212t54.5 250.5 q0 162 -58.5 291t-153.5 219.5t-218 139.5t-252 49zM856 -35q-158 0 -295 58.5t-239.5 160t-161 239.5t-58.5 296q0 137 53.5 270t152 239.5t236.5 172t308 65.5q160 0 299 -57t241.5 -156.5t161 -233.5t58.5 -290q0 -158 -58.5 -297t-160 -242.5t-239.5 -164t-298 -60.5z " />
<glyph unicode="&#x2623;" horiz-adv-x="1753" d="M1133 946q-27 -55 -76 -88q-90 61 -176 62q-84 0 -183 -62q-29 16 -45 38t-30 50q66 43 127 65.5t127 22.5q131 0 256 -88zM1028 246q-14 25 -23.5 51.5t-13.5 54.5q180 90 180 254v24.5t-2 28.5q23 14 55.5 17.5t55.5 3.5q8 -33 8 -76q0 -111 -68.5 -207t-191.5 -151z M719 246q-57 25 -104.5 61.5t-81 84.5t-52 102.5t-18.5 111.5q0 43 8 78h25q45 -4 86 -25v-61q0 -156 180 -246q-4 -29 -15.5 -56t-27.5 -50zM557 1087q0 -139 78 -220t227 -99v-45q-47 -10 -66.5 -38t-19.5 -56q0 -10 2 -19.5t6 -19.5l-39 -21q-123 147 -272 148 q-59 0 -115.5 -24.5t-99.5 -66.5t-69.5 -97.5t-26.5 -116.5q0 -45 12 -115l-22 -10q-16 51 -27.5 103t-11.5 104q0 59 16 116.5t54 107.5t98.5 92t150.5 71q0 129 23.5 224t71.5 159.5t122 104.5t176 58l11 -30q-279 -81 -279 -310zM1194 1092q0 223 -242 303l11 32 q186 -41 274 -157.5t88 -317.5v-32.5t-2 -34.5q160 -63 237.5 -171t77.5 -245q0 -92 -36 -197l-27 9q16 88 16 133q0 61 -25.5 115.5t-68.5 94.5t-101.5 62.5t-123.5 22.5q-82 0 -146.5 -39t-113.5 -107l-47 27q6 20 6 41q0 33 -18.5 56.5t-61.5 35.5v45q147 18 225 101.5 t78 222.5zM877 109q-86 -66 -166 -87.5t-152 -21.5q-53 0 -100 8t-89 28.5t-82 55.5t-81 88l22 17q139 -123 240 -123q68 0 127 25.5t103 68.5t70 101.5t26 123.5q0 25 -5.5 62t-31.5 84l45 26q14 -23 35.5 -30t42.5 -7q37 0 67 35l47 -24q-35 -84 -34 -148 q0 -63 24.5 -119.5t67.5 -99.5t98 -67.5t117 -24.5q135 0 250 110l24 -16q-39 -53 -78 -87t-81 -53.5t-89 -26.5t-102 -7q-78 0 -158.5 21.5t-156.5 87.5z" />
<glyph unicode="&#x262e;" horiz-adv-x="1708" d="M840 1460q160 0 298 -57t240.5 -156.5t160.5 -232.5t58 -285q0 -158 -59 -295t-162.5 -238.5t-243 -160t-296.5 -58.5q-150 0 -284 59.5t-235.5 161t-161 237.5t-59.5 288q0 154 58.5 289t160 234.5t236.5 156.5t289 57zM1382 418q37 66 58.5 141.5t21.5 169.5 q0 119 -39 221.5t-111.5 181t-176 132t-232.5 71.5v-489zM786 846v489q-123 -16 -225 -67t-176 -132t-115 -187.5t-41 -229.5q0 -55 5.5 -96t15.5 -74t25.5 -64.5t37.5 -68.5zM903 692v-592q121 14 219.5 69.5t190.5 154.5zM786 692l-403 -368q47 -45 92 -82t92 -67 t100.5 -49.5t118.5 -29.5v596z" />
<glyph unicode="&#x262f;" horiz-adv-x="1695" d="M1075 356q-43 0 -70.5 32t-27.5 69q0 47 31.5 76.5t66.5 29.5q45 0 75 -32.5t30 -73.5q0 -45 -32 -73t-73 -28zM518 999q0 -41 26.5 -71.5t73.5 -30.5q45 0 75 30.5t30 71.5q0 37 -28.5 69t-78.5 32q-35 0 -66.5 -28t-31.5 -73zM102 729q0 168 64.5 304t169 233.5 t238 150.5t272.5 53q168 0 306 -60t236.5 -162.5t151.5 -239t53 -287.5q0 -168 -60 -304t-162.5 -233.5t-237 -149.5t-283.5 -52q-166 0 -304 62t-236.5 165.5t-153 239t-54.5 280.5zM510 1329q43 12 86 12q84 0 152.5 -31.5t116.5 -79.5t75 -104.5t27 -107.5 q0 -104 -40 -193.5t-139 -187.5q-43 -43 -59 -105.5t-16 -105.5q0 -152 93 -237t263 -85q88 0 174 48.5t153.5 132.5t109.5 196.5t42 241.5q0 135 -50 263t-142 226.5t-221 159t-289 60.5q-92 0 -179 -24t-167 -71z" />
<glyph unicode="&#x2672;" horiz-adv-x="1882" d="M1368 918l-432 43l123 77l-94 166l-254 -379l-346 201l210 340q23 37 56 57.5t86 20.5h497q41 0 56.5 -5t29.5 -28l109 -178l131 78zM102 862h433l174 -375l-123 72l-64 -57q-33 -31 -33 -60q0 -51 64 -51h393v-432h-379q-66 0 -92 21.5t-47 58.5l-231 426 q-14 25 -19.5 51.5t-5.5 54.5q0 53 14.5 102.5t51.5 88.5zM1214 762l353 209l194 -361q18 -37 19 -61q0 -23 -7.5 -42.5t-17.5 -37.5l-221 -397q-18 -33 -31.5 -54.5t-27 -35t-31 -18.5t-43.5 -5h-172v-158l-228 359l226 346v-144h223zM408 1032l294 -170l246 371 q-39 76 -97 125t-146 49q-59 0 -99 -57zM637 563l-125 268h-324l97 -65q-39 -37 -60.5 -87t-21.5 -104q0 -59 19.5 -95t51 -55t70.5 -26.5t76 -7.5h57q-23 16 -22 49q0 41 39 80l86 78zM918 365h-486q-35 0 -58.5 2t-41 5t-32.5 8t-32 11l181 -334q18 -33 39.5 -52t68.5 -19 h361v379zM1405 1192l-121 190q-12 20 -26.5 27.5t-38.5 7.5h-418q63 -14 105 -67.5t79 -118.5l115 -205l-76 -47l326 -31l137 297zM1251 754l236 -392q39 4 84 20.5t84 42.5t64.5 58.5t25.5 69.5q0 14 -4 26.5t-8 22.5l-183 326zM1202 422l-166 -262l166 -266v92h197 q18 0 41.5 10t42.5 43l211 385q-66 -61 -138.5 -76.5t-181.5 -15.5h-172v90z" />
<glyph unicode="&#x2673;" horiz-adv-x="1779" d="M1098 0v-121h-33l-152 195l160 200l27 -4v-120h262q74 0 107.5 24.5t33.5 65.5q0 39 -33 94l-204 348l137 80l227 -397q47 -80 47 -150q0 -98 -83 -156.5t-210 -58.5h-286zM805 150v-150h-436q-123 0 -195 58.5t-72 154.5q0 74 50 160l149 268l-94 51l14 27l242 45 l86 -229l-17 -31l-96 59l-131 -237q-27 -49 -26 -88q0 -37 27.5 -62.5t92.5 -25.5h406zM1278 819l-248 43l-12 25l100 55l-145 246q-16 29 -40 45t-52 16q-29 0 -55.5 -20.5t-43.5 -50.5l-202 -357l-131 76l217 379q45 78 101 111.5t118 33.5q63 0 121.5 -36.5t95.5 -102.5 l149 -264l105 59l12 -28zM926 246h-113v467l-74 -51v116l86 62h101v-594z" />
<glyph unicode="&#x2674;" horiz-adv-x="1779" d="M674 254v94l219 275q29 31 29 67q0 23 -16.5 41.5t-47.5 18.5q-29 0 -48 -24t-26 -64l-106 12q12 86 63.5 132t116.5 46q74 0 123 -41t49 -119q0 -29 -10 -60.5t-33 -60.5l-170 -213h203v-104h-346zM1098 0v-121h-33l-152 195l160 200l27 -4v-120h262q74 0 107.5 24.5 t33.5 65.5q0 39 -33 94l-204 348l137 80l227 -397q47 -80 47 -150q0 -98 -83 -156.5t-210 -58.5h-286zM805 150v-150h-436q-123 0 -195 58.5t-72 154.5q0 74 50 160l149 268l-94 51l14 27l242 45l86 -229l-17 -31l-96 59l-131 -237q-27 -49 -26 -88q0 -37 27.5 -62.5 t92.5 -25.5h406zM1278 819l-248 43l-12 25l100 55l-145 246q-16 29 -40 45t-52 16q-29 0 -55.5 -20.5t-43.5 -50.5l-202 -357l-131 76l217 379q45 78 101 111.5t118 33.5q63 0 121.5 -36.5t95.5 -102.5l149 -264l105 59l12 -28z" />
<glyph unicode="&#x2675;" horiz-adv-x="1779" d="M1098 0v-121h-33l-152 195l160 200l27 -4v-120h262q74 0 107.5 24.5t33.5 65.5q0 39 -33 94l-204 348l137 80l227 -397q47 -80 47 -150q0 -98 -83 -156.5t-210 -58.5h-286zM805 150v-150h-436q-123 0 -195 58.5t-72 154.5q0 74 50 160l149 268l-94 51l14 27l242 45 l86 -229l-17 -31l-96 59l-131 -237q-27 -49 -26 -88q0 -37 27.5 -62.5t92.5 -25.5h406zM1278 819l-248 43l-12 25l100 55l-145 246q-16 29 -40 45t-52 16q-29 0 -55.5 -20.5t-43.5 -50.5l-202 -357l-131 76l217 379q45 78 101 111.5t118 33.5q63 0 121.5 -36.5t95.5 -102.5 l149 -264l105 59l12 -28zM1034 438q0 -86 -50 -138t-136 -52q-29 0 -56.5 7t-51 25.5t-41 49t-25.5 76.5l104 14q8 -39 27.5 -55.5t44.5 -16.5q37 0 58.5 25.5t21.5 62.5q0 39 -21.5 58.5t-54.5 19.5h-59v98h53q33 0 54.5 19.5t21.5 48.5t-20.5 49.5t-49.5 20.5 q-23 0 -41 -19.5t-29 -54.5l-106 12q14 72 63.5 118t112.5 46q92 0 134 -51t42 -119q0 -31 -10 -59.5t-45 -55.5q35 -29 47 -61.5t12 -67.5z" />
<glyph unicode="&#x2676;" horiz-adv-x="1779" d="M1098 0v-121h-33l-152 195l160 200l27 -4v-120h262q74 0 107.5 24.5t33.5 65.5q0 39 -33 94l-204 348l137 80l227 -397q47 -80 47 -150q0 -98 -83 -156.5t-210 -58.5h-286zM805 150v-150h-436q-123 0 -195 58.5t-72 154.5q0 74 50 160l149 268l-94 51l14 27l242 45 l86 -229l-17 -31l-96 59l-131 -237q-27 -49 -26 -88q0 -37 27.5 -62.5t92.5 -25.5h406zM1278 819l-248 43l-12 25l100 55l-145 246q-16 29 -40 45t-52 16q-29 0 -55.5 -20.5t-43.5 -50.5l-202 -357l-131 76l217 379q45 78 101 111.5t118 33.5q63 0 121.5 -36.5t95.5 -102.5 l149 -264l105 59l12 -28zM977 342v-84h-105v84h-239v88l196 422h115l-190 -410h118v144h105v-144h45v-100h-45z" />
<glyph unicode="&#x2677;" horiz-adv-x="1779" d="M1098 0v-121h-33l-152 195l160 200l27 -4v-120h262q74 0 107.5 24.5t33.5 65.5q0 39 -33 94l-204 348l137 80l227 -397q47 -80 47 -150q0 -98 -83 -156.5t-210 -58.5h-286zM805 150v-150h-436q-123 0 -195 58.5t-72 154.5q0 74 50 160l149 268l-94 51l14 27l242 45 l86 -229l-17 -31l-96 59l-131 -237q-27 -49 -26 -88q0 -37 27.5 -62.5t92.5 -25.5h406zM1278 819l-248 43l-12 25l100 55l-145 246q-16 29 -40 45t-52 16q-29 0 -55.5 -20.5t-43.5 -50.5l-202 -357l-131 76l217 379q45 78 101 111.5t118 33.5q63 0 121.5 -36.5t95.5 -102.5 l149 -264l105 59l12 -28zM1044 440q0 -84 -45 -141t-137 -57q-63 0 -111.5 32.5t-66.5 122.5l104 21q16 -78 74 -78q27 0 42.5 11t23.5 28.5t11 38t3 39.5q0 39 -13.5 70.5t-58.5 31.5q-20 0 -36.5 -14.5t-30.5 -36.5h-96v332h309v-103h-209v-96q20 10 39.5 14t40.5 4 q78 0 117.5 -51t39.5 -131v-37z" />
<glyph unicode="&#x2678;" horiz-adv-x="1779" d="M1098 0v-121h-33l-152 195l160 200l27 -4v-120h262q74 0 107.5 24.5t33.5 65.5q0 39 -33 94l-204 348l137 80l227 -397q47 -80 47 -150q0 -98 -83 -156.5t-210 -58.5h-286zM805 150v-150h-436q-123 0 -195 58.5t-72 154.5q0 74 50 160l149 268l-94 51l14 27l242 45 l86 -229l-17 -31l-96 59l-131 -237q-27 -49 -26 -88q0 -37 27.5 -62.5t92.5 -25.5h406zM1278 819l-248 43l-12 25l100 55l-145 246q-16 29 -40 45t-52 16q-29 0 -55.5 -20.5t-43.5 -50.5l-202 -357l-131 76l217 379q45 78 101 111.5t118 33.5q63 0 121.5 -36.5t95.5 -102.5 l149 -264l105 59l12 -28zM1053 432q0 -49 -15.5 -86t-41 -59.5t-58.5 -33.5t-68 -11q-78 0 -127 46t-49 138q0 29 7.5 61.5t25.5 67.5q35 68 75 141.5t75 143.5h114l-112 -232h12q72 0 117 -52t45 -124zM942 428q0 41 -20.5 61.5t-49.5 20.5t-50 -20.5t-21 -61.5t19.5 -63.5 t51.5 -22.5q29 0 49.5 22.5t20.5 63.5z" />
<glyph unicode="&#x2679;" horiz-adv-x="1779" d="M1098 0v-121h-33l-152 195l160 200l27 -4v-120h262q74 0 107.5 24.5t33.5 65.5q0 39 -33 94l-204 348l137 80l227 -397q47 -80 47 -150q0 -98 -83 -156.5t-210 -58.5h-286zM805 150v-150h-436q-123 0 -195 58.5t-72 154.5q0 74 50 160l149 268l-94 51l14 27l242 45 l86 -229l-17 -31l-96 59l-131 -237q-27 -49 -26 -88q0 -37 27.5 -62.5t92.5 -25.5h406zM1278 819l-248 43l-12 25l100 55l-145 246q-16 29 -40 45t-52 16q-29 0 -55.5 -20.5t-43.5 -50.5l-202 -357l-131 76l217 379q45 78 101 111.5t118 33.5q63 0 121.5 -36.5t95.5 -102.5 l149 -264l105 59l12 -28zM844 236h-115l195 489h-125v-84h-107v188h352v-90z" />
<glyph unicode="&#x267a;" horiz-adv-x="1779" d="M1098 0v-121h-33l-152 195l160 200l27 -4v-120h262q74 0 107.5 24.5t33.5 65.5q0 39 -33 94l-204 348l137 80l227 -397q47 -80 47 -150q0 -98 -83 -156.5t-210 -58.5h-286zM805 150v-150h-436q-123 0 -195 58.5t-72 154.5q0 74 50 160l149 268l-94 51l14 27l242 45 l86 -229l-17 -31l-96 59l-131 -237q-27 -49 -26 -88q0 -37 27.5 -62.5t92.5 -25.5h406zM1278 819l-248 43l-12 25l100 55l-145 246q-16 29 -40 45t-52 16q-29 0 -55.5 -20.5t-43.5 -50.5l-202 -357l-131 76l217 379q45 78 101 111.5t118 33.5q63 0 121.5 -36.5t95.5 -102.5 l149 -264l105 59l12 -28z" />
<glyph unicode="&#x267b;" horiz-adv-x="1820" d="M1495 1262l-168 -295h-342l107 67l-152 273q-25 43 -56.5 70.5t-60.5 43.5h371q57 0 76.5 -12t32.5 -35l94 -168zM657 1423q74 0 130.5 -38.5t86.5 -79.5l-247 -451l-301 178l170 299q27 35 67.5 63.5t93.5 28.5zM1511 1014l177 -303q31 -51 30 -107q0 -49 -22.5 -90 t-57 -70.5t-80 -46t-88.5 -16.5h-16l-252 455zM621 594l-95 55l-147 -268q-35 -55 -51.5 -97t-16.5 -69l-180 311q-29 49 -29 80q0 16 11 47l102 176l-84 41h330zM961 164l176 280v-122h305q33 0 90 15t104 46l-204 -311q-31 -47 -66 -59.5t-63 -12.5h-166v-119zM918 0h-388 q-23 0 -52 9t-56 28.5t-45.5 52.5t-18.5 82q0 37 13.5 73t36.5 77h510v-322z" />
<glyph unicode="&#x267c;" horiz-adv-x="1712" d="M1610 721q0 -156 -59.5 -293t-162 -239.5t-239.5 -162t-293 -59.5t-293 59.5t-239.5 162t-162 239.5t-59.5 293t59.5 293t162 239.5t239.5 162t293 59.5t293 -59.5t239.5 -162t162 -239.5t59.5 -293zM1214 1102l-69 125q-10 18 -24.5 26.5t-55.5 8.5h-281 q23 -10 46.5 -31t41.5 -53l113 -205l-80 -51h256l127 221zM662 1264q-41 0 -73 -19.5t-48 -50.5l-127 -223l227 -133l184 338q-25 31 -66.5 59.5t-96.5 28.5zM1069 825l188 -340h13q33 0 65.5 12.5t59 34t43 52t16.5 67.5q0 18 -4 39t-18 41l-132 227zM514 850h-246l62 -29 l-78 -131q-10 -16 -10 -39q0 -27 20 -61l141 -228q0 41 48 123l112 199l70 -39zM1020 111v88h125q18 0 46 10t50 45l154 231q-35 -20 -79 -33.5t-67 -13.5h-229v94l-131 -208zM856 438h-381q-37 -55 -37 -108q0 -37 13.5 -62.5t34 -41t42 -21.5t37.5 -6h291v239z" />
<glyph unicode="&#x267d;" horiz-adv-x="1712" d="M1610 723q0 -156 -59.5 -293t-162 -239.5t-239.5 -162t-293 -59.5t-293 59.5t-239.5 162t-162 239.5t-59.5 293t59.5 293t162 239.5t239.5 162t293 59.5t293 -59.5t239.5 -162t162 -239.5t59.5 -293zM1571 723q0 147 -56.5 277t-152.5 227.5t-227 154t-279 56.5 q-147 0 -277 -56.5t-227.5 -154t-154 -227.5t-56.5 -277t56.5 -278.5t154 -227.5t227.5 -152.5t277 -56.5t278.5 56.5t227.5 152.5t152.5 227.5t56.5 278.5zM1292 1143l-127 -221h-256l80 51l-112 205q-18 33 -42 53t-47 31h281q41 0 55.5 -8.5t24.5 -26.5l70 -125z M666 1264q55 0 97 -29t66 -59l-184 -338l-227 133l127 223q16 31 48 50.5t73 19.5zM1305 958l131 -227q14 -20 18 -40.5t4 -39.5q0 -37 -16.5 -67.5t-43 -52t-59 -34t-65.5 -12.5h-12l-189 340zM637 645l-70 39l-112 -199q-47 -82 -47 -123l-142 228q-20 35 -20 61 q0 23 10 39l78 131l-62 29h246zM893 324l131 208v-94h229q23 0 67 13.5t79 33.5l-154 -231q-23 -35 -50.5 -45t-45.5 -10h-125v-88zM860 199h-291q-16 0 -37.5 6t-42 21.5t-34 41t-13.5 62.5q0 53 37 108h381v-239z" />
<glyph unicode="&#x2693;" horiz-adv-x="1429" d="M780 139q68 6 143.5 30t166.5 107l-82 72l290 84l-43 -311l-77 84q-111 -113 -227.5 -162t-235.5 -59q-119 10 -236 59t-225 162l-78 -84l-45 311l291 -84l-82 -72q45 -43 86 -68.5t80 -39.5t74.5 -20.5t70.5 -8.5v813h-262v99h262v24q-55 16 -90 65.5t-35 108.5 q0 78 54.5 131.5t130.5 53.5q37 0 69.5 -14.5t57 -39t39 -58.5t14.5 -73q0 -59 -32 -103t-83 -65v-30h266v-99h-266v-813h4z" />
<glyph unicode="&#x26a0;" horiz-adv-x="1810" d="M895 1075q49 0 73.5 -27.5t24.5 -66.5l-59 -575q-4 -16 -17.5 -26.5t-23.5 -10.5q-12 0 -25.5 10t-15.5 27l-47 575q0 33 24.5 63.5t65.5 30.5zM895 154q-12 0 -28.5 4t-30 13t-23.5 26.5t-10 44.5q0 8 4 22.5t15.5 28.5t28.5 23.5t44 9.5q35 0 60.5 -23.5t25.5 -64.5 q0 -39 -25.5 -61.5t-60.5 -22.5zM801 1370q23 39 49.5 56.5t54.5 17.5q27 0 52.5 -17.5t46.5 -52.5l677 -1204q20 -35 21 -76q0 -41 -25.5 -67.5t-83.5 -26.5h-1382q-59 0 -85 27.5t-26 66.5q0 37 23 76zM256 184q-10 -16 -17.5 -28.5t-7.5 -22.5t12.5 -14t47.5 -4h1222 q35 0 47.5 4t12.5 14t-8.5 23.5t-18.5 29.5l-608 1078q-18 35 -39 34q-10 0 -20.5 -10t-18.5 -24z" />
<glyph unicode="&#x2706;" horiz-adv-x="884" d="M549 1026q-53 0 -73.5 -78t-20.5 -256q0 -25 4 -74t14 -99t28.5 -89t47.5 -43v-412q-18 0 -49 12.5t-68 43t-76 84t-70.5 135.5t-51 195.5t-19.5 267.5q0 231 42 374.5t98.5 223.5t111.5 109.5t82 31.5v-426zM575 -25v412h123q16 0 28.5 -9t12.5 -32v-328q0 -16 -9 -29.5 t-32 -13.5h-123zM575 1026v426h123q16 0 28.5 -12.5t12.5 -28.5v-334q0 -51 -41 -51h-123z" />
<glyph unicode="&#x2708;" horiz-adv-x="1822" d="M1159 504l-426 -719h-196l235 719h-391l-125 -164h-154l78 260l-84 258h154l131 -172h393l-229 735h194l424 -735h506q51 0 78 -29.5t27 -64.5q0 -33 -26 -60.5t-77 -27.5h-512z" />
<glyph unicode="&#x2709;" horiz-adv-x="2191" d="M723 676l-469 467v-930zM1458 690l465 -465v934zM346 131h1487l-455 459l-293 -295l-280 278zM332 1249l753 -760l750 760h-1503zM2058 1374v-1374h-1927v1374h1927z" />
<glyph unicode="&#x2713;" horiz-adv-x="1564" d="M1548 1343q-72 -55 -154.5 -148t-167.5 -210t-169 -249t-160 -260t-138.5 -245.5t-103.5 -205.5q-74 -16 -127 -33t-79 -33q-14 59 -36 136t-48.5 159t-57.5 162t-61.5 146.5t-60 110.5t-54.5 56q47 41 106.5 58.5t100.5 17.5q27 0 63.5 -48t72.5 -125t64.5 -171 t39.5 -187q76 133 186 292t236 312.5t259.5 285.5t258.5 214z" />
<glyph unicode="&#x2716;" horiz-adv-x="1519" d="M1468 352l-354 -356l-354 358l-354 -358l-355 356l359 353l-359 352l355 356l354 -356l354 356l354 -356l-356 -352z" />
<glyph unicode="&#x271a;" horiz-adv-x="1531" d="M541 1364h471v-446h446v-472h-436v-446h-473v446h-445v472h437v446z" />
<glyph unicode="&#x272a;" horiz-adv-x="1630" d="M1540 709q0 -152 -57.5 -284t-155.5 -230.5t-230 -154.5t-284 -56t-284 56t-230 154.5t-155.5 230.5t-57.5 284q0 150 57.5 282.5t155.5 231t230.5 156t283.5 57.5q152 0 284 -57.5t230 -156t155.5 -231t57.5 -282.5zM991 958l-196 363l-187 -367l-401 -80l289 -286 l-50 -408l349 189l387 -189l-66 418l281 276z" />
<glyph unicode="&#x2794;" horiz-adv-x="1507" d="M887 1305l594 -594l-592 -592h-350l471 469h-953v250h955l-471 467h346z" />
<glyph unicode="&#xe000;" horiz-adv-x="1058" d="M967 358q0 -90 -39 -159.5t-101.5 -115.5t-140.5 -69.5t-156 -23.5t-156.5 23.5t-141 69.5t-101.5 115.5t-39 159.5v693q0 92 40 161.5t102.5 116.5t140.5 71.5t155 24.5q78 0 156 -24.5t140.5 -71.5t101.5 -116.5t39 -161.5v-693zM748 1001q0 59 -20.5 100.5t-52.5 67 t-70 37t-75 11.5t-74.5 -11.5t-69.5 -37t-52.5 -66.5t-20.5 -101v-593q0 -59 20.5 -99.5t52.5 -66t70 -36.5t74 -11q37 0 75 11t70 36.5t52.5 65.5t20.5 100v593z" />
<glyph unicode="&#xe001;" horiz-adv-x="966" d="M453 0v1135l-168 -140l-119 158q25 20 65.5 56t84.5 74t86 73t67 55h201v-1411h-217z" />
<glyph unicode="&#xe002;" horiz-adv-x="1058" d="M963 1040q0 -66 -25 -125t-64.5 -112t-89 -98.5t-98.5 -83.5q-49 -39 -109.5 -80t-114.5 -90.5t-93 -112t-47 -143.5h636v-195h-864v182q0 86 28 159t74 135.5t105 115.5t125 98q57 39 113.5 80t100.5 84t70.5 88t26.5 94q0 45 -20.5 79t-53 56.5t-75.5 34t-86 11.5 q-78 0 -150.5 -29t-130.5 -76l-112 170q74 63 178 103t227 40q84 0 165 -20.5t143.5 -66.5t101.5 -119t39 -179z" />
<glyph unicode="&#xe003;" horiz-adv-x="1034" d="M479 1423q80 0 157 -19.5t138.5 -64.5t98 -115.5t36.5 -172.5q0 -104 -49 -187.5t-141 -122.5q96 -41 146 -131t50 -190q0 -111 -38.5 -193t-101 -135t-144.5 -79.5t-168 -26.5q-127 0 -234.5 40t-179.5 103q8 12 23.5 35.5t34 50.5t35 50.5t24.5 35.5q57 -47 135 -77.5 t150 -30.5q115 0 179 56t64 159q0 98 -58 161.5t-151 63.5h-163v190h163q37 0 73 13.5t64.5 40t46 66.5t17.5 91t-19.5 86t-50 56.5t-70.5 31t-81 9.5q-72 0 -152 -31t-135 -80q-8 12 -24.5 36.5t-35 51.5t-34.5 50.5t-25 35.5q72 63 182.5 103t237.5 40z" />
<glyph unicode="&#xe004;" horiz-adv-x="1058" d="M881 211v-211h-222v211h-602v180q27 57 64 139t80 176.5t88 194.5t88 194.5t79 176.5t62 139h232l-449 -1005h358v413h222v-413h118v-195h-118z" />
<glyph unicode="&#xe005;" horiz-adv-x="1058" d="M954 371q0 -90 -36.5 -161t-99 -120t-143.5 -74.5t-169 -25.5q-129 0 -230.5 39t-173.5 104l121 176q66 -59 134.5 -85.5t142.5 -26.5q31 0 70.5 9t76.5 31.5t62.5 62.5t25.5 99v170q0 88 -43 130t-114 42q-31 0 -68 -11t-74 -28.5t-67.5 -36t-49.5 -32.5l-200 80v698 h792v-201h-571v-340q70 45 140.5 69t125.5 24q82 0 146.5 -28t109.5 -77t68.5 -116.5t23.5 -147.5v-223v0z" />
<glyph unicode="&#xe006;" horiz-adv-x="1058" d="M961 373q0 -92 -37 -164t-96.5 -121t-138.5 -73.5t-161 -24.5q-88 0 -166.5 24.5t-137 71.5t-93.5 117.5t-35 163.5v675q0 92 36 164t97.5 121t141.5 73.5t168 24.5q129 0 228 -38.5t171 -104.5l-119 -178q-66 59 -133.5 86t-140.5 27q-35 0 -74 -11.5t-74 -37 t-57.5 -65.5t-22.5 -97v-193q96 57 168 77.5t129 20.5q82 0 146.5 -27.5t108.5 -76.5t68 -117.5t24 -148.5v-168zM739 522q0 96 -46 137t-109 41q-61 0 -126 -25.5t-141 -72.5v-194q0 -57 19.5 -97.5t49.5 -66t68 -36.5t74 -11q35 0 73 12t68.5 37.5t50 65.5t19.5 96v114z " />
<glyph unicode="&#xe007;" horiz-adv-x="991" d="M424 0h-236l494 1212h-403v-208h-207v407h858v-188z" />
<glyph unicode="&#xe008;" horiz-adv-x="1058" d="M528 1423q78 0 155 -24.5t137.5 -75.5t97 -128t36.5 -179q0 -98 -43 -177t-118 -116q94 -41 142 -130t48 -185q0 -109 -41 -189t-106.5 -131t-147.5 -75.5t-164 -24.5q-88 0 -170 23.5t-145.5 73.5t-101 128t-37.5 184q0 53 15 103.5t43 93.5t62.5 77t75.5 52 q-78 35 -121 112.5t-43 182.5q0 102 38 178t99.5 127t137 75.5t151.5 24.5zM735 1016q0 96 -62.5 147t-144.5 51q-39 0 -76.5 -13t-66.5 -38.5t-47.5 -62.5t-18.5 -84q0 -49 17.5 -87t47.5 -63.5t66.5 -39t77.5 -13.5q39 0 77 14.5t66.5 40t46 63.5t17.5 85zM526 610 q-45 0 -86 -14t-71.5 -42t-49 -65.5t-18.5 -87.5q0 -98 62.5 -152t162.5 -54q98 0 162 54t64 157q0 45 -18.5 82.5t-49.5 65.5t-72 42t-86 14z" />
<glyph unicode="&#xe009;" horiz-adv-x="1058" d="M961 371q0 -92 -36 -163t-96.5 -120t-140.5 -73.5t-168 -24.5q-131 0 -230.5 39t-170.5 104l121 176q125 -111 272 -110q33 0 73 11t73.5 36.5t56 65.5t22.5 98v200q-96 -53 -165.5 -74.5t-129.5 -21.5q-160 0 -252 100.5t-92 272.5v149q0 92 36 165t95.5 123t137 75.5 t163.5 25.5q88 0 166 -25.5t136.5 -74.5t93.5 -122t35 -165v-667zM737 1008q0 57 -18.5 97t-48 65.5t-66.5 37t-74 11.5t-74.5 -12.5t-68.5 -38t-50.5 -65.5t-19.5 -95v-105q0 -96 46.5 -136t111.5 -40q59 0 124 25.5t138 70.5v185z" />
<glyph unicode="&#xe00a;" horiz-adv-x="1058" d="M788 590h187v-162h-209l-59 -428h-183l60 428h-199l-57 -428h-187l62 428h-176v162h200l35 252h-180v159h203l59 422h176l-55 -422h201l59 422h178l-59 -422h186v-159h-209zM408 590h198l37 252h-201z" />
<glyph unicode="&#xe00b;" horiz-adv-x="1058" d="M606 4q0 -14 2 -24v-185h-147v209q-115 8 -215.5 50t-198.5 128l123 166q88 -70 179 -106.5t188 -36.5q129 0 191.5 55t62.5 141q0 61 -31 98.5t-78 61t-101.5 35.5t-101.5 22q-68 14 -136.5 40t-123.5 70t-89 111.5t-34 166.5q0 80 28 147.5t77 119.5t115.5 86t144.5 44 v178h147q-2 -43 -2 -86v-86q96 -6 186.5 -36t184.5 -93l-111 -182q-82 55 -160.5 80.5t-160.5 25.5q-45 0 -86 -12t-73 -38t-50.5 -63.5t-18.5 -86.5t27 -81t67 -53.5t87 -35t88 -23.5q68 -16 142.5 -38.5t137 -66.5t103.5 -117t41 -186q0 -86 -30 -156.5t-83 -121.5 t-127 -82t-164 -39z" />
<glyph unicode="&#xe00c;" horiz-adv-x="1058" d="M860 666v-142h-483v-71q0 -68 24.5 -116t65.5 -78t92 -44t105 -14q66 0 135 16t133 57q29 -47 53.5 -92t52.5 -92q-72 -47 -169 -75.5t-205 -28.5q-111 0 -206.5 30.5t-166 90t-110.5 145.5t-40 197v75h-92v142h811zM49 754v141h92v63q0 111 42 197t114 145.5t166 91 t199 31.5q104 0 197 -23.5t171 -74.5l-110 -186q-57 35 -124 52t-130 17q-53 0 -105.5 -14t-93.5 -44t-65.5 -78t-24.5 -116v-61h483v-141h-811z" />
<glyph unicode="&#xe00e;" horiz-adv-x="1058" d="M813 1096q-59 80 -124.5 107.5t-131.5 27.5q-29 0 -59.5 -11.5t-58 -34t-45 -58t-17.5 -85.5q0 -37 9 -72.5t23.5 -72.5t28 -75t23.5 -81h313v-163h-303q-4 -100 -27.5 -198.5t-83.5 -191.5h613v-188h-887v162q70 92 115 192.5t51 223.5h-170v163h139q-10 39 -24.5 77 t-26.5 76t-21.5 76t-9.5 77q0 74 27 142t78 121.5t128 85t177 31.5q131 0 235.5 -42t190.5 -156z" />
<glyph unicode="&#xe00f;" horiz-adv-x="978" d="M893 127q-72 -72 -149.5 -100.5t-155.5 -34.5v-246h-101v246q-78 6 -144.5 32.5t-115.5 72.5t-76.5 110.5t-27.5 144.5v301q0 82 29.5 148.5t80 114t117 75t137.5 33.5v229h101v-229q78 -4 157.5 -30.5t147.5 -98.5l-127 -162q-53 49 -98 67.5t-80 22.5v-630 q41 6 87 26.5t85 56.5zM340 399q0 -92 44 -140t103 -62v620q-57 -16 -102 -63t-45 -138v-217z" />
<glyph unicode="&#xe010;" horiz-adv-x="1058" d="M100 457h312v90l-31 65h-279v148h215l-286 651h252l239 -625h15l237 625h252l-287 -651h219v-148h-284l-27 -65v-90h311v-142h-311v-315h-235v315h-312v142z" />
<glyph unicode="&#xe024;" horiz-adv-x="1058" d="M942 367q0 -100 -36 -172t-94 -118t-133 -67.5t-151 -21.5q-78 0 -152.5 21.5t-133 67.5t-94 117.5t-35.5 172.5v274q0 100 35.5 173t95 120t133.5 69.5t151 22.5q76 0 151 -22.5t133 -69.5t94 -120t36 -173v-274zM731 614q0 106 -57.5 154.5t-145.5 48.5q-90 0 -146 -47 t-56 -156v-219q0 -109 56 -155.5t146 -46.5q88 0 145.5 47t57.5 155v219z" />
<glyph unicode="&#xe025;" horiz-adv-x="1058" d="M432 190v547l-168 -137l-119 158l304 256h200v-824h262v-190h-741v190h262z" />
<glyph unicode="&#xe026;" horiz-adv-x="1058" d="M913 717q0 -57 -20.5 -104.5t-53 -86.5t-74.5 -69.5t-83 -55.5q-41 -23 -90 -45t-94 -46.5t-77 -51.5t-36 -57v-6h559v-195h-829v117q0 72 27.5 127t71.5 100t102.5 80t119.5 65q47 25 92 47.5t80 48t55.5 54.5t20.5 63q0 57 -48 89t-128 32q-72 0 -148.5 -24.5 t-130.5 -63.5q-27 43 -53 85t-51 85q68 53 171 87t214 34q82 0 154.5 -17.5t128 -54t88 -96t32.5 -141.5z" />
<glyph unicode="&#xe027;" horiz-adv-x="1058" d="M530 1026q74 0 148 -18.5t133 -59.5t96 -107.5t37 -162.5q0 -98 -48 -176t-136 -115q45 -18 83 -51t63.5 -74t40 -87t14.5 -93q0 -104 -38 -181t-101.5 -127t-144.5 -76t-167 -26q-123 0 -228.5 38t-175.5 97l115 164q55 -45 131 -73.5t146 -28.5q111 0 177 53t66 148 q0 92 -59 154.5t-152 62.5h-157v178h157q39 0 74 13.5t62.5 38t44 61t16.5 86.5q0 47 -18.5 78.5t-49 52t-68.5 28.5t-77 8q-70 0 -147.5 -28.5t-133.5 -75.5l-112 162q70 59 177 98t232 39z" />
<glyph unicode="&#xe028;" horiz-adv-x="1058" d="M860 0v-313h-217v313h-561v170l410 846h225l-398 -832h324v355h217v-355h115v-184h-115z" />
<glyph unicode="&#xe029;" horiz-adv-x="1058" d="M942 35q0 -86 -36 -152.5t-96 -112.5t-138 -70t-164 -24q-127 0 -224.5 38t-168.5 100l118 166q63 -55 130 -81t139 -26q29 0 67.5 8t73.5 29.5t59.5 58.5t24.5 94v160q0 82 -41 121t-108 39q-31 0 -67 -10.5t-70.5 -25.5t-65.5 -32.5t-49 -31.5l-195 73v660h770v-191 h-553v-317q66 41 134.5 62.5t121.5 21.5q80 0 142.5 -25.5t105.5 -71.5t66.5 -109.5t23.5 -139.5v-211v0z" />
<glyph unicode="&#xe02a;" horiz-adv-x="1058" d="M946 350q0 -88 -34.5 -154.5t-93 -112.5t-134.5 -69.5t-156 -23.5q-86 0 -161.5 22.5t-133 67.5t-90 111.5t-32.5 154.5v635q0 86 34.5 153.5t93 112.5t136.5 68.5t162 23.5q129 0 224 -36.5t167 -98.5l-119 -166q-123 104 -266 105q-33 0 -71 -11.5t-70.5 -35t-55 -61.5 t-22.5 -91v-178q92 53 161.5 72.5t124.5 19.5q80 0 142.5 -26.5t105.5 -72.5t65.5 -110.5t22.5 -140.5v-158zM731 492q0 90 -44 127.5t-105 37.5q-59 0 -123 -24.5t-135 -67.5v-182q0 -53 18 -91t48 -61.5t67 -35t71 -11.5q35 0 71 11.5t65.5 36t48 61.5t18.5 90v109z" />
<glyph unicode="&#xe02b;" horiz-adv-x="1058" d="M455 -313h-230l477 1138h-389v-194h-200v385h831v-180z" />
<glyph unicode="&#xe02c;" horiz-adv-x="1058" d="M526 1337q74 0 148 -23.5t132 -70.5t95 -119.5t37 -169.5q0 -96 -46 -170.5t-118 -109.5q92 -39 137 -120t45 -173q0 -100 -36.5 -174t-96 -123t-137.5 -72.5t-158 -23.5q-84 0 -160.5 23.5t-136 72.5t-95.5 122t-36 171q0 49 14.5 95t39 85t57.5 68.5t70 48.5 q-72 29 -118 106.5t-46 175.5q0 96 35.5 168t94 119t132 70.5t147.5 23.5zM528 567q-41 0 -78.5 -13t-66.5 -37.5t-46.5 -59.5t-17.5 -80q0 -92 60.5 -142.5t148.5 -50.5q43 0 81 13.5t67 38t45 60.5t16 83q0 43 -17.5 78t-46 59.5t-66.5 37.5t-79 13zM725 952 q0 45 -17.5 80t-45 59.5t-62.5 37t-72 12.5q-39 0 -74.5 -12.5t-64.5 -37t-46 -59.5t-17 -80t17 -79.5t45 -59.5t64.5 -37t75.5 -12t74 13.5t62.5 38t44 59t16.5 77.5z" />
<glyph unicode="&#xe02d;" horiz-adv-x="1058" d="M946 35q0 -86 -34.5 -153.5t-93 -112.5t-136.5 -69t-162 -24q-129 0 -224 38t-167 100l119 166q123 -104 264 -105q33 0 71 10.5t70.5 34t54 61t21.5 91.5v188q-92 -47 -159.5 -67.5t-125.5 -20.5q-154 0 -243.5 94t-89.5 254v139q0 88 34.5 157t92 115t133 70.5 t157.5 24.5q86 0 162 -24.5t132.5 -70.5t90 -113.5t33.5 -153.5v-629zM729 633q0 53 -18.5 91t-47 61.5t-64.5 34.5t-71 11t-70.5 -11t-65.5 -34.5t-49 -61.5t-19 -91v-96q0 -90 45 -129t106 -39q59 0 121.5 25.5t132.5 66.5v172z" />
<glyph unicode="&#xe02e;" horiz-adv-x="1058" d="M762 500h168v-138h-189l-51 -362h-164l54 362h-179l-53 -362h-166l56 362h-160v138h180l31 215h-162v137h182l56 358h157l-51 -358h182l54 358h159l-53 -358h168v-137h-186zM420 500h180l33 215h-182z" />
<glyph unicode="&#xe02f;" horiz-adv-x="1058" d="M598 4q0 -12 2 -20v-158h-135v176q-100 10 -192.5 44t-178.5 106l113 145q76 -59 159 -91t171 -32q115 0 170 47t55 121q0 51 -27.5 83t-69.5 51.5t-90.5 29.5t-91.5 18q-61 12 -122.5 35t-110.5 60.5t-80 94t-31 140.5q0 68 24.5 126t68.5 103t103.5 74t129.5 39v147 h135q-2 -37 -2 -72.5v-72.5q86 -4 168 -30.5t166 -80.5l-98 -155q-78 49 -154 69.5t-148 20.5q-35 0 -69.5 -10.5t-62 -32t-45 -53t-17.5 -72.5t25.5 -69.5t63.5 -47t83 -30t82 -19.5q66 -14 131 -35.5t118.5 -59.5t86.5 -98.5t33 -152.5q0 -147 -101.5 -234.5 t-261.5 -103.5z" />
<glyph unicode="&#xe030;" horiz-adv-x="1058" d="M809 563v-121h-424v-41q0 -61 19.5 -105t54.5 -71.5t80 -41t98 -13.5q59 0 120.5 16.5t121.5 51.5q23 -41 47 -80t49 -78q-66 -41 -153 -66.5t-185 -25.5q-102 0 -188.5 26.5t-147.5 76.5t-95 124t-34 168v59h-84v121h721zM88 641v123h84v51q0 92 37 166t99.5 125 t145.5 77.5t177 26.5t178 -20.5t156 -63.5l-97 -159q-47 27 -100 41t-106 18q-59 0 -109.5 -11t-87.5 -39t-58.5 -72t-21.5 -109v-31h424v-123h-721z" />
<glyph unicode="&#xe032;" horiz-adv-x="1058" d="M782 926q-51 72 -112.5 95t-122.5 23q-25 0 -52.5 -9t-50 -28.5t-38 -49t-15.5 -70.5q0 -33 8.5 -63.5t19.5 -62.5t23.5 -64.5t20.5 -67.5h287v-140h-277q-4 -86 -24.5 -167.5t-73.5 -159.5h551v-162h-797v137q63 78 102 164t45 188h-149v140h123q-20 68 -46 134t-26 132 q0 63 24.5 121.5t73 103.5t117 72t154.5 27q109 0 204 -34t175 -134z" />
<glyph unicode="&#xe033;" horiz-adv-x="1058" d="M874 190q-63 -59 -135.5 -85.5t-144.5 -30.5v-207h-92v209q-68 6 -126.5 29.5t-101.5 62.5t-66.5 93t-23.5 120v252q0 68 26 124t69 98t100 67.5t123 31.5v193h92v-191q72 -4 145.5 -27.5t134.5 -86.5l-114 -137q-51 41 -92 56t-74 19v-532q37 4 81 20.5t79 50.5z M379 422q0 -78 35 -117t88 -53v522q-47 -16 -85 -56t-38 -114v-182z" />
<glyph unicode="&#xe034;" horiz-adv-x="1058" d="M145 389h279v74l-27 57h-250v127h191l-256 553h227l215 -530h11l215 530h227l-258 -553h196v-127h-253l-27 -55v-76h280v-121h-280v-268h-211v268h-279v121z" />
<glyph unicode="&#xe059;" horiz-adv-x="1523" d="M625 688q0 -49 -21.5 -89t-57.5 -69.5t-85 -45t-105 -15.5q-55 0 -104 15.5t-85 45t-57.5 69.5t-21.5 89v305q0 49 21.5 88t58.5 68t86 44t102 15t101.5 -15t85.5 -43t59.5 -67t22.5 -88v-307zM446 -29h-157l784 1272h160zM461 975q0 47 -35 68.5t-70 21.5 q-37 0 -69.5 -21.5t-32.5 -68.5v-279q0 -47 34 -67.5t68 -20.5q35 0 70 20.5t35 67.5v279zM1425 213q0 -49 -21.5 -89t-58 -69.5t-85 -45t-103.5 -15.5t-104 15.5t-85 45t-57.5 69.5t-21.5 89v305q0 49 21.5 89t58.5 67.5t86 43t102 15.5t101.5 -15.5t85 -43t59 -66.5 t22.5 -88v-307zM1262 502q0 47 -35 67.5t-70 20.5q-37 0 -69.5 -20.5t-32.5 -67.5v-279q0 -47 33.5 -68.5t68.5 -21.5t70 21.5t35 68.5v279z" />
<glyph unicode="&#xe06c;" horiz-adv-x="720" d="M489 631q-41 -35 -96 -54.5t-112 -19.5q-111 0 -172.5 55.5t-61.5 153.5q0 57 21.5 97t55.5 64.5t74 35t76 10.5h211v28q0 51 -35.5 74t-97.5 23q-35 0 -79 -10.5t-101 -51.5l-80 123q74 51 142.5 67.5t127.5 16.5q299 0 300 -250v-430h-160zM487 844h-153 q-18 0 -36.5 -3t-35 -10.5t-27 -21.5t-10.5 -37q0 -29 23.5 -49.5t64.5 -20.5q47 0 93.5 17.5t80.5 40.5v84z" />
<glyph unicode="&#xe06d;" horiz-adv-x="724" d="M668 805q0 -121 -68 -184.5t-178 -63.5q-39 0 -87 15.5t-108 50.5l-10 -60h-160v963h174v-340q72 35 118 47t81 12q123 0 180.5 -66.5t57.5 -179.5v-194zM494 981q0 59 -25 80.5t-66 21.5q-35 0 -79.5 -18t-92.5 -47v-250q39 -23 88.5 -38t83.5 -15q39 0 65 23.5t26 80.5 v162z" />
<glyph unicode="&#xe06f;" horiz-adv-x="724" d="M229 815q0 -59 26 -79.5t64 -20.5q35 0 83.5 17.5t89.5 41.5v279q-45 16 -85 25t-75 9q-41 0 -72 -24.5t-31 -81.5v-166zM55 999q0 113 70 179.5t184 66.5q35 0 82 -8t101 -27v316h174v-963h-160l-12 64q-57 -37 -107.5 -53.5t-85.5 -16.5q-115 0 -180.5 59.5 t-65.5 188.5v194z" />
<glyph unicode="&#xe070;" horiz-adv-x="700" d="M227 840v-19q2 -59 44 -87.5t96 -28.5q29 0 72.5 11t95.5 52l98 -115q-66 -57 -132.5 -77.5t-133.5 -20.5q-61 0 -117.5 15.5t-100 47t-68 78.5t-24.5 111v158q0 61 22.5 112t62.5 87t94.5 56.5t117.5 20.5q66 0 120 -19.5t94 -55.5t62.5 -85t22.5 -110v-131h-426z M481 989q-2 47 -40 75t-93 28q-47 0 -82 -30t-39 -81v-14h254v22z" />
<glyph unicode="&#xe073;" horiz-adv-x="724" d="M498 563v418q0 59 -27 80.5t-65 21.5q-76 0 -170 -59v-461h-177v963h177v-344q72 41 121 52t83 11q123 0 178.5 -66.5t55.5 -179.5v-436h-176z" />
<glyph unicode="&#xe074;" horiz-adv-x="358" d="M92 563v672h174v-672h-174zM82 1409q0 39 27.5 65.5t68.5 26.5t69.5 -26.5t28.5 -65.5t-28.5 -66.5t-69.5 -27.5t-68.5 27.5t-27.5 66.5z" />
<glyph unicode="&#xe077;" horiz-adv-x="397" d="M289 561q-90 0 -142.5 41t-52.5 141v783h174v-760q0 -33 13.5 -45t42.5 -12h47v-148h-82z" />
<glyph unicode="&#xe078;" horiz-adv-x="1093" d="M416 1243q125 0 178 -88q78 55 128 71.5t89 16.5q111 0 168 -60.5t57 -176.5v-445h-174v426q0 96 -84 96q-33 0 -65.5 -12t-79.5 -45v-465h-172v430q0 51 -24.5 71.5t-55.5 20.5q-35 0 -65.5 -12t-84.5 -45v-465h-174v674h158l12 -55q68 41 111 52t78 11z" />
<glyph unicode="&#xe079;" horiz-adv-x="722" d="M666 819q0 -61 -24 -110.5t-65.5 -83t-97 -52t-119.5 -18.5q-66 0 -121 18.5t-96 52t-64.5 83t-23.5 110.5v158q0 61 24.5 110.5t65.5 84t97.5 53t117.5 18.5q135 0 220.5 -71.5t85.5 -194.5v-158zM494 961q0 66 -43 97.5t-91 31.5q-47 0 -90 -32t-43 -97v-121 q0 -68 40 -98.5t93 -30.5q47 0 90.5 30.5t43.5 98.5v121z" />
<glyph unicode="&#xe07c;" horiz-adv-x="503" d="M502 1071q-86 -6 -148.5 -21.5t-103.5 -37.5v-449h-172v674h158l12 -90q45 37 113.5 67.5t140.5 30.5v-174z" />
<glyph unicode="&#xe07d;" horiz-adv-x="649" d="M328 555q-76 0 -151 20.5t-152 79.5l90 123q55 -41 108 -58.5t109 -17.5q45 0 77.5 16.5t32.5 51.5q0 27 -22.5 39t-63.5 20q-51 8 -104 19.5t-96 32t-71 56.5t-28 93q0 51 21.5 91t58.5 66.5t86 41t103 14.5q82 0 146.5 -16.5t129.5 -63.5l-78 -129q-55 35 -104 48.5 t-92 13.5q-47 0 -74 -18.5t-27 -45.5t39 -38t92 -21q43 -6 89.5 -17.5t85 -34t63.5 -59.5t25 -94q0 -51 -23 -90t-62.5 -66.5t-93 -42t-114.5 -14.5z" />
<glyph unicode="&#xe07e;" horiz-adv-x="522" d="M29 1094v141h96l29 158h141v-158h178v-141h-178v-281q0 -53 15.5 -76.5t64.5 -23.5q18 0 46 4t64 14l35 -143q-51 -16 -97 -23.5t-75 -7.5q-129 0 -178 60.5t-49 173.5v303h-92z" />
<glyph unicode="&#xe0d8;" horiz-adv-x="649" d="M508 -199q-80 86 -151.5 186.5t-126 213t-86 234.5t-31.5 251q0 131 31.5 254t85 233.5t124 210t148.5 185.5l121 -76q-135 -178 -210 -388t-75 -409q0 -215 78 -426t207 -383z" />
<glyph unicode="&#xe0d9;" horiz-adv-x="649" d="M573 686q0 -129 -32.5 -251t-87 -234.5t-126 -213t-151.5 -186.5l-113 86q129 172 206 383t77 426q0 199 -73.5 409t-209.5 388l119 76q80 -86 150.5 -185.5t124 -210t85 -233.5t31.5 -254z" />
<glyph unicode="&#xe0da;" horiz-adv-x="835" d="M102 506v192h629v-192h-629z" />
<glyph unicode="&#xe0db;" horiz-adv-x="569" d="M145 -147v1638h387v-148h-192v-1343h192v-147h-387z" />
<glyph unicode="&#xe0dc;" horiz-adv-x="569" d="M49 -147v147h191v1343h-191v148h385v-1638h-385z" />
<glyph unicode="&#xe0dd;" horiz-adv-x="569" d="M393 -141q-102 0 -154.5 67.5t-52.5 208.5v209q0 115 -35.5 182.5t-121.5 73.5v141q80 8 118.5 75t38.5 165v272q0 106 59.5 170t147.5 64h160v-144h-84q-27 0 -44 -14t-27.5 -37.5t-14.5 -51.5t-4 -54v-252q0 -59 -16.5 -104.5t-41 -77t-51 -51t-47.5 -27.5v-4 q23 -8 50.5 -27.5t51 -51.5t39 -76t15.5 -101v-258q0 -27 3 -54.5t12 -51t27.5 -38t47.5 -14.5h84v-139h-160z" />
<glyph unicode="&#xe0de;" horiz-adv-x="569" d="M547 600q-88 -6 -123 -73.5t-35 -182.5v-209q0 -125 -51 -200.5t-156 -75.5h-159v139h83q29 0 46.5 14.5t27.5 38t13.5 51t3.5 54.5v258q0 57 15 101t38.5 76t50.5 51.5t51 27.5v4q-23 8 -49.5 27.5t-50 51t-39.5 76.5t-16 105v252q0 27 -2 54.5t-11.5 51t-28 37.5 t-49.5 14h-83v138h155q100 0 155.5 -63.5t55.5 -164.5v-272q0 -100 39 -165.5t119 -74.5v-141v0z" />
<glyph unicode="&#xe0df;" horiz-adv-x="1040" d="M41 524v191h958v-191h-958z" />
<glyph unicode="&#xe0e0;" horiz-adv-x="2082" d="M41 524v191h2001v-191h-2001z" />
<glyph unicode="&#xe0e3;" horiz-adv-x="1030" d="M754 131l-273 399l273 402h202l-264 -402l264 -399h-202zM365 131l-273 399l273 402h200l-266 -402l266 -399h-200z" />
<glyph unicode="&#xe0e4;" horiz-adv-x="1030" d="M92 131l266 399l-266 402h203l272 -402l-272 -399h-203zM483 131l267 399l-267 402h201l274 -402l-274 -399h-201z" />
<glyph unicode="&#xe0fb;" horiz-adv-x="1320" d="M174 504q-47 70 -66.5 138.5t-19.5 131.5q0 94 39 181t110.5 154t174 106.5t229.5 39.5q143 0 253 -47t184.5 -127t112.5 -186.5t38 -224.5q0 -137 -53.5 -259t-145.5 -216q49 -45 106.5 -81t127.5 -63l-80 -143q-76 29 -157 79t-136 101q-63 -45 -145 -72.5t-164 -27.5 q-74 0 -139.5 21.5t-113.5 61.5t-77 99t-29 137q0 106 65.5 186t166.5 140q-33 47 -47.5 85t-14.5 83q0 104 64.5 173.5t179.5 69.5q53 0 99 -17t79 -47t51.5 -71t18.5 -86q0 -90 -47 -147.5t-129 -108.5q47 -61 97 -126.5t105 -131.5q72 74 110 167t38 196q0 90 -27.5 169 t-80 137t-129.5 92t-175 34q-92 0 -164.5 -27.5t-124 -73t-78 -104.5t-26.5 -123q0 -41 13.5 -88t45.5 -100zM567 145q100 0 209 62q-61 66 -120.5 143.5t-100.5 141.5q-66 -35 -112 -79t-46 -104q0 -82 49 -123t121 -41zM717 829q0 29 -22.5 51.5t-59.5 22.5 q-39 0 -56.5 -27.5t-17.5 -56.5q0 -47 49 -112q45 23 76 54t31 68z" />
<glyph unicode="&#xe0fc;" horiz-adv-x="401" d="M111 299l-11 784h201l-10 -784h-180zM199 -8q-55 0 -89 34.5t-34 88.5q0 47 33.5 84t89.5 37q57 0 92 -37t35 -84q0 -49 -34 -86t-93 -37z" />
<glyph unicode="&#xe0fd;" horiz-adv-x="755" d="M365 1092q70 0 130 -21.5t105 -59.5t69.5 -90.5t24.5 -113.5q0 -78 -38 -138.5t-81 -113.5q-35 -47 -64.5 -91t-29.5 -97v-68h-200v66q0 45 9 81.5t24.5 69.5t38 62.5t46.5 62.5q27 31 48.5 66.5t21.5 78.5q0 47 -36 80t-95 33q-51 0 -104.5 -20.5t-100.5 -59.5l-100 160 q78 59 160 86t172 27zM383 -8q-57 0 -91 34.5t-34 88.5q0 47 35 84t90 37t90 -37t35 -84q0 -49 -33 -86t-92 -37z" />
<glyph unicode="&#xe0fe;" horiz-adv-x="987" d="M754 0l-74 223h-377l-76 -223h-227l391 1073h205l389 -1073h-231zM557 590l-65 219h-5l-65 -221q-14 -43 -27.5 -90t-25.5 -90h245z" />
<glyph unicode="&#xe0ff;" horiz-adv-x="972" d="M909 324q0 -61 -21.5 -120t-63.5 -104t-104.5 -72.5t-141.5 -27.5h-494v1073h477q82 0 143.5 -23.5t102.5 -64.5t62.5 -94t21.5 -113q0 -59 -27.5 -119.5t-93.5 -95.5q72 -43 105.5 -109.5t33.5 -129.5zM694 328q0 63 -46 101t-109 38h-242v-279h244q76 0 114.5 37 t38.5 103zM680 768q0 59 -41 88t-107 29h-235v-232h242q59 0 100 30t41 85z" />
<glyph unicode="&#xe100;" horiz-adv-x="876" d="M727 809q-51 43 -112.5 62.5t-116.5 19.5q-37 0 -73 -11.5t-65.5 -35t-47 -60t-17.5 -90.5v-313q0 -53 18.5 -91t47 -61.5t65.5 -35t72 -11.5q53 0 113.5 17.5t119.5 62.5l105 -162q-63 -47 -151.5 -78.5t-186.5 -31.5q-80 0 -156 23.5t-133 68.5t-92 110.5t-35 151.5 v385q0 86 35 151.5t92 110.5t132 68.5t155 23.5q92 0 180 -26.5t158 -81.5z" />
<glyph unicode="&#xe101;" horiz-adv-x="974" d="M901 352q0 -84 -32.5 -148.5t-87 -110.5t-125 -69.5t-148.5 -23.5h-422v1073h422q80 0 150.5 -22.5t125 -67.5t86 -110.5t31.5 -151.5v-369zM684 688q0 53 -18.5 91t-48 61.5t-66.5 34t-76 10.5h-176v-697h176q37 0 74 10.5t66.5 33t49 60.5t19.5 91v305z" />
<glyph unicode="&#xe102;" horiz-adv-x="905" d="M88 1073h764v-188h-553v-252h473v-189h-473v-256h553v-188h-764v1073z" />
<glyph unicode="&#xe103;" horiz-adv-x="862" d="M299 631h473v-191h-473v-440h-211v1073h764v-188h-553v-254z" />
<glyph unicode="&#xe104;" horiz-adv-x="946" d="M864 141q-74 -84 -173 -117.5t-189 -33.5q-80 0 -156 23.5t-134 68.5t-94 110.5t-36 151.5v385q0 84 35 150.5t93 111.5t136 68.5t162 23.5q94 0 183 -26.5t159 -81.5l-109 -166q-51 43 -113.5 62.5t-115.5 19.5q-41 0 -80 -11.5t-69.5 -35t-49 -60t-18.5 -90.5v-313 q0 -53 17.5 -91t47 -61.5t66.5 -35t76 -11.5q29 0 71.5 9.5t83.5 37.5v187h-155v180h364v-451z" />
<glyph unicode="&#xe105;" horiz-adv-x="999" d="M711 0v451h-416v-451h-213v1073h213v-432h416v432h215v-1073h-215z" />
<glyph unicode="&#xe106;" horiz-adv-x="438" d="M324 1073v-1073h-211v1073h211z" />
<glyph unicode="&#xe107;" horiz-adv-x="841" d="M729 348q0 -86 -31.5 -152.5t-86 -112.5t-125 -69.5t-148.5 -23.5q-84 0 -177 24.5t-159 73.5l100 166q59 -41 110.5 -56.5t98.5 -15.5q90 0 147.5 46t57.5 159v686h213v-725v0z" />
<glyph unicode="&#xe108;" horiz-adv-x="972" d="M453 477l-36 -40.5t-41.5 -47t-42 -48.5t-34.5 -40v-301h-213v1073h213v-475q37 43 90 106.5t110.5 131t112 131t90.5 106.5h259l-367 -430q31 -53 84 -140t110.5 -181.5t110.5 -182.5t84 -139h-254z" />
<glyph unicode="&#xe109;" horiz-adv-x="862" d="M92 0v1073h213v-885h553v-188h-766z" />
<glyph unicode="&#xe10a;" horiz-adv-x="1220" d="M909 594l-102 -213l-119 -238h-151q-29 59 -60 117.5t-61 118.5q-29 53 -55.5 112.5t-53.5 114.5h-6v-606h-213v1073h195l188 -377q31 -63 53.5 -108t38 -78t26.5 -56.5t21 -43.5h6q35 72 69 145.5t69 144.5l184 373h190v-1073h-210v594h-9z" />
<glyph unicode="&#xe10b;" horiz-adv-x="1054" d="M754 383v690h211v-1073h-193l-264 389l-201 303h-8v-692h-211v1073h191l299 -438l165 -252h11z" />
<glyph unicode="&#xe10c;" horiz-adv-x="995" d="M920 352q0 -86 -33 -152.5t-90.5 -113.5t-134 -71.5t-164.5 -24.5q-90 0 -167 24.5t-133.5 71.5t-88 113.5t-31.5 152.5v371q0 86 32.5 152.5t89 112.5t133.5 70.5t165 24.5q86 0 162.5 -24.5t134 -71.5t91.5 -114.5t34 -153.5v-367zM707 668q0 51 -13 92 q-18 70 -74.5 100.5t-121.5 30.5q-84 0 -145.5 -47t-61.5 -152v-291q0 -53 12 -92q18 -68 73.5 -97.5t121.5 -29.5q41 0 78.5 11.5t66.5 34t46.5 59.5t17.5 90v291z" />
<glyph unicode="&#xe10d;" horiz-adv-x="903" d="M561 1073q82 0 143.5 -29.5t101.5 -76.5t59.5 -106.5t19.5 -119.5q0 -59 -22.5 -119.5t-63.5 -108.5t-102.5 -77.5t-137.5 -29.5h-266v-406h-211v1073h479zM293 596h229q70 0 112 40t42 105q0 63 -42 103.5t-112 40.5h-229v-289z" />
<glyph unicode="&#xe10e;" horiz-adv-x="997" d="M920 352q0 -76 -26 -137t-71 -106.5t-106.5 -74t-132.5 -38.5v-19q0 -41 5 -67.5t21.5 -40.5t46 -19.5t76.5 -5.5h17v-170q-20 -2 -38 -3t-34 -1q-137 0 -215 62.5t-78 189.5v78q-139 29 -223 119t-84 233v371q0 86 32.5 152.5t89 112.5t133.5 70.5t165 24.5 q86 0 162.5 -24.5t134 -71.5t91.5 -114.5t34 -153.5v-367zM707 668q0 51 -13 92q-18 70 -74.5 100.5t-121.5 30.5q-84 0 -145.5 -47t-61.5 -152v-291q0 -53 12 -92q18 -68 73.5 -97.5t121.5 -29.5q41 0 78.5 11.5t66.5 34t46.5 59.5t17.5 90v291z" />
<glyph unicode="&#xe10f;" horiz-adv-x="931" d="M563 1073q86 0 147.5 -29.5t101.5 -76.5t58.5 -106.5t18.5 -119.5q0 -88 -47 -172t-131 -127l200 -442h-231l-174 406h-209v-406h-213v1073h479zM297 596h229q72 0 113 40t41 105q0 63 -41 103.5t-113 40.5h-229v-289z" />
<glyph unicode="&#xe110;" horiz-adv-x="923" d="M879 311q0 -78 -31 -137t-86 -100t-132 -62.5t-167 -21.5q-115 0 -218.5 30.5t-207.5 114.5l117 158q72 -57 152.5 -85t156.5 -28q98 0 145 37t47 94q0 35 -17 58.5t-48 39t-72 25.5t-86 23q-68 16 -131 37.5t-113.5 56.5t-80 87t-29.5 132q0 70 26.5 129t75.5 102 t119 68t156 25q98 0 194 -21.5t195 -81.5l-94 -170q-78 45 -152 63.5t-139 18.5q-66 0 -117 -31.5t-51 -101.5q0 -33 19.5 -54.5t51 -36.5t72.5 -25.5t84 -20.5q78 -18 143.5 -42t113.5 -60.5t76 -90t28 -129.5z" />
<glyph unicode="&#xe111;" horiz-adv-x="837" d="M526 883v-883h-213v883h-299v190h809v-190h-297z" />
<glyph unicode="&#xe112;" horiz-adv-x="1001" d="M924 348q0 -86 -35 -152.5t-93.5 -112.5t-134 -69.5t-159.5 -23.5t-160 23.5t-134 68.5t-92 111.5t-34 152.5v727h211v-694q0 -53 17.5 -91t46 -61.5t66.5 -35t79 -11.5q39 0 75.5 11.5t66.5 35t47.5 61.5t17.5 91v694h215v-725v0z" />
<glyph unicode="&#xe113;" horiz-adv-x="933" d="M471 332l94 311l135 430h230l-357 -1073h-213l-358 1073h231l142 -444l88 -297h8z" />
<glyph unicode="&#xe114;" horiz-adv-x="1413" d="M696 705q-4 -18 -12 -51t-18.5 -76t-22.5 -93.5t-25 -101.5l-96 -383h-223q-74 270 -145.5 536.5t-143.5 536.5h226l96 -407q2 -12 14 -62.5t25.5 -108t25 -107.5t13.5 -62h6q23 84 41 164.5t41 166.5q29 104 53 208t53 208h203q29 -111 56.5 -220.5t56.5 -219.5l73 -299 h6l70 303l107 436h225q-72 -270 -143.5 -536.5t-145.5 -536.5h-223q-25 98 -51.5 195.5t-51.5 195.5l-81 314h-9z" />
<glyph unicode="&#xe115;" horiz-adv-x="913" d="M459 375l-221 -375h-246l348 551l-326 522h244l201 -352l198 352h242l-324 -522l349 -551h-246z" />
<glyph unicode="&#xe116;" horiz-adv-x="894" d="M451 610l102 230l106 233h230l-336 -659v-414h-213v412l-338 661h231l105 -233l100 -230h13z" />
<glyph unicode="&#xe117;" horiz-adv-x="847" d="M47 172l490 713h-469v188h737v-166l-500 -719h498v-188h-756v172z" />
<glyph unicode="&#xe119;" horiz-adv-x="1425" d="M502 1083q31 0 59.5 -3t56.5 -7h752v-188h-551v-252h471v-189h-471v-256h551v-188h-754q-29 -4 -57.5 -7t-56.5 -3q-90 0 -167 24.5t-134.5 71.5t-89 114.5t-31.5 153.5v369q0 86 32.5 152.5t90 112.5t134.5 70.5t165 24.5zM502 182q29 0 54.5 4t51.5 15v669 q-25 10 -52.5 15.5t-53.5 5.5q-41 0 -79 -11.5t-66.5 -36t-46 -61.5t-17.5 -88v-315q0 -53 17.5 -90t46 -60.5t66.5 -35t79 -11.5z" />
<glyph unicode="&#xe122;" horiz-adv-x="1585" d="M774 289h-354l-189 -289h-233l702 1073h836v-188h-551v-252h469v-189h-469v-256h551v-188h-762v289zM774 455v397l-256 -397h256z" />
<glyph unicode="&#xe23f;" horiz-adv-x="1058" d="M967 356q0 -90 -39 -158.5t-102.5 -114.5t-141.5 -69.5t-156 -23.5t-155.5 23.5t-140 69.5t-101.5 114.5t-39 158.5v695q0 90 39 159.5t102.5 117.5t140.5 72.5t154 24.5q78 0 156 -24.5t141.5 -72.5t102.5 -117.5t39 -159.5v-695zM748 936q0 23 -2.5 43t-6.5 41 q-92 -193 -182 -384.5t-182 -383.5q31 -31 71.5 -44t81.5 -13q37 0 76 11t71 35.5t52.5 64.5t20.5 100v530zM313 455q0 -20 13 -37q86 186 174 372.5t176 372.5q-33 29 -72 40t-76 11t-74.5 -11t-68.5 -35.5t-51.5 -65.5t-20.5 -101v-546z" />
<glyph unicode="&#xe2d0;" horiz-adv-x="690" d="M639 793q0 -57 -24.5 -101.5t-65.5 -75t-94.5 -46t-108.5 -15.5q-57 0 -110.5 15.5t-94.5 46t-65.5 74.5t-24.5 102v387q0 57 24.5 101t66.5 74.5t95.5 47t108.5 16.5t107.5 -16.5t94.5 -47t66.5 -74.5t24.5 -101v-387zM471 1155q0 31 -11 51.5t-29.5 33.5t-41 19.5 t-43.5 6.5q-20 0 -41.5 -6.5t-40 -19.5t-30 -33.5t-11.5 -51.5v-342q0 -29 11.5 -49.5t30 -32.5t40 -18t41.5 -6t43 6t41.5 18t29.5 32.5t11 49.5v342z" />
<glyph unicode="&#xe2d1;" horiz-adv-x="632" d="M276 563v641l-94 -71l-94 116l205 162h151v-848h-168z" />
<glyph unicode="&#xe2d2;" horiz-adv-x="690" d="M635 1182q0 -45 -20.5 -86t-52.5 -76t-69.5 -65.5t-74.5 -55.5q-25 -16 -57.5 -36.5t-61.5 -45t-49.5 -52.5t-20.5 -58h406v-146h-582v123q0 59 20.5 105.5t54.5 84t77 69.5t86 61q25 16 55.5 35.5t56 42t43 47t17.5 51.5q0 45 -43 66.5t-92 21.5q-47 0 -93.5 -17.5 t-87.5 -48.5l-88 121q53 41 126 68.5t151 27.5q57 0 111.5 -12t95.5 -40t66.5 -72.5t25.5 -112.5z" />
<glyph unicode="&#xe2d3;" horiz-adv-x="688" d="M319 1417q55 0 107.5 -13t93.5 -41t65.5 -74t24.5 -109q0 -59 -31.5 -107.5t-95.5 -68.5q72 -27 101.5 -78.5t29.5 -104.5q0 -68 -25.5 -119t-67.5 -83.5t-97 -49t-115 -16.5q-84 0 -154.5 23.5t-123.5 64.5l86 127q41 -31 91 -47t91 -16q63 0 104 27.5t41 80.5 q0 51 -35.5 81t-84.5 30h-119v141h119q41 0 79.5 27.5t38.5 83.5q0 25 -12 42t-32.5 28t-44 16.5t-48.5 5.5q-43 0 -93 -14.5t-91 -47.5l-80 123q53 41 124.5 64.5t153.5 23.5z" />
<glyph unicode="&#xe2d4;" horiz-adv-x="690" d="M580 684v-121h-162v121h-387v125l301 600h178l-289 -582h197v232h162v-232h84v-143h-84z" />
<glyph unicode="&#xe2d5;" horiz-adv-x="690" d="M637 791q0 -55 -24.5 -99.5t-66.5 -74t-96.5 -46t-113.5 -16.5q-86 0 -155.5 27.5t-123.5 70.5l95 123q90 -70 180 -69q18 0 41.5 5t44 16t35 30.5t14.5 50.5v98q0 43 -24.5 63.5t-59.5 20.5q-18 0 -42 -6t-46.5 -16.5t-43 -21.5t-34.5 -19l-141 57l-2 426h534v-147h-364 v-164q41 23 81 36t70 13q117 0 179.5 -63.5t62.5 -165.5v-129v0z" />
<glyph unicode="&#xe2d6;" horiz-adv-x="690" d="M637 793q0 -57 -24.5 -101.5t-65.5 -75t-93.5 -46t-107.5 -15.5t-107.5 15.5t-93.5 46t-65.5 74.5t-24.5 102v389q0 57 24.5 101t65.5 75t94.5 46t112.5 15q88 0 154.5 -27.5t120.5 -70.5l-92 -123q-47 37 -89.5 52.5t-89.5 15.5q-18 0 -40.5 -5.5t-42 -17.5t-33 -32.5 t-13.5 -49.5v-96q53 29 96.5 42t77.5 13q115 0 175.5 -64.5t60.5 -162.5v-100zM467 881q0 47 -25.5 67.5t-60.5 20.5t-74 -15.5t-80 -38.5v-102q0 -29 11.5 -49.5t29 -32.5t38 -18t40.5 -6q41 0 81 25.5t40 80.5v68z" />
<glyph unicode="&#xe2d7;" horiz-adv-x="690" d="M635 1282q-82 -180 -164 -359.5t-164 -361.5h-184l315 703h-219v-121h-162v266h578v-127v0z" />
<glyph unicode="&#xe2d8;" horiz-adv-x="690" d="M348 1417q53 0 104.5 -15.5t92.5 -47t65.5 -78.5t24.5 -109q0 -53 -30 -101t-79 -71q57 -23 87 -74t30 -106q0 -66 -25.5 -115t-67.5 -80.5t-94.5 -48t-105.5 -16.5t-106.5 15.5t-94 48t-66.5 79.5t-26 113q0 59 31 106.5t86 75.5q-51 23 -78.5 70t-27.5 104 q0 61 24.5 108.5t63.5 79t89 47t103 15.5zM465 1165q0 49 -37 74t-78 25q-45 0 -81 -25t-36 -74t35 -75.5t82 -26.5q45 0 80 27.5t35 74.5zM231 811q0 -51 35 -77.5t84 -26.5t84 26.5t35 77.5q0 47 -35 74.5t-84 27.5t-84 -26.5t-35 -75.5z" />
<glyph unicode="&#xe2d9;" horiz-adv-x="688" d="M629 791q0 -57 -24.5 -101.5t-65.5 -74t-94.5 -45t-112.5 -15.5q-86 0 -154.5 27.5t-120.5 70.5l95 123q86 -68 176 -67q18 0 40.5 5t42 17t33 32.5t13.5 49.5v102q-49 -29 -93.5 -42t-78.5 -13q-111 0 -173.5 64.5t-62.5 167.5v88q0 57 25.5 102t66.5 76t93.5 46 t105.5 15q55 0 106.5 -15t92.5 -45t65.5 -74t24.5 -101v-393zM457 1161q0 29 -11.5 49.5t-28 32.5t-37 17.5t-40.5 5.5t-42 -6.5t-40 -18.5t-29.5 -31.5t-11.5 -48.5v-61q0 -45 25.5 -66.5t60.5 -21.5q37 0 75 16t79 37v96z" />
<glyph unicode="&#xe2da;" horiz-adv-x="440" d="M328 406q-53 53 -101.5 115.5t-85.5 130t-58.5 140t-21.5 148.5q0 78 21.5 151.5t56.5 140t82 126t101 112.5l104 -59q-92 -104 -141 -229t-49 -236q0 -121 50 -243.5t136 -227.5z" />
<glyph unicode="&#xe2db;" horiz-adv-x="434" d="M401 940q0 -76 -21.5 -149.5t-58 -141t-85 -129t-101.5 -112.5l-96 67q86 104 136 227t50 244q0 111 -49 236t-139 229l104 59q51 -53 98.5 -112.5t83 -126t57 -140t21.5 -151.5z" />
<glyph unicode="&#xe2dc;" horiz-adv-x="362" d="M94 442q33 25 52.5 56.5t23.5 56.5q-31 4 -55.5 28.5t-24.5 65.5q0 45 33 72t74 27q49 0 80.5 -34t31.5 -93q0 -66 -41 -135.5t-118 -112.5z" />
<glyph unicode="&#xe2dd;" horiz-adv-x="335" d="M172 557q-47 0 -74.5 27.5t-27.5 70.5q0 39 26.5 67t73.5 28t75.5 -28t28.5 -67q0 -41 -27.5 -69.5t-74.5 -28.5z" />
<glyph unicode="&#xe2f4;" horiz-adv-x="690" d="M639 229q0 -57 -24.5 -101t-65.5 -74.5t-94.5 -46t-108.5 -15.5q-57 0 -110.5 15.5t-94.5 46t-65.5 74.5t-24.5 101v387q0 57 24.5 101.5t66.5 75t95.5 47t108.5 16.5t107.5 -16.5t94.5 -47t66.5 -74.5t24.5 -102v-387zM471 592q0 31 -11 51.5t-29.5 33.5t-41 19t-43.5 6 q-20 0 -41.5 -6t-40 -19t-30 -33.5t-11.5 -51.5v-342q0 -29 11.5 -49.5t30 -32.5t40 -18.5t41.5 -6.5t43 6.5t41.5 18.5t29.5 32.5t11 49.5v342z" />
<glyph unicode="&#xe2f5;" horiz-adv-x="632" d="M276 0v641l-94 -72l-94 117l205 162h151v-848h-168z" />
<glyph unicode="&#xe2f6;" horiz-adv-x="690" d="M635 621q0 -45 -20.5 -86t-52.5 -76t-69.5 -66t-74.5 -55q-25 -16 -57.5 -36.5t-61.5 -45.5t-49.5 -52.5t-20.5 -58.5h406v-145h-582v123q0 59 20.5 105t54.5 84t77 70t86 60q25 16 55.5 36t56 42.5t43 47t17.5 50.5q0 45 -43 67t-92 22q-47 0 -93.5 -17.5t-87.5 -48.5 l-88 121q53 41 126 68.5t151 27.5q57 0 111.5 -12t95.5 -40t66.5 -72.5t25.5 -112.5z" />
<glyph unicode="&#xe2f7;" horiz-adv-x="688" d="M324 854q55 0 106 -13.5t91 -41t63.5 -73.5t23.5 -110q0 -59 -30.5 -107t-94.5 -69q72 -27 101.5 -78t29.5 -104q0 -68 -25.5 -119t-67.5 -83.5t-97 -49t-115 -16.5q-84 0 -154.5 23.5t-123.5 64.5l86 127q41 -31 91 -47.5t91 -16.5q63 0 104 28t41 81q0 51 -35.5 80.5 t-84.5 29.5h-119v142h119q41 0 78.5 27.5t37.5 82.5q0 49 -42 71t-91 22q-41 0 -91 -14.5t-91 -47.5l-80 123q51 41 123 64.5t156 23.5z" />
<glyph unicode="&#xe2f8;" horiz-adv-x="690" d="M580 121v-121h-162v121h-387v125l301 600h178l-289 -582h197v232h162v-232h84v-143h-84z" />
<glyph unicode="&#xe2f9;" horiz-adv-x="690" d="M637 227q0 -55 -24.5 -99t-66.5 -73.5t-96.5 -46t-113.5 -16.5q-86 0 -155.5 27.5t-123.5 70.5l95 123q90 -70 180 -70q18 0 41.5 5.5t44 16.5t35 30.5t14.5 50.5v98q0 43 -24.5 63.5t-59.5 20.5q-18 0 -42 -6t-46.5 -16.5t-43 -21.5t-34.5 -19l-141 57l-2 426h534v-148 h-364v-163q41 23 81 36t70 13q117 0 179.5 -63.5t62.5 -166.5v-129v0z" />
<glyph unicode="&#xe2fa;" horiz-adv-x="690" d="M637 229q0 -57 -24.5 -101t-65.5 -74.5t-93.5 -46t-107.5 -15.5t-107.5 15.5t-93.5 46t-65.5 74.5t-24.5 101v389q0 57 24.5 101.5t65.5 75t94.5 46t112.5 15.5q88 0 155.5 -27.5t123.5 -70.5l-96 -123q-47 37 -89.5 52t-89.5 15q-18 0 -40.5 -5t-42 -17t-33 -32.5 t-13.5 -49.5v-96q53 29 96.5 42t77.5 13q115 0 175.5 -64.5t60.5 -162.5v-101zM467 317q0 47 -25.5 68t-60.5 21t-74 -15.5t-80 -38.5v-102q0 -29 11.5 -49.5t29 -32.5t38 -18.5t40.5 -6.5q41 0 81 26t40 81v67z" />
<glyph unicode="&#xe2fb;" horiz-adv-x="690" d="M307 0h-184q80 176 158.5 350t156.5 350h-219v-120h-162v266h578v-127z" />
<glyph unicode="&#xe2fc;" horiz-adv-x="690" d="M348 854q53 0 104.5 -15.5t92.5 -47t65.5 -78.5t24.5 -109q0 -53 -30 -101t-79 -71q57 -23 87 -74t30 -106q0 -66 -25.5 -115t-67.5 -80.5t-94.5 -48t-105.5 -16.5t-106.5 15.5t-94 48t-66.5 79.5t-26 113q0 59 31 106t86 76q-51 23 -78.5 70t-27.5 104q0 61 24.5 108.5 t63.5 79t89 47t103 15.5zM465 602q0 49 -37 73.5t-78 24.5q-45 0 -81 -24.5t-36 -73.5t35 -75.5t82 -26.5q45 0 80 27.5t35 74.5zM231 248q0 -51 35 -78t84 -27t84 27t35 78q0 47 -35 74.5t-84 27.5t-84 -26.5t-35 -75.5z" />
<glyph unicode="&#xe2fd;" horiz-adv-x="688" d="M629 227q0 -57 -24.5 -101t-65.5 -73.5t-94.5 -45t-112.5 -15.5q-86 0 -154.5 27.5t-120.5 70.5l95 123q86 -68 176 -68q18 0 40.5 5.5t42 17.5t33 32.5t13.5 49.5v102q-49 -29 -93.5 -42t-78.5 -13q-111 0 -173.5 64.5t-62.5 166.5v88q0 57 25.5 102.5t66.5 76t93.5 46 t105.5 15.5q55 0 106.5 -15.5t92.5 -45t65.5 -73.5t24.5 -101v-394zM457 598q0 29 -11.5 49.5t-28 32.5t-37 17t-40.5 5t-42 -6t-40 -18t-29.5 -31.5t-11.5 -48.5v-61q0 -45 25.5 -66.5t60.5 -21.5q37 0 75 16t79 37v96z" />
<glyph unicode="&#xe2fe;" horiz-adv-x="440" d="M328 -158q-53 53 -101.5 115.5t-85.5 130.5t-58.5 140.5t-21.5 148.5q0 78 21.5 151.5t56.5 140t82 126t101 112.5l104 -59q-92 -104 -141 -229t-49 -236q0 -121 50 -244t136 -227z" />
<glyph unicode="&#xe2ff;" horiz-adv-x="434" d="M401 377q0 -76 -21.5 -149.5t-58 -141.5t-85 -129t-101.5 -113l-96 68q86 104 136 227t50 244q0 111 -49 235.5t-139 229.5l104 59q51 -53 98.5 -112.5t83 -126t57 -140t21.5 -151.5z" />
<glyph unicode="&#xe300;" horiz-adv-x="362" d="M94 -121q33 25 52.5 56.5t23.5 56.5q-31 4 -55.5 28.5t-24.5 65.5q0 45 33 71.5t74 26.5q49 0 80.5 -33.5t31.5 -93.5q0 -66 -41 -135t-118 -112z" />
<glyph unicode="&#xe301;" horiz-adv-x="335" d="M172 -6q-47 0 -74.5 27.5t-27.5 70.5q0 39 26.5 66.5t73.5 27.5t75.5 -27.5t28.5 -66.5q0 -41 -27.5 -69.5t-74.5 -28.5z" />
<glyph unicode="&#xe360;" horiz-adv-x="872" d="M672 561l-70 197h-336l-67 -197h-197l344 928h180q86 -233 171 -463.5t171 -464.5h-196zM432 1249h-2l-108 -336h227z" />
<glyph unicode="&#xe361;" horiz-adv-x="860" d="M805 842q0 -53 -18.5 -103.5t-54.5 -89.5t-90 -62.5t-124 -23.5h-444v928h428q74 0 127 -20.5t89 -56.5t53 -82t17 -97q0 -49 -24.5 -100.5t-77.5 -85.5q55 -37 87 -95.5t32 -111.5zM616 844q0 57 -39.5 90t-97.5 33h-219v-242h221q68 0 101.5 32t33.5 87zM602 1225 q0 53 -36 77.5t-99 24.5h-207v-203h215q55 0 91 27t36 74z" />
<glyph unicode="&#xe362;" horiz-adv-x="862" d="M797 868q0 -72 -29 -128t-76 -96t-110.5 -60.5t-132.5 -20.5h-373v928h375q70 0 132 -20.5t110 -58.5t76 -95t28 -131v-318zM608 1157q0 47 -16.5 80t-43 52.5t-60 28.5t-68.5 9h-160v-604h160q33 0 66.5 8t60 28.5t44 53.5t17.5 80v264z" />
<glyph unicode="&#xe363;" horiz-adv-x="800" d="M78 1491h674v-164h-488v-219h418v-160h-418v-223h488v-162h-674v928z" />
<glyph unicode="&#xe364;" horiz-adv-x="884" d="M633 563v389h-375v-389h-186v928h186v-377h375v377h186v-928h-186z" />
<glyph unicode="&#xe365;" horiz-adv-x="387" d="M287 1491v-928h-187v928h187z" />
<glyph unicode="&#xe366;" horiz-adv-x="761" d="M84 563v928h184v-766h492v-162h-676z" />
<glyph unicode="&#xe367;" horiz-adv-x="1079" d="M815 563v514l-209 -385h-129l-215 391v-520h-184v928h170l297 -567l291 567h168v-928h-189z" />
<glyph unicode="&#xe368;" horiz-adv-x="931" d="M262 1165v-602h-184v928h168l426 -604v604h182v-928h-168z" />
<glyph unicode="&#xe369;" horiz-adv-x="880" d="M813 866q0 -74 -28.5 -132t-80 -99t-119 -62.5t-145.5 -21.5q-80 0 -147.5 21.5t-117.5 62.5t-78.5 99.5t-28.5 131.5v320q0 74 29.5 131t79.5 97t117.5 61.5t145.5 21.5q76 0 144.5 -21.5t119 -62.5t80 -98.5t29.5 -130.5v-318zM629 1141q0 106 -55.5 149t-133.5 43 q-74 0 -130 -40t-56 -132v-272q0 -47 15.5 -80t42 -53.5t59 -29.5t69.5 -9t71 9t59.5 29.5t42 53.5t16.5 80v252z" />
<glyph unicode="&#xe36a;" horiz-adv-x="823" d="M500 1491q76 0 130 -26.5t89 -67.5t51 -92.5t16 -102.5q0 -72 -43 -144.5t-114 -111.5l180 -383h-205l-158 350h-186v-350h-186v928h426zM260 1075h207q63 0 100 35t37 92t-37 91t-100 34h-207v-252z" />
<glyph unicode="&#xe36b;" horiz-adv-x="817" d="M776 829q0 -66 -26.5 -116.5t-75.5 -85.5t-117 -53.5t-147 -18.5q-104 0 -194.5 28.5t-182.5 98.5l102 131q66 -45 137.5 -70.5t137.5 -25.5q88 0 131 30.5t43 79.5q0 33 -18.5 53.5t-49.5 35t-69.5 24.5t-79.5 21q-57 12 -110.5 31.5t-95.5 50t-66.5 75.5t-24.5 111 q0 123 90 199.5t243 78.5q86 0 172.5 -17t169.5 -69l-81 -145q-68 37 -133.5 53.5t-124.5 16.5t-104.5 -29t-45.5 -88q0 -29 16.5 -48.5t44 -32.5t64.5 -22.5t76 -17.5q70 -14 128 -34.5t101 -52.5t66.5 -78t23.5 -114z" />
<glyph unicode="&#xe36c;" horiz-adv-x="739" d="M465 1327v-764h-186v764h-267v164h715v-164h-262z" />
<glyph unicode="&#xe378;" horiz-adv-x="1306" d="M1249 483l-467 471v-954h-250v952l-469 -471v350l592 592l594 -594v-346z" />
<glyph unicode="&#xe379;" horiz-adv-x="1306" d="M1249 596l-594 -594l-592 592v350l469 -471v952h250v-954l467 471v-346z" />
<glyph unicode="&#xe37a;" horiz-adv-x="1525" d="M995 1305l-471 -467h955v-250h-953l471 -469h-350l-592 592l594 594h346z" />
<glyph unicode="&#xe37b;" horiz-adv-x="1245" d="M965 156v688l-693 -699l-184 185l698 692h-688l254 254h862v-864z" />
<glyph unicode="&#xe37c;" horiz-adv-x="1245" d="M78 412v864h862l256 -254h-688l696 -692l-184 -185l-692 699v-688z" />
<glyph unicode="&#xe37d;" horiz-adv-x="1839" d="M1661 -4l-717 719l717 719v-1438zM885 -4l-719 719l719 719v-1438z" />
<glyph unicode="&#xe37e;" horiz-adv-x="1839" d="M248 1436l717 -719l-717 -719v1438zM1026 1436l717 -719l-717 -719v1438z" />
<glyph unicode="&#xe37f;" horiz-adv-x="2048" d="M1823 -6l-713 719l713 719v-1438zM1051 -6l-715 719l715 719v-1438zM305 -6h-143v1438h143v-1438z" />
<glyph unicode="&#xe380;" horiz-adv-x="2048" d="M1860 -8h-142v1438h142v-1438zM1690 711l-719 -719v1438zM915 711l-718 -719v1438z" />
<glyph unicode="&#xe381;" horiz-adv-x="1519" d="M1188 0h-287v1438h287v-1438zM610 0h-284v1438h284v-1438z" />
<glyph unicode="&#xe382;" horiz-adv-x="1036" d="M854 -6l-471 467h-252v493h252l471 467v-1427z" />
<glyph unicode="&#xe383;" horiz-adv-x="1482" d="M1204 1208q94 -92 141.5 -224t47.5 -273t-48.5 -271.5t-150.5 -218.5q-27 -20 -47 -20q-31 0 -55.5 26.5t-24.5 59.5t29 55q70 53 103.5 152.5t33.5 212.5q0 115 -35 222t-98 167q-27 25 -27 55q0 31 24.5 56.5t55.5 25.5q26 0 51 -25zM383 461h-252v491h252l469 465 v-1423z" />
<glyph unicode="&#xe384;" horiz-adv-x="1923" d="M1024 1161q0 35 27.5 62.5t62.5 27.5q33 0 55 -22q106 -102 160.5 -242.5t54.5 -290.5q0 -145 -55 -281t-170 -229q-25 -20 -53 -20q-35 0 -61.5 27.5t-26.5 62.5q0 33 33 59q41 27 70.5 69t48 93t27.5 108.5t9 116.5t-9 119t-27.5 113t-48 97t-70.5 75q-27 24 -27 55z M1313 1386q0 33 26.5 57.5t61.5 24.5q31 0 59 -26q74 -66 131.5 -153t97.5 -185t60 -204.5t20 -211.5q0 -104 -20 -205.5t-60 -195.5t-100.5 -176t-142.5 -146q-27 -20 -51 -20q-35 0 -61.5 25.5t-26.5 58.5q0 37 32 63q63 47 111.5 112.5t81.5 144.5t48 167t15 180 q0 88 -15 178.5t-48 173t-81 154.5t-112 125q-14 12 -20 28.5t-6 30.5zM381 461h-250v491h250l471 469v-1427z" />
<glyph unicode="&#xe385;" horiz-adv-x="2293" d="M1229 1262q106 -106 160.5 -257t54.5 -311q0 -156 -54.5 -300t-170.5 -244q-27 -20 -54 -21q-35 0 -60.5 28.5t-25.5 63.5q0 41 33 62q39 31 68.5 75.5t49 99t29 117t9.5 125.5t-9.5 127t-30 120.5t-50 104.5t-68.5 81q-25 25 -25 61q0 35 27 62.5t64 27.5q12 0 26.5 -5 t26.5 -17zM1509 1493q78 -78 136.5 -172t97.5 -197.5t58.5 -215t19.5 -222.5t-20.5 -220.5t-60.5 -208.5t-100.5 -187t-140.5 -158q-27 -20 -53 -21q-35 0 -60.5 28t-25.5 63t31 65q63 49 111 120t80 155t48.5 179t16.5 193q0 96 -15.5 192.5t-48.5 184.5t-81 165t-111 134 q-27 25 -27 62q0 35 26.5 61.5t61.5 26.5q30 0 57 -27zM1788 1712q100 -98 176 -219t127 -254t76.5 -275.5t25.5 -285.5q0 -141 -26.5 -281.5t-78.5 -269.5t-130 -241.5t-178 -198.5q-27 -23 -51 -23q-35 0 -61 30t-26 66q0 16 5.5 31.5t17.5 28.5q88 68 153.5 164 t110.5 208.5t67.5 239.5t22.5 256q0 127 -21.5 254t-65.5 245t-109.5 220t-153.5 182q-12 16 -19.5 29.5t-7.5 32.5q0 35 27 61.5t62 26.5q14 0 29.5 -5.5t27.5 -21.5zM381 461h-250v491h250l471 469v-1427z" />
<glyph unicode="&#xe386;" horiz-adv-x="1728" d="M870 1554q41 0 70 -28.5t29 -69.5v-643q0 -41 -29 -69.5t-70 -28.5t-69.5 27.5t-28.5 70.5v643q0 41 28.5 69.5t69.5 28.5zM1616 739q0 -156 -59.5 -293t-162 -238.5t-238.5 -160.5t-292 -59q-158 0 -295 59t-238.5 160.5t-160.5 239t-59 292.5q0 113 32.5 210.5 t80.5 169t103.5 113.5t102.5 42q43 0 65.5 -32t22.5 -60q0 -16 -7 -39t-17 -33q-25 -23 -55.5 -54.5t-58.5 -76.5t-46.5 -102.5t-18.5 -133.5q0 -119 43 -222t117 -180t174.5 -121t214.5 -44q115 0 214.5 44t173 121t116.5 180.5t43 221.5q0 94 -28.5 162t-62.5 117 t-61.5 86t-27.5 72q0 20 10 37.5t25.5 31t34 20.5t32.5 7q41 0 90.5 -42t92.5 -114.5t71.5 -171t28.5 -209.5z" />
<glyph unicode="&#xe387;" horiz-adv-x="1642" d="M1542 1167l-237 236l47 47l235 -236zM1341 1092q0 -45 -30.5 -76t-73.5 -31q-45 0 -76 31t-31 76q0 43 31 73.5t76 30.5q43 0 73.5 -30.5t30.5 -73.5zM1122 735l-235 234l47 49l237 -236zM913 662q0 -43 -29.5 -74t-74.5 -31q-43 0 -73.5 30.5t-30.5 74.5q0 45 30.5 75.5 t73.5 30.5q45 0 74.5 -30.5t29.5 -75.5zM1354 268q-4 -29 -23.5 -71.5t-53.5 -85.5t-83 -82t-113 -60q-129 35 -248.5 105.5t-225 159t-193.5 185.5t-152.5 188t-104.5 166t-46 120q20 63 58 113.5t81 85t84 53t72 22.5q23 -12 56.5 -41.5t66 -69.5t58 -91.5t31.5 -106.5 q-29 -43 -73.5 -71.5t-81.5 -45.5q6 -18 54 -79.5t118 -132t147.5 -132t143.5 -78.5q16 39 43.5 83t72.5 75q43 -2 93.5 -23.5t94.5 -53t78 -66.5t46 -66z" />
<glyph unicode="&#xe388;" horiz-adv-x="2119" d="M1569 516q0 -57 -41 -96t-96 -39q-53 0 -94.5 39t-41.5 96t41 96t95 39q55 0 96 -39t41 -96zM1194 516q0 -57 -39 -96t-96 -39t-97 39t-40 96t39.5 96t97.5 39q57 0 96 -39t39 -96zM819 516q0 -57 -40 -96t-97 -39t-96 39t-39 96t39 96t96 39t97 -39t40 -96zM1550 0 l-106 106l414 412l-402 397l107 107l505 -504zM569 0l-518 518l506 504l107 -107l-400 -397l412 -412z" />
<glyph unicode="&#xe389;" horiz-adv-x="1748" d="M1606 721q0 -154 -58.5 -287t-159 -233.5t-234.5 -157.5t-284 -57t-283.5 57t-234 157.5t-159 233.5t-58.5 287t58.5 287t159 233t234.5 157.5t283 57.5q150 0 284 -57.5t234.5 -157.5t159 -233t58.5 -287zM1483 721q0 125 -48.5 237.5t-131 196.5t-194.5 133t-239 49 t-238.5 -49t-195.5 -133t-133 -196.5t-49 -237.5q0 -127 49 -238.5t133 -196.5t195.5 -134.5t238.5 -49.5q125 0 237 49.5t195.5 133.5t132 196.5t48.5 239.5zM1022 1100q0 -59 -46 -100.5t-106 -41.5q-61 0 -106 41t-45 101q0 59 45 100t106 41q59 0 105.5 -41t46.5 -100z M993 172h-245v702h245v-702z" />
<glyph unicode="&#xe38a;" horiz-adv-x="1781" d="M1638 1227l-94 -33l25 -84l-94 -33l24 -86l-94 -33l25 -84l-95 -34l27 -86l-94 -33l24 -84l-94 -35l25 -84l-97 -33l27 -86l-94 -34l24 -84l-94 -33l27 -86l-88 -31l-94 315l-95 -34l27 -86l-180 -62l24 -86l-182 -63l27 -86l-191 -68l-22 86l-80 -29l-62 205l80 29 l-26 84l180 63l-23 86l181 64l-27 86l182 63l-22 76l-95 -33l-26 84l-94 -32l-25 84l-78 -27l-28 94l1392 496l27 -94l-86 -31z" />
<glyph unicode="&#xe38b;" horiz-adv-x="1781" d="M186 1315l-86 31l27 94l1393 -496l-29 -94l-78 27l-24 -84l-95 32l-26 -84l-94 33l-23 -76l182 -63l-26 -86l180 -64l-23 -86l181 -63l-27 -84l80 -29l-62 -205l-80 29l-22 -86l-191 68l27 86l-182 63l24 86l-180 62l27 86l-94 34l-95 -315l-88 31l27 86l-94 33l24 84 l-94 34l27 86l-97 33l25 84l-94 35l24 84l-94 33l27 86l-94 34l24 84l-94 33l25 86l-95 33l25 84l-94 33z" />
<glyph unicode="&#xe38c;" horiz-adv-x="1781" d="M1638 1223l-94 -33l25 -84l-94 -33l24 -86l-94 -33l25 -84l-95 -34l27 -86l-94 -33l24 -84l-94 -35l25 -84l-97 -33l27 -86l-94 -35l24 -84l-94 -32l27 -86l-88 -31l-94 315l-95 -34l27 -86l-180 -62l24 -86l-182 -63l27 -86l-191 -68l-22 86l-80 -29l-62 205l80 29 l-26 84l180 63l-23 86l181 64l-27 86l182 63l-22 76l-95 -33l-26 84l-94 -33l-25 84l-78 -26l-28 94l1392 496l27 -95l-86 -30zM487 909l23 -75l94 34l25 -86l94 35l29 -94l-95 -35l27 -84l-182 -63l24 -86l-180 -64l25 -86l-181 -63l56 -187l172 62l-25 84l180 63l-24 86 l180 64l-24 86l188 65l68 -227l88 31l-27 84l94 32l-24 86l94 33l-25 84l94 35l-24 84l94 33l-25 86l95 35l-27 83l94 33l-22 86l92 33l-23 80z" />
<glyph unicode="&#xe38d;" horiz-adv-x="1781" d="M186 1311l-86 30l27 95l1393 -496l-29 -94l-78 26l-24 -84l-95 33l-26 -84l-94 33l-23 -76l182 -63l-26 -86l180 -64l-23 -86l181 -63l-27 -84l80 -29l-62 -205l-80 29l-22 -86l-191 68l27 86l-182 63l24 86l-180 62l27 86l-94 34l-95 -315l-88 31l27 86l-94 32l24 84 l-94 35l27 86l-97 33l25 84l-94 35l24 84l-94 33l27 86l-94 34l24 84l-94 33l25 86l-95 33l25 84l-94 33zM289 1276l-23 -80l92 -33l-22 -86l94 -33l-27 -83l95 -35l-25 -86l94 -33l-24 -84l94 -35l-25 -84l95 -33l-25 -86l94 -32l-26 -84l88 -31l67 227l189 -65l-25 -86 l180 -64l-24 -86l180 -63l-25 -84l172 -62l56 187l-181 63l25 86l-180 64l24 86l-182 63l27 84l-94 35l28 94l94 -35l25 86l94 -34l23 75z" />
<glyph unicode="&#xe38e;" horiz-adv-x="1576" d="M889 14q-49 -23 -96 -22q-25 0 -51.5 7t-52 15.5t-50.5 15.5t-43 7t-39.5 -8.5t-44.5 -17.5t-46.5 -16t-45.5 -7q-23 0 -48.5 7t-51 15t-51 15.5t-46.5 7.5q-31 0 -50 -7.5t-37.5 -15.5t-39 -15t-49.5 -7v141q43 0 68 10q12 6 20 13q39 25 84 24q20 0 43 -8t46.5 -17.5 t48 -16.5t53.5 -7q55 0 101 22.5t85 22.5q18 0 39.5 -7t46.5 -15.5t51.5 -15.5t50.5 -7q53 0 102.5 22.5t88.5 22.5t85 -22.5t99 -22.5q29 0 55.5 7t50 16.5t45 17.5t42.5 8q43 0 84 -24q8 -6 20 -13q25 -10 68 -10v-141q-31 0 -51.5 7t-39 15t-38 15.5t-47.5 7.5 q-20 0 -45 -7.5t-50.5 -15.5t-50 -15t-45.5 -7q-25 0 -48.5 7t-47 16t-45 17.5t-39.5 8.5q-16 0 -37.5 -6.5t-50.5 -16.5zM889 221q-29 -14 -53.5 -19t-47.5 -5t-43 7t-41.5 16t-47 16.5t-58.5 7.5q-23 0 -44.5 -7.5t-45 -16.5t-47 -16t-47.5 -7q-23 0 -47.5 7t-49 15 t-50 15.5t-46.5 7.5q-31 0 -51 -6.5t-38.5 -14.5t-38 -15t-46.5 -9v137q20 0 37.5 2t28.5 6q12 4 22 8q29 16 52.5 21.5t43.5 5.5q47 0 91.5 -17.5t78.5 -17.5v326l-92 229q-4 10 -6 18.5t-2 16.5q0 33 31 43l71 29v198h97v107h184v139h203v-139h186v-107h96v-198l70 -29 q33 -14 33 -43q0 -8 -2 -16.5t-6 -18.5l-93 -229v-326q35 0 79 19.5t91 19.5q20 0 43 -5t52 -22q10 -4 22 -8q10 -4 26.5 -7t39.5 -5v-137q-29 2 -47.5 9t-37 15t-39 14.5t-50.5 6.5q-23 0 -46.5 -7.5t-49 -15.5t-50 -15t-47.5 -7q-25 0 -48.5 7t-47 16t-46 16.5t-42.5 7.5 q-41 0 -84 -23zM588 1225v-101h-96v-82l294 121l295 -121v82h-96v101h-397z" />
<glyph unicode="&#xe38f;" horiz-adv-x="1286" d="M477 219l-147 -219h-127l219 319q-59 10 -104.5 58.5t-45.5 120.5v659q0 74 52.5 129t132.5 55h461q80 0 133 -55t53 -129v-659q0 -35 -12.5 -66t-33 -53.5t-46 -37.5t-51.5 -22l213 -319h-119l-158 219h-420zM618 1364q-20 0 -34.5 13.5t-14.5 35.5q0 23 14.5 36 t34.5 13q23 0 37.5 -13t14.5 -36t-14.5 -36t-37.5 -13zM762 1364q-27 0 -42 13.5t-15 35.5q0 23 15 36t42 13q20 0 34.5 -13t14.5 -36t-14.5 -36t-34.5 -13zM918 420q39 0 61 22.5t22 55.5t-22.5 59.5t-60.5 26.5q-33 0 -54.5 -27t-21.5 -59q0 -33 21.5 -55.5t54.5 -22.5z M911 846q90 0 90 92v121q0 37 -21.5 64.5t-68.5 27.5h-446q-45 0 -68.5 -27.5t-23.5 -64.5v-121q0 -45 27.5 -68.5t64.5 -23.5h446zM782 1186q12 0 20.5 12t8.5 23v51q0 10 -8 18t-21 8h-184q-10 0 -19.5 -8t-9.5 -18v-51q0 -10 9.5 -22.5t19.5 -12.5h184zM457 420 q33 0 59.5 22.5t26.5 55.5t-27 59.5t-59 26.5q-31 0 -54.5 -27t-23.5 -59q0 -33 23.5 -55.5t54.5 -22.5z" />
<glyph unicode="&#xe390;" horiz-adv-x="1380" d="M702 1352q100 0 186.5 -13.5t152 -38t105.5 -61.5t46 -84l57 -414v-567h-92v-84q0 -43 -25.5 -64.5t-54.5 -21.5q-33 0 -58.5 21.5t-25.5 64.5v84h-596v-84q0 -43 -25.5 -64.5t-56.5 -21.5t-56.5 21.5t-25.5 64.5v84h-92v567l58 414q6 47 48 84t108.5 61.5t155.5 38 t191 13.5zM1071 352q33 0 56.5 22.5t23.5 55.5t-23.5 56.5t-56.5 23.5q-27 0 -49.5 -23.5t-22.5 -56.5t22.5 -55.5t49.5 -22.5zM319 352q27 0 49.5 22.5t22.5 55.5t-22.5 56.5t-49.5 23.5q-33 0 -55 -23.5t-22 -56.5t22 -55.5t55 -22.5zM922 1184q16 0 24 11t8 24 q0 14 -8 24t-24 10h-453q-16 0 -23.5 -10t-7.5 -24q0 -12 7.5 -23.5t23.5 -11.5h453zM348 1118q-35 0 -47 -18.5t-16 -42.5l-43 -299q0 -23 8 -40.5t35 -17.5h823q27 0 35 17.5t8 40.5l-43 299q-4 25 -17.5 43t-48.5 18h-694z" />
<glyph unicode="&#xe391;" horiz-adv-x="1435" d="M362 188v-98q0 -47 -26.5 -70.5t-59.5 -23.5q-35 0 -62.5 23.5t-27.5 70.5v98h-98v322q0 33 11.5 58.5t28.5 43t35.5 26.5t31.5 13l98 248q16 37 49 64.5t86 27.5h141v66q0 41 43 41h164q35 0 35 -41v-66h141q53 0 86 -27.5t43 -64.5l99 -248q16 -4 35.5 -13t37 -26.5 t29.5 -43t12 -58.5v-322h-98v-98q0 -47 -27.5 -70.5t-60.5 -23.5q-35 0 -62.5 23.5t-27.5 70.5v98h-656zM1081 657l-63 193q-18 49 -66 49h-524q-27 0 -37 -13.5t-18 -35.5l-72 -193h780zM281 387q33 0 54 24.5t21 61.5t-21.5 61.5t-53.5 24.5q-39 0 -62.5 -24.5 t-23.5 -61.5t23.5 -61.5t62.5 -24.5zM1104 387q37 0 60.5 24.5t23.5 61.5t-23.5 61.5t-60.5 24.5q-33 0 -59.5 -24.5t-26.5 -61.5t26.5 -61.5t59.5 -24.5z" />
<glyph unicode="&#xe392;" horiz-adv-x="1617" d="M485 879h172v129q0 39 27 58t68 19h190q31 0 57.5 -19t26.5 -58v-129h178v-879h-719v879zM416 0h-90q-53 0 -94.5 35t-41.5 100v619q0 53 41 89t95 36h90v-879zM965 879v137h-244v-137h244zM1268 879h100q53 0 90 -36t37 -89v-619q0 -66 -40 -100.5t-87 -34.5h-100v879z " />
<glyph unicode="&#xe393;" horiz-adv-x="1212" d="M612 987q0 -33 -28.5 -65.5t-69.5 -32.5v-803q0 -43 -24.5 -64.5t-55.5 -21.5q-29 0 -53.5 21.5t-24.5 64.5v803q-37 0 -67.5 28.5t-30.5 75.5v449q0 12 8 18t19 6q29 0 28 -32v-326h43v334q0 14 9.5 19t19.5 5t20.5 -5t10.5 -19v-334h49v334q0 25 22 24q10 0 18.5 -7 t8.5 -25v-326h49v334q0 25 25 24q8 0 16 -7t8 -25v-447zM1032 86q0 -41 -24.5 -62.5t-53.5 -21.5t-54.5 21.5t-25.5 62.5v498h-86v749q0 68 39 100.5t84 32.5q47 0 84 -32.5t37 -100.5v-1247z" />
<glyph unicode="&#xe395;" horiz-adv-x="1474" d="M80 1296h1290l-563 -694v-440h309q41 0 60.5 -23.5t19.5 -56.5q0 -29 -19.5 -55.5t-60.5 -26.5h-772q-41 0 -60.5 26.5t-19.5 55.5q0 33 19.5 56.5t60.5 23.5h307v440zM819 772q35 0 65.5 32t30.5 66q0 43 -30.5 74t-65.5 31q-45 0 -76.5 -31t-31.5 -74q0 -35 31.5 -66.5 t76.5 -31.5z" />
<glyph unicode="&#xe396;" horiz-adv-x="1802" d="M1032 1411v-1411h-131v1411h131zM481 1196q-47 0 -80.5 33t-33.5 82t33.5 81.5t80.5 32.5q51 0 85 -32.5t34 -81.5t-34 -82t-85 -33zM467 459v-410q0 -27 -16.5 -40t-36.5 -13t-37 13.5t-17 39.5v410h-151l158 540h-25l-90 -309q-4 -23 -18.5 -31t-30.5 -8 q-18 0 -34.5 14.5t-16.5 39.5q0 4 1 8t1 8l108 336q4 12 11.5 30.5t23.5 36t44 29.5t73 12h135q45 0 73.5 -12t46 -29.5t24.5 -36t9 -30.5l107 -336q2 -6 2 -16q0 -25 -13.5 -39.5t-35.5 -14.5q-14 0 -27.5 8.5t-21.5 30.5l-90 309h-23l152 -540h-146v-410q0 -27 -16.5 -40 t-34.5 -13q-23 0 -39 13.5t-16 39.5v410h-33zM1536 1165q51 0 84 -14t51.5 -36.5t25.5 -50.5t7 -56v-359q0 -27 -14.5 -38t-36.5 -11q-18 0 -33.5 11.5t-15.5 37.5v328h-23v-914q0 -33 -20.5 -49t-44.5 -16q-25 0 -45.5 16.5t-20.5 48.5v551h-25v-551q0 -33 -21.5 -49 t-47.5 -16q-25 0 -47.5 16.5t-22.5 48.5v914h-16v-328q0 -27 -17.5 -38t-33.5 -11q-23 0 -39.5 11.5t-16.5 37.5v359q0 61 39 109t129 48h205zM1434 1196q-47 0 -80 33t-33 82t32.5 81.5t80.5 32.5q51 0 82.5 -32.5t31.5 -81.5t-31.5 -82t-82.5 -33z" />
<glyph unicode="&#xe478;" d="M2091 1421h297v-1106h496v-239h-793v1345zM1540 610l-115 523h-14l-106 -523h235zM1251 381l-69 -305h-308l371 1343h346l381 -1343h-307l-74 305h-340zM1845 -248q219 0 425 35t386 99.5t329.5 154.5t257.5 200.5t167 238.5t59 268q0 139 -59 266t-167 237.5 t-257.5 201.5t-329.5 155.5t-386 99.5t-425 35q-338 0 -631.5 -78t-512 -212t-343.5 -315.5t-125 -389.5q0 -209 125 -390.5t343.5 -316.5t512 -212t631.5 -77zM1845 -371q-244 0 -468 40t-418.5 112t-352 173t-270.5 226t-174.5 268.5t-61.5 299.5q0 233 135.5 437 t371 356.5t554 239.5t684.5 87q238 0 460 -40t417.5 -113t357.5 -174t277.5 -226t180 -268.5t64.5 -298.5q0 -156 -64.5 -299.5t-180 -268.5t-277.5 -226t-357.5 -173t-417.5 -112t-460 -40z" />
<glyph unicode="&#xe479;" d="M1493 610l-115 523h-14l-107 -523h236zM1204 381l-69 -305h-310l373 1343h346l381 -1343h-307l-74 305h-340zM2001 1421h792v-241h-493v-285h434v-238h-434v-342h493v-239h-792v1345zM1845 -248q219 0 425 35t386 99.5t329.5 154.5t257.5 200.5t167 238.5t59 268 q0 139 -59 266t-167 237.5t-257.5 201.5t-329.5 155.5t-386 99.5t-425 35q-338 0 -631.5 -78t-512 -212t-343.5 -315.5t-125 -389.5q0 -209 125 -390.5t343.5 -316.5t512 -212t631.5 -77zM1845 -371q-244 0 -468 40t-418.5 112t-352 173t-270.5 226t-174.5 268.5 t-61.5 299.5q0 233 135.5 437t371 356.5t554 239.5t684.5 87q238 0 460 -40t417.5 -113t357.5 -174t277.5 -226t180 -268.5t64.5 -298.5q0 -156 -64.5 -299.5t-180 -268.5t-277.5 -226t-357.5 -173t-417.5 -112t-460 -40z" />
<glyph unicode="&#xe47a;" d="M1845 -371q-244 0 -468 40t-418.5 112t-352 173t-270.5 226t-174.5 268.5t-61.5 299.5q0 233 135.5 437t371 356.5t554 239.5t684.5 87q238 0 460 -40t417.5 -113t357.5 -174t277.5 -226t180 -268.5t64.5 -298.5q0 -156 -64.5 -299.5t-180 -268.5t-277.5 -226 t-357.5 -173t-417.5 -112t-460 -40zM1845 -248q219 0 425 35t386 99.5t329.5 154.5t257.5 200.5t167 238.5t59 268q0 139 -59 266t-167 237.5t-257.5 201.5t-329.5 155.5t-386 99.5t-425 35q-338 0 -631.5 -78t-512 -212t-343.5 -315.5t-125 -389.5q0 -209 125 -390.5 t343.5 -316.5t512 -212t631.5 -77zM2593 76q-51 135 -100.5 270t-102.5 270h-115v-540h-297v1343h404q74 0 153.5 -13t146 -54t109.5 -118t43 -202q0 -88 -20.5 -152.5t-56 -111.5t-83.5 -76.5t-104 -46.5l129 -100l193 -469h-299zM1192 381l-70 -305h-309l371 1343h348 l381 -1343h-309l-72 305h-340zM2535 1024q0 49 -14 81t-38.5 50.5t-56.5 25.5t-67 7h-84v-342h99q80 6 120.5 46t40.5 132zM1479 610l-115 523h-12l-109 -523h236z" />
<glyph unicode="&#xe47b;" d="M1509 791q121 -37 172.5 -124t51.5 -198q0 -86 -30 -158.5t-82 -125t-123 -81t-155 -28.5h-526v1345h473q82 0 155 -21.5t128 -64.5t87 -109.5t32 -154.5q0 -86 -44 -163t-139 -111v-6zM1438 485q0 96 -61.5 139.5t-145.5 43.5h-117v-365h117q45 0 83 8t65.5 28.5 t43 56.5t15.5 89zM1397 1057q0 39 -15.5 64.5t-38 41t-50 21.5t-54.5 6h-125v-299h113q74 0 122 39t48 127zM1882 762q0 135 34 259t102.5 219t174 151.5t246.5 56.5q119 0 207 -26.5t156 -63.5l-76 -205q-49 23 -119 37t-129 14q-135 0 -204.5 -114.5t-69.5 -313.5 q0 -229 65.5 -354t186.5 -125q31 0 61.5 8t46.5 14v312l-106 18v170h391v-659q-59 -35 -118.5 -56.5t-116 -34t-107.5 -16.5t-90 -4q-154 0 -256.5 54.5t-164 150.5t-88 226t-26.5 282zM1845 -248q219 0 425 35t386 99.5t329.5 154.5t257.5 200.5t167 238.5t59 268 q0 139 -59 266t-167 237.5t-257.5 201.5t-329.5 155.5t-386 99.5t-425 35q-338 0 -631.5 -78t-512 -212t-343.5 -315.5t-125 -389.5q0 -209 125 -390.5t343.5 -316.5t512 -212t631.5 -77zM1845 -371q-244 0 -468 40t-418.5 112t-352 173t-270.5 226t-174.5 268.5 t-61.5 299.5q0 233 135.5 437t371 356.5t554 239.5t684.5 87q238 0 460 -40t417.5 -113t357.5 -174t277.5 -226t180 -268.5t64.5 -298.5q0 -156 -64.5 -299.5t-180 -268.5t-277.5 -226t-357.5 -173t-417.5 -112t-460 -40z" />
<glyph unicode="&#xe47c;" d="M1599 791q121 -37 172.5 -124t51.5 -198q0 -86 -30 -158.5t-82 -125t-122.5 -81t-154.5 -28.5h-527v1345h473q82 0 155 -21.5t128 -64.5t87 -109.5t32 -154.5q0 -86 -44 -163t-139 -111v-6zM1528 485q0 96 -61.5 139.5t-145.5 43.5h-117v-365h117q45 0 83 8t65.5 28.5 t43 56.5t15.5 89zM1487 1057q0 39 -15.5 64.5t-38 41t-50 21.5t-54.5 6h-125v-299h113q74 0 122 39t48 127zM2410 872l76 195l150 352h311l-399 -823v-520h-297v516l-391 827h311l153 -352l74 -195h12zM1845 -248q219 0 425 35t386 99.5t329.5 154.5t257.5 200.5t167 238.5 t59 268q0 139 -59 266t-167 237.5t-257.5 201.5t-329.5 155.5t-386 99.5t-425 35q-338 0 -631.5 -78t-512 -212t-343.5 -315.5t-125 -389.5q0 -209 125 -390.5t343.5 -316.5t512 -212t631.5 -77zM1845 -371q-244 0 -468 40t-418.5 112t-352 173t-270.5 226t-174.5 268.5 t-61.5 299.5q0 233 135.5 437t371 356.5t554 239.5t684.5 87q238 0 460 -40t417.5 -113t357.5 -174t277.5 -226t180 -268.5t64.5 -298.5q0 -156 -64.5 -299.5t-180 -268.5t-277.5 -226t-357.5 -173t-417.5 -112t-460 -40z" />
<glyph unicode="&#xe47d;" d="M1845 -371q-244 0 -468 40t-418.5 112t-352 173t-270.5 226t-174.5 268.5t-61.5 299.5q0 233 135.5 437t371 356.5t554 239.5t684.5 87q238 0 460 -40t417.5 -113t357.5 -174t277.5 -226t180 -268.5t64.5 -298.5q0 -156 -64.5 -299.5t-180 -268.5t-277.5 -226 t-357.5 -173t-417.5 -112t-460 -40zM1845 -248q219 0 425 35t386 99.5t329.5 154.5t257.5 200.5t167 238.5t59 268q0 139 -59 266t-167 237.5t-257.5 201.5t-329.5 155.5t-386 99.5t-425 35q-338 0 -631.5 -78t-512 -212t-343.5 -315.5t-125 -389.5q0 -209 125 -390.5 t343.5 -316.5t512 -212t631.5 -77zM1550 791q121 -37 171.5 -124t50.5 -198q0 -86 -29 -158.5t-81 -125t-123 -81t-155 -28.5h-526v1345h473q80 0 152.5 -21.5t128 -64.5t88.5 -109.5t33 -154.5q0 -86 -44 -163t-139 -111v-6zM2593 76q-51 135 -100.5 270t-102.5 270h-115 v-540h-297v1343h404q74 0 153.5 -13t146 -54t109.5 -118t43 -202q0 -88 -20.5 -152.5t-56 -111.5t-83.5 -76.5t-104 -46.5l129 -100l193 -469h-299zM1477 485q0 96 -60.5 139.5t-144.5 43.5h-117v-365h117q43 0 81 8t65.5 28.5t43 56.5t15.5 89zM2535 1024q0 49 -14 81 t-38.5 50.5t-56.5 25.5t-67 7h-84v-342h99q80 6 120.5 46t40.5 132zM1438 1057q0 39 -15.5 64.5t-38 41t-50 21.5t-54.5 6h-125v-299h113q72 0 121 39t49 127z" />
<glyph unicode="&#xe47e;" d="M1845 -371q-244 0 -468 40t-418.5 112t-352 173t-270.5 226t-174.5 268.5t-61.5 299.5q0 233 135.5 437t371 356.5t554 239.5t684.5 87q238 0 460 -40t417.5 -113t357.5 -174t277.5 -226t180 -268.5t64.5 -298.5q0 -156 -64.5 -299.5t-180 -268.5t-277.5 -226 t-357.5 -173t-417.5 -112t-460 -40zM1845 -248q219 0 425 35t386 99.5t329.5 154.5t257.5 200.5t167 238.5t59 268q0 139 -59 266t-167 237.5t-257.5 201.5t-329.5 155.5t-386 99.5t-425 35q-338 0 -631.5 -78t-512 -212t-343.5 -315.5t-125 -389.5q0 -209 125 -390.5 t343.5 -316.5t512 -212t631.5 -77zM2310 51q-43 0 -94 5t-103.5 14.5t-100.5 25t-87 37.5l76 215q45 -18 91 -28.5t87 -16.5t73 -8t48 -2q104 0 155.5 36t51.5 128q0 43 -11.5 71.5t-35 49t-61.5 36t-91 31.5q-92 31 -164.5 62.5t-124 76.5t-78 111t-26.5 168q0 106 40 180 t106.5 119t152.5 64.5t178 19.5q39 0 85 -5t94 -15.5t92 -27t81 -36.5q-4 -10 -13 -40t-19.5 -62.5t-19.5 -62.5t-11 -40q-47 18 -96.5 28.5t-90 14.5t-71.5 5t-39 1q-31 0 -59.5 -6t-51 -21.5t-36 -42t-13.5 -65.5q0 -70 42 -101.5t138 -62.5q113 -37 192 -73.5t128 -87 t71.5 -119t22.5 -166.5q0 -111 -38 -188.5t-105.5 -127t-160.5 -72t-204 -22.5zM1325 49q-139 0 -233.5 54.5t-150.5 149.5t-79.5 225t-23.5 282q0 135 29.5 259t94 219t164 151.5t240.5 56.5q123 0 207 -26.5t149 -65.5l-75 -201q-55 23 -119 36t-123 13 q-131 0 -189.5 -113.5t-58.5 -312.5q0 -231 58.5 -355t168.5 -124q61 0 123 15.5t152 52.5l80 -205q-86 -59 -187.5 -85t-226.5 -26z" />
<glyph unicode="&#xe47f;" d="M1325 49q-139 0 -233.5 54.5t-150.5 149.5t-79.5 225t-23.5 282q0 135 29.5 259t94 219t164 151.5t240.5 56.5q123 0 207 -26.5t149 -65.5l-75 -201q-55 23 -119 36t-123 13q-131 0 -189.5 -113.5t-58.5 -312.5q0 -231 58.5 -355t168.5 -124q61 0 123 15.5t152 52.5 l80 -205q-86 -59 -187.5 -85t-226.5 -26zM1868 297l518 883h-473v241h809v-211l-524 -895h548v-239h-878v221zM1845 -248q219 0 425 35t386 99.5t329.5 154.5t257.5 200.5t167 238.5t59 268q0 139 -59 266t-167 237.5t-257.5 201.5t-329.5 155.5t-386 99.5t-425 35 q-338 0 -631.5 -78t-512 -212t-343.5 -315.5t-125 -389.5q0 -209 125 -390.5t343.5 -316.5t512 -212t631.5 -77zM1845 -371q-244 0 -468 40t-418.5 112t-352 173t-270.5 226t-174.5 268.5t-61.5 299.5q0 233 135.5 437t371 356.5t554 239.5t684.5 87q238 0 460 -40 t417.5 -113t357.5 -174t277.5 -226t180 -268.5t64.5 -298.5q0 -156 -64.5 -299.5t-180 -268.5t-277.5 -226t-357.5 -173t-417.5 -112t-460 -40z" />
<glyph unicode="&#xe480;" d="M1382 49q-139 0 -232 54.5t-149.5 149.5t-80 225t-23.5 282q0 135 29.5 259t93 219t164 151.5t241.5 56.5q121 0 206 -26.5t151 -65.5l-78 -201q-55 23 -117.5 36t-122.5 13q-131 0 -189 -113.5t-58 -312.5q0 -231 57 -355t170 -124q59 0 121.5 15.5t152.5 52.5l80 -205 q-86 -59 -187.5 -85t-228.5 -26zM2439 872l78 195l147 352h312l-400 -823v-520h-297v516l-389 827h312l151 -352l76 -195h10zM1845 -248q219 0 425 35t386 99.5t329.5 154.5t257.5 200.5t167 238.5t59 268q0 139 -59 266t-167 237.5t-257.5 201.5t-329.5 155.5t-386 99.5 t-425 35q-338 0 -631.5 -78t-512 -212t-343.5 -315.5t-125 -389.5q0 -209 125 -390.5t343.5 -316.5t512 -212t631.5 -77zM1845 -371q-244 0 -468 40t-418.5 112t-352 173t-270.5 226t-174.5 268.5t-61.5 299.5q0 233 135.5 437t371 356.5t554 239.5t684.5 87q238 0 460 -40 t417.5 -113t357.5 -174t277.5 -226t180 -268.5t64.5 -298.5q0 -156 -64.5 -299.5t-180 -268.5t-277.5 -226t-357.5 -173t-417.5 -112t-460 -40z" />
<glyph unicode="&#xe481;" d="M1352 49q-139 0 -233.5 54.5t-151 149.5t-80 225t-23.5 282q0 135 30 259t94.5 219t164.5 151.5t242 56.5q121 0 204.5 -26.5t149.5 -65.5l-76 -201q-55 23 -118.5 36t-122.5 13q-129 0 -188.5 -113.5t-59.5 -312.5q0 -231 58 -355t169 -124q61 0 122.5 15.5t154.5 52.5 l77 -205q-86 -59 -187 -85t-226 -26zM2494 610l-116 523h-13l-108 -523h237zM2206 381l-70 -305h-309l371 1343h348l381 -1343h-310l-71 305h-340zM1845 -248q219 0 425 35t386 99.5t329.5 154.5t257.5 200.5t167 238.5t59 268q0 139 -59 266t-167 237.5t-257.5 201.5 t-329.5 155.5t-386 99.5t-425 35q-338 0 -631.5 -78t-512 -212t-343.5 -315.5t-125 -389.5q0 -209 125 -390.5t343.5 -316.5t512 -212t631.5 -77zM1845 -371q-244 0 -468 40t-418.5 112t-352 173t-270.5 226t-174.5 268.5t-61.5 299.5q0 233 135.5 437t371 356.5t554 239.5 t684.5 87q238 0 460 -40t417.5 -113t357.5 -174t277.5 -226t180 -268.5t64.5 -298.5q0 -156 -64.5 -299.5t-180 -268.5t-277.5 -226t-357.5 -173t-417.5 -112t-460 -40z" />
<glyph unicode="&#xe482;" d="M1321 49q-139 0 -232.5 54.5t-149.5 149.5t-79.5 225t-23.5 282q0 135 29.5 259t94 219t164 151.5t240.5 56.5q121 0 206 -26.5t150 -65.5l-75 -201q-57 23 -120 36t-122 13q-131 0 -189.5 -113.5t-58.5 -312.5q0 -231 58.5 -355t168.5 -124q61 0 123 15.5t152 52.5 l80 -205q-86 -59 -187.5 -85t-228.5 -26zM2576 639v778h287v-1341h-311l-410 833h-14v-833h-281v1341h338l381 -778h10zM1845 -248q219 0 425 35t386 99.5t329.5 154.5t257.5 200.5t167 238.5t59 268q0 139 -59 266t-167 237.5t-257.5 201.5t-329.5 155.5t-386 99.5t-425 35 q-338 0 -631.5 -78t-512 -212t-343.5 -315.5t-125 -389.5q0 -209 125 -390.5t343.5 -316.5t512 -212t631.5 -77zM1845 -371q-244 0 -468 40t-418.5 112t-352 173t-270.5 226t-174.5 268.5t-61.5 299.5q0 233 135.5 437t371 356.5t554 239.5t684.5 87q238 0 460 -40 t417.5 -113t357.5 -174t277.5 -226t180 -268.5t64.5 -298.5q0 -156 -64.5 -299.5t-180 -268.5t-277.5 -226t-357.5 -173t-417.5 -112t-460 -40z" />
<glyph unicode="&#xe483;" d="M1294 49q-139 0 -232 54.5t-149.5 149.5t-80 225t-23.5 282q0 135 29.5 259t93 219t164 151.5t241.5 56.5q121 0 206 -26.5t151 -65.5l-76 -201q-57 23 -119.5 36t-122.5 13q-131 0 -189.5 -113.5t-58.5 -312.5q0 -231 57.5 -355t170.5 -124q61 0 122.5 15.5t151.5 52.5 l80 -205q-86 -59 -187.5 -85t-228.5 -26zM2550 657h-377v-581h-297v1345h297v-532h377v532h295v-1345h-295v581zM1845 -248q219 0 425 35t386 99.5t329.5 154.5t257.5 200.5t167 238.5t59 268q0 139 -59 266t-167 237.5t-257.5 201.5t-329.5 155.5t-386 99.5t-425 35 q-338 0 -631.5 -78t-512 -212t-343.5 -315.5t-125 -389.5q0 -209 125 -390.5t343.5 -316.5t512 -212t631.5 -77zM1845 -371q-244 0 -468 40t-418.5 112t-352 173t-270.5 226t-174.5 268.5t-61.5 299.5q0 233 135.5 437t371 356.5t554 239.5t684.5 87q238 0 460 -40 t417.5 -113t357.5 -174t277.5 -226t180 -268.5t64.5 -298.5q0 -156 -64.5 -299.5t-180 -268.5t-277.5 -226t-357.5 -173t-417.5 -112t-460 -40z" />
<glyph unicode="&#xe484;" d="M1319 49q-139 0 -232.5 54.5t-149.5 149.5t-79.5 225t-23.5 282q0 135 29.5 259t94 219t164 151.5t240.5 56.5q121 0 206 -26.5t150 -65.5l-76 -201q-57 23 -119.5 36t-121.5 13q-131 0 -189.5 -113.5t-58.5 -312.5q0 -231 57.5 -355t169.5 -124q61 0 123 15.5t152 52.5 l80 -205q-86 -59 -187.5 -85t-228.5 -26zM2834 465q0 -92 -31.5 -169t-93 -132t-153.5 -85t-211 -30q-238 0 -351.5 113.5t-113.5 302.5v954h299v-923q0 -92 36 -147.5t130 -55.5q98 0 143 55t45 148v923h301v-954zM1845 -248q219 0 425 35t386 99.5t329.5 154.5 t257.5 200.5t167 238.5t59 268q0 139 -59 266t-167 237.5t-257.5 201.5t-329.5 155.5t-386 99.5t-425 35q-338 0 -631.5 -78t-512 -212t-343.5 -315.5t-125 -389.5q0 -209 125 -390.5t343.5 -316.5t512 -212t631.5 -77zM1845 -371q-244 0 -468 40t-418.5 112t-352 173 t-270.5 226t-174.5 268.5t-61.5 299.5q0 233 135.5 437t371 356.5t554 239.5t684.5 87q238 0 460 -40t417.5 -113t357.5 -174t277.5 -226t180 -268.5t64.5 -298.5q0 -156 -64.5 -299.5t-180 -268.5t-277.5 -226t-357.5 -173t-417.5 -112t-460 -40z" />
<glyph unicode="&#xe485;" d="M2009 1423h793v-241h-494v-285h436v-238h-436v-342h494v-239h-793v1345zM1806 760q0 -174 -28.5 -302t-96 -213t-178 -127t-276.5 -42h-369v1345h367q106 0 209.5 -19.5t186.5 -88t134 -199.5t51 -354zM1499 768q0 135 -18.5 217t-52 128t-83 61.5t-110.5 15.5h-82v-883 h107q78 0 125 32t72.5 92.5t33.5 145.5t8 191zM1845 -248q219 0 425 35t386 99.5t329.5 154.5t257.5 200.5t167 238.5t59 268q0 139 -59 266t-167 237.5t-257.5 201.5t-329.5 155.5t-386 99.5t-425 35q-338 0 -631.5 -78t-512 -212t-343.5 -315.5t-125 -389.5 q0 -209 125 -390.5t343.5 -316.5t512 -212t631.5 -77zM1845 -371q-244 0 -468 40t-418.5 112t-352 173t-270.5 226t-174.5 268.5t-61.5 299.5q0 233 135.5 437t371 356.5t554 239.5t684.5 87q238 0 460 -40t417.5 -113t357.5 -174t277.5 -226t180 -268.5t64.5 -298.5 q0 -156 -64.5 -299.5t-180 -268.5t-277.5 -226t-357.5 -173t-417.5 -112t-460 -40z" />
<glyph unicode="&#xe486;" d="M1806 760q0 -174 -28.5 -302t-96 -213t-178 -127t-276.5 -42h-369v1345h367q106 0 209.5 -19.5t186.5 -88t134 -199.5t51 -354zM1499 768q0 135 -18.5 217t-52 128t-83 61.5t-110.5 15.5h-82v-883h107q78 0 125 32t72.5 92.5t33.5 145.5t8 191zM2261 682v-606h-299v1343 h299v-573h10l389 573h340l-465 -641l469 -702h-362l-371 608zM1845 -248q219 0 425 35t386 99.5t329.5 154.5t257.5 200.5t167 238.5t59 268q0 139 -59 266t-167 237.5t-257.5 201.5t-329.5 155.5t-386 99.5t-425 35q-338 0 -631.5 -78t-512 -212t-343.5 -315.5t-125 -389.5 q0 -209 125 -390.5t343.5 -316.5t512 -212t631.5 -77zM1845 -371q-244 0 -468 40t-418.5 112t-352 173t-270.5 226t-174.5 268.5t-61.5 299.5q0 233 135.5 437t371 356.5t554 239.5t684.5 87q238 0 460 -40t417.5 -113t357.5 -174t277.5 -226t180 -268.5t64.5 -298.5 q0 -156 -64.5 -299.5t-180 -268.5t-277.5 -226t-357.5 -173t-417.5 -112t-460 -40z" />
<glyph unicode="&#xe487;" d="M903 1421h793v-241h-494v-285h434v-238h-434v-342h494v-239h-793v1345zM2324 51q-43 0 -95 5t-103 14.5t-100.5 25t-86.5 37.5q2 10 13.5 41t24 66.5t22.5 66.5t14 41q45 -18 92 -28.5t88 -16.5t73 -8t48 -2q104 0 155.5 36t51.5 128q0 43 -11 71.5t-36 49t-62.5 36 t-89.5 31.5q-92 31 -165.5 62.5t-124 76.5t-78 111t-27.5 168q0 106 40 180t107.5 119t153.5 64.5t178 19.5q39 0 85 -5t93.5 -15.5t92.5 -27t80 -36.5q-4 -10 -12.5 -40t-18.5 -62.5t-19.5 -62.5t-13.5 -40q-47 18 -95 28.5t-90 14.5t-73 5t-39 1q-29 0 -57.5 -6t-51 -21.5 t-37 -42t-14.5 -65.5q0 -70 43 -101.5t138 -62.5q113 -37 191.5 -73.5t128.5 -87t72.5 -119t22.5 -166.5q0 -111 -37.5 -188.5t-105.5 -127t-161 -72t-204 -22.5zM1845 -248q219 0 425 35t386 99.5t329.5 154.5t257.5 200.5t167 238.5t59 268q0 139 -59 266t-167 237.5 t-257.5 201.5t-329.5 155.5t-386 99.5t-425 35q-338 0 -631.5 -78t-512 -212t-343.5 -315.5t-125 -389.5q0 -209 125 -390.5t343.5 -316.5t512 -212t631.5 -77zM1845 -371q-244 0 -468 40t-418.5 112t-352 173t-270.5 226t-174.5 268.5t-61.5 299.5q0 233 135.5 437 t371 356.5t554 239.5t684.5 87q238 0 460 -40t417.5 -113t357.5 -174t277.5 -226t180 -268.5t64.5 -298.5q0 -156 -64.5 -299.5t-180 -268.5t-277.5 -226t-357.5 -173t-417.5 -112t-460 -40z" />
<glyph unicode="&#xe488;" d="M971 1421h792v-241h-493v-285h434v-238h-434v-342h493v-239h-792v1345zM1993 1421h794v-241h-493v-285h434v-238h-434v-342h493v-239h-794v1345zM1845 -248q219 0 425 35t386 99.5t329.5 154.5t257.5 200.5t167 238.5t59 268q0 139 -59 266t-167 237.5t-257.5 201.5 t-329.5 155.5t-386 99.5t-425 35q-338 0 -631.5 -78t-512 -212t-343.5 -315.5t-125 -389.5q0 -209 125 -390.5t343.5 -316.5t512 -212t631.5 -77zM1845 -371q-244 0 -468 40t-418.5 112t-352 173t-270.5 226t-174.5 268.5t-61.5 299.5q0 233 135.5 437t371 356.5t554 239.5 t684.5 87q238 0 460 -40t417.5 -113t357.5 -174t277.5 -226t180 -268.5t64.5 -298.5q0 -156 -64.5 -299.5t-180 -268.5t-277.5 -226t-357.5 -173t-417.5 -112t-460 -40z" />
<glyph unicode="&#xe489;" d="M922 1421h792v-241h-493v-285h434v-238h-434v-342h493v-239h-792v1345zM1876 762q0 135 34 259t102.5 219t174 151.5t246.5 56.5q119 0 207 -26.5t156 -63.5l-76 -205q-49 23 -119 37t-129 14q-135 0 -206 -114.5t-71 -313.5q0 -229 66 -354t188 -125q29 0 60 8t47 14 v312l-105 18v170h392v-659q-59 -35 -119 -56.5t-116 -34t-107.5 -16.5t-90.5 -4q-154 0 -256 54.5t-163.5 150.5t-88 226t-26.5 282zM1845 -248q219 0 425 35t386 99.5t329.5 154.5t257.5 200.5t167 238.5t59 268q0 139 -59 266t-167 237.5t-257.5 201.5t-329.5 155.5 t-386 99.5t-425 35q-338 0 -631.5 -78t-512 -212t-343.5 -315.5t-125 -389.5q0 -209 125 -390.5t343.5 -316.5t512 -212t631.5 -77zM1845 -371q-244 0 -468 40t-418.5 112t-352 173t-270.5 226t-174.5 268.5t-61.5 299.5q0 233 135.5 437t371 356.5t554 239.5t684.5 87 q238 0 460 -40t417.5 -113t357.5 -174t277.5 -226t180 -268.5t64.5 -298.5q0 -156 -64.5 -299.5t-180 -268.5t-277.5 -226t-357.5 -173t-417.5 -112t-460 -40z" />
<glyph unicode="&#xe48a;" d="M1845 -371q-244 0 -468 40t-418.5 112t-352 173t-270.5 226t-174.5 268.5t-61.5 299.5q0 233 135.5 437t371 356.5t554 239.5t684.5 87q238 0 460 -40t417.5 -113t357.5 -174t277.5 -226t180 -268.5t64.5 -298.5q0 -156 -64.5 -299.5t-180 -268.5t-277.5 -226 t-357.5 -173t-417.5 -112t-460 -40zM1845 -248q219 0 425 35t386 99.5t329.5 154.5t257.5 200.5t167 238.5t59 268q0 139 -59 266t-167 237.5t-257.5 201.5t-329.5 155.5t-386 99.5t-425 35q-338 0 -631.5 -78t-512 -212t-343.5 -315.5t-125 -389.5q0 -209 125 -390.5 t343.5 -316.5t512 -212t631.5 -77zM2578 78q-51 135 -100 270t-102 270h-115v-540h-297v1343h403q74 0 154 -13t146.5 -54t109.5 -118t43 -202q0 -88 -20.5 -152.5t-56.5 -110.5t-84 -75.5t-103 -46.5l129 -102l194 -469h-301zM989 1419h791v-241h-492v-287h432v-236h-432 v-581h-299v1345zM2523 1026q0 49 -15.5 81t-40 50.5t-56 25.5t-66.5 7h-84v-340h100q78 4 120 44t42 132z" />
<glyph unicode="&#xe48b;" d="M1139 1421h792v-241h-491v-285h432v-238h-432v-581h-301v1345zM2191 1419h297v-1343h-297v1343zM1845 -248q219 0 425 35t386 99.5t329.5 154.5t257.5 200.5t167 238.5t59 268q0 139 -59 266t-167 237.5t-257.5 201.5t-329.5 155.5t-386 99.5t-425 35q-338 0 -631.5 -78 t-512 -212t-343.5 -315.5t-125 -389.5q0 -209 125 -390.5t343.5 -316.5t512 -212t631.5 -77zM1845 -371q-244 0 -468 40t-418.5 112t-352 173t-270.5 226t-174.5 268.5t-61.5 299.5q0 233 135.5 437t371 356.5t554 239.5t684.5 87q238 0 460 -40t417.5 -113t357.5 -174 t277.5 -226t180 -268.5t64.5 -298.5q0 -156 -64.5 -299.5t-180 -268.5t-277.5 -226t-357.5 -173t-417.5 -112t-460 -40z" />
<glyph unicode="&#xe48c;" d="M2689 797q123 -39 174 -126t51 -198q0 -88 -28.5 -160.5t-80.5 -125t-124 -81t-156 -28.5h-530v1345h477q80 0 152.5 -20.5t128 -63.5t88 -108.5t32.5 -153.5q0 -86 -43 -162.5t-141 -115.5v-2zM2621 487q0 96 -61 140.5t-145 44.5h-119v-369h119q43 0 80.5 8t65.5 29.5 t44 57.5t16 89zM2578 1061q0 39 -15 64.5t-38.5 41t-51.5 21.5t-54 6h-123v-297h114q70 0 119 39t49 125zM772 764q0 135 34 261t102.5 222t174 153.5t246.5 57.5q121 0 209 -26.5t158 -67.5l-76 -205q-51 23 -120.5 37t-129.5 14q-135 0 -205.5 -116.5t-72.5 -315.5 q0 -229 68.5 -354t187.5 -125q31 0 62.5 7t43.5 13v314l-104 18v172h393v-659q-59 -37 -119.5 -59.5t-118 -35t-107.5 -16.5t-87 -4q-154 0 -257.5 55.5t-166 151.5t-89 226t-26.5 282zM1845 -248q219 0 425 35t386 99.5t329.5 154.5t257.5 200.5t167 238.5t59 268 q0 139 -59 266t-167 237.5t-257.5 201.5t-329.5 155.5t-386 99.5t-425 35q-338 0 -631.5 -78t-512 -212t-343.5 -315.5t-125 -389.5q0 -209 125 -390.5t343.5 -316.5t512 -212t631.5 -77zM1845 -371q-244 0 -468 40t-418.5 112t-352 173t-270.5 226t-174.5 268.5 t-61.5 299.5q0 233 135.5 437t371 356.5t554 239.5t684.5 87q238 0 460 -40t417.5 -113t357.5 -174t277.5 -226t180 -268.5t64.5 -298.5q0 -156 -64.5 -299.5t-180 -268.5t-277.5 -226t-357.5 -173t-417.5 -112t-460 -40z" />
<glyph unicode="&#xe48d;" d="M1845 -371q-244 0 -468 40t-418.5 112t-352 173t-270.5 226t-174.5 268.5t-61.5 299.5q0 233 135.5 437t371 356.5t554 239.5t684.5 87q238 0 460 -40t417.5 -113t357.5 -174t277.5 -226t180 -268.5t64.5 -298.5q0 -156 -64.5 -299.5t-180 -268.5t-277.5 -226 t-357.5 -173t-417.5 -112t-460 -40zM1845 -248q219 0 425 35t386 99.5t329.5 154.5t257.5 200.5t167 238.5t59 268q0 139 -59 266t-167 237.5t-257.5 201.5t-329.5 155.5t-386 99.5t-425 35q-338 0 -631.5 -78t-512 -212t-343.5 -315.5t-125 -389.5q0 -209 125 -390.5 t343.5 -316.5t512 -212t631.5 -77zM2615 74q-51 135 -100 270t-102 270h-115v-540h-297v1343h403q74 0 154 -13t146.5 -55t109.5 -118t43 -201q0 -88 -20.5 -152.5t-56.5 -111.5t-84 -77t-103 -46l129 -100l192 -469h-299zM776 764q0 135 34 261t102.5 222t174 153.5 t246.5 57.5q121 0 209 -26.5t158 -67.5l-76 -205q-51 23 -120.5 37t-129.5 14q-135 0 -204.5 -116.5t-73.5 -315.5q0 -229 68.5 -354t187.5 -125q33 0 63.5 7t44.5 13v314l-106 18v172h393v-659q-59 -37 -119.5 -59.5t-117 -35t-106.5 -16.5t-89 -4q-154 0 -257.5 55.5 t-166 151.5t-89 226t-26.5 282zM2558 1022q0 49 -14.5 81t-39 50t-56 24.5t-66.5 6.5h-84v-340h98q80 6 121 46t41 132z" />
<glyph unicode="&#xe48e;" d="M870 764q0 135 34 261t102.5 222t174 153.5t246.5 57.5q121 0 209 -26.5t158 -67.5l-76 -205q-51 23 -120.5 37t-129.5 14q-135 0 -204.5 -116.5t-71.5 -315.5q0 -229 67.5 -354t186.5 -125q33 0 63.5 7t44.5 13v314l-106 18v172h395v-659q-59 -37 -119.5 -59.5t-118 -35 t-107.5 -16.5t-89 -4q-154 0 -257 55.5t-165.5 151.5t-89.5 226t-27 282zM2052 1421h793v-241h-494v-285h436v-238h-436v-342h494v-239h-793v1345zM1845 -248q219 0 425 35t386 99.5t329.5 154.5t257.5 200.5t167 238.5t59 268q0 139 -59 266t-167 237.5t-257.5 201.5 t-329.5 155.5t-386 99.5t-425 35q-338 0 -631.5 -78t-512 -212t-343.5 -315.5t-125 -389.5q0 -209 125 -390.5t343.5 -316.5t512 -212t631.5 -77zM1845 -371q-244 0 -468 40t-418.5 112t-352 173t-270.5 226t-174.5 268.5t-61.5 299.5q0 233 135.5 437t371 356.5t554 239.5 t684.5 87q238 0 460 -40t417.5 -113t357.5 -174t277.5 -226t180 -268.5t64.5 -298.5q0 -156 -64.5 -299.5t-180 -268.5t-277.5 -226t-357.5 -173t-417.5 -112t-460 -40z" />
<glyph unicode="&#xe48f;" d="M1415 659h-377v-581h-297v1345h297v-532h377v532h295v-1345h-295v581zM2916 469q0 -92 -31.5 -169t-93 -132t-152.5 -86t-210 -31t-207 30t-145.5 85t-85 132t-27.5 171v952h297v-923q0 -92 37 -147.5t131 -55.5q98 0 143 56.5t45 146.5v923h299v-952zM1845 -248 q219 0 425 35t386 99.5t329.5 154.5t257.5 200.5t167 238.5t59 268q0 139 -59 266t-167 237.5t-257.5 201.5t-329.5 155.5t-386 99.5t-425 35q-338 0 -631.5 -78t-512 -212t-343.5 -315.5t-125 -389.5q0 -209 125 -390.5t343.5 -316.5t512 -212t631.5 -77zM1845 -371 q-244 0 -468 40t-418.5 112t-352 173t-270.5 226t-174.5 268.5t-61.5 299.5q0 233 135.5 437t371 356.5t554 239.5t684.5 87q238 0 460 -40t417.5 -113t357.5 -174t277.5 -226t180 -268.5t64.5 -298.5q0 -156 -64.5 -299.5t-180 -268.5t-277.5 -226t-357.5 -173t-417.5 -112 t-460 -40z" />
<glyph unicode="&#xe490;" d="M1845 -371q-244 0 -468 40t-418.5 112t-352 173t-270.5 226t-174.5 268.5t-61.5 299.5q0 233 135.5 437t371 356.5t554 239.5t684.5 87q238 0 460 -40t417.5 -113t357.5 -174t277.5 -226t180 -268.5t64.5 -298.5q0 -156 -64.5 -299.5t-180 -268.5t-277.5 -226 t-357.5 -173t-417.5 -112t-460 -40zM1845 -248q219 0 425 35t386 99.5t329.5 154.5t257.5 200.5t167 238.5t59 268q0 139 -59 266t-167 237.5t-257.5 201.5t-329.5 155.5t-386 99.5t-425 35q-338 0 -631.5 -78t-512 -212t-343.5 -315.5t-125 -389.5q0 -209 125 -390.5 t343.5 -316.5t512 -212t631.5 -77zM2570 76q-51 135 -100 270t-103 270h-114v-540h-297v1343h403q74 0 154 -13t146.5 -54t109.5 -118t43 -202q0 -88 -20.5 -152.5t-56.5 -111.5t-84 -76.5t-103 -46.5l129 -100l192 -469h-299zM1415 659h-377v-581h-297v1345h297v-532h377 v532h295v-1345h-295v581zM2513 1024q0 49 -14.5 81t-39 50.5t-56 25.5t-66.5 7h-84v-342h98q80 6 121 46t41 132z" />
<glyph unicode="&#xe491;" d="M1845 -371q-244 0 -468 40t-418.5 112t-352 173t-270.5 226t-174.5 268.5t-61.5 299.5q0 233 135.5 437t371 356.5t554 239.5t684.5 87q238 0 460 -40t417.5 -113t357.5 -174t277.5 -226t180 -268.5t64.5 -298.5q0 -156 -64.5 -299.5t-180 -268.5t-277.5 -226 t-357.5 -173t-417.5 -112t-460 -40zM1845 -248q350 0 659.5 87t534.5 237h-336l-372 608l-9 -2v-606h-299v1343h299v-573h9l391 573h317q-227 150 -535.5 237t-658.5 87q-338 0 -631.5 -78t-512 -212t-343.5 -315.5t-125 -389.5q0 -209 125 -390.5t343.5 -316.5t512 -212 t631.5 -77zM1479 659h-375v-581h-297v1345h297v-532h375v532h297v-1345h-297v581zM3469 748q0 193 -111.5 360.5t-303.5 300.5l-457 -631l461 -690q193 131 302 299t109 361z" />
<glyph unicode="&#xe492;" d="M1176 1419h297v-1343h-297v1343zM2384 76h-303v1104h-289v241h889v-241h-297v-1104zM1845 -248q219 0 425 35t386 99.5t329.5 154.5t257.5 200.5t167 238.5t59 268q0 139 -59 266t-167 237.5t-257.5 201.5t-329.5 155.5t-386 99.5t-425 35q-338 0 -631.5 -78t-512 -212 t-343.5 -315.5t-125 -389.5q0 -209 125 -390.5t343.5 -316.5t512 -212t631.5 -77zM1845 -371q-244 0 -468 40t-418.5 112t-352 173t-270.5 226t-174.5 268.5t-61.5 299.5q0 233 135.5 437t371 356.5t554 239.5t684.5 87q238 0 460 -40t417.5 -113t357.5 -174t277.5 -226 t180 -268.5t64.5 -298.5q0 -156 -64.5 -299.5t-180 -268.5t-277.5 -226t-357.5 -173t-417.5 -112t-460 -40z" />
<glyph unicode="&#xe493;" d="M1260 1419h296v-1343h-296v1343zM1939 1421h297v-1106h496v-239h-793v1345zM1845 -248q219 0 425 35t386 99.5t329.5 154.5t257.5 200.5t167 238.5t59 268q0 139 -59 266t-167 237.5t-257.5 201.5t-329.5 155.5t-386 99.5t-425 35q-338 0 -631.5 -78t-512 -212 t-343.5 -315.5t-125 -389.5q0 -209 125 -390.5t343.5 -316.5t512 -212t631.5 -77zM1845 -371q-244 0 -468 40t-418.5 112t-352 173t-270.5 226t-174.5 268.5t-61.5 299.5q0 233 135.5 437t371 356.5t554 239.5t684.5 87q238 0 460 -40t417.5 -113t357.5 -174t277.5 -226 t180 -268.5t64.5 -298.5q0 -156 -64.5 -299.5t-180 -268.5t-277.5 -226t-357.5 -173t-417.5 -112t-460 -40z" />
<glyph unicode="&#xe494;" d="M1845 -371q-244 0 -468 40t-418.5 112t-352 173t-270.5 226t-174.5 268.5t-61.5 299.5q0 233 135.5 437t371 356.5t554 239.5t684.5 87q238 0 460 -40t417.5 -113t357.5 -174t277.5 -226t180 -268.5t64.5 -298.5q0 -156 -64.5 -299.5t-180 -268.5t-277.5 -226 t-357.5 -173t-417.5 -112t-460 -40zM1845 -248q219 0 425 35t386 99.5t329.5 154.5t257.5 200.5t167 238.5t59 268q0 139 -59 266t-167 237.5t-257.5 201.5t-329.5 155.5t-386 99.5t-425 35q-338 0 -631.5 -78t-512 -212t-343.5 -315.5t-125 -389.5q0 -209 125 -390.5 t343.5 -316.5t512 -212t631.5 -77zM2173 51q-43 0 -94 5t-103.5 14.5t-100.5 25t-87 37.5l76 215q45 -18 91 -28.5t87 -16.5t72.5 -8t48.5 -2q104 0 155.5 36t51.5 128q0 43 -11.5 71.5t-36 49t-62.5 36t-89 31.5q-92 31 -165 62.5t-124 76.5t-77.5 111t-26.5 168 q0 106 40 180t106.5 119t152.5 64.5t178 19.5q39 0 85 -5t94 -15.5t92 -27t81 -36.5q-4 -10 -13 -40t-19.5 -62.5t-19.5 -62.5t-11 -40q-47 18 -96.5 28.5t-90.5 14.5t-71.5 5t-38.5 1q-31 0 -59.5 -6t-51 -21.5t-37 -42t-14.5 -65.5q0 -70 43 -101.5t137 -62.5 q113 -37 191.5 -73.5t129 -87t73 -119t22.5 -166.5q0 -111 -38 -188.5t-105.5 -127t-160.5 -72t-204 -22.5zM1196 1419h297v-1343h-297v1343z" />
<glyph unicode="&#xe495;" d="M1196 1419h297v-1343h-297v1343zM1872 1421h792v-241h-493v-285h436v-238h-436v-342h493v-239h-792v1345zM1845 -248q219 0 425 35t386 99.5t329.5 154.5t257.5 200.5t167 238.5t59 268q0 139 -59 266t-167 237.5t-257.5 201.5t-329.5 155.5t-386 99.5t-425 35 q-338 0 -631.5 -78t-512 -212t-343.5 -315.5t-125 -389.5q0 -209 125 -390.5t343.5 -316.5t512 -212t631.5 -77zM1845 -371q-244 0 -468 40t-418.5 112t-352 173t-270.5 226t-174.5 268.5t-61.5 299.5q0 233 135.5 437t371 356.5t554 239.5t684.5 87q238 0 460 -40 t417.5 -113t357.5 -174t277.5 -226t180 -268.5t64.5 -298.5q0 -156 -64.5 -299.5t-180 -268.5t-277.5 -226t-357.5 -173t-417.5 -112t-460 -40z" />
<glyph unicode="&#xe496;" d="M1087 1419h297v-1343h-297v1343zM2466 639v778h287v-1341h-312l-409 833h-15v-833h-280v1341h338l381 -778h10zM1845 -248q219 0 425 35t386 99.5t329.5 154.5t257.5 200.5t167 238.5t59 268q0 139 -59 266t-167 237.5t-257.5 201.5t-329.5 155.5t-386 99.5t-425 35 q-338 0 -631.5 -78t-512 -212t-343.5 -315.5t-125 -389.5q0 -209 125 -390.5t343.5 -316.5t512 -212t631.5 -77zM1845 -371q-244 0 -468 40t-418.5 112t-352 173t-270.5 226t-174.5 268.5t-61.5 299.5q0 233 135.5 437t371 356.5t554 239.5t684.5 87q238 0 460 -40 t417.5 -113t357.5 -174t277.5 -226t180 -268.5t64.5 -298.5q0 -156 -64.5 -299.5t-180 -268.5t-277.5 -226t-357.5 -173t-417.5 -112t-460 -40z" />
<glyph unicode="&#xe497;" d="M1178 1419h297v-1343h-297v1343zM2789 760q0 -174 -28.5 -302t-96 -213t-179 -127t-275.5 -42h-371v1345h369q104 0 208.5 -19.5t187.5 -88t134 -199.5t51 -354zM2482 768q0 135 -18.5 217t-52 128t-83 61.5t-112.5 15.5h-80v-883h105q78 0 126 32t73.5 92.5t33.5 145.5 t8 191zM1845 -248q219 0 425 35t386 99.5t329.5 154.5t257.5 200.5t167 238.5t59 268q0 139 -59 266t-167 237.5t-257.5 201.5t-329.5 155.5t-386 99.5t-425 35q-338 0 -631.5 -78t-512 -212t-343.5 -315.5t-125 -389.5q0 -209 125 -390.5t343.5 -316.5t512 -212t631.5 -77z M1845 -371q-244 0 -468 40t-418.5 112t-352 173t-270.5 226t-174.5 268.5t-61.5 299.5q0 233 135.5 437t371 356.5t554 239.5t684.5 87q238 0 460 -40t417.5 -113t357.5 -174t277.5 -226t180 -268.5t64.5 -298.5q0 -156 -64.5 -299.5t-180 -268.5t-277.5 -226t-357.5 -173 t-417.5 -112t-460 -40z" />
<glyph unicode="&#xe498;" d="M1845 -371q-244 0 -468 40t-418.5 112t-352 173t-270.5 226t-174.5 268.5t-61.5 299.5q0 233 135.5 437t371 356.5t554 239.5t684.5 87q238 0 460 -40t417.5 -113t357.5 -174t277.5 -226t180 -268.5t64.5 -298.5q0 -156 -64.5 -299.5t-180 -268.5t-277.5 -226 t-357.5 -173t-417.5 -112t-460 -40zM1845 -248q123 0 240 11.5t227 31.5l-100 256q-145 0 -242.5 52.5t-158 144.5t-86 221t-25.5 283q0 156 26.5 283.5t88 219t159 141.5t238.5 50t238.5 -50t159 -141.5t88 -219.5t26.5 -283q0 -129 -17.5 -243t-59.5 -203t-109.5 -149.5 t-165.5 -86.5l122 -97q10 -31 22.5 -61.5t25.5 -61.5q203 59 373.5 151.5t293.5 208.5t191.5 252t68.5 286q0 139 -59 266t-167 237.5t-257.5 201.5t-329.5 155.5t-386 99.5t-425 35q-338 0 -631.5 -78t-512 -212t-343.5 -315.5t-125 -389.5q0 -209 125 -390.5t343.5 -316.5 t512 -212t631.5 -77zM1110 1419h297v-1343h-297v1343zM2212 1200q-63 0 -101 -32.5t-58.5 -93t-28 -142.5t-7.5 -180q0 -104 7.5 -189.5t28 -146t59 -92t100.5 -31.5q61 0 99 33.5t58.5 94t27.5 144.5t7 187q0 98 -7 180t-27.5 141.5t-58.5 93t-99 33.5z" />
<glyph unicode="&#xe499;" d="M1163 1419h299v-1343h-299v1343zM2410 76q-51 135 -100 270t-102 270h-115v-540h-299v1343h404q74 0 153.5 -13t147 -54t110.5 -118t43 -202q0 -88 -20.5 -152.5t-56 -111.5t-84 -76.5t-103.5 -46.5l129 -100q47 -119 96 -235.5t97 -233.5h-300zM2353 1024q0 49 -14.5 81 t-39 50.5t-57 25.5t-67.5 7h-82v-342h98q80 6 121 46t41 132zM1845 -248q219 0 425 35t386 99.5t329.5 154.5t257.5 200.5t167 238.5t59 268q0 139 -59 266t-167 237.5t-257.5 201.5t-329.5 155.5t-386 99.5t-425 35q-338 0 -631.5 -78t-512 -212t-343.5 -315.5t-125 -389.5 q0 -209 125 -390.5t343.5 -316.5t512 -212t631.5 -77zM1845 -371q-244 0 -468 40t-418.5 112t-352 173t-270.5 226t-174.5 268.5t-61.5 299.5q0 233 135.5 437t371 356.5t554 239.5t684.5 87q238 0 460 -40t417.5 -113t357.5 -174t277.5 -226t180 -268.5t64.5 -298.5 q0 -156 -64.5 -299.5t-180 -268.5t-277.5 -226t-357.5 -173t-417.5 -112t-460 -40z" />
<glyph unicode="&#xe49a;" d="M944 328q63 -16 110.5 -22.5t86.5 -6.5q92 0 122.5 49t30.5 166v905h303v-913q0 -96 -15 -179t-59 -144.5t-124 -97.5t-209 -36q-86 0 -162 15.5t-149 50.5zM2232 600v-524h-299v1345h406q61 0 139 -10t147.5 -50t117.5 -120t48 -217q0 -131 -42 -213t-108.5 -129 t-150.5 -64.5t-166 -17.5h-92zM2232 1190v-359h68q41 0 75.5 7.5t60.5 27t40 55t14 95.5q0 55 -14 89t-38.5 52.5t-54.5 25.5t-61 7h-90zM1845 -248q219 0 425 35t386 99.5t329.5 154.5t257.5 200.5t167 238.5t59 268q0 139 -59 266t-167 237.5t-257.5 201.5t-329.5 155.5 t-386 99.5t-425 35q-338 0 -631.5 -78t-512 -212t-343.5 -315.5t-125 -389.5q0 -209 125 -390.5t343.5 -316.5t512 -212t631.5 -77zM1845 -371q-244 0 -468 40t-418.5 112t-352 173t-270.5 226t-174.5 268.5t-61.5 299.5q0 233 135.5 437t371 356.5t554 239.5t684.5 87 q238 0 460 -40t417.5 -113t357.5 -174t277.5 -226t180 -268.5t64.5 -298.5q0 -156 -64.5 -299.5t-180 -268.5t-277.5 -226t-357.5 -173t-417.5 -112t-460 -40z" />
<glyph unicode="&#xe49b;" d="M844 328q66 -16 113 -22.5t85 -6.5q90 0 122 49t32 166v905h301v-913q0 -96 -14.5 -179t-58.5 -144.5t-123.5 -97.5t-210.5 -36q-86 0 -161 15.5t-151 50.5zM2265 49q-145 0 -243.5 52.5t-158 146.5t-85 223t-25.5 281q0 156 27.5 283.5t88 219t158 141.5t238.5 50 t238.5 -50t158 -141.5t87 -219.5t26.5 -283q0 -152 -24.5 -281t-84 -222t-158 -146.5t-243.5 -53.5zM2265 1202q-63 0 -101 -33.5t-58.5 -93t-26.5 -142.5t-6 -181q0 -104 6 -188.5t26.5 -145t58.5 -92t101 -31.5q61 0 99 33.5t58.5 93t27 143.5t6.5 187q0 98 -6.5 180 t-27 142.5t-57.5 94t-100 33.5zM1845 -248q219 0 425 35t386 99.5t329.5 154.5t257.5 200.5t167 238.5t59 268q0 139 -59 266t-167 237.5t-257.5 201.5t-329.5 155.5t-386 99.5t-425 35q-338 0 -631.5 -78t-512 -212t-343.5 -315.5t-125 -389.5q0 -209 125 -390.5 t343.5 -316.5t512 -212t631.5 -77zM1845 -371q-244 0 -468 40t-418.5 112t-352 173t-270.5 226t-174.5 268.5t-61.5 299.5q0 233 135.5 437t371 356.5t554 239.5t684.5 87q238 0 460 -40t417.5 -113t357.5 -174t277.5 -226t180 -268.5t64.5 -298.5q0 -156 -64.5 -299.5 t-180 -268.5t-277.5 -226t-357.5 -173t-417.5 -112t-460 -40z" />
<glyph unicode="&#xe49c;" d="M915 682v-545h-270v1209h270v-515h9l350 515h307l-420 -576l424 -633h-325l-336 547zM1608 1341h286l101 -630l35 -285h8l57 317l103 598h299l110 -632l49 -279h8l33 260l90 651h289l-250 -1204h-329l-105 574l-43 270h-6l-43 -272l-102 -572h-334zM1845 -248 q219 0 425 35t386 99.5t329.5 154.5t257.5 200.5t167 238.5t59 268q0 139 -59 266t-167 237.5t-257.5 201.5t-329.5 155.5t-386 99.5t-425 35q-338 0 -631.5 -78t-512 -212t-343.5 -315.5t-125 -389.5q0 -209 125 -390.5t343.5 -316.5t512 -212t631.5 -77zM1845 -371 q-244 0 -468 40t-418.5 112t-352 173t-270.5 226t-174.5 268.5t-61.5 299.5q0 233 135.5 437t371 356.5t554 239.5t684.5 87q238 0 460 -40t417.5 -113t357.5 -174t277.5 -226t180 -268.5t64.5 -298.5q0 -156 -64.5 -299.5t-180 -268.5t-277.5 -226t-357.5 -173t-417.5 -112 t-460 -40z" />
<glyph unicode="&#xe49d;" d="M1042 1421h297v-1106h496v-239h-793v1345zM2548 1419h303l-363 -1343h-362l-363 1343h312l180 -811l51 -262h10l56 275zM1845 -248q219 0 425 35t386 99.5t329.5 154.5t257.5 200.5t167 238.5t59 268q0 139 -59 266t-167 237.5t-257.5 201.5t-329.5 155.5t-386 99.5 t-425 35q-338 0 -631.5 -78t-512 -212t-343.5 -315.5t-125 -389.5q0 -209 125 -390.5t343.5 -316.5t512 -212t631.5 -77zM1845 -371q-244 0 -468 40t-418.5 112t-352 173t-270.5 226t-174.5 268.5t-61.5 299.5q0 233 135.5 437t371 356.5t554 239.5t684.5 87q238 0 460 -40 t417.5 -113t357.5 -174t277.5 -226t180 -268.5t64.5 -298.5q0 -156 -64.5 -299.5t-180 -268.5t-277.5 -226t-357.5 -173t-417.5 -112t-460 -40z" />
<glyph unicode="&#xe49e;" d="M1073 1421h299v-1106h496v-239h-795v1345zM2437 76h-301v1104h-289v241h887v-241h-297v-1104zM1845 -248q219 0 425 35t386 99.5t329.5 154.5t257.5 200.5t167 238.5t59 268q0 139 -59 266t-167 237.5t-257.5 201.5t-329.5 155.5t-386 99.5t-425 35q-338 0 -631.5 -78 t-512 -212t-343.5 -315.5t-125 -389.5q0 -209 125 -390.5t343.5 -316.5t512 -212t631.5 -77zM1845 -371q-244 0 -468 40t-418.5 112t-352 173t-270.5 226t-174.5 268.5t-61.5 299.5q0 233 135.5 437t371 356.5t554 239.5t684.5 87q238 0 460 -40t417.5 -113t357.5 -174 t277.5 -226t180 -268.5t64.5 -298.5q0 -156 -64.5 -299.5t-180 -268.5t-277.5 -226t-357.5 -173t-417.5 -112t-460 -40z" />
</font>
</defs>
</svg>
